<?xml version="1.0" encoding="utf-8"?>
<!-- Generator: Adobe Illustrator 26.3.1, SVG Export Plug-In . SVG Version: 6.00 Build 0)  -->
<svg version="1.1" id="Layer_1" xmlns="http://www.w3.org/2000/svg" xmlns:xlink="http://www.w3.org/1999/xlink" x="0px" y="0px"
	 viewBox="0 0 200 200" style="enable-background:new 0 0 200 200;" xml:space="preserve">
<style type="text/css">
	.st0{fill:#262422;}
</style>
<g>
	<path class="st0" d="M191.6,75.9c-0.5,2.5-0.9,5.1-1.7,7.6c-1.6,5.3-4.9,9.6-8.8,13.4c-29.8,29.9-59.7,59.8-89.5,89.7
		c-5.6,5.6-12.7,6.7-19.3,2.8c-1.4-0.8-2.6-1.9-3.7-3c-18.1-18.1-36.3-36.2-54.4-54.4c-7-7.1-7-16.1,0-23.2
		c25.5-25.5,51.1-51,76.6-76.5c0.5-0.5,1.2-0.8,1.6-1.4c-12.3-2.8-24.3-5.4-36.7-4.5c-0.1,0.2-0.2,0.4-0.3,0.6
		c1.9,1.2,3.7,2.6,5.7,3.6c3.6,1.8,7.3,3.4,11,5.1c0.5,0.2,1,0.4,1.5,0.6c1.8,0.9,2.4,2.6,1.7,4.1c-0.7,1.5-2.3,2.2-4.1,1.4
		c-2.6-1-5.3-2-7.7-3.3c-4.2-2.3-8.3-4.8-12.2-7.5c-2.8-2-3.6-4.8-2.1-7.1c0.8-1.2,2.1-2.4,3.5-2.8c2.8-0.7,5.8-1.2,8.7-1.2
		c12.8,0.1,25.3,2.7,37.7,5.8c14.6,3.6,29.1,8,42.7,14.5c4.2,2,8.2,4.2,11.3,7.9c2.8,3.3,2,7-2,8.6c-1.6,0.6-3.4,0.9-5.2,1.1
		c-1.7,0.2-3-1-3.2-2.7c-0.2-1.5,0.8-2.9,2.4-3.3c0.9-0.2,1.7-0.4,2.8-1c-3.1-1.8-6.2-3.7-9.3-5.5c-2.9,3.4-2.5,9.5,0.3,13.2
		c3.3,4.6,8.9,6.2,14.3,4.3c4.9-1.8,8-6.7,7.7-12.3c-0.3-5.1-4.3-9.7-9.5-10.9c-0.9-0.2-1.9-0.2-2.8-0.4c-2-0.4-2.9-1.5-2.7-3.3
		c0.2-1.6,1.4-2.8,3.2-2.7c1.8,0.1,3.6,0.3,5.2,0.9c8.6,2.6,13.8,11.1,12.6,20.3c-1.1,8.3-8.9,15.2-17.5,15.5
		c-13.2,0.5-22.6-13.3-17.4-25.4c0.2-0.5,0.4-1,0.8-1.7c-4.3-1.6-8.4-3.3-12.7-4.6c-6.3-2-12.6-3.8-18.9-5.7
		c-1.1-0.3-1.9-0.2-2.8,0.7C71.8,60,45.1,86.6,18.5,113.2c-4.5,4.5-4.5,9.8,0,14.3c18.2,18.2,36.4,36.4,54.6,54.6
		c4.4,4.4,9.9,4.4,14.3,0c29.8-29.8,59.5-59.6,89.3-89.4c4.2-4.3,7.6-9,8.4-15.1c0.2-1.7,0.3-3.4,0.3-5.2c0-15.7,0-31.4,0-47.1
		c0-5-2.4-8.5-6.5-9.7c-1.2-0.3-2.5-0.5-3.7-0.5c-15.6,0-31.3,0-46.9,0c-7.4,0-13.8,2.2-19,7.5c-0.3,0.3-0.6,0.6-0.9,0.8
		c-1.5,1.2-3.2,1.1-4.3-0.2c-1.2-1.3-1.2-3.1,0.2-4.3c2.7-2.3,5.5-4.6,8.5-6.4c4.2-2.6,8.9-3.5,13.8-3.5c16.5,0,33.1,0,49.6,0
		c7.9,0,14,5.4,15.2,13.3c0,0.2,0.2,0.4,0.3,0.6C191.6,40.6,191.6,58.3,191.6,75.9z"/>
	<path class="st0" d="M117.7,191.9c-4.5-1-8-3.8-11.7-6.2c-1.9-1.2-2.4-3-1.4-4.5c1-1.6,2.8-1.9,4.7-0.7c1.8,1.1,3.5,2.3,5.2,3.4
		c5.2,3.4,10.5,2.1,13.7-3.2c5.6-9.5,11.1-18.9,16.7-28.4c5.8-9.8,11.5-19.7,17.3-29.5c0.3-0.5,0.6-1,1-1.5c1.1-1.3,2.4-1.5,3.8-0.7
		c1.4,0.8,1.8,2.1,1.3,3.5c-0.2,0.7-0.6,1.3-1,1.9c-11,18.8-22,37.5-32.9,56.3c-2.8,4.9-6.6,8.3-12.1,9.6
		C120.8,191.9,119.3,191.9,117.7,191.9z"/>
</g>
</svg>
