<?xml version="1.0" encoding="utf-8"?>
<!-- Generator: Adobe Illustrator 26.3.1, SVG Export Plug-In . SVG Version: 6.00 Build 0)  -->
<svg version="1.1" id="Layer_1" xmlns="http://www.w3.org/2000/svg" xmlns:xlink="http://www.w3.org/1999/xlink" x="0px" y="0px"
	 viewBox="0 0 200 200" style="enable-background:new 0 0 200 200;" xml:space="preserve">
<style type="text/css">
	.st0{fill:#262422;}
</style>
<g>
	<path class="st0" d="M102.5,90.6c-0.4,0-0.8,0-1.2,0c-6.6,0-13.2,0-19.8,0c-1.6,0-2.9-1.1-3.1-2.7c-0.2-1.4,0.8-2.8,2.2-3.2
		c0.4-0.1,0.8-0.1,1.2-0.1c6.5,0,12.9,0,19.4,0c0.4,0,0.7,0,1.4,0c-0.6-1-1-1.9-1.6-2.6c-1.8-2.3-4.3-3.4-7.1-3.4c-4,0-8.1,0-12.1,0
		c-2,0-3.4-1.3-3.3-3c0-1.7,1.4-2.9,3.4-2.9c12,0,24,0,36,0c1.9,0,3.3,1.2,3.3,3c0,1.7-1.4,3-3.3,3c-3.8,0-7.7,0-11.5,0
		c0.9,2,1.7,3.9,2.7,6c2.4,0,5,0,7.6,0c0.5,0,0.9,0,1.4,0c1.7,0,3,1.4,3,3c0,1.6-1.3,3-3,3c-3.1,0-6.1,0-9.2,0
		c-0.4,1-0.7,2.1-1.1,3.1c-2.7,5.7-7.3,8.7-13.7,8.9c-1.9,0.1-3.8,0-5.8,0c0.2,0.3,0.3,0.5,0.4,0.6c6.5,7.7,13.1,15.4,19.6,23.1
		c0.7,0.8,1.3,1.7,1.1,2.9c-0.2,1.3-0.9,2.1-2.1,2.5c-1.2,0.4-2.3,0-3.1-1c-1.8-2.1-3.5-4.2-5.3-6.2c-6.3-7.4-12.5-14.8-18.8-22.2
		c-0.8-0.9-1.5-1.8-1.3-3.1c0.2-1.6,1.4-2.6,3-2.6c4.1,0,8.1,0,12.2,0c3.8-0.1,6.6-1.8,8.3-5.2C102.3,91.1,102.4,90.9,102.5,90.6z"
		/>
</g>
<g>
	<path class="st0" d="M173.6,195.1c-1.2-0.4-2.5-0.7-3.6-1.2c-6.2-2.6-9.9-7.2-11.4-14c-0.6,0-1.3,0-2,0c-7.2,0-14.4,0-21.6,0
		c-2.3,0-3.6-1-3.5-2.8c0-1.7,1.3-2.7,3.5-2.7c7.2,0,14.4,0,21.6,0c1.4,0,2.1-0.2,2.5-1.8c1.9-6.8,6.3-11.1,13.1-12.9
		c1.2-0.3,1.4-0.7,1.4-1.8c0-38.3,0-76.7,0-115c0-0.4,0-0.7-0.1-1.2c-0.9-0.3-1.9-0.5-2.8-0.8c-6.1-2.2-10.1-6.4-11.7-12.7
		c-0.4-1.4-0.9-1.6-2.1-1.6c-15.6,0-31.2,0-46.7,0c-22.3,0-44.7,0-67,0c-0.7,0-1.5,0-2.3,0c-1.8,8.2-6.7,13.1-15.1,15
		c0,0.6,0,1.2,0,1.9c0,38,0,76,0,113.9c0,1.4,0.3,1.9,1.7,2.3c7.3,2,11.6,7,13.3,14.6c0.7,0,1.4,0,2.1,0c25.9,0,51.7,0,77.6,0
		c2.3,0,3.5,0.8,3.5,2.6c0.1,1.5-0.9,2.8-2.4,2.9c-0.6,0.1-1.2,0-1.8,0c-25.6,0-51.1,0-76.7,0c-0.7,0-1.5,0-2.3,0
		c-0.7,3.4-2.1,6.5-4.3,9.1c-2.9,3.3-6.6,5-10.7,6.1c-1.8,0-3.7,0-5.5,0c-0.4-0.1-0.8-0.3-1.2-0.4c-6.4-1.7-10.8-5.6-13.1-11.8
		c-0.4-1-0.6-2-0.9-2.9c0-1.8,0-3.7,0-5.5c0.1-0.3,0.3-0.7,0.4-1c1.6-6.5,5.5-10.8,11.7-13.2c1-0.4,2-0.6,2.9-0.8
		c0-39.3,0-78.5,0-117.7c-7.4-1.9-12-5.9-14.1-12.1c-0.3-1-0.6-2-0.9-3c0-1.8,0-3.7,0-5.5c0.1-0.3,0.3-0.7,0.4-1
		c1.8-8,8.8-13.9,16.6-14.1c8.8-0.2,16.1,5,18.3,13.4c0.4,1.4,0.9,1.8,2.3,1.8c38.1,0,76.1,0,114.2,0c1.2,0,1.9-0.2,2.2-1.6
		c2.1-8.6,9.9-14,18.9-13.5c8.1,0.5,15,7.1,16.3,15.6c1.2,8.1-3.9,16.3-11.8,19.2c-1,0.4-2.1,0.6-3.1,0.9c0,0.5-0.1,0.8-0.1,1.2
		c0,38.4,0,76.7,0,115.1c0,1.1,0.3,1.5,1.4,1.8c7.5,2.1,12.3,7,13.5,14.7c1.2,7.3-1.6,13.4-7.7,17.5c-2.1,1.4-4.8,2.1-7.2,3.1
		C177.3,195.1,175.5,195.1,173.6,195.1z M23,11.5c-6.7,0-12.3,5.7-12.3,12.4c0,6.7,5.6,12.3,12.3,12.4c6.8,0,12.5-5.7,12.4-12.5
		C35.4,17.1,29.7,11.5,23,11.5z M176.2,36.2c6.7,0.1,12.4-5.5,12.5-12.2c0.1-6.7-5.4-12.4-12.1-12.6c-6.8-0.2-12.5,5.5-12.6,12.3
		C163.9,30.5,169.5,36.1,176.2,36.2z M35.4,177.2c0.1-6.7-5.5-12.4-12.2-12.5c-6.7-0.1-12.4,5.4-12.5,12.2
		c-0.1,6.7,5.6,12.5,12.3,12.6C29.7,189.6,35.4,184,35.4,177.2z M176.5,164.8c-6.7-0.1-12.4,5.5-12.5,12.2
		c-0.1,6.7,5.6,12.5,12.4,12.5c6.7,0,12.3-5.6,12.4-12.3C188.8,170.5,183.2,164.8,176.5,164.8z"/>
</g>
</svg>
