<?xml version="1.0" encoding="utf-8"?>
<!-- Generator: Adobe Illustrator 26.3.1, SVG Export Plug-In . SVG Version: 6.00 Build 0)  -->
<svg version="1.1" id="Layer_1" xmlns="http://www.w3.org/2000/svg" xmlns:xlink="http://www.w3.org/1999/xlink" x="0px" y="0px"
	 viewBox="0 0 200 200" style="enable-background:new 0 0 200 200;" xml:space="preserve">
<style type="text/css">
	.st0{fill:#262422;}
</style>
<g>
	<path class="st0" d="M192.1,188.5c-1.2,2.4-3.1,3.4-5.8,3.3c-4-0.2-8,0-12.1,0c-3,0-4.8-1.7-4.9-4.8c0-1.2,0-2.4,0-3.9
		c-0.8,0-1.5,0-2.2,0c-13.6,0-27.2,0-40.8,0c-0.5,0-1.1,0.1-1.6,0c-1.5-0.3-2.4-1.3-2.3-2.7c0-1.5,0.9-2.5,2.5-2.6
		c0.6-0.1,1.2,0,1.8,0c13.4,0,26.9,0,40.3,0c0.7,0,1.4,0,2.2,0c0.7-2.5-0.6-5.2,1.4-7.3c2.1-2.1,4.8-1,7.3-1.5c0-46,0-92.1,0-138.3
		c-2.3-0.6-5,0.6-7.1-1.4c-2.2-2.1-1.1-4.7-1.5-7.3c-46.1,0-92.3,0-138.5,0c-0.6,2.3,0.6,5-1.4,7.1c-2.1,2.2-4.8,1.1-7.5,1.5
		c0,0.6,0,1.3,0,2c0,13.5,0,27.1,0,40.6c0,0.6,0,1.2,0,1.8c-0.2,1.6-1.2,2.4-2.7,2.4c-1.4,0-2.4-0.8-2.6-2.3c-0.1-0.6,0-1.2,0-1.8
		c0-13.5,0-26.9,0-40.4c0-0.7,0-1.4,0-2.4c-3.3-0.2-7,0.8-8.6-3.3c0-5.4,0-10.8,0-16.2C9,10,10.1,8.9,11.1,7.8c5.4,0,10.8,0,16.2,0
		c4.1,1.6,3.1,5.4,3.3,8.5c46.3,0,92.5,0,138.8,0c0-3.3-0.8-6.9,3.3-8.5c5.4,0,10.8,0,16.2,0c1.1,1.1,2.2,2.2,3.2,3.2
		c0,5.4,0,10.8,0,16.2c-1.6,4.1-5.4,3.1-8.5,3.3c0,46.2,0,92.3,0,138.5c3.3,0.1,6.9-0.8,8.5,3.3
		C192.1,177.7,192.1,183.1,192.1,188.5z M13.4,24.9c4,0,7.9,0,11.7,0c0-4,0-7.8,0-11.7c-4,0-7.8,0-11.7,0
		C13.4,17.2,13.4,21,13.4,24.9z M186.7,13.3c-4,0-7.9,0-11.7,0c0,4,0,7.8,0,11.6c4,0,7.9,0,11.7,0C186.7,21,186.7,17.2,186.7,13.3z
		 M186.6,186.2c0-4,0-7.8,0-11.6c-4,0-7.8,0-11.7,0c0,3.9,0,7.8,0,11.6C178.8,186.2,182.7,186.2,186.6,186.2z"/>
	<path class="st0" d="M7.9,172.3c1.6-4,5.2-3.2,8.6-3.3c0-0.9,0-1.6,0-2.3c0-26.3,0-52.5,0-78.8c0-0.6,0-1.2,0-1.8
		c0.2-1.5,1.4-2.6,2.8-2.5c1.5,0.1,2.4,0.9,2.6,2.5c0.1,0.7,0,1.3,0,2c0,26.2,0,52.3,0,78.5c0,0.7,0,1.4,0,2.2
		c2.4,0.7,5.2-0.6,7.3,1.4c2.2,2.1,1.1,4.7,1.5,7.5c0.7,0,1.4,0,2.2,0c26.4,0,52.8,0,79.1,0c2.7,0,4.1,0.9,4.1,2.7
		c0,1.8-1.3,2.7-4,2.7c-26.4,0-52.8,0-79.1,0c-0.7,0-1.4,0-2.4,0c0,1.5,0,2.9,0,4.2c-0.1,2.6-1.9,4.4-4.5,4.4c-4.6,0-9.1,0-13.7,0
		c-2.3,0-3.5-1.4-4.5-3.2C7.9,183.1,7.9,177.7,7.9,172.3z M25.1,186.2c0-4,0-7.8,0-11.6c-4,0-7.8,0-11.7,0c0,3.9,0,7.8,0,11.6
		C17.3,186.2,21.1,186.2,25.1,186.2z"/>
	<path class="st0" d="M114.2,156.6c15.3,0.7,29.9,1.4,44.9,2.2c-0.7-14.9-1.4-29.6-2.1-44.6c-0.6,0.5-1,0.7-1.3,1
		c-3.1,3.1-6.2,6.2-9.3,9.3c-1.9,1.9-3.1,1.9-5,0c-11.9-11.8-23.7-23.7-35.6-35.5c-0.4-0.4-1.1-0.9-1.1-1.4c-0.1-1-0.1-2.2,0.4-3
		c0.6-1,1.9-1.3,3-0.7c0.7,0.4,1.2,0.9,1.8,1.5c10.8,10.8,21.6,21.6,32.4,32.4c0.5,0.5,0.9,1,1.4,1.7c3.2-3.2,6.1-6.3,9.2-9.1
		c1-0.9,2.5-1.7,3.9-1.9c2.8-0.4,5.1,1.5,5.4,4.3c0.3,3,0.4,6,0.6,8.9c0.6,12.2,1.2,24.5,1.8,36.7c0.2,3.4-2.4,6-5.8,5.8
		c-14.7-0.7-29.5-1.4-44.2-2.1c-4-0.2-6.3-2.4-5.9-5.8c0.2-1.2,0.9-2.6,1.8-3.5c2.9-3.1,6-6,8.8-8.9c-21.2-21.2-42.3-42.2-63.6-63.5
		c-2.8,2.9-5.8,6-8.9,8.9c-1,1-2.7,1.6-4.1,1.8c-2.5,0.2-4.7-1.6-5-4.2c-0.4-2.9-0.4-5.8-0.6-8.8c-0.5-11.1-1-22.2-1.6-33.3
		c-0.1-1.2-0.2-2.4-0.2-3.6c-0.2-3.6,2.3-6.1,5.9-5.9c14.7,0.7,29.3,1.4,44,2.1c4.2,0.2,6.5,2.4,6.1,5.9c-0.2,1.2-0.9,2.6-1.8,3.5
		c-2.9,3.1-6,6-9.1,9.1c0.5,0.6,1,1.1,1.4,1.5c6,6,12,11.9,17.9,17.9c0.5,0.5,1.2,1.1,1.2,1.7c0,1-0.1,2.3-0.7,2.8
		c-0.6,0.6-1.9,0.6-2.9,0.5c-0.6-0.1-1.1-0.8-1.6-1.3c-6.3-6.3-12.6-12.6-19-18.9c-4.1-4.1-4.1-4.1,0.1-8.3c2.8-2.8,5.7-5.6,8.5-8.4
		c-0.1-0.2-0.1-0.3-0.2-0.5c-14.7-0.7-29.4-1.4-44.4-2.2C41.6,55.6,42.3,70.3,43,85c0.2,0.1,0.3,0.2,0.5,0.3c1.4-1.5,2.8-3,4.3-4.5
		c1.9-2,3.9-3.9,5.9-5.8c1.9-1.9,3.1-1.9,5.2,0.2c15.3,15.2,30.5,30.5,45.8,45.7c6.7,6.6,13.3,13.3,20,19.9c2.2,2.2,2.2,3.3,0,5.5
		C121.3,149.6,118,152.9,114.2,156.6z"/>
	<path class="st0" d="M146.6,105.6c-0.7,0.9-1.1,1.9-1.8,2.3c-0.7,0.4-1.8,0.2-2.7,0c-0.6-0.1-1-0.8-1.5-1.3
		C124.8,90.8,109,74.9,93.1,59.1c-0.4-0.4-0.9-0.8-1.2-1.3c-0.8-1.2-0.6-2.4,0.4-3.4c1-0.9,2.1-1,3.3-0.3c0.4,0.2,0.7,0.6,1.1,0.9
		c16.1,16,32.1,32.1,48.2,48.1C145.5,103.7,146,104.6,146.6,105.6z"/>
	<path class="st0" d="M57.1,91.2c0.5,0.4,1.5,1,2.3,1.8c12.4,12.4,24.9,24.8,37.3,37.2c3.4,3.4,6.8,6.8,10.2,10.2
		c0.5,0.5,1,0.9,1.3,1.5c0.8,1.2,0.6,2.3-0.4,3.3c-0.9,1-2.1,1.1-3.3,0.5c-0.5-0.3-0.8-0.7-1.2-1c-16-16-32.1-32-48.1-48
		c-0.5-0.5-0.9-1-1.2-1.5C53.2,93.2,54.7,91.1,57.1,91.2z"/>
</g>
</svg>
