<?xml version="1.0" encoding="utf-8"?>
<!-- Generator: Adobe Illustrator 26.3.1, SVG Export Plug-In . SVG Version: 6.00 Build 0)  -->
<svg version="1.1" id="Layer_1" xmlns="http://www.w3.org/2000/svg" xmlns:xlink="http://www.w3.org/1999/xlink" x="0px" y="0px"
	 viewBox="0 0 200 200" style="enable-background:new 0 0 200 200;" xml:space="preserve">
<style type="text/css">
	.st0{fill:#FFFFFF;}
	.st1{fill:#006858;}
	.st2{opacity:0.4;fill:#006858;}
	.st3{fill:#242424;}
</style>
<circle class="st0" cx="100" cy="100" r="96.4"/>
<g>
	<path class="st3" d="M37,144.5c0.7-2.5,2.5-4,4.6-5.4c4.4-2.8,8.8-5.6,13-8.7c3.9-2.9,7.6-6.3,11.4-9.4c5.4-4.4,10.7-8.9,16.1-13.2
		c3.1-2.4,6.6-4.1,9.4-6.9c0.8-0.8,2-0.7,2.7,0.1c0.8,0.8,0.8,2-0.2,2.8c-1.5,1.4-3.1,2.6-4.6,3.9c-0.4,0.4-0.9,1-1,1.5
		c-0.7,2.9-0.4,5.8,0.9,8.5c1,2.2,2.6,3.7,4.8,4.5c3.2,1.3,6.5,1.6,9.9,1.7c6.5,0.1,13,0.5,19.4,0.9c1.8,0.1,2.3,0.9,2.2,2.7
		c-0.3,2.8-0.6,5.6-1,8.5c2,0,4,0,6,0c0.2,0,0.5-0.5,0.6-0.8c0.8-3.7,1.6-7.5,2.3-11.2c0.6-3.4-1.1-6.2-4.3-7.4
		c-4.5-1.6-9-3-13.7-3.7c-1.9-0.3-3.7-0.9-5.6-1.2c-3.4-0.6-6.9-1.2-10.3-1.7c-1.5-0.2-2.3-1.1-2.1-2.2c0.2-1.2,1.2-1.8,2.7-1.6
		c1.2,0.2,2.4,0.2,3.6,0.5c1.8,0.5,3.3-0.1,4.8-1c2.8-1.9,5.7-3.6,8.5-5.4c3.6-2.4,6.3-5.6,8.4-9.3c1.2-2.1,1.3-3.7,0.3-5.9
		c-0.6,0.8-1,1.4-1.6,2c-1.1,1.1-2.2,1.2-3.1,0.3c-0.8-0.9-0.7-2,0.4-3.1c11.6-11.6,23.1-23.1,34.7-34.7c0.3-0.3,0.7-0.7,1-1.1
		c1-1.3,0.9-3-0.2-4.1c-1.1-1.2-2.8-1.3-4.2-0.4c-0.5,0.3-0.9,0.7-1.5,0.8c-0.9,0.2-1.6-0.2-2-1.1c-0.4-0.9-0.2-1.7,0.5-2.3
		c1.9-1.8,4.1-2.4,6.6-1.7c2.6,0.7,4.3,2.3,5.1,4.9c0.7,2.4,0.1,4.7-1.6,6.6c-0.4,0.5-0.9,0.9-1.4,1.4c-9.6,9.6-19.2,19.2-28.8,28.7
		c-0.7,0.7-0.8,1.2-0.4,2.1c1.4,2.9,1.2,5.8-0.2,8.6c-2.1,4.2-5,7.8-8.8,10.6c-2.6,1.9-5.3,3.5-7.9,5.2c-0.2,0.1-0.3,0.2-0.7,0.5
		c3.1,0.6,6,1,8.9,1.8c3.6,1,7.3,2,10.8,3.4c4.6,1.8,6.9,6.7,5.8,11.7c-1.7,8.3-3.4,16.7-5.2,25c0,0.2,0,0.3-0.1,0.6
		c1.2,0.3,2.3,0.7,3.5,0.9c3.1,0.7,5.3,2.5,6.5,5.5c0.1,0.3,0.8,0.6,1.2,0.6c5.2,0,10.4,0,15.6,0c2,0,2.9,0.6,2.9,1.9
		c0,1.3-0.9,2-2.9,2c-39.7,0-79.3,0-119,0c-1.2,0-2.1-0.3-2.8-1.2c0-0.5,0-1,0-1.5c1-1.7,2.8-1.1,4.3-1.3c-0.5-1.1-0.9-2-1.3-2.9
		c-1-2.6-2-5.2-3.1-7.7C37,146.3,37,145.4,37,144.5z M53.4,157.8c21.8,0,43.5,0,65.4,0c-1-2.2-0.6-4.3,0.1-6.4
		c0.2-0.5,0.2-1,0.3-1.5c0.7-5.4,1.3-10.9,1.9-16.3c0.2-1.6,0.4-3.3,0.6-5.2c-6-0.2-11.7-0.4-17.5-0.5c-3.1,0-6.1-0.2-9-1.1
		c-0.4-0.1-1-0.1-1.4,0.1c-7.1,3.2-14.2,6.4-21.4,9.6c-7,3.1-13.6,6.8-20,11.1c-0.5,0.4-0.7,0.7-0.6,1.4
		C52.4,151.9,52.9,154.8,53.4,157.8z M84.2,111.2c-0.3,0.2-0.5,0.2-0.6,0.3c-8.1,6.8-16.3,13.5-24.4,20.3c-0.2,0.2-0.3,0.6-0.3,0.8
		c0.6,1.7,1.3,3.4,1.9,5.1c9.7-4.4,19.2-8.8,28.8-13.2C85.6,121,84.1,116.5,84.2,111.2z M55.5,134.5c-4.5,3-9,6-13.4,9
		c-1,0.7-1.5,1.8-1,3c1,2.8,2.1,5.7,3.3,8.5c0.9,2,3,3,4.9,2.7c0,0,0-0.1,0-0.1c-0.5-3-1-6-1.5-9c-0.4-2.2-0.3-2.5,1.5-3.6
		c2.7-1.7,5.5-3.5,8.2-5.2C56.9,138,56.2,136.3,55.5,134.5z M124.2,140.1c-0.3,2.4-0.5,4.7-0.8,7c-0.3,2.3-0.8,4.6-1.3,6.9
		c-0.5,2.3,0.7,3.9,3,3.9c3.4,0,6.9,0,10.3,0c0.8,0,1.5,0,2.4,0c-0.7-1.3-1.6-1.9-2.8-2.2c-1.8-0.5-3.6-0.9-5.4-1.4
		c-1.7-0.4-2.2-1.2-1.8-2.9c0.3-1.7,0.7-3.4,1.1-5.1c0.4-2,0.8-4.1,1.3-6.2C128.2,140.1,126.3,140.1,124.2,140.1z"/>
	<path class="st3" d="M116.6,74.4c-1.4-0.7-2.7-1.4-4.1-2.2c-0.2,0.6-0.3,1-0.5,1.5c-1.7,5.9-4.2,11.6-7.3,16.9
		c-0.5,0.9-1.3,1.6-2.3,1.2c-0.6-0.2-1.3-0.9-1.5-1.5c-0.2-0.5,0.2-1.3,0.5-1.9c3.3-5.7,5.8-11.8,7.4-18.2c0.1-0.4,0.1-1-0.2-1.3
		c-2.8-4-3.2-4.7-4.1-9.6c-0.6-0.1-1.2-0.2-1.9-0.3c-3.7-0.8-6.1-4.5-5.1-8.2c0.4-1.5,0.9-2.9,1.5-4.4c1.9-5,8.5-6.1,11.9-1.9
		c0.2,0.2,0.4,0.5,0.6,0.8c5.1-2.2,9.9-1.8,14.2,1.7c4.4,3.5,4.8,8.5,4.4,13.6c0.2,0,0.3,0,0.4,0c3-3,6.1-6,9-9.1
		c2.4-2.5,3.5-5.7,3.7-9.2c0.1-2,0.8-2.9,2.1-2.8c1.3,0.1,1.9,1.1,1.8,3.1c-0.3,4.8-2.1,9-5.5,12.4c-8.3,8.3-16.6,16.6-24.9,24.9
		c-1,1-2.2,1.1-3,0.3c-0.9-0.8-0.8-2,0.2-3.1c0.8-0.8,1.5-1.6,2.3-2.3C116.4,74.7,116.5,74.7,116.6,74.4z M124.6,51.4
		c-2.3-3.3-7-4.5-10.9-2.7c-0.8,0.3-1.1,0.8-1.4,1.6c-0.8,2.6-1.3,5.3-3.4,7.3c-0.1,0.1-0.2,0.4-0.2,0.5c0,2.4,0.6,4.6,2,6.8
		c0.3-0.8,0.6-1.4,0.9-2c0.6-1.2,1.5-1.7,2.6-1.3c1.1,0.4,1.5,1.5,1,2.8c-0.4,1-0.7,2-1.2,2.9c-0.3,0.7-0.3,1.2,0.4,1.5
		c1.7,0.7,3.4,1.5,5.1,2.1c0.3,0.1,0.9-0.1,1.3-0.4c0.4-0.3,0.8-0.7,1.1-1.1c1.5-1.5,3.5-2.8,4.3-4.6c0.8-1.8,0.2-4.2,0.3-6.4
		c0-0.9,0-1.9,0-3.1c-0.5,0.4-0.7,0.6-1,0.8c-2.6,2.1-5.5,3.2-8.9,3.2c-1,0-1.7-0.5-1.9-1.5c-0.2-1,0.2-1.9,1.3-2.2
		c0.5-0.1,1-0.2,1.4-0.2C120.4,55.1,122.8,53.7,124.6,51.4z M108.7,49.3c0-1.9-1-3.1-2.3-3.4c-1.4-0.3-2.9,0.4-3.5,1.8
		c-0.5,1.3-1,2.6-1.4,3.9c-0.4,1.4,0.2,2.7,1.4,3.4c1.2,0.7,3.1,0.4,3.7-0.7C107.5,52.5,108.1,50.6,108.7,49.3z"/>
	<path class="st3" d="M100.4,96.2c0,1.2-1.1,2.3-2.2,2.3c-1.1,0-1.9-0.8-2-1.9c0-1.1,1.1-2.3,2.2-2.3
		C99.5,94.3,100.4,95.1,100.4,96.2z"/>
</g>
</svg>
