<?xml version="1.0" encoding="utf-8"?>
<!-- Generator: Adobe Illustrator 26.3.1, SVG Export Plug-In . SVG Version: 6.00 Build 0)  -->
<svg version="1.1" id="Layer_1" xmlns="http://www.w3.org/2000/svg" xmlns:xlink="http://www.w3.org/1999/xlink" x="0px" y="0px"
	 viewBox="0 0 200 200" style="enable-background:new 0 0 200 200;" xml:space="preserve">
<style type="text/css">
	.st0{fill:#FFFFFF;}
	.st1{fill:#006858;}
	.st2{opacity:0.4;fill:#006858;}
	.st3{fill:#242424;}
</style>
<circle class="st0" cx="100" cy="100" r="96.4"/>
<g>
	<path class="st3" d="M160.7,128.1c-0.6,0.3-1.2,0.6-1.8,1c-16.2,10.2-32.5,20.4-48.7,30.6c-0.8,0.5-1.5,0.6-2.4,0.3
		c-13.9-4.5-27.8-9-41.7-13.4c-1-0.3-2.1-0.4-3.1-0.4c-2.5-0.1-5,0-7.6,0c-0.8,0-1.1,0.3-1.1,1.1c0,1.1,0,2.3,0,3.5
		c-4.9,0-9.7,0-14.6,0c0-1.1,0-2.1,0-3.3c3.7,0,7.3,0,11.1,0c0-9.2,0-18.2,0-27.4c-3.7,0-7.4,0-11.1,0c0-1.2,0-2.3,0-3.4
		c4.8,0,9.6,0,14.5,0c0,1.1,0,2.3,0,3.5c0,0.8,0.2,1.1,1.1,1.1c2.6,0.1,5.1-0.2,7.7-1.3c5.4-2.4,11.2-3.8,17.2-3.8
		c4.5,0,8.8,0.9,12.7,3.4c2.8,1.8,4.5,4.4,5.9,7.2c0.4,0.8,0.9,1,1.7,1c4.3,0,8.7,0.1,13-0.1c4.3-0.1,7.7,1.2,9.2,5.7
		c1.6-0.9,3.2-1.7,4.7-2.6c4.9-2.7,9.7-5.3,14.6-8c6.5-3.5,13.3-1.9,17.6,4c0.3,0.4,0.6,0.7,0.9,1C160.7,128,160.7,128,160.7,128.1z
		 M91.5,139.1c0.6,0,1.1,0,1.5,0c7.3,0,14.6,0,21.9,0c2.8,0,4.6-1.6,4.6-3.9c0-2.1-1.7-4.1-4.6-4c-4.8,0.1-9.5-0.1-14.3,0.1
		c-2.5,0.1-3.9-0.5-4.9-2.9c-1.5-3.7-4.1-6.3-8-7.5c-2.9-0.9-5.8-1.3-8.8-1.1c-4.6,0.3-9.2,1.2-13.4,3c-3.3,1.4-6.6,2.3-10.2,1.9
		c-0.8-0.1-1.1,0.2-1.1,1.1c0,5.4,0,10.7,0,16.1c0,0.8,0.3,1.1,1.1,1.1c2.9,0,5.8,0,8.6,0c0.9,0,1.9,0.2,2.8,0.4
		c13.5,4.3,26.9,8.6,40.3,12.9c1.1,0.4,1.9,0.2,2.8-0.4c14.8-9.3,29.7-18.7,44.5-28c0.3-0.2,0.7-0.5,1-0.7c-2.9-3-7.5-3.6-11.2-1.6
		c-7,3.8-14,7.6-20.9,11.5c-0.4,0.2-0.8,0.6-0.9,1c-1.5,3.1-3.9,4.5-7.3,4.5c-7.4,0-14.9,0-22.3,0c-0.4,0-0.8,0-1.2-0.1
		C91.5,141.3,91.5,140.3,91.5,139.1z"/>
	<path class="st3" d="M88.5,65.5c-2.5,2.2-5,4.2-7.6,6.4c-4-8.5-8-16.9-12-25.5c1.7,0,3.3-0.1,4.8,0c6.7,0.3,13.4,0.6,20.1,0.9
		c3.7,0.2,7.3,0.3,11,0.5c0.4,0,0.9,0.3,1.3,0.7c2.2,2.1,4.4,4.2,6.7,6.4c5.3-5.2,10.6-10.3,15.9-15.4c5.8,4.5,11.6,8.9,17.5,13.5
		c-1.5,0.2-2.7,0.5-4,0.7c-4.6,0.7-9.1,1.3-13.7,2c-0.7,0.1-1.1,0.4-1.2,1.1c-0.7,3.4-1.4,6.9-2.2,10.3c-0.2,0.7-0.6,1.5-1.2,2
		c-8.1,7.1-16.1,14.1-24.3,21.1c-1,0.8-1,1.4-0.4,2.4c3.1,5.6,6.1,11.3,9.1,17c0.2,0.3,0.3,0.6,0.6,1.1c-8.5-1.3-16.8-2.5-25.3-3.8
		c0.3-1.6,0.5-3.1,0.8-4.5c1.4-7.8,2.8-15.5,4.2-23.3c0.1-0.5,0.4-1,0.8-1.4c1.8-1.7,3.6-3.4,5.5-5.2C92.7,70.2,90.6,67.9,88.5,65.5
		z M106.2,80c4.9-4.3,9.7-8.5,14.7-12.8c-5.4-5.2-10.8-10.3-16.2-15.4c-4.6,3.9-9,7.6-13.5,11.5C96.2,68.9,101.1,74.4,106.2,80z
		 M82.1,66.5c6.1-5.1,12-10.1,17.8-15.1c0-0.1-0.1-0.2-0.1-0.3c-8.4-0.4-16.9-0.7-25.5-1.1C76.9,55.6,79.5,60.9,82.1,66.5z
		 M91.3,84.7c-0.1,0-0.2,0-0.3,0.1c-1.1,6.2-2.2,12.3-3.4,18.5c-0.1,0.8,0.3,0.9,0.9,1c2.4,0.3,4.9,0.7,7.3,1.1
		c2.2,0.3,4.4,0.6,6.9,1C98.9,99,95.1,91.9,91.3,84.7z M97.1,75.1c-1.3,1.2-2.5,2.4-3.7,3.4c-0.9,0.7-1.1,1.3-0.4,2.4
		c0.7,1.1,1.3,2.3,1.9,3.5c0.6,1.2,1.3,2.4,2,3.7c2.3-2,4.4-3.9,6.7-5.8C101.4,79.9,99.3,77.5,97.1,75.1z M115.3,57.3
		c2.4,2.3,4.7,4.4,7.1,6.7c1.2-5.7,2.4-11.2,3.5-16.6c-0.1,0-0.2-0.1-0.3-0.1C122.2,50.5,118.8,53.8,115.3,57.3z M137.4,50.9
		c0-0.1,0.1-0.2,0.1-0.3c-2.5-1.9-5-3.8-7.6-5.9c-0.5,2.6-1,4.9-1.6,7.5C131.5,51.7,134.5,51.3,137.4,50.9z"/>
</g>
</svg>
