<?xml version="1.0" encoding="utf-8"?>
<!-- Generator: Adobe Illustrator 26.3.1, SVG Export Plug-In . SVG Version: 6.00 Build 0)  -->
<svg version="1.1" id="Layer_1" xmlns="http://www.w3.org/2000/svg" xmlns:xlink="http://www.w3.org/1999/xlink" x="0px" y="0px"
	 viewBox="0 0 200 200" style="enable-background:new 0 0 200 200;" xml:space="preserve">
<style type="text/css">
	.st0{fill:#006858;}
	.st1{fill:#FFFFFF;}
	.st2{opacity:0.4;fill:#006858;}
</style>
<circle class="st0" cx="100" cy="100" r="77.9"/>
<path class="st1" d="M94.6,105.5c-0.6,0-1.1-0.1-1.5-0.1c-6.5,0-12.9,0-19.4,0c-3,0-5-1.4-5.7-3.9c-0.9-3.1,1.2-6.4,4.4-6.7
	c0.6-0.1,1.2-0.1,1.8-0.1c6.3,0,12.5,0,18.8,0c0.5,0,1,0,1.7,0l10.8,0c0.6,0,1.1,0,1.6,0c6.5,0,12.9,0,19.4,0c3.6,0,6,2.4,5.9,5.7
	c-0.1,2.4-2,4.6-4.4,4.9c-0.7,0.1-1.3,0.1-2,0.1c-6.3,0-12.5,0-18.8,0c-0.5,0-1,0-1.6,0L94.6,105.5z"/>
<g>
	<path class="st2" d="M100,8.3C49.3,8.3,8.3,49.3,8.3,100c0,50.7,41.1,91.7,91.7,91.7c50.7,0,91.7-41.1,91.7-91.7
		C191.7,49.3,150.7,8.3,100,8.3z M100,187.3c-48.2,0-87.3-39.1-87.3-87.3c0-48.2,39.1-87.3,87.3-87.3c48.2,0,87.3,39.1,87.3,87.3
		C187.3,148.2,148.2,187.3,100,187.3z"/>
</g>
<path class="st1" d="M94.6,94.6c0-0.6,0.1-1.1,0.1-1.5c0-6.5,0-12.9,0-19.4c0-3,1.4-5,3.9-5.7c3.1-0.9,6.4,1.2,6.7,4.4
	c0.1,0.6,0.1,1.2,0.1,1.8c0,6.3,0,12.5,0,18.8c0,0.5,0,1,0,1.7l0,10.8c0,0.6,0,1.1,0,1.6c0,6.5,0,12.9,0,19.4c0,3.6-2.4,6-5.7,5.9
	c-2.4-0.1-4.6-2-4.9-4.4c-0.1-0.7-0.1-1.3-0.1-2c0-6.3,0-12.5,0-18.8c0-0.5,0-1,0-1.6L94.6,94.6z"/>
</svg>
