<?xml version="1.0" ?><!DOCTYPE svg  PUBLIC '-//W3C//DTD SVG 1.1//EN'  'http://www.w3.org/Graphics/SVG/1.1/DTD/svg11.dtd'><svg height="512px" style="enable-background:new 0 0 512 512;" version="1.1" viewBox="0 0 512 512" width="512px" xml:space="preserve" xmlns="http://www.w3.org/2000/svg" xmlns:xlink="http://www.w3.org/1999/xlink"><g id="paypal_x2C__card_x2C__income_x2C__pattern_x2C__paying_x2C__payment"><g><path d="M495.951,389.953c0,8.835-7.123,16.051-15.959,16.051H32.008    c-8.836,0-15.959-7.216-15.959-16.051V122.047c0-8.836,7.123-16.051,15.959-16.051h447.984c8.836,0,15.959,7.215,15.959,16.051    V389.953z" style="fill-rule:evenodd;clip-rule:evenodd;fill:#1C3763;"/><path d="M236.883,232.781c-1.713,0-3.969,1.35-5.046,2.977    c0,0-11.461,19.655-12.533,21.639c-0.635,1.079-1.27,0.358-1.356,0c-0.086-0.542-3.518-21.46-3.518-21.46    c-0.357-1.714-2.163-3.155-4.418-3.155h-7.123c-1.713,0-2.797,1.441-2.342,3.063c0,0,5.41,30.931,6.488,38.232    c0.543,3.969-0.092,4.695-0.092,4.695l-7.037,12.348c-1.078,1.714-0.443,3.069,1.27,3.069h8.207c1.714,0,3.968-1.355,5.047-3.069    l31.831-53.834c0,0,2.977-4.596,0.179-4.504C244.548,232.781,236.883,232.781,236.883,232.781L236.883,232.781z" style="fill-rule:evenodd;clip-rule:evenodd;fill:#FFFFFF;"/><path d="M136.429,243.688c-2.434,1.72-5.767,2.619-10.099,2.619    h-1.984c-1.713,0-2.791-1.355-2.434-3.069l2.434-10.37c0.364-1.62,2.076-2.976,3.79-2.976h2.612c3.068,0,5.409,0.45,6.944,1.534    c1.62,0.992,2.348,2.612,2.348,4.781C140.04,239.454,138.863,241.889,136.429,243.688 M153.657,227.729    c-0.998-1.984-2.44-3.518-4.338-4.688c-1.978-1.263-4.326-2.077-6.938-2.613c-2.704-0.449-5.865-0.72-9.471-0.72h-16.68    c-1.712,0-3.426,1.349-3.789,3.062l-11.27,48.874c-0.357,1.713,0.721,3.068,2.434,3.068h7.937c1.806,0,3.519-1.355,3.876-3.068    l2.797-11.897c0.357-1.627,2.07-2.977,3.783-2.977h2.256c9.741,0,17.314-1.99,22.816-6.045c5.41-3.968,8.115-9.292,8.115-15.78    C155.186,232.061,154.735,229.626,153.657,227.729L153.657,227.729z" style="fill-rule:evenodd;clip-rule:evenodd;fill:#FFFFFF;"/><path d="M192.155,234.673c-2.97-1.713-7.752-2.526-14.246-2.526    c-3.241,0-6.402,0.271-9.649,0.721c-2.434,0.364-2.612,0.457-4.146,0.813c-2.976,0.628-3.519,3.697-3.519,3.697l-0.899,3.968    c-0.542,2.612,0.899,2.526,1.528,2.256c1.355-0.364,2.076-0.813,4.781-1.355c2.526-0.629,5.323-1.079,7.48-1.079    c3.16,0,5.595,0.357,7.222,1.079c1.62,0.727,2.427,1.897,2.427,3.61c0,0.357,0,0.807-0.086,1.078    c-0.179,0.363-0.449,0.635-1.171,0.721c-4.597,0.364-7.844,0.728-11.817,1.355c-3.87,0.543-7.296,1.442-10.093,2.705    c-3.068,1.355-5.324,3.155-6.951,5.502c-1.527,2.256-2.248,5.047-2.248,8.295c0,3.068,1.078,5.588,3.247,7.571    c2.162,1.984,5.053,2.891,8.478,2.891c2.071,0,3.784-0.18,4.955-0.45c1.17-0.276,2.526-0.727,3.881-1.355    c0.986-0.363,2.07-0.991,3.241-1.806c1.171-0.721,1.984-1.35,3.069-1.983v0.093l-0.271,1.263l0,0l0,0    c-0.357,1.62,0.542,2.884,2.07,3.063h0.099h0.086l0,0c1.085,0,4.511,0,6.131,0h1.171c0.092,0,0.092,0,0.092-0.087    c1.628-0.186,3.069-1.441,3.427-2.976l5.866-25.158c0.086-0.635,0.265-1.263,0.265-2.076c0.092-0.813,0.178-1.441,0.178-1.893    C196.751,239.005,195.224,236.386,192.155,234.673L192.155,234.673z M178.095,264.698c-0.998,0.635-2.083,1.178-3.161,1.627    c-1.535,0.629-2.884,0.899-4.147,0.899c-1.983,0-3.512-0.271-4.597-0.899c-0.998-0.542-1.533-1.535-1.533-2.977    c0-1.627,0.362-2.889,1.17-3.875c0.808-0.998,1.892-1.719,3.334-2.348c1.54-0.449,3.247-0.813,5.323-1.171    c1.799-0.179,5.41-0.629,5.866-0.629c0.443,0,0.807-0.276,0.536,0.986c0,0.542-1.085,4.782-1.535,6.766    C179.173,263.62,178.451,264.427,178.095,264.698L178.095,264.698z" style="fill-rule:evenodd;clip-rule:evenodd;fill:#FFFFFF;"/><path d="M337.25,234.76c-6.678-3.784-20.295-2.792-28.047-1.079    c-2.977,0.721-3.512,3.697-3.512,3.697l-0.912,3.968c-0.535,2.612,0.912,2.526,1.541,2.342c1.348-0.45,2.07-0.807,4.773-1.441    c2.527-0.536,5.324-0.992,7.488-0.992c3.154,0,5.588,0.363,7.215,0.992c1.621,0.727,2.434,1.897,2.434,3.61    c0,0.45,0,0.807-0.092,1.171c-0.18,0.357-0.451,0.628-1.264,0.721c-4.504,0.271-7.752,0.721-11.719,1.263    c-3.883,0.543-7.309,1.442-10.1,2.791c-3.063,1.355-5.318,3.161-6.852,5.416c-1.535,2.342-2.348,5.047-2.348,8.387    c0,3.063,1.084,5.589,3.246,7.573c7.123,6.314,16.951,1.62,23.631-2.798v0.093l-0.271,1.263c0,0.086,0,0.086,0,0.086l0,0    c-0.363,1.534,0.537,2.89,2.07,2.977h0.086h0.092l0,0c0.992,0,4.512,0,6.133,0h1.17c0.098,0,0.098,0,0.098,0    c1.615-0.179,3.057-1.442,3.426-2.977l5.498-23.623c0.355-1.621,0.898-3.79,0.813-5.59    C341.848,239.091,340.314,236.479,337.25,234.76L337.25,234.76z M323.092,264.698c-0.992,0.635-1.984,1.178-3.068,1.627    c-4.418,1.799-10.549,0.807-9.65-5.502c0.543-3.697,6.045-4.326,9.199-4.775c1.807-0.271,5.41-0.635,5.861-0.722    c0.455,0,0.813-0.276,0.541,0.986c-0.086,0.542-1.084,4.782-1.625,6.766C324.262,263.706,323.449,264.52,323.092,264.698    L323.092,264.698z" style="fill-rule:evenodd;clip-rule:evenodd;fill:#FFFFFF;"/><path d="M281.525,243.872c-2.439,1.713-5.781,2.612-10.105,2.612    h-1.984c-1.713,0-2.885-1.349-2.434-3.062l2.348-10.37c0.357-1.627,2.162-2.977,3.875-2.977h2.619    c3.063,0,5.313,0.536,6.938,1.528c1.529,0.998,2.256,2.618,2.348,4.781C285.129,239.634,283.867,242.066,281.525,243.872     M298.74,227.907c-0.992-1.978-2.525-3.518-4.418-4.688c-1.979-1.258-4.232-2.07-6.943-2.613    c-2.613-0.449-5.768-0.721-9.379-0.721h-16.674c-1.811,0-3.438,1.35-3.881,3.069l-11.185,48.867    c-0.45,1.72,0.635,3.068,2.348,3.068h8.022c1.713,0,3.426-1.349,3.877-3.068l2.705-11.812c0.363-1.714,2.076-3.063,3.789-3.063    h2.348c9.736,0,17.314-1.984,22.725-6.045c5.496-3.968,8.201-9.285,8.201-15.865C300.275,232.239,299.738,229.805,298.74,227.907    L298.74,227.907z" style="fill-rule:evenodd;clip-rule:evenodd;fill:#FFFFFF;"/><path d="M364.844,220.242h-7.223l0,0l0,0    c-2.969,0-3.689,2.619-4.232,4.874l-9.828,44.728c-0.271,1.078-0.357,1.799-0.455,1.978l0,0c-0.266,1.534,0.633,2.798,2.168,2.977    l0,0h7.395c1.619,0,3.246-1.171,3.783-2.792c0-0.092,0.098-0.092,0.098-0.185l10.457-47.248c0.178-0.991,0.537-1.983,0.092-2.976    C366.643,220.784,365.834,220.242,364.844,220.242L364.844,220.242z" style="fill-rule:evenodd;clip-rule:evenodd;fill:#FFFFFF;"/><path d="M375.662,230.163c-1.084,0.271-2.525,0.449-3.426-0.45    c-0.363-0.357-0.541-1.078-0.541-2.076v-4.055h-0.9v-1.171h0.9v-2.169h1.262v2.169h2.705v1.171h-2.705v3.519    c0,0.628-0.092,1.62,0.629,1.983c0.543,0.271,1.441,0.086,1.984-0.093h0.092V230.163L375.662,230.163z" style="fill-rule:evenodd;clip-rule:evenodd;fill:#FFFFFF;"/><path d="M388.553,230.255h-1.256v-4.418c0-0.363,0-0.721-0.094-0.991    c-0.271-2.256-2.525-1.264-3.695-0.364c0,0.092,0,0.179,0.092,0.364c0,0.092,0,0.271,0,0.362v5.047h-1.355v-4.418    c0-0.363,0-0.721,0-0.991c-0.094-0.364-0.094-0.543-0.186-0.722c-0.807-1.355-2.699-0.363-3.512,0.266v5.865h-1.264v-7.844h1.264    v0.899c0.455-0.356,0.813-0.628,1.262-0.813c1.172-0.536,2.891-0.265,3.428,0.992c2.248-1.892,5.316-1.978,5.316,1.719V230.255    L388.553,230.255z" style="fill-rule:evenodd;clip-rule:evenodd;fill:#FFFFFF;"/></g></g><g id="Layer_1"/></svg>