<?xml version="1.0" encoding="utf-8"?>
<!-- Generator: Adobe Illustrator 26.3.1, SVG Export Plug-In . SVG Version: 6.00 Build 0)  -->
<svg version="1.1" id="OBJECTS" xmlns="http://www.w3.org/2000/svg" xmlns:xlink="http://www.w3.org/1999/xlink" x="0px" y="0px"
	 viewBox="0 0 268.8 239.8" style="enable-background:new 0 0 268.8 239.8;" xml:space="preserve">
<style type="text/css">
	.st0{fill:#FFFFFF;}
	.st1{fill:#305145;}
	.st2{fill:none;}
</style>
<g>
	<path class="st0" d="M217.9,49.6c0.3-0.3,0.7-0.6,0.9-1c1.4-1.9,0.6-4.5-1.6-5.2c-1.5-0.5-2.7,0.1-3.7,1.2
		c-4.1,4.1-8.1,8.1-12.2,12.2c-1.3,1.3-1.3,3.4,0,4.7v0c1.3,1.3,3.4,1.3,4.7,0C210,57.5,214,53.6,217.9,49.6z"/>
	<path class="st0" d="M219.5,132.7c-0.2-0.8-0.8-1.7-1.4-2.3c-13.2-13.2-26.4-26.4-39.6-39.6c-0.3-0.3-0.6-0.6-1-1
		c0.4-0.3,0.7-0.6,1-0.9c3.5-3.5,14.7-14.7,18.2-18.2c1.3-1.3,1.3-3.4,0-4.7l0,0c-1.3-1.3-3.4-1.3-4.7,0
		c-3.5,3.5-14.7,14.7-18.3,18.3c-0.3,0.3-0.4,0.7-0.6,1.1c-0.7-0.5-0.9-0.8-1.2-1.1c-13.3-13.3-26.5-26.5-39.8-39.8
		c-0.1-0.1-0.3-0.3-0.4-0.4c-1.1-0.8-2.3-1-3.5-0.3c-1.3,0.6-2,1.8-1.8,3.1c0.2,0.9,0.7,1.8,1.3,2.5C141,62.7,154.2,75.8,167.4,89
		c0.2,0.2,0.6,0.4,0.9,0.5c0,0.2,0,0.3,0,0.5c-0.3,0.3-0.7,0.5-1,0.8c-13.1,13.1-26.3,26.3-39.4,39.4c-0.3,0.3-0.6,0.5-0.8,0.8
		c-1.6,1.9-0.7,4.7,1.7,5.3c1.5,0.4,2.6-0.2,3.6-1.2c13.2-13.2,26.4-26.4,39.6-39.6c0.3-0.3,0.5-0.7,0.9-1.2c0.5,0.6,0.7,0.9,1,1.2
		c13.1,13.1,26.2,26.2,39.4,39.4c0.3,0.3,0.6,0.6,0.9,0.9c1.1,0.8,2.5,0.9,3.7,0.3C219.1,135.4,219.9,134,219.5,132.7z"/>
</g>
<g>
	<path class="st1" d="M70,0.5c-1.4,2-0.9,4.9-2.5,6.7c-1.7,1.8-2.8,2.9-3.7,5.3c-0.1,0.2-1.2,0.1-1.5-0.1c-0.3-0.2-0.9-1.1-0.8-1.5
		c0.6-2.7,1.5-4.7,3.8-6.2c0.8-0.5,1.3-1.1,1-2c-0.2-0.9-0.3-1.6-0.1-2.2H32c0.2,1.7,0.4,3.5,0.1,5.4c-0.1,0.5,1.1,1.4,1.4,2.2
		s0.1,1.7-1,1.3c-1.1-0.4-1.2-0.9-2.1,0.2c-1,1.1-1,3.4-0.7,5c0.3,1.6,1,2.8,2.1,4.1c-0.9,0.7-2.3,1.8-2.9,2.6
		c-0.7,0.7-0.8,1.7-1,2.3c-0.2,0.6,0.1,0.6,0.1,1c0.2,2.6,1.2,4.7,0.1,7.1c-1,2.5,0.3,4.6,0.4,7.1c0,0.3,0,0.7-0.1,0.9
		c-1.6,2.3-0.6,5.6-0.3,7.7c0.3,2.2,0.6,2.8-0.2,4.5c-0.8,1.8-0.1,3.4-0.1,5.2c0,1.8-1.5,3.3-1.1,4.9c0.4,1.6,1,2.2,2.1,2.4
		c1.1,0.2,1-0.2,1.9,0.1c1,0.3,1.6,0.2,1.7,1.6c0.2,1.4-1.9,3-2.8,2.9c-0.9-0.1-1.4-0.3-1.4-0.2c-0.9,3.2,0,5.7,2.7,7.6
		c1,0.7,2.3,0.2,2.8,1.6c0.5,1.4,0.4,2.9-0.3,4.2c-0.7,1.3-0.9,1.8,0.2,3.2c1.1,1.4,2,3.5,1.2,5.5c-0.8,2.1-0.5,3.5,1.3,4.8
		c0.6,0.4,0.8,0.9,0.4,1.3c-1.7,2.3,0.5,3.7-0.1,6.1c-0.3-0.4-0.5-0.8-0.8-1l0.6,1.5c0,0,0,0,0,0c-1.5-2.3-1.5-3.3-2.6-4.5
		c0.3,0.6,0.1,0.7,0.3,1.1c-0.4-1.1-1.6-2.8-2-2.9c0.6,1,1.3,1.7,1.2,2.3c-1.4-1.9-0.5,1.8,0.5,2.4c-2.2-3.6,0.7-0.8-0.4-1.1
		c0.8,1.5,0.6,0.3,1.3,1.5c-0.1,2.1-2.1-2.2-3.3-2.9c0.8,0.9,1.7,2.3,2.2,3.6c-0.4,1.3,1.3,4.9,3.3,8.2c0.1,0.2,0.3,0.4,0.4,0.6
		c-0.1-0.2-0.3-0.4-0.4-0.6c-0.9-1.3-1.1-0.9-1.5-1c1.3,1.9,1,1.9,1,2.8c1,1.1,1.4,1.5,2.2,3c0.5,0.5,0.5-0.3,1.3,0.8
		c0.8,1.2,2.3,3.5,1.2,2.6c0.1,0.1,0.2,0.3,0.3,0.4c0,0,0,0.1,0,0.1c-0.8,1.6-0.8,2.3,1.1,2.5c2,2.6,2.9,5.5,2.7,8.7
		c0,0.4,0,0.8,0,1.1c-1.1-1.5-2.4-2.5-1.5-1.1c0.2-0.1,1,0.9,1.4,1.6l0.1-0.2c0.1,1.3,0.5,2,1.6,2.3c0.1,0.1,0.1,0.3,0.3,0.5
		c-0.3-1,1.6,1.7,1.6,1.3c-0.3-0.5-0.9-1.2-1.5-1.7c0.4,0.1,0.9,0.1,1.6,0.1c1.4,0,2.8,1,3.1,2.6c0.7,0,1.5-0.1,2.3-0.2
		c0.7,0.7,1.1,1.1,0.6,0.6c-0.3-0.3-0.4-0.5-0.5-0.7c0.1,0,0.1,0,0.2,0c0.2,0.1,0.3,0.2,0.5,0.3c-0.1-0.1-0.2-0.2-0.2-0.3
		c0.5-0.1,1-0.1,1.5-0.1c1,1.1,1.6,1.5,2.3,2.1c0,0.8,0,1.7,0,2.7l-0.8-0.8c-0.3,0.2,0.4,1.1,0.8,1.7c0,0.7-0.1,1.4-0.1,2
		c0.7-0.3,1.3-0.7,1.8-1.1c0,0,0,0,0.1,0l0,0c0.1-0.1,0.2-0.2,0.3-0.3c1.3,1.9,1.7,1.2,2.7,2.1c0.6,0.6,1.2,1.2,1.9,1.8
		c0,0.2-0.3,0.3,0.2,0.8c0.4-0.2,0.5-0.3,1.1,0c0.9,0.8,0.3,0.7,1,1.4c0.1-0.1,0.7,0.5,1.2,1c0.4,0,1.7,0.7-0.1-1
		c-0.6-0.3,0.8,1.3-0.2,0.4c-1.2-1.1-1-1.3-1.3-1.8c1,0.5,3.6,3.5,4.6,4.3c-0.5-0.5-0.3-0.6,0.5,0.1c0.1,0.6-0.8-0.3-0.7,0.3
		c1.7,1.7,2.3,1.8,3.7,2.9c0,0.2,0.5,0.6,0.3,0.7c-1.4-0.9,4.4,3.2,5.8,4.2c0,0.1,0.3,0.4,0.3,0.5c-0.9-0.6-1.2-0.3-1.9-0.7
		c-1.1-0.8-2.1-2.2-2.8-2.4c1.7,1.4,2.4,2.3,3.1,3.1c-1.8-1.6-1.1-0.2-2.7-1.3c-0.9-0.8-2.9-3.5-2.6-2.9c0.3,0.3,0.4,0.5,0.3,0.6
		c-2.3-1.9-3.7-3.8-5.2-4.4c1.3,1.2,3,2.6,4.3,3.9c-0.5-0.1-1.3-0.7-2.6-1.7c-0.8-0.8-1.5-1.6-2.2-2.5c-1.1-0.6,0.2,1.5-1.3,0.4
		c1,1,2.9,3.2,3.9,3.6c-1-0.9-1.3-1.4-1.9-2.1c4.1,2.7,4.4,4.8,3.9,5.1c1,0.9,1.8,1.8,2.3,2.5c-0.2,0.5-3.1-2.5-3.1-1.8
		c1,1,1.5,0.7,1.7,1.3c-1.8-1.3,0.3,1.2-1.9-0.6l0.2-0.4c-2.2-2-0.8,0.5-2.4-0.8c-0.4-0.4-2-2-2.1-1.6c-0.2,0.2,2.3,1.9,1.5,1.7
		c-0.1,0.2-1.2-0.9-1.3-0.8c1.2,1.1-0.6-0.2-0.2,0.5c1,0.9,2.6,2.1,2.7,2.9c0.1-0.7,1.3,0.6,0.3-0.8c0.6,0.7,2,2.1,1,1.6
		c3.9,3.3,7.2,6,10.6,8.5c0.4,0.8,1.7,1.9,1.9,2.5c0.1,0.4-1.7-1.1-1.9-0.9c0.5,0.4,0.2,0.3-0.1,0.2c1.5,1.3,2.3,2.2,3.4,3.2
		c-2.6-2.2-1.9-0.8-4.2-2.4c0.4-0.2-3-2.8-3.9-3.2c1.4,1.5,3.6,2.8,3.7,3.5c-1.2-1-3.2-2.5-3.6-2.3c2.3,1.8,2.9,2.8,4.2,4
		c-1-0.6-6.3-5.6-7.4-5.9c2.9,2.5,4.1,4,4.4,5c1.2,1.1,2.3,1.4,2.7,2c-2.2-1.6,1.3,1.6,1.8,1.5c-1.3-0.9-0.7-1.2,0.6-0.2
		c-1-0.4,0,0.6,0.2,1.1c3.1,2.2,5.9,4.1,7.9,4.9c-1.5-0.9-1.8-1.4-2.8-1.8c-1.2-1.4-0.4-1.2-2.4-3c2,1.3,1.9,1.3,3.2,2
		c0.2,0.4-1.4-0.5,0.4,0.6c1.4,0.3,4.3,2.4,5.6,3.6c2.4,1.5,11,5.4,11,6.4c0.7,0.4,1.1,0.5,1.5,0.7c1.7,0.8-1.3-0.8-0.4-0.6
		c0.5,0.3,0.6,0.2,1,0.4c0.5,0.5,1.7,1.7,2.4,1.7c1.2,0,8.9,4.1,12,4.8c0.3,0.4,3.4,2,4,2.1c-0.4-0.2-1.5-1-0.5-0.6
		c1.3,0.4,2.1,1.2,2.5,1.1c-0.3-0.1-0.6-0.3,0-0.1c1.9,0.9,2.1,1.5,3,2.2c0.2,0.4-2.6-0.4-1.1,0.4c1.3,0.1,5.9,2.7,7.2,3.6
		c-2.1-0.7-3.8-0.7-6.2-2c-0.8,0.2-1.6,0-3.6-0.9c1,0.2-0.1-0.4-1-0.9c0.5,0.8-0.2,0.6-0.5,0.1c-0.1,0.5-2.2-0.9-2.1-0.4
		c2.6,1.4,3.1,1,5.1,2.2c-2.6-0.6-6.5-2.7-7.8-2.3c-3-1.3-4-1.8-5.6-2.8c1.3,1.1-2.6-1-3-1.1c-0.6,0.2,1.5,1.1,0.9,1.3
		c1.1,0.5,2.8,1.1,3,1.6c-2.8-1.2-4.8-2.5-7.1-3.4c1,0.7-1.9-0.5-2.6-0.7c0.6,0.3,0.3,0.3,0,0.2c1.1,0.6,1.6,1,2.5,1.6
		c-2.2-0.9,0.4,0.5,0.4,0.8c-0.4,0-2.5-1.3-2.1-0.7c1,0.6,3.8,2.3,4.1,2c-2.6-1.3-0.2-1,1.1-0.5c1.3,1.3,5.8,2.9,6.6,4
		c0.5,0.1,0.9,0,1.6,0.2c2.5,1.3,4.1,2.2,2.5,2.1c1.3,0.5,1.6,0.9,2.1,1.3c-0.7-0.2-4-1.6-4.1-2c-1.3-0.6-1.6-0.5-2.6-1.1
		c-0.8-0.1-1.5-0.2-2.1-0.2c-2.6-1.4-2.6-1-4.6-2.2l-0.1,0.8c1.3,0.8,2.2,0.7,2.6,1.3c-1.6-0.6-2.8-0.7-1.6,0.2
		c-0.8-0.2-1.3-0.5-2.1-1c0.9,0.8,1.4,1.4-0.1,0.9c1.4,0.6,2.2,1.1,2,1.4c1,0.5,1.1,0.4,2.1,0.9c-0.1,0.2,0.1,0.4,0.5,0.7
		c-1.8-0.7-2-0.4-3.2-0.4c0.4,0.2,0.6,0.4,0.5,0.5c2.1,0.7,2.4,1.5,3.7,1.6c1,0.9,0.4,0.8-0.1,0.9c-0.7-0.5-2-1-2.1-0.8
		c2.1,0.9,3.9,1.7,5.3,1.9c0.6,0.4,3.3,1.8,1.6,1.3c0.9,0.7,2.4,1.4,3.7,1.7c-0.5,0.3,3.4,1.6,1.6,1.3c2,0.9,0.5-0.3,2.2,0.4
		c1.4,0.8,4.1,2,7.1,3.1c3.1,1,6.5,1.9,9.3,2.6c-0.3-0.1-1.2-0.4-1.1-0.5c4.9,1.7,11,4.2,14.5,4.1c1.4,0.5-1,0.1,0.6,0.6
		c0-0.1,1,0.1,1.1,0.3c-0.4-0.1-0.7-0.1-0.5,0.1c-1.5-0.4-2.2-0.8-2.2-0.3c3.8,1.1,8.2,2,12.4,3c4.2,0.9,8.3,1.5,11.7,2.2
		c1.5,0.3,3.1,0.1,4.1,0.7c0.1-0.2-0.8-0.3-1.2-0.5c1,0,1.6-0.1,2.8,0c1,0.6,5.4,0.9,8.1,0.9c7,0.9,12.1,0.6,16.8,1.2
		c2.1-0.2,5.9,0,9.6,0.1c3.8,0,7.6-0.2,9.9-0.6c0.7,0,1.4,0,1.2,0.2c2.4,0,0.9-0.6,3.3-0.7c1.3-0.1,0.8,0.3,1.9,0.2
		c1.5-0.4,2.9-0.5,2.1-0.6c1.6,0,2.1,0.2,3.7,0.2c0.8-0.6,3.4-0.3,4.7-0.4c5.1-0.9,11.7-1.8,18.3-3.3V230c-0.8,0.2-1.4,0.4-1.9,0.7
		c-2.1,0-5.5,1-7.3,1.4c-1.8,0-1.9,0.1-4.1,0.5c0.1-0.2-0.9-0.1-1.3-0.1c3.1-1.1,7.7-1.2,12.9-2.6c-6.6,1-9.9,1.5-16,2.3
		c0-0.3-0.3-0.4-1.3-0.3c-2.3,1-12.9,1.6-15.5,1.2c-4,0.4-7.9,1-10.9,0.5c0.8,0.3-6.9,0.6-7.4,0c-0.1-0.2,1.6,0,1.6-0.2
		c-1.6-0.2-4.4,0.3-5.8-0.3c-1.6,0.8-9.7-0.7-13-0.1c-1.6-0.3-1.9-0.6-1.3-0.8c-2.5,0-3.1-0.2-6.8-0.3c-2.8-1.3-13.9-2-16.7-3.4
		c3.4,0.5,8.3,1.3,13.4,1.9c5.2,0.5,10.5,1.1,14.8,0.9c-3.3,0-6.9-1-9.1-0.6c0.4-0.6-4.4-0.8-4.7-1.3c4.6,0.8,12.9,1,14.9,1.9
		c0-0.4-2-0.5-2.5-0.8c4.3,0.1,7.3,1.3,11.4,0.6c-0.5,0.3-0.2,0.3,0.7,0.6c4.7-0.1,10.3,0.2,13.2,0.1c1.9,0,4,0.3,5.9,0.2
		c1.7-0.1,2.7-0.3,4.5-0.4c1.3-0.1,5.8-0.1,4.1,0c2.5-0.1,6-0.3,7.9-0.8c0,0.5,4.9-0.7,4.8-0.2c2.1-0.3,2.1-0.7,4.9-1
		c0.7,0.2,1.7,0.3,3.7,0c2.3-0.6,4.4-1.1,6.9-1.7V0.5H70z M30.8,58.4c-0.1,0-0.5-0.1-0.5-0.2c0-0.1,0.4-0.7,0.5-0.7
		c0.1,0,0.5,0.4,0.6,0.4C31.3,58,30.9,58.4,30.8,58.4z M36.9,64.3c0.2,0.1,0.4,0.3,0.5,0.5c0.1,0.2,0.2,0.6,0.3,1
		C37.5,65.2,37.2,64.7,36.9,64.3z M37.9,50c-0.7-0.1-0.6-1-0.7-1.3c-0.1-0.3,0.1-0.5,0.2-0.7c0-0.2,0.2-0.6,0.3-0.7c0,0,0,0,0,0
		c0,0,0,0,0,0c0,0,0,0,0,0c0,0,0,0,0,0c0.6,0.2,0.6,0.7,0.9,1.3C38.9,49.2,38.6,50.2,37.9,50z M38.6,67.5c0.3,0.1,0.7,0.2,0.8,0.3
		c0.2,0.9,0.4,1.7,0.6,2.6C39.5,69.4,39.1,68.4,38.6,67.5z M40,109.4c-0.3-0.5-0.4-0.9-0.4-1C39.7,108.7,39.9,109.1,40,109.4z
		 M39.9,111c-0.3-0.4-0.6-0.8-0.7-1.2c0.3,0.3,0.5,0.6,0.8,0.9C40,110.8,39.9,110.9,39.9,111z M39.8,109.9c0,0,0.1,0.1,0.2,0.2
		c0,0.1,0.1,0.3,0,0.4C39.9,110.2,39.8,110,39.8,109.9z M46.5,58.8c-0.2-0.1-0.9-1.6-1-1.9c-0.1-0.3,0.7-0.7,0.9-0.7
		c0.2,0,0.7,1.2,0.7,1.3c0,0,0,0,0,0C47.1,57.8,46.7,58.9,46.5,58.8z M56.9,137.3C56.9,137.3,56.9,137.2,56.9,137.3
		c0.1,0,0.1,0,0.1,0c0.1,0.1,0.1,0.2,0.2,0.3C57,137.5,57,137.4,56.9,137.3z M64.1,144.6c0.9,0.9,0.7,1,1.8,1.9
		C65.7,146.8,63.6,144.6,64.1,144.6z M60.9,143.5c0.1-0.1,0.2-0.2,0.3-0.2c0.2,0.3,0.5,0.7,0.8,1.1C62,144.5,61.2,143.6,60.9,143.5z
		 M63.7,145.4c0,0.2-0.2,0-0.4-0.3l-0.7-0.8c0.7,0.4,0-0.2,0.2-0.4c-0.6-0.6-1-0.9-1.2-1.1c0.2-0.2,0.3-0.3,0.5-0.4
		c0.8,0.9,1.1,1.4,0.7,1.5c0.8,0.5,0.9,0.9,1.8,1.9c-0.2,0-0.6-0.3-1.2-0.9C63.3,145,63.5,145.2,63.7,145.4z M66.1,147.3
		C65.6,148,63.2,144.7,66.1,147.3L66.1,147.3z M77.7,131.9c0-0.1,0-0.1,0-0.1c-0.9-0.9-1.2-1-1.2-0.6c0.3,0.3,0.7,0.7,1.1,1
		c-0.1,0.1-0.1,0.2-0.2,0.3c-0.2-0.2-0.5-0.5-0.7-0.8c0,0.1,0.3,0.5,0.7,0.8c0,0,0,0.1,0,0.1c-1.1-0.6-1.9-1.4-2.8-2.4
		c0.1,0,0.2,0,0.3-0.1c0.5-0.1,0.8-0.5,1-0.8c0.8,0.8,1.4,1.6,2,2.3C77.7,131.8,77.7,131.8,77.7,131.9z M74.3,164.2
		c-1-0.8-1.6-1.3-2-1.8c0-0.4,1.2,0.9,1.4,0.7C74.4,163.7,74.5,164,74.3,164.2z M76.2,164.9c1,0.9,1.3,1.2,2,1.9
		C77.8,167,75.9,165.2,76.2,164.9z M80.5,174.8c1.4,1.1,1.7,1.7,2.5,2.4C82.2,177.4,79.4,174.3,80.5,174.8z M89.4,171.4
		c-0.5-0.4-1-0.9-1.4-1.3C88.7,170.2,89.2,170.6,89.4,171.4z M87.6,168.3c-0.1,0-0.1-0.1-0.2-0.1c0-0.2,0.3-0.1,0.6,0.1
		C87.9,168.2,87.8,168.3,87.6,168.3z M87.3,170.1c-0.1-0.1-0.1-0.1-0.2-0.2c0.1,0,0.2,0,0.3,0C87.7,170.3,88,170.6,87.3,170.1z
		 M88.8,167.9c-0.1,0-0.2,0.1-0.3,0.1c-0.8-0.8-1.2-0.9-2.4-1.8C86.1,165.9,87.4,166.9,88.8,167.9z M86.6,168.4c-0.1,0-0.2,0-0.3,0
		c0-0.1,0-0.2,0.1-0.2C86.5,168.2,86.6,168.3,86.6,168.4z M84.2,166.9c1.1,0.8,1.6,1.3,1.6,1.6c0,0-0.1,0-0.1,0c0,0,0,0-0.1,0
		l-1.5-1.2L84.2,166.9z M83.2,161.9l-0.2,0.4c-0.5-0.4-0.7-0.5-0.9-0.5C81.3,161,82.2,161.1,83.2,161.9z M82,166.8
		c0.5-0.1,1.6,0.7,1.5,0.3c1.1,1,0.4,0.6,1.7,1.5c-0.1,0-0.2,0.1-0.2,0.1c-0.2-0.1-0.4-0.2-0.4-0.1c0.1,0.1,0.2,0.1,0.4,0.2
		c0,0.1-0.1,0.1-0.1,0.2c0,0,0,0,0,0C84.2,168.4,83.2,167.6,82,166.8z M86.4,174.8c-1.4-0.9-1.3-1.1-2.2-1.8
		C84.7,173.1,87.1,174.9,86.4,174.8z M83.8,176.4c-0.5-0.4-0.4-0.1-0.6,0c-1.1-0.8-1.3-1.2-2.1-1.9c0.1-0.3,4.5,3.2,3.2,2
		c0.5,0,1.7,1.4,1.7,1.6C85.5,178,83.6,176.6,83.8,176.4z M84.4,178.1c-0.1-0.3,0.4,0,1,0.4c-0.3-0.3-0.8-0.7-1.3-1.2
		c0.1-0.2,1.8,0.9,2.3,1.5C85.6,178.5,85.8,179.1,84.4,178.1z M88.7,182.1c-0.5-0.1-3.4-2.1-2.7-2.1C87.6,181,87.9,181.5,88.7,182.1
		z M89.4,172.1c-1.2-0.7-2.3-1.3-3.2-1.8c0.5,0.5,1.7,1.3,3,2.2c-0.1,0.1-0.1,0.2-0.2,0.3c-1.6-0.9-4-2.8-4.7-3.3
		c-0.3-0.7,1,0.5,1.8,1.1c0-0.2-0.3-0.6-0.7-0.9c0,0,0,0,0,0c0.2,0.1,0.7,0.2,1.1,0.3c0.9,0.6,1.9,1.2,2.9,1.9
		C89.5,171.8,89.5,172,89.4,172.1z M101.4,115.8c0.2,0,0.2-0.1,0.5,0.1c0.3,0.2,0.1,0.8-0.3,0.9c-0.4,0.1-0.4-0.4-0.5-0.5
		C101.1,116.1,101.2,115.8,101.4,115.8z M97.2,123.2c0.2,0.5,0.1,0.8,0.7,1.2c0,0.3-0.6-0.3-1.1-0.7C96.9,123.6,97,123.4,97.2,123.2
		z M96.7,123.9c0.3,0.4,0.6,0.7,0.9,1.1c0.1-0.1,0.1-0.5,0.5-0.1c0.5,1,1.3,1.9,1.5,2.7c-2.1-1.6-1.7-2.1-3.1-3.4
		C96.6,124.1,96.6,124,96.7,123.9z M94,173.3c-0.2-0.1-0.4-0.5-0.4-0.8c0.1,0.1,0.3,0.2,0.4,0.3c-0.1-0.1-0.3-0.3-0.5-0.5
		c0-0.1,0-0.2,0-0.2c0,0,0,0,0,0c-0.1,0-0.2-0.1-0.2-0.1c0,0,0-0.1,0-0.2c0,0-0.1,0,0,0c0,0-0.2,0-0.4-0.1c-0.2-0.2-0.4-0.3-0.7-0.5
		c-0.1-0.3,0.1-0.5,0.3-0.5c0.2,0.1,0.4,0.2,0.5,0.3c0.1,0.1,0.1,0.3,0.2,0.4c-0.1,0-0.2-0.1-0.2-0.1c0.1,0.1,0.2,0.1,0.3,0.2
		c0,0.2,0.1,0.3,0,0.3c0,0,0,0,0,0c0.1,0,0.2,0.1,0.2,0.1c0,0,0,0.1,0,0.2c0,0,0.1,0,0,0c0,0,0.4,0.1,0.8,0.3
		c0.1,0.1,0.2,0.2,0.4,0.3c0,0,0,0,0.1,0.1C94.8,173.2,94.3,173.5,94,173.3z M100.5,133.3c-0.5-0.4-0.9-0.8-1.6-1.2
		c-0.1-0.9-0.8-2-2.2-3.5c-0.7-0.4,0.3,0.7-0.9-0.2c-0.2-0.5-1.4-1.5-1.1-1.7c0.9,0.7,1.3,1.6,1.4,1.1c-0.8-0.7-1.2-1.3-1.7-1.8
		c0.2-0.2,0.3-0.3,0.5-0.5c1,0.7,2,1.5,2.5,2.4c-0.1,0.2-1-0.6-0.9-0.2c1,1,1.5,1.2,2.7,2.4c0.3,0.1,0.6,0.1,0.6-0.2
		c-0.4-0.3-1-0.8-1-1c0.2-0.4,1.3,0.4,2.5,1.4C101.1,131.2,100.7,132.1,100.5,133.3z M101.9,129c-0.1,0.4-0.2,0.7-0.3,1
		c-1.1-1.4-0.7-2-0.2-2.2c-0.8-0.7-1.5-1.4-2.6-2.3c1.4,0.7-0.9-1-1.1-1.6c1.1,0.8,0.5,0.1-0.1-0.7c0.2-0.2,1.3,1,1.5,0.8
		c-0.3-0.5-0.9-1.1-1.3-1.6c0.5-0.9,0.9-1.8,1.5-2.7c0.4-0.6,1.6-0.8,2.1-0.7c0.6,0,0.9,0.7,0.9,1.2
		C102.3,123.1,102.6,125.9,101.9,129z M112,115.5c-0.5-0.2-0.6-0.9,0-0.9c0.6-0.1,0.6,0.5,0.6,0.6
		C112.6,115.2,112.5,115.7,112,115.5z M117.2,105.6c-0.1,0-0.7-0.5-0.7-0.5c0-0.1,0.4-0.4,0.5-0.4c0.1,0,0.5,0.4,0.5,0.5
		C117.5,105.3,117.3,105.6,117.2,105.6z M121.9,97.3c-0.1,0-0.7-0.5-0.7-0.6c0-0.1,0.4-0.4,0.4-0.4c0.1,0,0.5,0.5,0.5,0.5
		C122.2,97,122,97.3,121.9,97.3z M122.1,205.1c-1.5-0.7-1.5-1-2.5-1.6c-0.2-0.5,2.4,1,2.6,0.8C123,204.7,121.6,204.6,122.1,205.1z
		 M130.1,213.7c-2.3-0.7,1.1,1.5-2.7-0.1C127.4,213,127.5,212.6,130.1,213.7z M126,210.2c1.7,0.6,0.4,0.5,2.1,1.1
		c-0.4,0-1.1-0.3-2.1-0.7L126,210.2z M121.3,208.7c2,1.2,2.7,2.1,4.6,3.3c-2.1-0.7-2.8-0.8-4.7-1.9c-0.6-0.2-1.4-0.4-0.5,0
		c1.3,0.8-1.7-0.8-2.1-1C119.6,208.8,119.6,208.4,121.3,208.7z M118.3,211.1l-1.6-0.7c-0.2-0.3,1.7,0.2-0.5-0.7
		c0.2-0.1,1.3,0.5,2.1,0.8C117.4,210.3,118.3,210.8,118.3,211.1z M118.4,210.3c1,0.2,3.2,1.1,3.7,0.9c1.1,0.6-0.4,0.5-0.6,0.6
		C119.9,211.2,119.6,210.9,118.4,210.3z M123.1,213.9c-1.1-0.5-0.7-0.6-2.1-1.2c1,0.3,1.9,0.5,3.2,1
		C124.5,214.3,122.3,213.1,123.1,213.9z M129.5,216.8c-0.8-0.4-4.1-1.5-4.9-1.6c0.1-0.6,4.3,1,5.9,1.6
		C130.5,217.1,128.1,216,129.5,216.8z M137.8,205.8c-4.7-0.9-3.4-1.9-3.6-1.9c-0.1-0.1,0.2,0,0.5,0.1l0-0.2c1.3,0.6,1.7,1.1,3,1.7
		C137.8,205.6,135.6,205,137.8,205.8z M138.3,207c1.6,0.4,2.1,1.2,2.6,1.1c1.5,0.7-1.2-0.3-0.5,0.3
		C139.5,207.9,138.3,207.4,138.3,207z M132.5,206.7c2,0.7,1.9,0.6,3.1,1.3C135.6,208.4,131.9,207,132.5,206.7z M132.8,216.8
		c-1.5-0.9,1.6,0,3.8,1C136.7,218.3,133.2,216.6,132.8,216.8z M143.7,221.8c0-0.3-0.9-0.5,0-0.5l-1.1-0.4
		C141.7,220.3,148.1,223.2,143.7,221.8z M139.8,219.4c0.1-0.3,1.8,0.4,3.3,0.8C142.4,220.3,141.3,220,139.8,219.4z M140.6,218.1
		c-2.7-0.9-5.1-1.8-6.7-1.9c-1.7-0.5-0.4-0.5-2.1-1c0.9-0.2,1.6-0.2,2.7-0.4c2.7,1.5,5.3,1.8,7.5,2.4c1.6,0.6,1.9,1,4.3,1.6
		c-0.1,0.5-1.6-0.4-3.2-0.7c0.6,1,3.8,1.4,5.5,2.2C146.1,219.9,143.2,218.9,140.6,218.1z M149.7,223.4c1.3,0.1,1,0.5,2.8,0.9
		C152.5,224.7,149.2,223.7,149.7,223.4z M252.7,232.3c3.9,0-2.5,1.2-4.3,1.2c0.7,0,0.2-0.5-0.6-0.1c-0.9,0,0.1-0.2-0.8-0.4
		C249.7,232.9,251.7,232.9,252.7,232.3z M240.8,233.8c-3.5,0.4-7.7,0.9-10.8,0.8C231.7,234,238.3,233.6,240.8,233.8z M224.8,235
		c0,0.3-2.1,0.3-2.9,0.1C222.4,235,223.9,234.9,224.8,235z M172.7,228.9l-2.3-0.5C170,227.8,173.1,228.5,172.7,228.9z M177.8,229.8
		c0.3,0.6-2.6-0.2-4-0.6C174.1,228.9,176.6,229.5,177.8,229.8z M192.4,230.5c-1.7,0.4-6.9-0.7-10.7-1.1c0.6-0.2,2.5-0.1,4.7,0.3
		C188.5,229.9,190.9,230.3,192.4,230.5z"/>
	<path class="st2" d="M101.2,191c-0.2,0.1-1.9-1-1.5-0.4C101.1,191.6,102.5,191.9,101.2,191z"/>
	<path class="st2" d="M65.4,2.7c0.2,0.9-0.2,1.5-1,2c-2.3,1.5-3.3,3.5-3.8,6.2c-0.1,0.4,0.5,1.2,0.8,1.5c0.3,0.2,1.4,0.3,1.5,0.1
		c0.9-2.4,2-3.5,3.7-5.3c1.6-1.7,1.1-4.6,2.5-6.7h-3.8C65.1,1,65.1,1.7,65.4,2.7z"/>
	<path class="st2" d="M131.8,216.8c0.5-0.2,3.9,1.5,3.8,1C133.4,216.8,130.2,215.9,131.8,216.8z"/>
	<path class="st2" d="M139.9,208.1c-0.5,0.1-1-0.7-2.6-1.1c0,0.4,1.2,0.9,2.1,1.4C138.7,207.8,141.4,208.8,139.9,208.1z"/>
	<path class="st2" d="M134.6,208c-1.3-0.7-1.1-0.6-3.1-1.3C130.9,207,134.6,208.4,134.6,208z"/>
	<path class="st2" d="M138.8,219.4c1.5,0.6,2.6,0.9,3.3,0.8C140.6,219.8,138.9,219.1,138.8,219.4z"/>
	<path class="st2" d="M119.6,210.1c-0.8-0.4-0.1-0.2,0.5,0c1.9,1.1,2.7,1.3,4.7,1.9c-1.9-1.2-2.6-2.1-4.6-3.3
		c-1.7-0.3-1.6,0.1-2.7,0.3C117.9,209.3,120.9,210.9,119.6,210.1z"/>
	<path class="st2" d="M136.8,205.5c-1.3-0.6-1.7-1.1-3-1.7l0,0.2c-0.3-0.1-0.6-0.2-0.5-0.1c0.2,0-1.1,1,3.6,1.9
		C134.6,205,136.8,205.6,136.8,205.5z"/>
	<path class="st2" d="M117.4,210.6c-0.8-0.3-1.9-0.9-2.1-0.8c2.1,1,0.3,0.4,0.5,0.7l1.6,0.7C117.3,210.8,116.4,210.3,117.4,210.6z"
		/>
	<path class="st2" d="M121.1,211.2c-0.6,0.1-2.7-0.8-3.7-0.9c1.3,0.5,1.5,0.9,3.2,1.5C120.8,211.7,122.2,211.8,121.1,211.2z"/>
	<path class="st2" d="M123.6,215.2c0.7,0.2,4.1,1.2,4.9,1.6c-1.4-0.8,1,0.2,1.1-0.1C128,216.2,123.7,214.6,123.6,215.2z"/>
	<path class="st2" d="M120,212.8c1.5,0.5,1.1,0.7,2.1,1.2c-0.7-0.8,1.5,0.4,1.1-0.1C121.8,213.3,121,213.1,120,212.8z"/>
	<path class="st2" d="M141.6,221l1.1,0.4c-0.9-0.1,0.1,0.2,0,0.5C147.1,223.2,140.7,220.3,141.6,221z"/>
	<path class="st2" d="M180.6,229.4c3.8,0.4,9,1.5,10.7,1.1c-1.5-0.3-3.9-0.6-6-0.9C183.2,229.4,181.2,229.2,180.6,229.4z"/>
	<path class="st2" d="M176.8,229.8c-1.3-0.3-3.7-0.9-4-0.6C174.3,229.6,177.2,230.4,176.8,229.8z"/>
	<path class="st2" d="M83.3,173c0.8,0.7,0.7,0.9,2.2,1.8C86.1,174.9,83.7,173.1,83.3,173z"/>
	<path class="st2" d="M142,218c1.6,0.3,3.1,1.2,3.2,0.7c-2.4-0.6-2.7-1.1-4.3-1.6c-2.2-0.6-4.8-0.9-7.5-2.4
		c-1.1,0.2-1.8,0.1-2.7,0.4c1.7,0.5,0.4,0.5,2.1,1c1.6,0.1,4.1,1.1,6.7,1.9c2.7,0.9,5.5,1.8,7.9,2.2C145.8,219.4,142.7,219,142,218z
		 M137.2,216.7c-0.1-0.3,0.4-0.2,1.6,0.2c0.1,0.1-0.2,0-0.5-0.1c0,0,0.8,0.4,1.6,0.6c0.7,0.3,1.4,0.4,1.1,0.2
		C143.3,218.8,138.2,217.5,137.2,216.7z"/>
	<path class="st2" d="M223.8,235c-0.9-0.1-2.4-0.1-2.9,0.1C221.8,235.3,223.9,235.3,223.8,235z"/>
	<path class="st2" d="M246.8,233.5c0.8-0.4,1.3,0,0.6,0.1c1.8-0.1,8.2-1.2,4.3-1.2c-1,0.6-3,0.6-5.7,0.8
		C246.9,233.3,245.9,233.5,246.8,233.5z"/>
	<path class="st2" d="M151.5,224.3c-1.7-0.4-1.5-0.8-2.8-0.9C148.2,223.7,151.5,224.7,151.5,224.3z"/>
	<path class="st2" d="M239.8,233.8c-2.5-0.2-9.1,0.3-10.8,0.8C232.1,234.7,236.3,234.2,239.8,233.8z"/>
	<path class="st2" d="M100.6,116.7c0.4-0.1,0.6-0.7,0.3-0.9c-0.3-0.2-0.4-0.1-0.5-0.1c-0.2,0-0.3,0.3-0.2,0.5
		C100.2,116.4,100.3,116.8,100.6,116.7z"/>
	<path class="st2" d="M98.6,127.6c-0.2-0.8-1-1.8-1.5-2.7c-0.5-0.4-0.4,0-0.5,0.1c-0.3-0.4-0.6-0.7-0.9-1.1
		c-0.1,0.1-0.1,0.2-0.2,0.2C96.9,125.5,96.5,126,98.6,127.6z"/>
	<path class="st2" d="M96.8,124.5c-0.6-0.5-0.5-0.7-0.7-1.2c-0.1,0.2-0.3,0.4-0.4,0.6C96.2,124.1,96.8,124.8,96.8,124.5z"/>
	<path class="st2" d="M91.8,171.2c0.1,0,0.2,0.1,0.2,0.1c0-0.2-0.1-0.3-0.2-0.4c-0.2-0.1-0.4-0.2-0.5-0.3c-0.3,0-0.4,0.3-0.3,0.5
		c0.2,0.2,0.5,0.3,0.7,0.5c0.2,0.1,0.4,0.1,0.4,0.1c0,0,0-0.2,0-0.3C92,171.4,91.9,171.3,91.8,171.2z"/>
	<path class="st2" d="M84.5,169.6C84.5,169.6,84.5,169.6,84.5,169.6c0.4,0.4,0.6,0.7,0.7,0.9c-0.8-0.5-2.1-1.7-1.8-1.1
		c0.7,0.5,3.1,2.4,4.7,3.3c0.1-0.1,0.1-0.2,0.2-0.3c-1.3-0.8-2.5-1.6-3-2.2c1,0.5,2.1,1.1,3.2,1.8c0-0.1,0-0.2,0-0.3
		c-1-0.7-1.9-1.3-2.9-1.9C85.1,169.7,84.7,169.6,84.5,169.6z"/>
	<path class="st2" d="M125,210.2l0,0.5c1,0.4,1.7,0.7,2.1,0.7C125.4,210.7,126.7,210.8,125,210.2z"/>
	<path class="st2" d="M92.4,171.9c0,0-0.1,0-0.2-0.1c0,0.1,0.1,0.2,0,0.2c0,0,0.1,0,0.2,0.1C92.4,172,92.3,171.9,92.4,171.9z"/>
	<path class="st2" d="M83.3,176.6c1.3,1.2-3-2.4-3.2-2c0.8,0.7,1,1.1,2.1,1.9c0.1-0.1,0-0.4,0.6,0c-0.2,0.3,1.7,1.6,2.2,1.8
		C85,177.9,83.8,176.6,83.3,176.6z"/>
	<path class="st2" d="M87.7,182.1c-0.8-0.7-1.1-1.1-2.7-2.1C84.3,180,87.2,182.1,87.7,182.1z"/>
	<path class="st2" d="M85.4,178.8c-0.5-0.6-2.2-1.7-2.3-1.5c0.5,0.4,1,0.8,1.3,1.2c-0.6-0.4-1.1-0.7-1-0.4
		C84.8,179.1,84.6,178.5,85.4,178.8z"/>
	<path class="st2" d="M116,104.7c-0.1,0-0.5,0.3-0.5,0.4c0,0.1,0.7,0.5,0.7,0.5c0.1,0,0.2-0.3,0.2-0.4
		C116.4,105.1,116.1,104.7,116,104.7z"/>
	<path class="st2" d="M120.7,96.3c-0.1,0-0.5,0.3-0.4,0.4c0,0.1,0.6,0.6,0.7,0.6c0.1,0,0.2-0.4,0.2-0.4
		C121.1,96.8,120.8,96.3,120.7,96.3z"/>
	<path class="st2" d="M111,114.6c-0.6,0.1-0.5,0.8,0,0.9c0.5,0.2,0.7-0.3,0.6-0.4C111.6,115,111.6,114.5,111,114.6z"/>
	<path class="st2" d="M126.4,213.5c3.8,1.6,0.4-0.5,2.7,0.1C126.5,212.6,126.4,213,126.4,213.5z"/>
	<path class="st2" d="M121.1,204.3c-0.2,0.2-2.8-1.2-2.6-0.8c1,0.6,1,0.9,2.5,1.6C120.6,204.6,122,204.7,121.1,204.3z"/>
	<path class="st2" d="M93.6,172.7c-0.1-0.1-0.2-0.2-0.4-0.3c-0.3-0.2-0.8-0.3-0.8-0.3c0,0,0,0.1,0,0.2c0.2,0.2,0.4,0.4,0.5,0.5
		c-0.1-0.1-0.3-0.2-0.4-0.3c0.1,0.3,0.2,0.7,0.4,0.8C93.3,173.5,93.8,173.2,93.6,172.7C93.6,172.8,93.6,172.7,93.6,172.7z"/>
	<path class="st2" d="M100.4,118.9c-0.6,0-1.7,0.2-2.1,0.7c-0.6,0.9-1,1.8-1.5,2.7c0.4,0.5,1,1.1,1.3,1.6c-0.2,0.2-1.3-1-1.5-0.8
		c0.6,0.8,1.2,1.5,0.1,0.7c0.2,0.5,2.5,2.3,1.1,1.6c1.2,0.9,1.9,1.6,2.6,2.3c-0.5,0.2-0.9,0.8,0.2,2.2c0.1-0.3,0.2-0.7,0.3-1
		c0.7-3.1,0.4-5.9,0.3-9C101.3,119.6,100.9,118.9,100.4,118.9z"/>
	<path class="st2" d="M98,128.8c0,0.2,0.6,0.6,1,1c0,0.3-0.2,0.4-0.6,0.2c-1.2-1.2-1.7-1.4-2.7-2.4c-0.1-0.5,0.8,0.4,0.9,0.2
		c-0.6-0.9-1.6-1.7-2.5-2.4c-0.2,0.2-0.4,0.3-0.5,0.5c0.4,0.5,0.9,1.1,1.7,1.8c-0.1,0.5-0.4-0.4-1.4-1.1c-0.3,0.2,0.8,1.2,1.1,1.7
		c1.2,0.9,0.1-0.2,0.9,0.2c1.4,1.5,2.1,2.6,2.2,3.5c0.7,0.4,1.1,0.8,1.6,1.2c0.2-1.2,0.6-2.1,1-3.1C99.3,129.2,98.2,128.4,98,128.8z
		"/>
	<path class="st2" d="M169.5,228.4l2.3,0.5C172.1,228.5,169,227.8,169.5,228.4z"/>
	<polygon class="st2" points="36.7,47.3 36.7,47.3 36.7,47.3 	"/>
	<path class="st2" d="M65.1,147.3C62.2,144.7,64.6,148,65.1,147.3L65.1,147.3z"/>
	<path class="st2" d="M63.6,145.8c-0.9-0.9-1-1.4-1.8-1.9c-0.2,0.3,0.5,0.8-0.2,0.4l0.7,0.8c0.2,0.2,0.4,0.4,0.4,0.3
		c-0.2-0.2-0.4-0.5-0.3-0.5C63,145.6,63.4,145.8,63.6,145.8z"/>
	<path class="st2" d="M83.9,169c0-0.1,0.1-0.1,0.1-0.2c-0.1-0.1-0.2-0.1-0.4-0.2c0.1,0,0.2,0,0.4,0.1c0.1,0,0.1-0.1,0.2-0.1
		c-1.4-1-0.7-0.5-1.7-1.5c0.1,0.4-1-0.4-1.5-0.3C82.2,167.6,83.2,168.4,83.9,169C83.9,169,83.9,169,83.9,169z"/>
	<path class="st2" d="M72.7,163.1c-0.1,0.2-1.4-1.1-1.4-0.7c0.5,0.5,1.1,1.1,2,1.8C73.5,164,73.4,163.7,72.7,163.1z"/>
	<path class="st2" d="M73.8,130.2c-0.1,0-0.2,0-0.3,0.1c0.9,0.9,1.7,1.7,2.8,2.4c0,0,0-0.1,0-0.1c-0.3-0.3-0.7-0.7-0.7-0.8
		c0.2,0.3,0.5,0.5,0.7,0.8c0.1-0.1,0.1-0.2,0.2-0.3c-0.3-0.3-0.7-0.7-1.1-1c0-0.4,0.4-0.3,1.2,0.6c-0.1,0-0.1,0.1,0,0.1
		c0-0.1,0.1-0.2,0.1-0.2c-0.5-0.7-1.2-1.5-2-2.3C74.5,129.7,74.2,130.1,73.8,130.2z"/>
	<path class="st2" d="M77.3,166.8c-0.8-0.7-1-1-2-1.9C74.9,165.2,76.8,167,77.3,166.8z"/>
	<path class="st2" d="M61.1,142.5c-0.2,0.1-0.3,0.3-0.5,0.4c0.2,0.2,0.6,0.5,1.2,1.1C62.2,143.9,61.8,143.3,61.1,142.5z"/>
	<path class="st2" d="M45.4,56.2c-0.2,0-1,0.3-0.9,0.7c0.1,0.3,0.7,1.8,1,1.9c0.2,0.1,0.6-0.9,0.6-1.2c0,0,0,0,0,0
		C46.1,57.4,45.6,56.2,45.4,56.2z"/>
	<path class="st2" d="M55.9,137.2C55.9,137.2,55.9,137.3,55.9,137.2c0,0.1,0.1,0.2,0.2,0.3C56.1,137.5,56,137.4,55.9,137.2
		C56,137.3,55.9,137.2,55.9,137.2z"/>
	<path class="st2" d="M65,146.5c-1.1-0.9-0.9-1.1-1.8-1.9C62.6,144.6,64.7,146.8,65,146.5z"/>
	<path class="st2" d="M59.9,143.5c0.3,0.1,1,1,1.1,0.9c-0.4-0.4-0.6-0.8-0.8-1.1C60.1,143.3,60,143.4,59.9,143.5z"/>
	<path class="st2" d="M88.4,171.4c-0.2-0.8-0.7-1.2-1.4-1.3C87.4,170.5,87.9,170.9,88.4,171.4z"/>
	<path class="st2" d="M85.6,168.4c-0.1-0.1-0.2-0.1-0.3-0.2c-0.1,0-0.1,0.1-0.1,0.2C85.4,168.4,85.5,168.4,85.6,168.4z"/>
	<path class="st2" d="M84.6,168.5c0,0,0.1,0,0.1,0c0-0.3-0.5-0.8-1.6-1.6l-0.1,0.4L84.6,168.5C84.6,168.5,84.6,168.5,84.6,168.5z"/>
	<path class="st2" d="M79.5,174.8c-1.1-0.6,1.7,2.6,2.5,2.4C81.2,176.5,80.8,175.9,79.5,174.8z"/>
	<path class="st2" d="M82.1,162.4l0.2-0.4c-1-0.9-1.9-0.9-1-0.1C81.3,161.8,81.6,162,82.1,162.4z"/>
	<path class="st2" d="M86.4,168.2c0.1,0,0.1,0.1,0.2,0.1c0.1,0,0.2,0,0.4-0.1C86.7,168.1,86.4,167.9,86.4,168.2z"/>
	<path class="st2" d="M38.8,109.9c0,0.1,0.1,0.3,0.3,0.6c0-0.1,0-0.3,0-0.4C38.9,109.9,38.8,109.8,38.8,109.9z"/>
	<path class="st2" d="M86.2,169.9c0.1,0.1,0.1,0.1,0.2,0.2c0.6,0.5,0.3,0.1,0.1-0.2C86.4,170,86.3,169.9,86.2,169.9z"/>
	<path class="st2" d="M87.8,167.9c-1.4-1-2.7-2.1-2.8-1.7c1.3,0.9,1.7,1.1,2.4,1.8C87.5,168,87.6,168,87.8,167.9z"/>
	<path class="st2" d="M38.9,111c0-0.1,0.1-0.2,0.1-0.3c-0.2-0.3-0.4-0.6-0.8-0.9C38.3,110.2,38.6,110.6,38.9,111z"/>
	<path class="st2" d="M37.6,48.6c-0.3-0.6-0.3-1.1-0.9-1.3c0,0,0,0,0,0c0,0,0,0,0,0c0,0,0,0,0,0c-0.1,0-0.3,0.4-0.3,0.7
		c0,0.2-0.3,0.4-0.2,0.7c0.1,0.3,0,1.2,0.7,1.3C37.6,50.2,37.9,49.2,37.6,48.6z"/>
	<path class="st2" d="M38.4,67.8c0-0.2-0.5-0.2-0.8-0.3c0.4,0.9,0.9,1.9,1.3,2.9C38.8,69.5,38.6,68.7,38.4,67.8z"/>
	<path class="st2" d="M39,109.4c-0.1-0.4-0.2-0.7-0.4-1C38.5,108.6,38.6,108.9,39,109.4z"/>
	<path class="st2" d="M29.8,57.5c-0.1,0-0.5,0.6-0.5,0.7c0,0.1,0.4,0.2,0.5,0.2c0.1,0,0.5-0.4,0.5-0.5
		C30.3,57.8,29.8,57.4,29.8,57.5z"/>
	<path class="st2" d="M257.7,229.7c-2.9,0.3-2.9,0.7-4.9,1c0.1-0.5-4.8,0.7-4.8,0.2c-2,0.6-5.4,0.7-7.9,0.8c1.6-0.1-2.8-0.1-4.1,0
		c-1.7,0.1-2.8,0.3-4.5,0.4c-1.9,0.1-4-0.2-5.9-0.2c-2.8,0.1-8.5-0.3-13.2-0.1c-0.9-0.3-1.3-0.2-0.7-0.6c-4.1,0.7-7.1-0.5-11.4-0.6
		c0.4,0.3,2.5,0.4,2.5,0.8c-2.1-0.9-10.3-1.1-14.9-1.9c0.3,0.5,5.1,0.7,4.7,1.3c2.1-0.4,5.8,0.7,9.1,0.6c-4.3,0.2-9.7-0.5-14.8-0.9
		c-5.1-0.6-10-1.5-13.4-1.9c2.9,1.5,14,2.1,16.7,3.4c3.7,0.2,4.3,0.3,6.8,0.3c-0.5,0.2-0.2,0.5,1.3,0.8c3.3-0.6,11.4,1,13,0.1
		c1.5,0.6,4.2,0.1,5.8,0.3c-0.1,0.2-1.7,0-1.6,0.2c0.5,0.6,8.2,0.2,7.4,0c2.9,0.5,6.9-0.1,10.9-0.5c2.6,0.4,13.2-0.3,15.5-1.2
		c1-0.1,1.4,0,1.3,0.3c6.1-0.9,9.5-1.4,16-2.3c-5.2,1.4-9.8,1.5-12.9,2.6c0.4,0.1,1.4-0.1,1.3,0.1c2.2-0.4,2.3-0.4,4.1-0.5
		c1.9-0.5,5.3-1.5,7.3-1.4c0.5-0.3,1.2-0.5,1.9-0.7v-2c-2.5,0.6-4.7,1.1-6.9,1.7C259.3,230,258.3,229.9,257.7,229.7z"/>
	<path class="st2" d="M35.9,64.3c0.3,0.5,0.6,1,0.8,1.5c-0.1-0.4-0.2-0.8-0.3-1C36.4,64.5,36.2,64.4,35.9,64.3z"/>
	<path class="st1" d="M36.7,47.3C36.7,47.3,36.7,47.3,36.7,47.3C36.7,47.3,36.7,47.3,36.7,47.3C36.7,47.3,36.7,47.3,36.7,47.3
		C36.7,47.3,36.7,47.3,36.7,47.3z"/>
	<path class="st1" d="M140.9,217.7c0.3,0.3-0.4,0.1-1.1-0.2c-0.7-0.2-1.6-0.6-1.6-0.6c0.3,0.1,0.6,0.2,0.5,0.1
		c-1.2-0.5-1.7-0.5-1.6-0.2C138.2,217.5,143.3,218.8,140.9,217.7z"/>
	<path class="st1" d="M134.2,206.9c0.7,0.2,0.6,0,1,0c-0.7-0.4-2.7-1.5-3.1-1.2C133.5,206.3,132.5,206.4,134.2,206.9z"/>
	<path class="st1" d="M108.1,197.8c2.7,1.6,1.8,0.9,2.5,0.9c0.3,0.1,0.6,0.3,0.5,0.1l-1.5-0.7C110.9,199.4,106.4,196.7,108.1,197.8z
		"/>
	<path class="st1" d="M109.2,197.2c0,0.2-0.2,0.3-0.6,0.2C110.5,198.4,111.6,198.4,109.2,197.2z"/>
	<path class="st1" d="M102.3,200.1c1.2,0.7,2.1,1.4,2.5,1.3C104.2,200.9,102.4,199.9,102.3,200.1z"/>
	<path class="st1" d="M102.9,200c-1.9-0.9-0.9-0.9-2.5-1.6c-0.9-0.3,0.5,0.9,1.4,1.5C101.9,199.6,103.2,200.5,102.9,200z"/>
	<path class="st1" d="M90.5,183.5c0.6-0.2,2.3,1.5,2.9,1.3C91.7,183.7,89,182.1,90.5,183.5z"/>
	<path class="st1" d="M80,178.4c-2.7-2.1-3.1-2.3-5.3-4.1C75.4,175.4,79.6,178.4,80,178.4z"/>
	<path class="st1" d="M75.8,174.3c-1.5-1.1-2.5-1.9-3.5-2.8C72.2,171.8,75.5,174.5,75.8,174.3z"/>
	<path class="st1" d="M69.8,159.2c-0.1-0.6,1.8,1.2,2.3,1.2c-1.9-1.6-2.5-2-4.2-3.2C68.3,157.8,69.3,158.6,69.8,159.2z"/>
	<path class="st1" d="M59.4,172.6c0.5,0.7,2.9,2.4,3.2,2.4C61.2,174,59.5,172.2,59.4,172.6z"/>
	<path class="st1" d="M58.4,155.7c1.6,0.9,5.4,5.3,6.7,5.4c-2.3-1.9-4.6-4.5-6.8-6.4C58.1,154.9,58,155.1,58.4,155.7z"/>
	<path class="st1" d="M65.9,149.3c-1.2-1.3-0.8-0.2-1-0.2c1,1.1,2.6,2.5,3.2,2.6c-1.3-1.3-1.7-1.4-2.4-1.9
		C65.1,148.9,65.8,149.6,65.9,149.3z"/>
	<path class="st1" d="M62.4,151.9c0.7,1.5,0.2,0,2.4,2.2c0.4,0-0.7-1-1-1.4C64.2,153.7,62.4,151.5,62.4,151.9z"/>
	<path class="st1" d="M59.2,149.2c0.9,0.8,1.5,0.8,2.4,2c-0.3-1-3.2-3.5-4.2-4.2C58.9,148.3,58,148.1,59.2,149.2z"/>
	<path class="st1" d="M48.2,137.2c1.4,1.1,2.8,3.5,3.3,3.4C50.4,139.4,48.5,137.1,48.2,137.2z"/>
	<path class="st1" d="M45.8,142.5c0.5,0.4,1.5,1.5,1.7,1.2C46.8,142.9,44.7,140.9,45.8,142.5z"/>
	<path class="st1" d="M37.9,145.9c-1.2-1.1-1.4-1.3-1.8-2.2c-0.1,0.8-1.3-1.2-1.5-1.7l-0.4,0.6c1,1.1,0.8,1.4,1.3,2.1
		c0.6,0.3,2.3,2.4,2.6,2.1C36.5,145.1,38.2,146.7,37.9,145.9z"/>
	<path class="st1" d="M37.9,133.4c0.6,0.8,1.9,2.8,2.4,3C39.7,135.6,38.5,133.7,37.9,133.4z"/>
	<path class="st1" d="M39.7,127.6c1.1,1.3,1.5,1.4,2.3,2.1C40.9,128.5,40,127.3,39.7,127.6z"/>
	<path class="st1" d="M36.5,130.8c-1.9-2.3-0.9,0-0.1,1.1C36.8,131.8,36,130.8,36.5,130.8z"/>
	<path class="st1" d="M37.9,125.7c0.3-0.1,1.2,0.3,0.3-1.3c-0.5,0.2-0.3,0.4-1.2-0.1c0.2,0.3,0.4,0.5,0.3,0.5L37.9,125.7z"/>
	<path class="st1" d="M36.8,116.7c-0.4-0.7-0.7-1.2-1.1-1.9c-0.1,0.3-0.5-0.3-0.6-0.1C35.9,115.8,36.6,116.8,36.8,116.7z"/>
	<path class="st1" d="M31.5,119.8c0.5,0.4,1.4,1.7,1.6,1.4c-1.3-1.9-2.1-3.1-2.9-3.9C30.7,118.2,30.3,118.3,31.5,119.8z"/>
	<path class="st1" d="M30.6,114c0.7,0.9,1.7,2.4,2,2.4C31.8,115.3,30.8,113.7,30.6,114z"/>
	<path class="st1" d="M32.9,110.2c-3.1-4.5-4.9-9-6.9-12.2C27.2,101,29.7,106.3,32.9,110.2z"/>
	<path class="st1" d="M27.9,95.9c-0.3-0.9-1.5-2.6-1.6-1.9C27,95.1,27.7,96.3,27.9,95.9z"/>
	<path class="st1" d="M25.9,93.7l0.2-0.3c-0.8-1.6-1.1-1.6-1.7-2.5C24.7,91.9,25.1,92.1,25.9,93.7z"/>
	<path class="st1" d="M122.6,214.7C122.6,214.7,122.6,214.7,122.6,214.7C122.6,214.7,122.6,214.7,122.6,214.7
		C122.6,214.7,122.6,214.7,122.6,214.7z"/>
	<path class="st1" d="M36.1,111.4c0.1,0.2,0.3,0.4,0.4,0.6C36.4,111.8,36.3,111.5,36.1,111.4z"/>
	<path class="st1" d="M92.1,171.8C92.1,171.8,92.1,171.8,92.1,171.8C92.1,171.8,92.1,171.8,92.1,171.8z"/>
	<path class="st1" d="M276.3,228.3c-1.9,0.4-5.4,1.3-3.1,0.3c-1.4,0.7-3.4,1-5,1.5v0.4C271,229.8,273.7,229.1,276.3,228.3z"/>
	<path class="st1" d="M92.4,172.1C92.4,172.1,92.4,172.1,92.4,172.1C92.5,172.1,92.4,172.1,92.4,172.1z"/>
	<path class="st1" d="M122.1,214.3c0.1,0.1,0.3,0.3,0.5,0.4C122.5,214.6,122.6,214.5,122.1,214.3z"/>
	<path class="st1" d="M108,198.3c0.1,0.8,2.3,1.5,3,1.7c-0.7-0.5-1.3-0.8-2-1C108.9,198.8,108.8,198.7,108,198.3z"/>
	<path class="st1" d="M127,203.4c-1.4-0.6-3.5-1.1-1.6-0.1c0.9-0.2,0.4,0.4,1,0.7c-0.3-0.5,2.4,1.1,2.1,0.7
		C126.6,203.8,126.2,203.4,127,203.4z"/>
	<path class="st1" d="M119.2,202.3c1.7,0.5,4.9,2,5.7,1.9c-2.3-0.9-3.8-1.1-5.1-2.2C120.3,202.5,117.6,201.3,119.2,202.3z"/>
	<path class="st1" d="M118.8,213.5c0.3,0.1,0.6,0.3,0.5,0.4c-0.4-0.2-1.1-0.5-1.1-0.4c1.6,0.6,1.6,0.9,3.2,1.5
		c-0.2-0.3,0.1-0.4,0.6-0.4c-1.6-0.8-1-0.1-2.7-0.9C119.4,213.6,118.9,213.4,118.8,213.5z"/>
	<path class="st1" d="M113.7,199.2c-2.4-1.4-5.8-3.7-7.8-4.8c2.3,1.3,1.3,1.7,3.3,2.2C109.9,197.2,112.9,199.6,113.7,199.2z"/>
	<path class="st1" d="M97.3,189.4c1.3,0.8,1.9,2.1,3.3,2.5c-0.5-0.3-1.1-0.8-0.4-0.5c1.7,1.2,5.8,3.4,4.2,3.2c1.4,0.8,1.3,0.4,2,0.6
		c-0.3-0.3-1.9-1.1-1.9-1.3c0.1-0.1,0.8,0.3,1.5,0.7c0-0.3-0.3-0.6-0.9-1c0.2,0.7-2.2-1.1-3.5-1.4c-0.2-0.4-0.6-0.8,0.6-0.3
		c0.6,0.4,0.6,0.5,1.4,0.9c-1.3-1.3,1.6,0.6,2.1,0.4c-0.9-0.8-1.7-0.9-2.5-1.1c-1.6-1-2.8-1.9-3.3-2.6c0.8,0.5,1.3,0.6,1.5,0.6
		c-0.7-0.5-0.9-0.9-2.3-1.7c-0.2,0.2,0.8,0.8,0.3,0.9c-1.1-1-2.2-1.3-1.3-1.3c-1.1-0.7-1.9-1.4-2.8-1.7l1.3,1.6
		c0.1-0.1,1.2,0.6,1.9,1.1c-0.5,0,1,0.9,1.8,1.4c-0.1,0.1,0.2,0.4,0.4,0.6c-1.5-0.8-2.6-1.5-3.4-1.8
		C98.8,189.9,98.1,189.8,97.3,189.4z M101.2,191c1.3,0.9-0.1,0.6-1.5-0.4C99.3,190,101,191.1,101.2,191z"/>
	<path class="st1" d="M107.4,206.5c-0.1,0.2-1.7-0.8-1.6-0.4c1.2,0.7-0.8,0.1,1,1.1c0.3-0.4,3.2,1.8,3.7,1.7
		C108.4,207.6,107,206.7,107.4,206.5z"/>
	<path class="st1" d="M69,164c1.7,1.3,3.8,3.4,5.6,4.3c-4.6-3.3-4.9-4.4-4.2-4.8c-2.1-1.7-5-4.4-4.7-3.6c0.9,0.6,2.8,2.5,3.8,3
		C70.1,163.8,69.5,164,69,164z"/>
	<path class="st1" d="M67.2,152.4c-0.2-0.7-2.3-2.8-2.7-2.6C66.3,151.2,65.8,150.9,67.2,152.4z"/>
	<path class="st1" d="M60.3,144.7c-0.1,0-0.1,0.1-0.4-0.3c-0.2-0.2-0.4-0.4-0.4-0.3c0.4,0.8,0.9,1.3,1.3,1.8
		c-0.1,0.1-0.7-0.6-0.8-0.5c0.8,0.8,0.7,1.1,0.5,1.3c1.7,2.1,4,4,6.4,6.6c0.3-0.3-1.7-1.9-1.3-2.1c1.1,0.9,0.7,0.9,1.5,1.7l0.2-0.4
		c-1.2-1.2-1.7-1.3-3.2-2.8c-0.6-0.7,0.3-0.5-0.5-1.2c-0.2,0.1-0.7-0.6-0.7-0.8c1,0.9,1.6,1.4,2,1.6
		C63.1,147.8,60.4,145.6,60.3,144.7z"/>
	<path class="st1" d="M55.4,152.2c-0.8-0.3-4.7-4.5-0.5-0.1c0.6,0.7,3.4,2.8,2,1.7C56.2,153.2,55.7,152.7,55.4,152.2z"/>
	<path class="st1" d="M22.1,97.1c0-0.1-0.1-0.5-0.3-0.5c0.7,1.4,0.2,0.6,0,0.8c0.9,1.8,0.4,0,1,1.1c0,0.3,1,1.5,0.6,1.6
		c-0.2,0.2-1.2-1.7-1.4-1.5c0.2,0.8,1.5,2.6,1.8,3.4c0.1-0.9,3.8,5.9,5.2,6.5c-2.4-3.9-4.2-7.2-5.8-10.4
		C22.8,97.8,22.8,98.4,22.1,97.1z"/>
	<path class="st1" d="M22.3,95.4c0.1-0.3,0.5,0.5,0.8,0.7c-0.4-1.3-0.8-1.1-1.4-2.2c-0.1-0.3,0-1.1-0.3-1.1c-0.1,0.1,0.2,0.7,0,0.7
		C22,94.8,21.9,94.3,22.3,95.4z"/>
	<path class="st1" d="M24.7,88.5C22.4,85,18,76.1,17.9,73.8c0.4,0.5,0.6,0.3,0.1-0.8c-0.3-0.3-0.5-0.1-1.1-1.7
		c0.1-1.5-1-4.6-2.4-7.6c-1.3-3.1-2.7-6.3-3.5-7.9c0.1-0.2,0.3-0.1,0.1-0.7c-0.6-0.5-1.5-2.7-2-3.4c0.1,1.1,0.4,1.9,0.9,3L9.5,55
		c0.5,3.3,2.8,7.1,2.7,8.6c0.8,0.1,1.9,3.9,2.8,4.8c0.2,1.3-0.7-0.2-0.1,1.4c1,2.1,1.4,1.4,2.6,4.3c-0.2,0.2,0.5,1.4,0.1,1.3
		c1.1,2,1,2.1,1.7,3.9c0.6,0.4,1.6,2.5,2.5,4.6C22.9,85.9,24,88,24.7,88.5z"/>
</g>
<g>
	<path class="st0" d="M229.3,41.3c0.4-0.4,0.8-0.7,1.1-1.1c1.7-2.1,0.7-5.2-1.9-6c-1.7-0.5-3.1,0.2-4.3,1.4
		c-4.6,4.6-9.3,9.3-13.9,13.9c-1.5,1.5-1.5,3.9,0,5.4v0c1.5,1.5,3.9,1.5,5.4,0C220.2,50.4,224.8,45.9,229.3,41.3z"/>
	<path class="st0" d="M231.1,136.5c-0.3-1-0.9-2-1.6-2.7c-15.1-15.1-30.2-30.3-45.3-45.4c-0.3-0.3-0.6-0.7-1.1-1.1
		c0.5-0.4,0.9-0.7,1.2-1c4-4,16.8-16.8,20.8-20.8c1.5-1.5,1.5-3.9,0-5.4v0c-1.5-1.5-3.9-1.5-5.4,0c-4.1,4.1-16.9,16.9-20.9,20.9
		c-0.3,0.3-0.5,0.8-0.7,1.2c-0.8-0.6-1-0.9-1.3-1.2c-15.2-15.2-30.4-30.4-45.6-45.6c-0.1-0.1-0.3-0.3-0.5-0.4
		c-1.3-0.9-2.6-1.1-4-0.4c-1.5,0.7-2.3,2-2,3.6c0.2,1,0.7,2.1,1.5,2.9c15.1,15.1,30.1,30.2,45.2,45.3c0.3,0.3,0.7,0.4,1,0.6
		c0,0.2,0,0.3,0.1,0.6c-0.4,0.3-0.8,0.5-1.1,0.9c-15.1,15.1-30.1,30.1-45.2,45.2c-0.3,0.3-0.6,0.6-0.9,0.9c-1.8,2.2-0.8,5.3,1.9,6.1
		c1.7,0.5,3-0.2,4.2-1.4c15.1-15.1,30.2-30.2,45.3-45.4c0.3-0.3,0.6-0.8,1.1-1.4c0.6,0.7,0.8,1.1,1.2,1.4c15,15,30.1,30.1,45.1,45.1
		c0.3,0.3,0.7,0.7,1,1c1.2,1,2.9,1.1,4.3,0.3C230.6,139.6,231.5,138,231.1,136.5z"/>
</g>
</svg>
