<?xml version="1.0" encoding="utf-8"?>
<!-- Generator: Adobe Illustrator 26.3.1, SVG Export Plug-In . SVG Version: 6.00 Build 0)  -->
<svg version="1.1" id="Layer_1" xmlns="http://www.w3.org/2000/svg" xmlns:xlink="http://www.w3.org/1999/xlink" x="0px" y="0px"
	 viewBox="0 0 438 177" style="enable-background:new 0 0 438 177;" xml:space="preserve">
<style type="text/css">
	.st0{fill:#588C81;}
</style>
<g>
	<path class="st0" d="M73.7,88.7c3,2.7,6,5.3,9,7.9c7.2,6.3,14.5,12.7,21.7,19c1.8,1.6,2.3,3.8,1.2,5.6c-1,1.7-3,2.6-4.9,2.1
		c-0.8-0.2-1.5-0.7-2.2-1.2c-11.3-9.9-22.7-19.8-34-29.7C62,90,62,87.2,64.5,85c11.3-9.9,22.6-19.8,34-29.7c2.2-1.9,4.9-1.9,6.6,0.1
		c1.7,2,1.3,4.6-1,6.5c-9.8,8.6-19.6,17.1-29.3,25.7C74.5,87.9,74.2,88.2,73.7,88.7z"/>
	<path class="st0" d="M73.2,84.5h358.5c2.2,0,4.1,1.8,4.1,4.1v0c0,2.2-1.8,4.1-4.1,4.1H73.2V84.5z"/>
	<g>
		<path class="st0" d="M2.7,100.5c2.2,17.3,9.3,32.5,20.9,45.5c13.4,15.1,30,24.6,49.9,28.2c3.1,0.6,6.2,0.9,9.2,1.4
			c4.1,0,8.1,0,12.2,0c3-0.4,6-0.8,9-1.3c20.4-3.6,37.3-13.4,50.9-29c6.6-7.6,11.6-16,15.1-25.1c1.1-2.9-1-6-4.1-6h0
			c-1.8,0-3.4,1.1-4.1,2.8c-11.3,29.2-39.7,49.8-72.9,49.8c-43.2,0-78.1-35-78.1-78.2c0-43.2,35.1-78.2,78.3-78.1
			c33.2,0.1,61.4,20.6,72.7,49.7c0.7,1.7,2.3,2.8,4.1,2.8l0,0c3.1,0,5.2-3.1,4.1-6C155.1,19.4,115.3-4.2,74.4,2.9
			c-22,3.8-40.1,14.5-53.9,32.1C5.3,54.2-0.5,76.2,2.7,100.5z"/>
	</g>
</g>
</svg>
