<?xml version="1.0" encoding="utf-8"?>
<!-- Generator: Adobe Illustrator 26.3.1, SVG Export Plug-In . SVG Version: 6.00 Build 0)  -->
<svg version="1.1" id="layer" xmlns="http://www.w3.org/2000/svg" xmlns:xlink="http://www.w3.org/1999/xlink" x="0px" y="0px"
	 viewBox="0 0 200 200" style="enable-background:new 0 0 200 200;" xml:space="preserve">
<style type="text/css">
	.st0{fill:#FFFFFF;}
</style>
<g>
	<path class="st0" d="M151,103.1c-0.3,1.9-0.4,3.8-0.8,5.7c-2.7,14.8-10.4,26.3-22.9,34.6c-9,6-19,8.8-29.9,8.5
		c-15-0.5-27.6-6.4-37.7-17.6c-7-7.8-11.3-17-12.6-27.4c-2.2-18.3,3.6-33.8,17.2-46.2c7.8-7,17-11.1,27.4-12.6
		c1.2-0.2,2.5-0.3,3.7-0.5c2.2,0,4.3,0,6.5,0c1.7,0.2,3.5,0.4,5.2,0.7c9.9,1.7,18.7,5.8,26.1,12.5c9,8.1,14.6,18,16.7,29.9
		c0.3,1.9,0.5,3.8,0.8,5.7C151,98.8,151,101,151,103.1z M98.9,53C73,53,52,73.9,52,99.8c0,25.9,21,47,46.9,46.9
		c25.9-0.1,47-21.1,46.9-47C145.7,73.9,124.8,53,98.9,53z"/>
	<path class="st0" d="M188.1,99.9c-0.8-0.7-1.6-1.4-2.3-2c-5.6-4.9-11.1-9.8-16.7-14.6c-0.3-0.3-0.7-0.6-0.9-0.9
		c-0.9-1-0.9-2.5,0-3.6c0.9-1,2.4-1.3,3.5-0.6c0.6,0.4,1.1,0.8,1.6,1.3c6.8,6,13.7,12,20.5,18c1.8,1.6,1.8,3.3,0,4.8
		c-7.1,6.2-14.2,12.5-21.3,18.7c-1.2,1-2.4,1.3-3.5,0.6c-1-0.6-1.7-1.7-1.3-2.8c0.2-0.7,0.7-1.5,1.3-2c6.1-5.4,12.2-10.7,18.3-16.1
		C187.5,100.5,187.7,100.2,188.1,99.9z"/>
</g>
<path class="st0" d="M11.8,99.9c0.8,0.7,1.6,1.4,2.3,2c5.6,4.9,11.1,9.8,16.7,14.6c0.3,0.3,0.7,0.6,0.9,0.9c0.9,1,0.9,2.5,0,3.6
	c-0.9,1-2.4,1.3-3.5,0.6c-0.6-0.4-1.1-0.8-1.6-1.3c-6.8-6-13.7-12-20.5-18c-1.8-1.6-1.8-3.3,0-4.8c7.1-6.2,14.2-12.5,21.3-18.7
	c1.2-1,2.4-1.3,3.5-0.6c1,0.6,1.7,1.7,1.3,2.8c-0.2,0.7-0.7,1.5-1.3,2C25,88.4,18.9,93.7,12.8,99C12.5,99.3,12.2,99.6,11.8,99.9z"/>
<path class="st0" d="M100,188c0.7-0.8,1.4-1.6,2-2.3c4.9-5.6,9.8-11.1,14.6-16.7c0.3-0.3,0.6-0.7,0.9-0.9c1-0.9,2.5-0.9,3.6,0
	c1,0.9,1.3,2.4,0.6,3.5c-0.4,0.6-0.8,1.1-1.3,1.6c-6,6.8-12,13.7-18,20.5c-1.6,1.8-3.3,1.8-4.8,0c-6.2-7.1-12.5-14.2-18.7-21.3
	c-1-1.2-1.3-2.4-0.6-3.5c0.6-1,1.7-1.7,2.8-1.3c0.7,0.2,1.5,0.7,2,1.3c5.4,6.1,10.7,12.2,16.1,18.3C99.4,187.4,99.6,187.6,100,188z"
	/>
<path class="st0" d="M100,11.8c-0.7,0.8-1.4,1.6-2,2.3c-4.9,5.6-9.8,11.1-14.6,16.7c-0.3,0.3-0.6,0.7-0.9,0.9c-1,0.9-2.5,0.9-3.6,0
	c-1-0.9-1.3-2.4-0.6-3.5c0.4-0.6,0.8-1.1,1.3-1.6c6-6.8,12-13.7,18-20.5c1.6-1.8,3.3-1.8,4.8,0c6.2,7.1,12.5,14.2,18.7,21.3
	c1,1.2,1.3,2.4,0.6,3.5c-0.6,1-1.7,1.7-2.8,1.3c-0.7-0.2-1.5-0.7-2-1.3c-5.4-6.1-10.7-12.2-16.1-18.3
	C100.6,12.4,100.3,12.1,100,11.8z"/>
</svg>
