<?xml version="1.0" encoding="UTF-8" standalone="no"?>
<svg width="310px" height="434px" viewBox="0 0 310 434" version="1.1" xmlns="http://www.w3.org/2000/svg" xmlns:xlink="http://www.w3.org/1999/xlink">
    <!-- Generator: Sketch 3.7.2 (28276) - http://www.bohemiancoding.com/sketch -->
    <title>Page 1</title>
    <desc>Created with Sketch.</desc>
    <defs>
        <polygon id="path-1" points="309.787758 0.638 0.633661298 0.638 0.633661298 320.098018 309.787758 320.098018 309.787758 0.638"></polygon>
        <polygon id="path-3" points="264.336 194.9967 264.336 0.5207 0.0855 0.5207 0.0855 194.9967 264.336 194.9967"></polygon>
    </defs>
    <g id="Page-1" stroke="none" stroke-width="1" fill="none" fill-rule="evenodd">
        <g id="header" transform="translate(-1049.000000, -102.000000)">
            <g id="Page-1" transform="translate(1175.782976, 309.012449) rotate(-330.000000) translate(-1175.782976, -309.012449) translate(1019.282976, 94.512449)">
                <g id="Group-108" transform="translate(0.000000, 0.362000)">
                    <mask id="mask-2" fill="white">
                        <use xlink:href="#path-1"></use>
                    </mask>
                    <g id="Clip-107"></g>
                    <path d="M301.0054,103.9047 L300.9934,103.8727 C288.1914,67.4907 262.4294,37.3917 228.4534,19.1187 C194.6344,0.9317 155.5544,-4.0383 118.3964,5.1247 C118.3144,5.1447 118.2324,5.1647 118.1514,5.1857 C114.8734,5.9527 111.5754,6.8837 108.3474,7.9537 L106.3634,8.6107 C106.0354,8.7197 105.7174,8.8257 105.3974,8.9427 C66.5984,22.1537 35.1744,49.6387 16.8984,86.3497 C-1.4016,123.1127 -4.3666,164.8297 8.5484,203.8157 C18.6164,234.2077 37.4924,260.3147 63.1334,279.3097 C85.6084,295.9597 111.7744,306.1147 139.3254,308.9577 C142.4224,317.5177 151.8264,322.1207 160.5214,319.2387 L250.6794,289.3707 C259.5224,286.4417 264.3334,276.8637 261.4034,268.0217 C261.3634,267.9027 261.3234,267.7837 261.2814,267.6667 C302.6404,228.6477 319.4874,169.5477 304.2604,114.2777 L304.2024,114.0717 C303.5324,111.6387 302.7704,109.1327 301.9374,106.6197 C301.6344,105.7047 301.3254,104.8037 301.0054,103.9047" id="Fill-106" fill="#FFFFFF" mask="url(#mask-2)"></path>
                </g>
                <path d="M262.0298,323.9942 L171.8708,353.8612 C163.0288,356.7902 158.2188,366.3682 161.1478,375.2122 C163.6048,382.6282 170.7398,387.2082 178.1938,386.7632 L194.5678,416.7712 C199.4948,425.8022 211.0068,430.3432 220.7728,427.1072 L266.6898,411.8962 C276.4568,408.6602 282.9808,398.1462 281.5408,387.9562 L276.7538,354.0622 C282.8958,349.9392 285.8168,342.0742 283.3798,334.7192 C280.4498,325.8752 270.8728,321.0642 262.0298,323.9942" id="Fill-109" fill="#FFFFFF"></path>
                <path d="M110.3731,16.9581 C110.4271,16.9301 110.4841,16.9111 110.5501,16.8891 L111.1481,16.6911 C114.1291,15.7041 117.1251,14.8591 120.1371,14.1561 C117.1881,14.8901 114.2491,15.7161 111.3131,16.6471 L110.3731,16.9581 Z" id="Fill-111" fill="#557EC2"></path>
                <path d="M199.2798,292.0035 C123.8048,316.3755 42.6798,275.3245 17.6978,199.9155 C19.8988,206.5605 27.0738,210.1565 33.7188,207.9555 C38.9498,206.2225 42.2978,201.4155 42.4148,196.2045 C42.5468,196.6035 42.6848,196.9895 42.8428,197.3685 C42.9208,197.7325 43.0208,198.0995 43.1408,198.4605 C43.3738,199.1625 43.6598,199.8365 44.0038,200.4605 C70.6868,269.2065 136.8058,309.2245 196.9608,292.6355 C197.3878,292.5245 197.8148,292.4155 198.2358,292.2855 C198.5868,292.2015 198.9348,292.1085 199.2798,292.0035" id="Fill-113" fill="#E0F7FE"></path>
                <path d="M205.2393,251.7052 C205.2053,251.4112 205.1743,251.1262 205.1393,250.8322 C205.0713,250.3382 205.0113,249.8422 204.9523,249.3462 C205.0493,250.1462 205.1523,250.9322 205.2393,251.7052 L205.2393,251.7052 Z M203.7103,240.6652 C203.8473,241.5262 203.9793,242.3682 204.1003,243.2122 C204.1543,243.5322 204.1943,243.8452 204.2443,244.1552 C204.0223,242.5952 203.7883,240.9982 203.5133,239.3722 C203.5813,239.8022 203.6413,240.2362 203.7103,240.6652 L203.7103,240.6652 Z M202.8463,235.4212 C202.9253,235.8482 203.0003,236.2662 203.0663,236.6862 C203.0153,236.3762 202.9633,236.0572 202.9093,235.7382 C202.8213,235.2192 202.7213,234.6932 202.6313,234.1652 C202.7063,234.5832 202.7723,235.0032 202.8463,235.4212 L202.8463,235.4212 Z M226.5373,179.1982 C226.4873,178.9202 226.4503,178.6482 226.4003,178.3702 C226.2503,177.5342 226.1003,176.6992 225.9403,175.8672 C226.1503,176.9772 226.3503,178.0912 226.5373,179.1982 L226.5373,179.1982 Z M227.6163,185.7932 C227.5233,185.1612 227.4263,184.5192 227.3223,183.8892 C227.2513,183.3872 227.1603,182.8892 227.0793,182.3902 C227.2663,183.5292 227.4423,184.6612 227.6163,185.7932 L227.6163,185.7932 Z M225.9403,175.8672 C225.5363,173.6302 225.0883,171.3882 224.6053,169.1362 C225.0783,171.3912 225.5273,173.6342 225.9403,175.8672 L225.9403,175.8672 Z M200.3903,291.6362 C200.1213,291.7142 199.8433,291.7952 199.5773,291.8832 C199.5683,291.8872 199.5683,291.8872 199.5583,291.8902 C198.9823,292.0602 198.4163,292.2262 197.8463,292.3842 C197.5583,292.4682 197.2613,292.5562 196.9613,292.6352 C197.3873,292.5252 197.8153,292.4152 198.2353,292.2862 C198.5873,292.2022 198.9353,292.1082 199.2793,292.0032 C199.5493,291.9252 199.8053,291.8402 200.0713,291.7522 L200.9823,291.4502 C201.0293,291.4342 201.0873,291.4152 201.1313,291.3902 L200.3903,291.6362 Z M109.9553,17.0972 L110.2313,17.0052 C110.1803,17.0122 110.1233,17.0312 110.0753,17.0462 L109.1643,17.3482 C108.8993,17.4362 108.6423,17.5212 108.3793,17.6182 C33.2823,43.1292 -7.2877,124.4962 17.6973,199.9152 C19.8993,206.5602 27.0743,210.1562 33.7183,207.9552 C38.9493,206.2222 42.2973,201.4152 42.4143,196.2042 C42.5463,196.6032 42.6843,196.9892 42.8423,197.3682 C42.9203,197.7322 43.0213,198.0992 43.1403,198.4602 C43.3733,199.1632 43.6593,199.8362 44.0033,200.4602 C46.8583,205.8032 53.2223,208.4782 59.1653,206.5092 C64.1493,204.8582 67.4173,200.4142 67.8183,195.4892 C67.8373,195.3242 67.8443,195.1542 67.8543,194.9932 C67.9043,195.2072 67.9693,195.4072 68.0393,195.6162 C68.5043,197.0212 69.1443,198.3152 69.9393,199.4742 C70.0463,199.7342 70.1533,199.9932 70.2693,200.2492 C74.2323,205.5312 81.2793,207.9482 87.8953,205.7552 C96.1353,203.0262 100.6293,194.1742 98.0133,185.9282 C98.0383,185.9722 98.0543,186.0202 98.0703,186.0672 L98.0733,186.0772 C98.9703,188.4972 99.8893,190.8892 100.8373,193.2412 L100.8403,193.2502 C105.4053,200.3552 114.3613,203.7622 122.7523,200.9822 C131.4293,198.1072 136.6373,189.5662 135.6283,180.8302 C135.8743,181.4442 136.1353,182.0422 136.4223,182.6212 C142.1333,194.5822 155.9793,200.6982 168.8803,196.4252 C180.4133,192.6032 187.5803,181.6752 187.1533,170.1132 L187.1493,170.1032 C187.0903,168.3332 186.8493,166.5582 186.4003,164.7892 C190.9563,171.9602 199.9463,175.4082 208.3763,172.6162 C216.0933,170.0592 221.0713,163.0162 221.3733,155.3422 C221.3703,155.3322 221.3703,155.3322 221.3673,155.3232 C220.8813,153.4722 220.3813,151.6152 219.8563,149.7452 C219.6683,149.0492 219.4673,148.3472 219.2693,147.6542 C219.1213,147.1122 218.9613,146.5652 218.8033,146.0272 C218.7223,145.7492 218.6373,145.4612 218.5623,145.1702 L218.5083,145.0092 C218.4303,144.7402 218.3483,144.4612 218.2573,144.1862 L218.2543,144.1762 C218.1123,143.6862 217.9623,143.1992 217.8173,142.6992 C217.8043,142.6932 217.8083,142.6702 217.8023,142.6512 C217.7703,142.5562 217.7383,142.4612 217.7163,142.3642 C217.3333,141.1112 216.9343,139.8422 216.5343,138.5732 C216.1073,137.2192 215.6633,135.8492 215.2113,134.4822 C190.3003,59.2902 143.3613,7.0832 109.9553,17.0972 L109.9553,17.0972 Z" id="Fill-115" fill="#FFB267"></path>
                <path d="M294.2764,116.1788 C313.5734,186.2238 277.6414,259.6808 211.0104,287.6648 C211.8744,287.2828 212.7354,286.8928 213.5934,286.4928 C213.6314,286.4798 213.6664,286.4588 213.6944,286.4488 C214.5134,286.0608 215.3304,285.6648 216.1414,285.2488 C216.2044,285.2178 216.2674,285.1858 216.3314,285.1538 C217.1064,284.7598 217.8694,284.3598 218.6384,283.9468 C219.4074,283.5348 220.1744,283.1118 220.9264,282.6828 C221.1134,282.5798 221.2974,282.4658 221.4744,282.3648 C222.1654,281.9678 222.8424,281.5638 223.5074,281.1548 C224.2704,280.6908 225.0204,280.2218 225.7644,279.7318 C225.9924,279.5938 226.2074,279.4488 226.4324,279.3008 C226.9804,278.9508 227.5214,278.5808 228.0634,278.2128 C229.5324,277.2098 230.9694,276.1748 232.3824,275.0958 C232.6864,274.8688 232.9814,274.6448 233.2624,274.4148 C233.9084,273.9158 234.5514,273.4078 235.1884,272.8808 C235.7554,272.4298 236.3094,271.9728 236.8574,271.4958 C237.0314,271.3538 237.2054,271.2118 237.3764,271.0598 C237.9494,270.5648 238.5134,270.0728 239.0744,269.5708 C239.1064,269.5398 239.1374,269.5078 239.1784,269.4728 C239.8604,268.8578 240.5474,268.2298 241.2124,267.5978 C241.2214,267.5958 241.2314,267.5928 241.2284,267.5828 C241.7824,267.0618 242.3344,266.5308 242.8724,265.9948 C243.4464,265.4358 244.0154,264.8678 244.5804,264.2808 C244.8304,264.0188 245.0814,263.7578 245.3314,263.4958 C247.0544,261.7018 248.7124,259.8368 250.3184,257.9128 C250.5914,257.5918 250.8614,257.2608 251.1304,256.9288 C251.4374,256.5528 251.7454,256.1778 252.0494,255.7918 C252.3534,255.4068 252.6514,255.0338 252.9524,254.6398 C253.2604,254.2638 253.5514,253.8718 253.8494,253.4678 C254.1444,253.0858 254.4454,252.6908 254.7344,252.2898 C255.3174,251.5068 255.8844,250.7068 256.4494,249.8988 C257.9174,247.8118 259.3254,245.6698 260.6604,243.4678 C261.1014,242.7648 261.5264,242.0428 261.9414,241.3268 C262.4874,240.3978 263.0184,239.4538 263.5444,238.4998 C263.9854,237.7008 264.4234,236.8918 264.8484,236.0768 C265.3944,235.0218 265.9304,233.9698 266.4584,232.8888 C266.7944,232.1868 267.1374,231.4728 267.4704,230.7618 C268.3654,228.8538 269.2074,226.9108 270.0174,224.9358 C270.3024,224.2408 270.5864,223.5358 270.8654,222.8218 C270.9574,222.5908 271.0474,222.3508 271.1424,222.0978 C271.4214,221.3838 271.6884,220.6628 271.9524,219.9328 C272.1874,219.3078 272.4044,218.6878 272.6164,218.0588 C272.7794,217.6258 272.9184,217.1898 273.0684,216.7508 C273.2364,216.2738 273.3954,215.7998 273.5424,215.3198 C273.7364,214.7598 273.9174,214.1938 274.0864,213.6218 C274.1464,213.4228 274.2074,213.2238 274.2674,213.0248 C274.5124,212.2688 274.7344,211.5108 274.9544,210.7428 C275.0474,210.4178 275.1384,210.0918 275.2284,209.7568 C275.4164,209.1148 275.5854,208.4798 275.7534,207.8448 C275.9954,206.9528 276.2284,206.0648 276.4454,205.1608 C276.5944,204.5638 276.7344,203.9698 276.8714,203.3658 C277.0794,202.4648 277.2864,201.5638 277.4714,200.6598 C277.6024,200.0688 277.7334,199.4778 277.8414,198.8838 C277.9184,198.4788 278.0064,198.0798 278.0744,197.6788 C278.1954,197.0908 278.3074,196.5058 278.4064,195.9148 C278.5054,195.3558 278.6044,194.7958 278.7004,194.2268 C278.7644,193.8478 278.8224,193.4808 278.8764,193.1048 C278.9784,192.5228 279.0624,191.9478 279.1544,191.3688 C279.2344,190.8158 279.3154,190.2628 279.3854,189.7128 C279.4494,189.2378 279.5144,188.7638 279.5784,188.2898 C279.6354,187.8278 279.6944,187.3668 279.7414,186.9088 C279.8284,186.1528 279.9154,185.3968 279.9924,184.6438 C280.0954,183.6828 280.1854,182.7158 280.2674,181.7518 C280.2864,181.4608 280.3184,181.1758 280.3374,180.8848 C280.3964,180.0758 280.4614,179.2538 280.5064,178.4378 C280.5744,177.4038 280.6304,176.3638 280.6744,175.3168 C280.7264,174.2668 280.7594,173.2228 280.7804,172.1738 C280.8114,171.1208 280.8194,170.0648 280.8184,169.0118 C280.8264,167.9548 280.8134,166.8958 280.7994,165.8368 C280.7844,164.8088 280.7584,163.7748 280.7224,162.7438 C280.6474,160.6728 280.5404,158.6008 280.3804,156.5258 C280.2994,155.4888 280.2064,154.4448 280.1134,153.4008 C280.0944,153.1858 280.0794,152.9808 280.0614,152.7658 C279.8624,150.7028 279.6324,148.6408 279.3444,146.5658 C279.2104,145.5258 279.0544,144.4818 278.8884,143.4408 C278.8834,143.3898 278.8764,143.3398 278.8614,143.2918 C278.7044,142.2168 278.5294,141.1478 278.3324,140.0748 C277.9634,137.9108 277.5404,135.7448 277.0634,133.5748 C276.8414,132.4898 276.5964,131.4008 276.3294,130.3088 C276.0854,129.2218 275.8124,128.1428 275.5264,127.0568 C275.2594,125.9658 274.9734,124.8808 274.6564,123.7948 C274.6524,123.7858 274.6504,123.7758 274.6524,123.7538 L274.6434,123.7258 C274.5474,122.9568 274.3874,122.1888 274.1414,121.4168 C277.0194,125.0458 281.9654,126.6828 286.6264,125.1398 C290.7834,123.7618 293.6144,120.2218 294.2764,116.1788" id="Fill-117" fill="#E0F7FE"></path>
                <path d="M292.1011,109.0094 C292.8911,111.3914 293.6171,113.7744 294.2731,116.1694 L294.2761,116.1784 C293.6141,120.2214 290.7841,123.7614 286.6261,125.1394 C281.9651,126.6834 277.0191,125.0454 274.1421,121.4164 C274.3871,122.1884 274.5471,122.9574 274.6431,123.7254 C274.4021,122.8374 274.1541,121.9604 273.8801,121.0704 L273.8771,121.0614 C273.7511,120.6184 273.6261,120.1754 273.4781,119.7294 L273.4341,119.5964 C273.4401,119.5844 273.4401,119.5844 273.4281,119.5774 C273.3331,119.2614 273.2361,118.9354 273.1321,118.6214 C272.8301,117.6154 272.5091,116.6164 272.1761,115.6104 C272.0161,115.1254 271.8611,114.6604 271.6861,114.1924 L271.6831,114.1824 C270.1721,109.7214 268.4921,105.3794 266.6501,101.1544 C266.2031,100.0904 265.7301,99.0464 265.2481,98.0054 C264.7761,96.9604 264.2941,95.9204 263.7871,94.8974 C263.2981,93.8684 262.7941,92.8554 262.2711,91.8494 C261.7741,90.8234 261.2501,89.8174 260.7021,88.8294 C260.1821,87.8324 259.6431,86.8414 259.0881,85.8664 C258.5501,84.8764 257.9851,83.9044 257.4151,82.9444 C256.8751,82.0174 256.3211,81.1054 255.7661,80.1934 C255.7031,80.0984 255.6461,79.9904 255.5831,79.8964 C255.0761,79.0634 254.5491,78.2374 254.0351,77.4174 C253.9371,77.2804 253.8461,77.1324 253.7541,76.9834 C253.2051,76.1544 252.6631,75.3114 252.1051,74.4854 C251.4871,73.5734 250.8691,72.6614 250.2351,71.7654 C249.6451,70.9074 249.0401,70.0654 248.4241,69.2264 C248.3291,69.0994 248.2381,68.9824 248.1561,68.8614 C247.5721,68.0544 246.9731,67.2624 246.3641,66.4744 C245.7181,65.6034 245.0461,64.7514 244.3681,63.9124 C243.7041,63.0574 243.0171,62.2214 242.3231,61.3974 C241.6351,60.5614 240.9441,59.7474 240.2341,58.9394 C239.5391,58.1164 238.8331,57.3184 238.1071,56.5264 C236.6901,54.9514 235.2411,53.4094 233.7641,51.9074 C233.7291,51.8664 233.6851,51.8284 233.6501,51.7874 C232.9621,51.0774 232.2581,50.3834 231.5551,49.6904 C231.4951,49.6364 231.4351,49.5824 231.3711,49.5184 C230.6551,48.8184 229.9421,48.1274 229.2131,47.4534 C228.5241,46.8064 227.8271,46.1634 227.1101,45.5264 C226.8671,45.3014 226.6241,45.0764 226.3711,44.8544 C225.7871,44.3324 225.1941,43.8124 224.5901,43.2954 C224.5431,43.2484 224.4861,43.2044 224.4301,43.1594 C223.6881,42.5094 222.9301,41.8764 222.1631,41.2454 C221.3731,40.5794 220.5681,39.9294 219.7471,39.2964 C218.9861,38.6844 218.2091,38.0884 217.4231,37.4954 C216.4251,36.7414 215.4211,35.9994 214.4011,35.2734 C213.7181,34.7724 213.0301,34.2834 212.3261,33.8114 C211.4791,33.2284 210.6391,32.6634 209.7891,32.1024 C209.3701,31.8194 208.9401,31.5414 208.5141,31.2714 C208.0461,30.9734 207.5751,30.6654 207.0991,30.3704 C206.7131,30.1304 206.3311,29.8984 205.9361,29.6604 C205.0071,29.0834 204.0661,28.5304 203.1251,27.9794 C202.7621,27.7734 202.3981,27.5674 202.0351,27.3604 C201.1631,26.8594 200.2851,26.3704 199.4041,25.9044 C198.9581,25.6724 198.5221,25.4374 198.0771,25.2064 C197.6311,24.9744 197.1851,24.7424 196.7431,24.5204 C196.2981,24.2884 195.8561,24.0674 195.4041,23.8474 C193.1731,22.7434 190.9271,21.7174 188.6481,20.7554 C188.1941,20.5584 187.7421,20.3704 187.2801,20.1864 C186.8411,20.0054 186.3921,19.8274 185.9501,19.6364 C184.4871,19.0684 183.0201,18.5214 181.5511,17.9974 C180.7051,17.6984 179.8601,17.4094 179.0001,17.1354 C178.3971,16.9354 177.7961,16.7444 177.1961,16.5534 C176.8681,16.4514 176.5381,16.3494 176.2131,16.2574 C171.1591,14.7394 166.0511,13.5664 160.9051,12.7534 C160.4241,12.6704 159.9501,12.6064 159.4631,12.5364 C153.7091,11.7034 147.9071,11.3294 142.1041,11.4284 C141.8641,11.4354 141.6201,11.4314 141.3831,11.4464 C140.6501,11.4584 139.9221,11.4884 139.1941,11.5184 C132.9051,11.8004 126.6131,12.6524 120.3801,14.0964 C192.0671,-3.6166 266.3931,35.8934 291.2171,106.4364 L291.2211,106.4454 C291.5231,107.2944 291.8151,108.1454 292.1011,109.0094" id="Fill-119" fill="#FFB267"></path>
                <path d="M196.961,292.6353 C136.806,309.2243 70.687,269.2063 44.004,200.4603 C46.859,205.8033 53.222,208.4783 59.165,206.5093 C64.149,204.8583 67.417,200.4143 67.818,195.4893 C67.838,195.3243 67.844,195.1543 67.854,194.9923 C67.904,195.2073 67.97,195.4063 68.039,195.6153 C68.504,197.0213 69.144,198.3153 69.939,199.4743 C70.046,199.7343 70.153,199.9923 70.27,200.2493 C97.337,264.8443 151.042,304.6233 196.961,292.6353" id="Fill-121" fill="#A2DEE1"></path>
                <path d="M205.2393,251.7052 C205.1523,250.9322 205.0493,250.1462 204.9523,249.3462 C205.0113,249.8422 205.0713,250.3382 205.1393,250.8322 C205.1743,251.1262 205.2053,251.4112 205.2393,251.7052" id="Fill-123" fill="#FF4C2E"></path>
                <path d="M203.71,240.6656 C203.641,240.2356 203.582,239.8026 203.513,239.3716 C203.873,241.5396 204.182,243.6486 204.463,245.7046 C204.348,244.8786 204.232,244.0536 204.1,243.2116 C203.979,242.3676 203.847,241.5266 203.71,240.6656" id="Fill-125" fill="#FF4C2E"></path>
                <path d="M202.8467,235.421 C202.7057,234.583 202.5557,233.748 202.4087,232.89 C202.5777,233.846 202.7437,234.792 202.9097,235.738 C202.9627,236.057 203.0157,236.377 203.0657,236.686 C202.9997,236.266 202.9257,235.848 202.8467,235.421" id="Fill-127" fill="#FF4C2E"></path>
                <path d="M227.6168,185.7935 C227.3738,184.1365 227.1078,182.4755 226.8168,180.8015 C226.9078,181.3305 226.9888,181.8615 227.0788,182.3905 C227.2668,183.5285 227.4418,184.6615 227.6168,185.7935" id="Fill-129" fill="#FF4C2E"></path>
                <path d="M225.94,175.8673 C226.1,176.6993 226.25,177.5343 226.4,178.3693 C226.45,178.6483 226.488,178.9203 226.538,179.1983 C226.35,178.0913 226.15,176.9773 225.94,175.8673" id="Fill-131" fill="#FF4C2E"></path>
                <path d="M224.6055,169.1358 C225.0875,171.3878 225.5365,173.6308 225.9405,175.8678 C225.5265,173.6338 225.0785,171.3908 224.6055,169.1358" id="Fill-133" fill="#FF4C2E"></path>
                <path d="M215.211,134.482 C215.664,135.849 216.107,137.219 216.535,138.573 C216.934,139.842 217.333,141.111 217.717,142.364 C217.739,142.461 217.77,142.556 217.802,142.651 C217.808,142.67 217.804,142.693 217.817,142.699 C217.962,143.199 218.112,143.686 218.254,144.176 L218.257,144.186 C218.348,144.461 218.43,144.74 218.508,145.009 L218.562,145.17 C218.637,145.461 218.722,145.749 218.804,146.027 C218.961,146.565 219.122,147.112 219.269,147.654 C219.467,148.347 219.668,149.049 219.856,149.745 C220.381,151.615 220.881,153.472 221.367,155.323 C221.371,155.333 221.371,155.333 221.374,155.342 C221.071,163.016 216.094,170.059 208.376,172.616 C199.947,175.408 190.957,171.96 186.4,164.79 C186.85,166.558 187.09,168.333 187.15,170.104 L187.153,170.113 C187.581,181.675 180.414,192.604 168.88,196.425 C155.979,200.698 142.133,194.582 136.422,182.622 C136.136,182.042 135.874,181.444 135.628,180.83 C136.637,189.566 131.429,198.107 122.753,200.982 C114.361,203.762 105.405,200.356 100.84,193.251 L100.837,193.241 C99.889,190.89 98.97,188.498 98.073,186.077 L98.07,186.067 C98.055,186.02 98.039,185.972 98.013,185.928 C100.629,194.174 96.135,203.026 87.896,205.755 C81.279,207.948 74.232,205.531 70.27,200.25 C70.153,199.993 70.046,199.734 69.939,199.474 C69.144,198.315 68.504,197.021 68.039,195.616 C67.97,195.407 67.904,195.208 67.854,194.993 C67.844,195.154 67.838,195.324 67.818,195.489 C67.417,200.415 64.149,204.858 59.165,206.509 C53.222,208.478 46.859,205.803 44.004,200.46 C43.604,199.444 43.207,198.406 42.842,197.369 C42.685,196.989 42.546,196.603 42.415,196.204 C41.933,194.878 41.467,193.537 41.021,192.189 C40.574,190.841 40.147,189.486 39.741,188.135 C17.66,115.631 46.798,41.57 106.143,18.497 C106.43,18.38 106.722,18.274 107.003,18.17 C107.554,17.956 108.107,17.751 108.671,17.543 C108.68,17.54 108.68,17.54 108.69,17.537 C108.956,17.449 109.228,17.349 109.49,17.251 L109.956,17.097 C143.361,7.083 190.301,59.291 215.211,134.482" id="Fill-135" fill="#FF4C2E"></path>
                <path d="M274.6563,123.795 C274.9543,124.887 275.2493,125.969 275.5263,127.057 C275.8023,128.146 276.0753,129.224 276.3293,130.309 C276.5833,131.395 276.8283,132.483 277.0633,133.574 C277.5273,135.738 277.9533,137.915 278.3323,140.075 C278.5203,141.15 278.6953,142.22 278.8613,143.292 C278.8763,143.339 278.8833,143.39 278.8883,143.441 C279.0453,144.485 279.2013,145.528 279.3443,146.566 C279.6193,148.635 279.8623,150.703 280.0613,152.766 C280.0793,152.981 280.0943,153.186 280.1133,153.401 C280.2063,154.445 280.2993,155.488 280.3803,156.526 C280.5303,158.604 280.6473,160.673 280.7223,162.744 C280.7583,163.775 280.7843,164.809 280.7993,165.837 C280.8133,166.896 280.8263,167.955 280.8183,169.011 C280.8193,170.065 280.8013,171.124 280.7803,172.174 C280.7593,173.223 280.7163,174.27 280.6743,175.317 C280.6313,176.363 280.5743,177.404 280.5073,178.438 C280.4613,179.253 280.3963,180.075 280.3383,180.885 C280.3183,181.176 280.2863,181.46 280.2673,181.752 C280.1853,182.715 280.0953,183.683 279.9923,184.644 C279.9153,185.397 279.8283,186.152 279.7413,186.908 C279.6943,187.367 279.6353,187.828 279.5783,188.29 C279.5143,188.764 279.4493,189.238 279.3853,189.712 C279.3153,190.262 279.2353,190.816 279.1543,191.369 C279.0623,191.947 278.9783,192.523 278.8763,193.105 C278.8223,193.481 278.7643,193.847 278.7003,194.227 C278.6043,194.796 278.5053,195.356 278.4063,195.915 C278.3073,196.506 278.1963,197.091 278.0743,197.679 C278.0073,198.08 277.9183,198.479 277.8413,198.883 C277.7333,199.478 277.6023,200.068 277.4713,200.66 C277.2863,201.564 277.0793,202.464 276.8713,203.365 C276.7343,203.969 276.5943,204.564 276.4453,205.161 C276.2283,206.065 275.9953,206.953 275.7533,207.844 C275.5853,208.48 275.4163,209.115 275.2283,209.757 C275.1383,210.091 275.0473,210.418 274.9543,210.743 C274.7343,211.511 274.5123,212.269 274.2673,213.025 C274.2073,213.224 274.1463,213.423 274.0863,213.622 C273.9173,214.194 273.7363,214.76 273.5423,215.319 C273.3953,215.799 273.2363,216.274 273.0683,216.751 C272.9183,217.19 272.7793,217.626 272.6163,218.059 C272.4043,218.688 272.1773,219.311 271.9523,219.933 C271.6883,220.663 271.4213,221.384 271.1423,222.098 C271.0473,222.351 270.9573,222.591 270.8653,222.821 C270.5863,223.536 270.3023,224.24 270.0173,224.936 C269.2073,226.911 268.3653,228.854 267.4703,230.762 C267.1373,231.473 266.7943,232.187 266.4583,232.888 C265.9303,233.969 265.3943,235.022 264.8483,236.077 C264.4233,236.892 263.9853,237.7 263.5443,238.5 C263.0183,239.454 262.4873,240.398 261.9423,241.326 C261.5263,242.043 261.1013,242.764 260.6603,243.468 C259.3253,245.669 257.9173,247.812 256.4493,249.899 C255.8843,250.707 255.3173,251.506 254.7343,252.29 C254.4463,252.691 254.1443,253.085 253.8493,253.467 C253.5513,253.872 253.2603,254.263 252.9523,254.639 C252.6513,255.034 252.3533,255.407 252.0493,255.792 C251.7453,256.177 251.4373,256.552 251.1303,256.928 C250.8613,257.26 250.5913,257.591 250.3183,257.913 C248.7123,259.837 247.0543,261.702 245.3313,263.496 C245.0813,263.757 244.8303,264.019 244.5803,264.281 C244.0153,264.868 243.4463,265.436 242.8723,265.995 C242.3343,266.531 241.7823,267.062 241.2283,267.583 C241.2313,267.592 241.2213,267.595 241.2123,267.598 C240.5373,268.233 239.8603,268.858 239.1783,269.473 C239.1373,269.507 239.1063,269.54 239.0743,269.571 C238.5133,270.073 237.9493,270.565 237.3763,271.06 C237.2053,271.212 237.0313,271.354 236.8573,271.496 C236.3063,271.964 235.7553,272.429 235.1883,272.88 C234.5513,273.408 233.9083,273.916 233.2623,274.415 C232.9813,274.645 232.6863,274.869 232.3823,275.095 C230.9693,276.174 229.5323,277.21 228.0633,278.212 C227.5213,278.581 226.9773,278.94 226.4323,279.3 C226.2073,279.449 225.9923,279.593 225.7643,279.732 C225.0203,280.221 224.2703,280.691 223.5073,281.155 C222.8423,281.564 222.1653,281.967 221.4743,282.365 C221.2983,282.465 221.1133,282.58 220.9263,282.683 C220.1743,283.112 219.4073,283.535 218.6383,283.947 C217.8693,284.36 217.1063,284.759 216.3313,285.154 C216.2673,285.186 216.2043,285.217 216.1413,285.249 C215.3303,285.665 214.5133,286.061 213.6943,286.449 C213.6663,286.459 213.6313,286.48 213.5933,286.493 C212.7353,286.893 211.8743,287.283 211.0103,287.665 C210.9283,287.703 210.8523,287.728 210.7793,287.762 C207.9753,288.934 205.1243,290.026 202.2133,291.032 C203.6463,290.525 205.0643,289.971 206.4533,289.364 C207.0803,289.092 207.7033,288.813 208.3213,288.514 C208.4313,288.465 208.5293,288.413 208.6313,288.369 C209.2573,288.066 209.8813,287.755 210.5023,287.432 C211.0773,287.136 211.6413,286.834 212.2013,286.521 C212.3503,286.431 212.5123,286.345 212.6603,286.255 C213.2113,285.945 213.7583,285.627 214.3033,285.298 C214.3733,285.255 214.4333,285.214 214.4963,285.182 C215.0483,284.842 215.5893,284.505 216.1273,284.158 C216.2573,284.072 216.3863,283.987 216.5163,283.902 C217.0763,283.527 217.6243,283.145 218.1823,282.76 C218.7553,282.36 219.3213,281.94 219.8793,281.524 C221.0163,280.663 222.1253,279.78 223.2173,278.848 C223.4323,278.671 223.6453,278.486 223.8573,278.299 C224.2493,277.959 224.6393,277.608 225.0193,277.261 C225.1813,277.113 225.3363,276.977 225.4943,276.82 C225.9733,276.387 226.4383,275.948 226.8883,275.494 C227.3603,275.042 227.8263,274.572 228.2823,274.105 C228.4253,273.962 228.5643,273.811 228.7073,273.669 C229.1443,273.209 229.5883,272.735 230.0193,272.255 C230.4123,271.819 230.8043,271.383 231.2013,270.926 C231.4473,270.654 231.6923,270.374 231.9243,270.085 C231.9543,270.054 231.9933,270.01 232.0223,269.969 C232.3923,269.531 232.7603,269.082 233.1273,268.633 C233.6343,268.002 234.1323,267.374 234.6273,266.736 C235.0363,266.19 235.4423,265.633 235.8473,265.078 C236.3613,264.371 236.8683,263.644 237.3723,262.908 C238.2733,261.587 239.1383,260.227 239.9863,258.84 C240.4073,258.142 240.8203,257.447 241.2263,256.733 C241.6703,255.943 242.1143,255.154 242.5523,254.344 C242.8313,253.821 243.1083,253.287 243.3833,252.753 C243.4983,252.525 243.6213,252.294 243.7423,252.054 C244.0283,251.485 244.3013,250.91 244.5923,250.329 C244.6243,250.266 244.6543,250.193 244.6913,250.117 C245.0313,249.394 245.3773,248.658 245.7043,247.928 C246.1083,247.046 246.4883,246.162 246.8763,245.264 C248.1623,242.184 249.3513,238.998 250.4103,235.708 C250.6903,234.867 250.9573,234.021 251.2023,233.17 C251.4663,232.314 251.7083,231.454 251.9563,230.582 C252.1793,229.792 252.3863,229.017 252.5813,228.236 C252.6343,228.05 252.6853,227.854 252.7273,227.661 C252.9153,226.956 253.0843,226.258 253.2503,225.549 C253.6513,223.868 254.0243,222.165 254.3693,220.438 C254.5003,219.784 254.6273,219.12 254.7423,218.45 C255.5183,214.337 256.1143,210.126 256.5523,205.82 C256.6393,205.033 256.7143,204.239 256.7783,203.449 C256.8043,203.209 256.8203,202.971 256.8333,202.725 C256.8983,201.997 256.9533,201.273 257.0053,200.54 C257.0283,200.29 257.0403,200.044 257.0543,199.796 C257.1123,199.05 257.1573,198.298 257.1913,197.539 C257.2303,196.768 257.2693,195.996 257.2963,195.218 C257.3203,194.525 257.3493,193.821 257.3603,193.122 C257.3743,192.749 257.3873,192.376 257.3873,191.996 C257.4083,191.105 257.4263,190.203 257.4213,189.299 C257.4293,188.21 257.4253,187.117 257.4083,186.016 C257.4013,185.071 257.3773,184.109 257.3533,183.148 C257.3443,182.93 257.3483,182.718 257.3393,182.5 C257.3053,181.668 257.2783,180.823 257.2333,179.985 C256.9663,173.933 256.3983,167.768 255.5113,161.53 C255.4083,160.743 255.2963,159.959 255.1743,159.177 C255.1333,158.927 255.1023,158.674 255.0523,158.427 C254.9523,157.713 254.8303,156.995 254.7093,156.277 C254.5833,155.485 254.4463,154.689 254.2993,153.894 C254.2643,153.695 254.2273,153.486 254.1833,153.29 C254.0603,152.572 253.9263,151.847 253.7813,151.126 C253.6543,150.421 253.5153,149.719 253.3653,149.01 C253.3243,148.792 253.2713,148.567 253.2303,148.349 C253.0613,147.52 252.8853,146.704 252.7033,145.869 C252.5813,145.309 252.4593,144.749 252.3273,144.192 C252.2683,143.917 252.1993,143.645 252.1303,143.373 C251.9513,142.547 251.7533,141.727 251.5523,140.899 C251.5333,140.81 251.5023,140.715 251.4833,140.627 L251.4803,140.617 C251.7053,138.372 251.4793,136.067 250.7563,133.789 C254.1693,138.051 260.0103,139.972 265.5063,138.151 C271.6863,136.104 275.3873,130.01 274.6563,123.795" id="Fill-137" fill="#A2DEE1"></path>
                <path d="M272.1758,115.61 C272.5088,116.616 272.8298,117.616 273.1328,118.622 C273.2358,118.935 273.3328,119.261 273.4278,119.577 C273.4398,119.584 273.4398,119.584 273.4338,119.596 L273.4778,119.73 C273.6258,120.176 273.7518,120.619 273.8768,121.062 L273.8808,121.071 C274.1538,121.96 274.4018,122.837 274.6438,123.726 L274.6528,123.754 C274.6498,123.776 274.6528,123.786 274.6558,123.795 C275.3878,130.01 271.6858,136.104 265.5068,138.151 C260.0098,139.972 254.1698,138.051 250.7568,133.789 C251.4798,136.067 251.7058,138.372 251.4808,140.617 C251.2418,139.643 250.9908,138.662 250.7428,137.691 C250.2278,135.723 249.6938,133.761 249.1148,131.793 L249.0708,131.66 C248.8578,130.888 248.6248,130.122 248.3798,129.351 C248.3328,129.176 248.2888,129.012 248.2328,128.841 L248.1378,128.556 C247.9308,127.866 247.7258,127.186 247.4998,126.503 C247.2388,125.683 246.9778,124.864 246.7078,124.048 C221.8068,48.884 161.4318,1.149 111.3128,16.647 C114.2488,15.716 117.1888,14.89 120.1368,14.156 C120.2168,14.14 120.2918,14.115 120.3808,14.096 C126.6128,12.653 132.9048,11.801 139.1948,11.519 C139.9218,11.488 140.6498,11.458 141.3828,11.447 C141.6198,11.431 141.8638,11.435 142.1038,11.429 C147.9068,11.329 153.7098,11.704 159.4638,12.536 C159.9498,12.606 160.4238,12.67 160.9048,12.753 C166.0508,13.567 171.1588,14.74 176.2138,16.257 C176.5388,16.35 176.8678,16.452 177.1958,16.554 C177.7968,16.744 178.3968,16.935 179.0008,17.135 C179.8508,17.412 180.7048,17.698 181.5508,17.997 C183.0208,18.522 184.4868,19.068 185.9498,19.637 C186.3928,19.828 186.8408,20.006 187.2798,20.186 C187.7418,20.371 188.1938,20.558 188.6488,20.756 C190.9268,21.717 193.1738,22.743 195.4038,23.848 C195.8558,24.067 196.2978,24.289 196.7428,24.521 C197.1858,24.742 197.6318,24.974 198.0768,25.206 C198.5218,25.438 198.9578,25.672 199.4038,25.904 C200.2788,26.383 201.1628,26.86 202.0348,27.36 C202.3978,27.567 202.7618,27.773 203.1248,27.979 C204.0668,28.531 205.0078,29.083 205.9368,29.66 C206.3308,29.898 206.7138,30.13 207.0988,30.371 C207.5748,30.666 208.0458,30.973 208.5138,31.272 C208.9398,31.541 209.3698,31.82 209.7898,32.103 C210.6388,32.664 211.4788,33.228 212.3258,33.812 C213.0208,34.287 213.7088,34.775 214.4008,35.273 C215.4208,36 216.4248,36.741 217.4228,37.496 C218.1998,38.091 218.9768,38.688 219.7468,39.296 C220.5618,39.942 221.3668,40.592 222.1628,41.245 C222.9298,41.876 223.6778,42.513 224.4298,43.159 C224.4868,43.204 224.5428,43.249 224.5908,43.295 C225.1938,43.812 225.7868,44.332 226.3708,44.855 C226.6238,45.076 226.8668,45.301 227.1098,45.527 C227.8268,46.164 228.5248,46.807 229.2128,47.453 C229.9418,48.127 230.6548,48.819 231.3718,49.519 C231.4348,49.582 231.4948,49.636 231.5548,49.69 C232.2588,50.384 232.9528,51.081 233.6508,51.787 C233.6848,51.829 233.7298,51.866 233.7638,51.907 C235.2408,53.409 236.6898,54.952 238.1068,56.526 C238.8238,57.321 239.5298,58.119 240.2338,58.939 C240.9448,59.748 241.6348,60.561 242.3228,61.398 C243.0078,62.224 243.6958,63.06 244.3678,63.912 C245.0368,64.755 245.7118,65.616 246.3638,66.474 C246.9728,67.263 247.5628,68.057 248.1558,68.862 C248.2388,68.982 248.3298,69.1 248.4248,69.226 C249.0298,70.068 249.6358,70.911 250.2348,71.766 C250.8688,72.662 251.4868,73.573 252.1048,74.485 C252.6638,75.312 253.2058,76.154 253.7548,76.984 C253.8458,77.132 253.9368,77.281 254.0348,77.418 C254.5488,78.237 255.0758,79.063 255.5838,79.896 C255.6458,79.991 255.7028,80.099 255.7658,80.193 C256.3208,81.106 256.8758,82.017 257.4148,82.945 C257.9788,83.917 258.5438,84.888 259.0888,85.867 C259.6338,86.845 260.1728,87.835 260.7018,88.829 C261.2448,89.83 261.7638,90.827 262.2718,91.849 C262.7848,92.859 263.2888,93.872 263.7868,94.897 C264.2878,95.932 264.7658,96.964 265.2488,98.006 C265.7208,99.05 266.1938,100.094 266.6498,101.154 C268.4828,105.382 270.1628,109.724 271.6828,114.183 L271.6858,114.192 C271.8618,114.661 272.0158,115.126 272.1758,115.61" id="Fill-139" fill="#FF4C2E"></path>
                <path d="M210.7793,287.7623 C207.9433,288.9963 205.0353,290.1073 202.0543,291.0953 L201.4563,291.2923 C201.3903,291.3153 201.3333,291.3333 201.2733,291.3433 L202.2133,291.0323 C205.1243,290.0263 207.9753,288.9343 210.7793,287.7623" id="Fill-141" fill="#6387C2"></path>
                <path d="M251.4835,140.6266 C251.5025,140.7156 251.5335,140.8096 251.5525,140.8986 C251.7535,141.7266 251.9515,142.5466 252.1295,143.3726 C252.1995,143.6446 252.2685,143.9166 252.3275,144.1916 C252.4595,144.7486 252.5815,145.3086 252.7035,145.8686 C252.8855,146.7036 253.0615,147.5196 253.2305,148.3486 C253.2715,148.5666 253.3245,148.7916 253.3655,149.0106 C253.5155,149.7186 253.6535,150.4206 253.7815,151.1266 C253.9265,151.8476 254.0605,152.5716 254.1835,153.2906 C254.2275,153.4866 254.2645,153.6956 254.2985,153.8936 C254.4465,154.6886 254.5835,155.4856 254.7085,156.2766 C254.8305,156.9946 254.9525,157.7126 255.0525,158.4276 C255.1025,158.6736 255.1335,158.9266 255.1745,159.1766 C255.2965,159.9586 255.4085,160.7426 255.5115,161.5306 C256.3985,167.7686 256.9655,173.9326 257.2335,179.9846 C257.2785,180.8236 257.3055,181.6676 257.3385,182.4996 C257.3485,182.7176 257.3445,182.9296 257.3535,183.1476 C257.3765,184.1086 257.4005,185.0706 257.4085,186.0166 C257.4255,187.1166 257.4295,188.2106 257.4215,189.2986 C257.4255,190.2036 257.4085,191.1046 257.3875,191.9966 C257.3875,192.3756 257.3745,192.7486 257.3605,193.1216 C257.3495,193.8206 257.3195,194.5256 257.2965,195.2176 C257.2695,195.9956 257.2305,196.7676 257.1915,197.5396 C257.1575,198.2986 257.1125,199.0506 257.0545,199.7966 C257.0405,200.0436 257.0275,200.2896 257.0045,200.5396 C256.9535,201.2726 256.8985,201.9976 256.8335,202.7246 C256.8205,202.9716 256.8045,203.2086 256.7785,203.4486 C256.7135,204.2396 256.6395,205.0326 256.5525,205.8196 C256.1145,210.1256 255.5185,214.3376 254.7425,218.4496 C254.6275,219.1206 254.5005,219.7846 254.3695,220.4376 C254.0245,222.1646 253.6515,223.8686 253.2505,225.5496 C253.0835,226.2576 252.9055,226.9596 252.7275,227.6616 C252.6855,227.8536 252.6345,228.0496 252.5815,228.2366 C252.3765,229.0196 252.1725,229.8046 251.9565,230.5816 C251.7085,231.4546 251.4665,232.3146 251.2025,233.1696 C250.9475,234.0236 250.6805,234.8706 250.4105,235.7076 C249.3515,238.9976 248.1625,242.1836 246.8765,245.2646 C246.4885,246.1626 246.1085,247.0466 245.7045,247.9276 C245.3765,248.6576 245.0315,249.3936 244.6915,250.1176 C244.6535,250.1936 244.6245,250.2666 244.5925,250.3286 C244.3005,250.9106 244.0275,251.4846 243.7425,252.0546 C243.6215,252.2946 243.4985,252.5246 243.3835,252.7526 C243.1085,253.2866 242.8315,253.8206 242.5525,254.3446 C242.1145,255.1536 241.6705,255.9426 241.2265,256.7326 C240.8205,257.4466 240.4075,258.1426 239.9865,258.8406 C239.1385,260.2266 238.2735,261.5876 237.3725,262.9076 C236.8685,263.6446 236.3605,264.3706 235.8475,265.0776 C235.4415,265.6336 235.0365,266.1896 234.6275,266.7356 C234.1325,267.3736 233.6345,268.0016 233.1275,268.6336 C232.7605,269.0816 232.3925,269.5306 232.0225,269.9696 C231.9935,270.0106 231.9545,270.0546 231.9235,270.0856 C231.6925,270.3736 231.4475,270.6536 231.2015,270.9266 C230.8045,271.3836 230.4125,271.8186 230.0195,272.2556 C229.5875,272.7346 229.1445,273.2086 228.7075,273.6686 C228.5645,273.8106 228.4255,273.9626 228.2825,274.1056 C227.8265,274.5716 227.3605,275.0416 226.8885,275.4936 C226.4385,275.9476 225.9735,276.3876 225.4945,276.8196 C225.3365,276.9766 225.1815,277.1126 225.0195,277.2616 C224.6395,277.6076 224.2495,277.9586 223.8575,278.2996 C223.6455,278.4856 223.4325,278.6716 223.2175,278.8486 C222.1255,279.7796 221.0165,280.6626 219.8795,281.5236 C219.3215,281.9396 218.7545,282.3596 218.1825,282.7606 C217.6245,283.1446 217.0765,283.5266 216.5165,283.9016 C216.3865,283.9866 216.2565,284.0716 216.1275,284.1576 C215.5885,284.5046 215.0475,284.8426 214.4965,285.1826 C214.4335,285.2146 214.3735,285.2546 214.3035,285.2986 C213.7585,285.6266 213.2115,285.9446 212.6605,286.2546 C212.5125,286.3456 212.3505,286.4316 212.2015,286.5216 C211.6415,286.8336 211.0775,287.1366 210.5025,287.4326 C209.8815,287.7546 209.2575,288.0656 208.6305,288.3686 C208.5295,288.4126 208.4315,288.4656 208.3215,288.5146 C207.7035,288.8126 207.0805,289.0926 206.4535,289.3636 C205.0645,289.9716 203.6465,290.5246 202.2135,291.0316 L200.8555,291.4816 C201.3275,291.3146 201.7925,291.1296 202.2545,290.9346 C202.2925,290.9216 202.3365,290.8966 202.3745,290.8846 C202.7795,290.7076 203.1725,290.5246 203.5705,290.3296 L203.6185,290.3126 C204.0525,290.0956 204.4765,289.8826 204.8945,289.6486 C205.3215,289.4116 205.7455,289.1666 206.1665,288.9106 C206.3405,288.8006 206.5155,288.6896 206.6895,288.5796 C206.9325,288.4256 207.1835,288.2586 207.4235,288.0946 C207.8355,287.8106 208.2335,287.5196 208.6395,287.2176 C209.0455,286.9146 209.4385,286.6056 209.8235,286.2766 C210.1035,286.0376 210.3815,285.7976 210.6605,285.5586 C211.0845,285.1856 211.4935,284.7976 211.9085,284.3966 C212.1085,284.2036 212.3145,283.9986 212.5065,283.7866 C212.6495,283.6446 212.7925,283.5026 212.9215,283.3556 C213.1245,283.1396 213.3275,282.9256 213.5275,282.7006 C213.7205,282.4896 213.9205,282.2656 214.1165,282.0316 C214.3075,281.8106 214.5035,281.5766 214.6905,281.3466 C214.8875,281.1136 215.0805,280.8696 215.2635,280.6296 C215.4355,280.4156 215.5965,280.2036 215.7685,279.9886 C216.0185,279.6636 216.2555,279.3316 216.5005,278.9876 C216.7385,278.6566 216.9695,278.3056 217.2135,277.9616 C217.5375,277.4756 217.8675,276.9766 218.1805,276.4606 C218.4635,276.0096 218.7495,275.5356 219.0255,275.0646 C219.0505,275.0146 219.0875,274.9706 219.1105,274.9096 C219.4085,274.4106 219.6915,273.8966 219.9705,273.3726 C219.9835,273.3466 220.0025,273.3086 220.0145,273.2836 C220.3065,272.7336 220.5865,272.1776 220.8715,271.6086 C221.0245,271.3056 221.1675,271.0056 221.3105,270.7056 C221.5255,270.2436 221.7415,269.7826 221.9445,269.3146 C222.1575,268.8446 222.3605,268.3766 222.5665,267.8866 C222.7835,267.3626 222.9995,266.8386 223.2095,266.2946 C223.4095,265.7856 223.6065,265.2676 223.7905,264.7426 C223.9595,264.2976 224.1245,263.8426 224.2765,263.3806 C224.5215,262.6876 224.7505,261.9806 224.9765,261.2626 C225.0935,260.8876 225.2185,260.4986 225.3295,260.1036 C225.6985,258.8966 226.0365,257.6566 226.3645,256.3896 C226.6345,255.3626 226.8865,254.3096 227.1225,253.2406 C227.1445,253.1496 227.1645,253.0486 227.1865,252.9566 C227.3305,252.3086 227.4635,251.6646 227.6015,250.9966 C227.8695,249.6756 228.1185,248.3286 228.3485,246.9566 C228.4095,246.5686 228.4795,246.1756 228.5405,245.7876 C228.7705,244.3516 228.9725,242.8946 229.1515,241.4016 C229.2425,240.7196 229.3195,240.0296 229.3965,239.3406 C229.4005,239.2546 229.4165,239.1766 229.4195,239.0916 C229.5055,238.3046 229.5805,237.5096 229.6605,236.7046 C229.7445,235.8126 229.8185,234.9236 229.8775,234.0196 C229.9485,233.1216 230.0165,232.2136 230.0595,231.2936 C230.1015,230.6266 230.1315,229.9536 230.1615,229.2796 C230.1915,228.6066 230.2205,227.9326 230.2445,227.2406 C230.3675,223.8286 230.3965,220.3216 230.3235,216.7326 C230.3065,215.8526 230.2825,214.9546 230.2495,214.0606 C230.2255,213.1616 230.1925,212.2666 230.1475,211.3656 C230.1405,211.1876 230.1385,211.0216 230.1225,210.8466 C230.0835,209.9016 230.0345,208.9586 229.9695,208.0006 C229.9665,207.9906 229.9725,207.9786 229.9695,207.9686 C229.8565,206.0686 229.7115,204.1356 229.5505,202.1876 C229.4545,201.1026 229.3515,199.9986 229.2435,198.9076 C229.1695,198.1426 229.0915,197.3676 229.0045,196.5956 C228.9485,196.0446 228.8925,195.4946 228.8235,194.9376 C228.6275,193.1696 228.4005,191.4016 228.1535,189.6086 C228.0355,188.7096 227.9035,187.8056 227.7735,186.9006 C227.7225,186.5276 227.6665,186.1666 227.6165,185.7936 C227.4515,184.6586 227.2755,183.5256 227.0795,182.3906 C226.9885,181.8616 226.9075,181.3306 226.8165,180.8016 C226.7325,180.2616 226.6415,179.7326 226.5375,179.1986 C226.4875,178.9196 226.4505,178.6476 226.4005,178.3696 C226.2505,177.5346 226.1005,176.6996 225.9405,175.8676 C225.5365,173.6306 225.0875,171.3876 224.6055,169.1356 C224.1315,166.8806 223.6205,164.6056 223.0875,162.3276 C222.8235,161.1826 222.5505,160.0406 222.2655,158.8916 C221.9695,157.7146 221.6715,156.5286 221.3735,155.3416 C221.3705,155.3326 221.3705,155.3326 221.3675,155.3226 C221.4535,153.1346 221.1605,150.8826 220.4315,148.6806 C224.6255,154.7596 232.4845,157.6236 239.8515,155.1836 C246.4675,152.9916 250.8425,147.1496 251.4835,140.6266" id="Fill-143" fill="#E0F7FE"></path>
                <path d="M227.6168,185.7935 C227.3738,184.1365 227.1078,182.4755 226.8168,180.8015 C226.9078,181.3305 226.9888,181.8615 227.0788,182.3905 C227.2668,183.5285 227.4418,184.6615 227.6168,185.7935" id="Fill-145" fill="#FFB267"></path>
                <path d="M226.5377,179.1983 C226.3507,178.0913 226.1497,176.9773 225.9397,175.8673 C226.1007,176.6993 226.2497,177.5343 226.3997,178.3693 C226.4497,178.6483 226.4877,178.9203 226.5377,179.1983" id="Fill-147" fill="#FFB267"></path>
                <path d="M225.94,175.8673 C225.527,173.6343 225.079,171.3913 224.605,169.1353 C225.088,171.3883 225.537,173.6303 225.94,175.8673" id="Fill-149" fill="#FFB267"></path>
                <path d="M246.7076,124.0475 C246.9776,124.8635 247.2386,125.6835 247.4996,126.5035 C247.7256,127.1865 247.9306,127.8665 248.1386,128.5565 L248.2326,128.8405 C248.2886,129.0115 248.3326,129.1765 248.3796,129.3505 C248.6246,130.1225 248.8486,130.8915 249.0716,131.6605 L249.1156,131.7935 C249.6936,133.7605 250.2276,135.7225 250.7426,137.6905 C250.9906,138.6615 251.2416,139.6425 251.4806,140.6175 L251.4836,140.6265 C250.8426,147.1495 246.4676,152.9915 239.8506,155.1835 C232.4846,157.6235 224.6256,154.7595 220.4316,148.6805 C221.1606,150.8825 221.4536,153.1345 221.3676,155.3225 C220.8806,153.4725 220.3816,151.6145 219.8566,149.7455 C219.6676,149.0495 219.4676,148.3465 219.2686,147.6535 C219.1216,147.1125 218.9606,146.5655 218.8036,146.0275 C218.7226,145.7495 218.6376,145.4615 218.5616,145.1695 L218.5086,145.0085 C218.4306,144.7395 218.3486,144.4615 218.2566,144.1865 L218.2536,144.1765 C218.1126,143.6865 217.9616,143.1985 217.8176,142.6985 C217.8046,142.6935 217.8086,142.6705 217.8016,142.6515 C217.7696,142.5565 217.7386,142.4615 217.7166,142.3635 C217.3336,141.1105 216.9336,139.8415 216.5346,138.5725 C216.1076,137.2185 215.6636,135.8485 215.2106,134.4825 C190.3006,59.2905 143.3616,7.0835 109.9556,17.0965 L111.3126,16.6475 C161.4326,1.1495 221.8076,48.8845 246.7076,124.0475" id="Fill-151" fill="#FFB267"></path>
                <path d="M205.2393,251.7052 C205.2053,251.4112 205.1743,251.1262 205.1393,250.8322 C205.0713,250.3382 205.0113,249.8422 204.9523,249.3462 C205.0493,250.1462 205.1523,250.9322 205.2393,251.7052 L205.2393,251.7052 Z M203.7103,240.6652 C203.8473,241.5262 203.9793,242.3682 204.1003,243.2122 C204.1543,243.5322 204.1943,243.8452 204.2443,244.1552 C204.0223,242.5952 203.7883,240.9982 203.5133,239.3722 C203.5813,239.8022 203.6413,240.2362 203.7103,240.6652 L203.7103,240.6652 Z M202.8463,235.4212 C202.9253,235.8482 203.0003,236.2662 203.0663,236.6862 C203.0153,236.3762 202.9633,236.0572 202.9093,235.7382 C202.8213,235.2192 202.7213,234.6932 202.6313,234.1652 C202.7063,234.5832 202.7723,235.0032 202.8463,235.4212 L202.8463,235.4212 Z M226.5373,179.1982 C226.4873,178.9202 226.4503,178.6482 226.4003,178.3702 C226.2503,177.5342 226.1003,176.6992 225.9403,175.8672 C226.1503,176.9772 226.3503,178.0912 226.5373,179.1982 L226.5373,179.1982 Z M227.6163,185.7932 C227.5233,185.1612 227.4263,184.5192 227.3223,183.8892 C227.2513,183.3872 227.1603,182.8892 227.0793,182.3902 C227.2663,183.5292 227.4423,184.6612 227.6163,185.7932 L227.6163,185.7932 Z M225.9403,175.8672 C225.5363,173.6302 225.0883,171.3882 224.6053,169.1362 C225.0783,171.3912 225.5273,173.6342 225.9403,175.8672 L225.9403,175.8672 Z M200.3903,291.6362 C200.1213,291.7142 199.8433,291.7952 199.5773,291.8832 C199.5683,291.8872 199.5683,291.8872 199.5583,291.8902 C198.9823,292.0602 198.4163,292.2262 197.8463,292.3842 C197.5583,292.4682 197.2613,292.5562 196.9613,292.6352 C197.3873,292.5252 197.8153,292.4152 198.2353,292.2862 C198.7293,292.1542 199.2163,292.0032 199.7163,291.8592 C199.8333,291.8312 199.9563,291.7892 200.0713,291.7522 L201.4563,291.2922 C201.6843,291.2172 201.9093,291.1322 202.1273,291.0602 L200.3903,291.6362 Z M109.9553,17.0972 L111.2273,16.6752 C111.0093,16.7472 110.7783,16.8132 110.5503,16.8892 L109.1643,17.3482 C109.0503,17.3862 108.9273,17.4272 108.8163,17.4742 C108.3283,17.6572 107.8483,17.8272 107.3733,18.0152 C106.9583,18.1642 106.5503,18.3302 106.1423,18.4972 C58.6633,37.7032 39.9033,110.6852 64.3443,184.4622 C64.5703,185.1452 64.7973,185.8292 65.0423,186.5062 C65.7163,188.5062 66.4203,190.4742 67.1603,192.4202 C67.2543,192.6732 67.3453,192.9172 67.4403,193.1702 C67.4403,193.1702 67.4433,193.1802 67.4463,193.1892 C67.5743,193.5462 67.7163,193.9112 67.8553,194.2652 C68.5223,196.0252 69.2213,197.7522 69.9393,199.4742 C70.0463,199.7342 70.1533,199.9932 70.2693,200.2492 C74.2323,205.5312 81.2793,207.9482 87.8953,205.7552 C96.1353,203.0262 100.6293,194.1742 98.0133,185.9282 C98.0383,185.9722 98.0543,186.0202 98.0703,186.0672 L98.0733,186.0772 C98.9703,188.4972 99.8893,190.8892 100.8373,193.2412 L100.8403,193.2502 C105.4053,200.3552 114.3613,203.7622 122.7523,200.9822 C131.4293,198.1072 136.6373,189.5662 135.6283,180.8302 C135.8743,181.4442 136.1353,182.0422 136.4223,182.6212 C142.1333,194.5822 155.9793,200.6982 168.8803,196.4252 C180.4133,192.6032 187.5803,181.6752 187.1533,170.1132 L187.1493,170.1032 C187.0903,168.3332 186.8493,166.5582 186.4003,164.7892 C190.9563,171.9602 199.9463,175.4082 208.3763,172.6162 C216.0933,170.0592 221.0713,163.0162 221.3733,155.3422 C221.3703,155.3322 221.3703,155.3322 221.3673,155.3232 C220.8813,153.4722 220.3813,151.6152 219.8563,149.7452 C219.6683,149.0492 219.4673,148.3472 219.2693,147.6542 C219.1213,147.1122 218.9613,146.5652 218.8033,146.0272 C218.7223,145.7492 218.6373,145.4612 218.5623,145.1702 L218.5083,145.0092 C218.4303,144.7402 218.3483,144.4612 218.2573,144.1862 L218.2543,144.1762 C218.1123,143.6862 217.9623,143.1992 217.8173,142.6992 C217.8043,142.6932 217.8083,142.6702 217.8023,142.6512 C217.7703,142.5562 217.7383,142.4612 217.7163,142.3642 C217.3333,141.1112 216.9343,139.8422 216.5343,138.5732 C216.1073,137.2192 215.6633,135.8492 215.2113,134.4822 C190.3003,59.2902 143.3613,7.0832 109.9553,17.0972 L109.9553,17.0972 Z" id="Fill-153" fill="#FFB267"></path>
                <path d="M197.8467,292.3844 C197.5587,292.4684 197.2617,292.5564 196.9607,292.6354 C151.0417,304.6234 97.3367,264.8444 70.2697,200.2494 C74.2317,205.5314 81.2787,207.9474 87.8957,205.7554 C96.1357,203.0264 100.6297,194.1744 98.0137,185.9284 C98.0387,185.9724 98.0547,186.0204 98.0707,186.0674 L98.0737,186.0764 C98.9707,188.4974 99.8897,190.8894 100.8367,193.2414 L100.8397,193.2504 C126.4127,257.2144 167.4057,299.8354 197.8467,292.3844" id="Fill-155" fill="#E0F7FE"></path>
                <path d="M221.3736,155.3419 C221.6716,156.5279 221.9696,157.7149 222.2656,158.8919 C222.5506,160.0399 222.8236,161.1819 223.0876,162.3269 C223.6206,164.6059 224.1316,166.8809 224.6056,169.1359 C225.0786,171.3909 225.5266,173.6339 225.9396,175.8669 C226.1496,176.9779 226.3506,178.0919 226.5376,179.1979 C226.6416,179.7329 226.7316,180.2609 226.8166,180.8019 C226.9076,181.3309 226.9886,181.8619 227.0796,182.3899 C227.2666,183.5289 227.4416,184.6609 227.6166,185.7939 C227.6666,186.1669 227.7226,186.5279 227.7726,186.9009 C227.9036,187.8049 228.0356,188.7099 228.1536,189.6089 C228.4006,191.4019 228.6276,193.1699 228.8236,194.9379 C228.8926,195.4949 228.9486,196.0449 229.0036,196.5949 C229.0916,197.3669 229.1686,198.1419 229.2436,198.9069 C229.3516,199.9989 229.4546,201.1029 229.5506,202.1869 C229.7106,204.1349 229.8566,206.0689 229.9696,207.9689 C229.9726,207.9779 229.9666,207.9909 229.9696,207.9999 C230.0346,208.9589 230.0836,209.9019 230.1226,210.8469 C230.1386,211.0209 230.1406,211.1879 230.1466,211.3649 C230.1926,212.2669 230.2256,213.1619 230.2496,214.0599 C230.2826,214.9549 230.3036,215.8429 230.3236,216.7329 C230.3956,220.3209 230.3676,223.8289 230.2446,227.2399 C230.2206,227.9329 230.1906,228.6069 230.1616,229.2799 C230.1316,229.9529 230.1016,230.6269 230.0596,231.2939 C230.0166,232.2139 229.9486,233.1219 229.8776,234.0199 C229.8186,234.9239 229.7446,235.8119 229.6606,236.7039 C229.5796,237.5099 229.5056,238.3039 229.4186,239.0909 C229.4156,239.1769 229.3996,239.2549 229.3966,239.3399 C229.3196,240.0299 229.2426,240.7189 229.1516,241.4019 C228.9726,242.8939 228.7706,244.3519 228.5406,245.7869 C228.4796,246.1759 228.4096,246.5689 228.3486,246.9569 C228.1186,248.3279 227.8696,249.6749 227.6016,250.9969 C227.4636,251.6639 227.3296,252.3079 227.1856,252.9569 C227.1636,253.0479 227.1446,253.1499 227.1226,253.2409 C226.8766,254.3119 226.6246,255.3659 226.3646,256.3889 C226.0366,257.6569 225.6986,258.8959 225.3296,260.1029 C225.2186,260.4989 225.0936,260.8869 224.9766,261.2619 C224.7506,261.9799 224.5216,262.6879 224.2766,263.3809 C224.1246,263.8429 223.9586,264.2979 223.7906,264.7429 C223.6056,265.2669 223.4096,265.7859 223.2086,266.2949 C222.9996,266.8389 222.7836,267.3629 222.5666,267.8859 C222.3606,268.3769 222.1576,268.8439 221.9446,269.3149 C221.7416,269.7829 221.5256,270.2439 221.3106,270.7059 C221.1666,271.0059 221.0236,271.3049 220.8716,271.6089 C220.5856,272.1769 220.3066,272.7339 220.0146,273.2839 C220.0016,273.3079 219.9826,273.3459 219.9706,273.3729 C219.6906,273.8959 219.4056,274.4019 219.1106,274.9099 C219.0876,274.9699 219.0506,275.0139 219.0246,275.0649 C218.7496,275.5359 218.4636,276.0089 218.1806,276.4609 C217.8676,276.9759 217.5376,277.4749 217.2136,277.9619 C216.9696,278.3049 216.7386,278.6569 216.4996,278.9879 C216.2556,279.3319 216.0186,279.6639 215.7686,279.9889 C215.5966,280.2039 215.4356,280.4159 215.2636,280.6299 C215.0796,280.8699 214.8876,281.1139 214.6896,281.3459 C214.5026,281.5769 214.3076,281.8109 214.1166,282.0319 C213.9196,282.2649 213.7206,282.4899 213.5276,282.7009 C213.3276,282.9249 213.1246,283.1389 212.9216,283.3549 C212.7916,283.5029 212.6496,283.6449 212.5066,283.7869 C212.3136,283.9989 212.1076,284.2039 211.9086,284.3959 C211.4936,284.7979 211.0846,285.1859 210.6606,285.5579 C210.3816,285.7979 210.1036,286.0379 209.8236,286.2769 C209.4376,286.6059 209.0446,286.9149 208.6396,287.2179 C208.2336,287.5199 207.8346,287.8099 207.4236,288.0939 C207.1836,288.2589 206.9326,288.4249 206.6896,288.5799 C206.5156,288.6899 206.3406,288.7999 206.1666,288.9109 C205.7456,289.1669 205.3216,289.4119 204.8946,289.6489 C204.4766,289.8819 204.0526,290.0949 203.6186,290.3129 L203.5706,290.3299 C203.1726,290.5249 202.7796,290.7079 202.3746,290.8839 C202.3366,290.8959 202.2926,290.9219 202.2546,290.9339 C201.7926,291.1299 201.3276,291.3149 200.8556,291.4819 L200.4186,291.6269 C200.5206,291.5829 200.6276,291.5249 200.7266,291.4719 C200.8806,291.3989 201.0426,291.3139 201.1876,291.2139 C201.2956,291.1569 201.3976,291.0819 201.4976,291.0059 C201.6286,290.9209 201.7426,290.8189 201.8666,290.7149 C201.8756,290.7119 201.8726,290.7029 201.8816,290.6999 C201.9386,290.6489 202.0056,290.5949 202.0596,290.5349 C202.1156,290.4849 202.1736,290.4339 202.2276,290.3749 C202.2806,290.3139 202.3436,290.2519 202.3976,290.1909 C202.4516,290.1309 202.5156,290.0679 202.5656,289.9989 C202.7116,289.8349 202.8516,289.6509 202.9876,289.4589 C203.1116,289.2919 203.2316,289.1149 203.3486,288.9269 C203.3776,288.8869 203.3936,288.8389 203.4216,288.7979 C203.5396,288.6119 203.6506,288.4069 203.7586,288.1919 C204.0126,287.7179 204.2446,287.2099 204.4596,286.6529 C204.5556,286.3999 204.6476,286.1379 204.7366,285.8659 C204.7336,285.8569 204.7436,285.8539 204.7396,285.8439 C204.8416,285.5479 204.9346,285.2539 205.0196,284.9399 C205.1156,284.6249 205.2016,284.3109 205.2806,283.9789 C205.3446,283.6949 205.4176,283.4069 205.4786,283.1129 C205.5326,282.8639 205.5836,282.6039 205.6256,282.3479 C205.6766,282.0889 205.7276,281.8299 205.7656,281.5639 C205.8136,281.2959 205.8586,281.0169 205.8946,280.7419 C205.9386,280.4639 205.9806,280.1769 206.0126,279.8919 C206.0416,279.6619 206.0706,279.4299 206.0956,279.1899 C206.1606,278.7149 206.2086,278.2249 206.2506,277.7159 C206.2896,277.2939 206.3216,276.8499 206.3536,276.4079 C206.3766,275.9999 206.3996,275.5929 206.4196,275.1739 C206.4396,274.7569 206.4596,274.3399 206.4726,273.9039 C206.4766,273.5969 206.4896,273.2869 206.4996,272.9679 C206.5136,272.4049 206.5146,271.8359 206.5196,271.2449 C206.5266,270.3779 206.5216,269.5049 206.5046,268.5939 C206.4996,268.2589 206.4836,267.9269 206.4786,267.5909 C206.4656,267.2689 206.4566,266.9559 206.4446,266.6339 C206.4356,266.3209 206.4236,265.9979 206.4096,265.6659 C206.3846,265.0519 206.3536,264.4199 206.3146,263.7899 C206.3106,263.7159 206.3086,263.6449 206.3086,263.5809 C206.2646,262.9419 206.2286,262.2909 206.1786,261.6339 C206.1606,261.2919 206.1296,260.9439 206.1086,260.5929 C206.0316,259.5329 205.9376,258.4579 205.8386,257.3629 C205.7736,256.6589 205.7056,255.9439 205.6346,255.2189 C205.6246,255.1909 205.6186,255.1729 205.6226,255.1489 C205.5106,254.0169 205.3826,252.8689 205.2396,251.7049 C205.2046,251.4109 205.1736,251.1259 205.1396,250.8319 C205.0706,250.3389 205.0116,249.8429 204.9526,249.3459 C204.9056,248.9499 204.8466,248.5479 204.7966,248.1429 C204.6876,247.3369 204.5786,246.5299 204.4626,245.7049 C204.3886,245.1929 204.3226,244.6769 204.2446,244.1549 C204.0226,242.5949 203.7886,240.9979 203.5136,239.3719 C203.4446,238.9419 203.3726,238.5029 203.3006,238.0629 C203.2886,238.0249 203.2846,237.9839 203.2816,237.9429 C203.2066,237.5249 203.1416,237.1039 203.0656,236.6859 C203.0156,236.3769 202.9626,236.0569 202.9096,235.7379 C202.8216,235.2189 202.7216,234.6939 202.6306,234.1659 C202.5526,233.7379 202.4866,233.3179 202.4086,232.8899 C202.2296,231.9379 202.0586,230.9739 201.8796,229.9899 C201.7136,229.0759 201.5326,228.1459 201.3506,227.2149 C200.8086,224.4029 200.2256,221.5309 199.6016,218.5979 C199.4446,217.8389 199.2856,217.0699 199.1166,216.3049 C198.8706,215.2159 198.6296,214.1059 198.3786,212.9989 C198.1246,211.8819 197.8806,210.7619 197.6106,209.6299 C197.3776,208.6109 197.1426,207.5829 196.8976,206.5569 C196.6536,205.5319 196.4056,204.4979 196.1546,203.4539 C195.9036,202.4099 195.6426,201.3689 195.3886,200.3159 C194.8386,198.1169 194.2836,195.8989 193.6966,193.6499 C192.8836,190.5269 192.0416,187.3509 191.1556,184.1359 C190.8376,182.9879 190.5176,181.8289 190.1976,180.6719 C189.5816,178.4949 188.9566,176.2889 188.3086,174.0809 C187.9356,172.7609 187.5386,171.4389 187.1526,170.1129 L187.1496,170.1039 C187.0896,168.3329 186.8496,166.5579 186.4006,164.7899 C190.9566,171.9609 199.9466,175.4079 208.3766,172.6159 C216.0936,170.0589 221.0716,163.0159 221.3736,155.3419" id="Fill-157" fill="#A2DEE1"></path>
                <path d="M200.5616,291.5797 C200.5176,291.6037 200.4696,291.6197 200.4316,291.6327 L200.2036,291.7077 C200.2696,291.6857 200.3246,291.6577 200.3906,291.6367 L200.5616,291.5797 Z" id="Fill-159" fill="#FF4C2E"></path>
                <path d="M205.2393,251.7052 C205.1523,250.9322 205.0493,250.1462 204.9523,249.3462 C205.0113,249.8422 205.0713,250.3382 205.1393,250.8322 C205.1743,251.1262 205.2053,251.4112 205.2393,251.7052" id="Fill-161" fill="#FF4C2E"></path>
                <path d="M203.71,240.6656 C203.641,240.2356 203.582,239.8026 203.513,239.3716 C203.873,241.5396 204.182,243.6486 204.463,245.7046 C204.348,244.8786 204.232,244.0536 204.1,243.2116 C203.979,242.3676 203.847,241.5266 203.71,240.6656" id="Fill-163" fill="#FF4C2E"></path>
                <path d="M202.8467,235.421 C202.7057,234.583 202.5557,233.748 202.4087,232.89 C202.5777,233.846 202.7437,234.792 202.9097,235.738 C202.9627,236.057 203.0157,236.377 203.0657,236.686 C202.9997,236.266 202.9257,235.848 202.8467,235.421" id="Fill-165" fill="#FF4C2E"></path>
                <path d="M225.94,175.8673 C226.1,176.6993 226.25,177.5343 226.4,178.3693 C226.45,178.6483 226.488,178.9203 226.538,179.1983 C226.35,178.0913 226.15,176.9773 225.94,175.8673" id="Fill-167" fill="#FF4C2E"></path>
                <path d="M215.211,134.482 C215.664,135.849 216.107,137.219 216.535,138.573 C216.934,139.842 217.333,141.111 217.717,142.364 C217.739,142.461 217.77,142.556 217.802,142.651 C217.808,142.67 217.804,142.693 217.817,142.699 C217.962,143.199 218.112,143.686 218.254,144.176 L218.257,144.186 C218.348,144.461 218.43,144.74 218.508,145.009 L218.562,145.17 C218.637,145.461 218.722,145.749 218.804,146.027 C218.961,146.565 219.122,147.112 219.269,147.654 C219.467,148.347 219.668,149.049 219.856,149.745 C220.381,151.615 220.881,153.472 221.367,155.323 C221.371,155.333 221.371,155.333 221.374,155.342 C221.071,163.016 216.094,170.059 208.376,172.616 C199.947,175.408 190.957,171.96 186.4,164.79 C186.85,166.558 187.09,168.333 187.15,170.104 C186.826,169.031 186.508,167.946 186.178,166.855 C185.848,165.763 185.518,164.671 185.179,163.583 C185.069,163.219 184.958,162.855 184.849,162.491 C184.286,160.666 183.708,158.824 183.129,156.982 L183.123,156.963 C183.054,156.754 182.997,156.552 182.928,156.343 C182.441,154.809 181.947,153.255 181.447,151.714 C180.859,149.907 180.265,148.082 179.661,146.259 C179.028,144.351 178.387,142.446 177.751,140.56 C177.195,138.943 176.639,137.326 176.088,135.728 C176.028,135.58 175.981,135.437 175.931,135.285 C175.311,133.479 174.675,131.688 174.046,129.916 C173.712,128.972 173.379,128.029 173.04,127.099 C172.706,126.156 172.367,125.226 172.026,124.295 C171.35,122.444 170.667,120.606 169.987,118.776 C169.579,117.669 169.163,116.574 168.748,115.48 C168.48,114.767 168.213,114.056 167.936,113.346 C167.499,112.185 167.051,111.027 166.608,109.878 C166.073,108.518 165.541,107.166 165.012,105.824 C164.188,103.717 163.35,101.634 162.513,99.584 C161.794,97.83 161.083,96.096 160.365,94.375 C160.009,93.523 159.654,92.672 159.292,91.833 C158.895,90.89 158.501,89.957 158.098,89.026 C157.78,88.289 157.462,87.552 157.148,86.824 C156.685,85.745 156.212,84.668 155.746,83.611 C155.145,82.241 154.54,80.893 153.939,79.554 C153.529,78.636 153.11,77.721 152.694,76.817 C152.2,75.737 151.708,74.668 151.211,73.61 C150.798,72.714 150.379,71.831 149.963,70.958 C148.688,68.252 147.402,65.612 146.129,63.073 C145.767,62.33 145.398,61.599 145.023,60.88 C144.214,59.263 143.398,57.689 142.585,56.157 C142.181,55.385 141.784,54.631 141.378,53.881 C140.896,52.967 140.407,52.064 139.913,51.175 C139.6,50.615 139.301,50.061 138.992,49.51 C138.708,49.003 138.428,48.506 138.147,48.009 C137.848,47.487 137.561,46.971 137.268,46.468 C136.379,44.929 135.506,43.438 134.632,42.01 C134.462,41.719 134.282,41.431 134.106,41.152 C133.16,39.601 132.23,38.129 131.299,36.72 C131.12,36.432 130.934,36.156 130.748,35.881 C129.102,33.393 127.496,31.122 125.932,29.102 C125.761,28.874 125.591,28.646 125.414,28.43 C125.247,28.212 125.07,27.997 124.903,27.778 C124.597,27.395 124.294,27.021 123.994,26.657 C122.979,25.435 121.984,24.31 121.012,23.315 C120.851,23.147 120.69,22.979 120.533,22.821 C120.453,22.742 120.378,22.672 120.308,22.59 C120.201,22.489 120.093,22.387 119.986,22.285 C119.519,21.829 119.062,21.401 118.604,21.005 C118.455,20.876 118.307,20.746 118.148,20.619 C117.852,20.359 117.552,20.122 117.258,19.902 C117.113,19.782 116.974,19.681 116.823,19.573 C116.554,19.367 116.283,19.183 116.014,19.008 C116.001,19.002 115.989,18.996 115.985,18.986 C115.721,18.821 115.468,18.663 115.218,18.514 C115.192,18.501 115.164,18.479 115.139,18.466 C114.905,18.333 114.675,18.209 114.448,18.095 C114.397,18.069 114.356,18.041 114.308,18.025 C114.107,17.923 113.894,17.825 113.689,17.746 C113.443,17.638 113.202,17.549 112.956,17.472 C112.751,17.393 112.542,17.335 112.337,17.288 C112.21,17.256 112.087,17.233 111.963,17.211 C111.593,17.144 111.233,17.106 110.882,17.095 L110.692,17.095 C110.515,17.101 110.338,17.107 110.168,17.132 C110.076,17.141 109.984,17.15 109.895,17.169 C109.766,17.192 109.646,17.21 109.519,17.241 L109.49,17.251 C109.424,17.273 109.364,17.282 109.297,17.304 L109.525,17.229 C109.563,17.216 109.611,17.201 109.661,17.194 L109.956,17.097 C143.361,7.083 190.301,59.291 215.211,134.482" id="Fill-169" fill="#FF4C2E"></path>
                <path d="M199.5586,291.8902 C198.9826,292.0602 198.4156,292.2262 197.8466,292.3842 C167.4056,299.8352 126.4126,257.2142 100.8396,193.2502 C105.4056,200.3552 114.3616,203.7622 122.7526,200.9822 C131.4296,198.1072 136.6376,189.5662 135.6286,180.8302 C135.8746,181.4442 136.1356,182.0422 136.4226,182.6212 C159.8496,247.5162 186.7456,294.6502 199.5586,291.8902" id="Fill-171" fill="#A2DEE1"></path>
                <path d="M199.5772,291.8834 C199.8432,291.7954 200.1212,291.7144 200.3902,291.6364 C200.3242,291.6574 200.2702,291.6864 200.2042,291.7074 L200.0712,291.7524 C199.8052,291.8404 199.5492,291.9254 199.2802,292.0034 C198.9352,292.1084 198.5872,292.2014 198.2352,292.2854 C198.1122,292.3264 197.9862,292.3594 197.8472,292.3844 C198.4162,292.2264 198.9822,292.0604 199.5582,291.8904 C199.5682,291.8874 199.5682,291.8874 199.5772,291.8834" id="Fill-173" fill="#FF4C2E"></path>
                <path d="M204.9527,249.3458 C205.0117,249.8428 205.0707,250.3388 205.1397,250.8318 C205.1737,251.1258 205.2047,251.4108 205.2397,251.7048 C205.1517,250.9328 205.0497,250.1458 204.9527,249.3458" id="Fill-175" fill="#FF4C2E"></path>
                <path d="M203.5132,239.3717 C203.8722,241.5387 204.1822,243.6487 204.4622,245.7047 C204.3482,244.8787 204.2322,244.0537 204.1002,243.2117 C203.9792,242.3677 203.8472,241.5267 203.7102,240.6657 C203.6412,240.2357 203.5812,239.8027 203.5132,239.3717" id="Fill-177" fill="#FF4C2E"></path>
                <path d="M202.4087,232.8902 C202.5777,233.8462 202.7437,234.7912 202.9097,235.7382 C202.9627,236.0572 203.0157,236.3762 203.0657,236.6862 C202.9997,236.2662 202.9257,235.8482 202.8467,235.4212 C202.7057,234.5832 202.5557,233.7482 202.4087,232.8902" id="Fill-179" fill="#FF4C2E"></path>
                <path d="M179.6607,146.2594 C180.2647,148.0814 180.8587,149.9074 181.4467,151.7144 C181.9467,153.2554 182.4407,154.8084 182.9277,156.3434 C182.9967,156.5514 183.0537,156.7544 183.1227,156.9634 L183.1297,156.9824 C183.7077,158.8234 184.2857,160.6654 184.8487,162.4914 C184.9587,162.8554 185.0687,163.2184 185.1787,163.5824 C185.5177,164.6714 185.8477,165.7624 186.1787,166.8544 C186.5087,167.9454 186.8257,169.0304 187.1497,170.1034 L187.1527,170.1134 C187.5807,181.6754 180.4137,192.6034 168.8797,196.4244 C155.9797,200.6984 142.1337,194.5824 136.4227,182.6214 C136.1357,182.0424 135.8737,181.4434 135.6287,180.8304 C136.6377,189.5664 131.4297,198.1074 122.7527,200.9824 C114.3617,203.7614 105.4057,200.3554 100.8397,193.2504 L100.8367,193.2414 C99.8897,190.8894 98.9707,188.4974 98.0737,186.0764 L98.0707,186.0674 C98.0547,186.0204 98.0387,185.9724 98.0127,185.9284 C97.8407,185.4694 97.6767,185.0074 97.5097,184.5354 C96.2987,181.2924 95.1507,177.9854 94.0367,174.6254 C69.4827,100.5064 75.4187,31.5194 107.0027,18.1704 C107.1297,18.1074 107.2497,18.0564 107.3727,18.0154 C107.7057,17.8734 108.0407,17.7414 108.3797,17.6184 C108.6427,17.5214 108.8987,17.4364 109.1647,17.3484 L109.2977,17.3044 C109.3637,17.2824 109.4237,17.2724 109.4907,17.2504 L109.5187,17.2414 C109.6457,17.2104 109.7657,17.1914 109.8947,17.1694 C109.9837,17.1504 110.0757,17.1414 110.1677,17.1314 C110.3377,17.1074 110.5147,17.1014 110.6927,17.0944 C110.7557,17.0944 110.8187,17.0954 110.8817,17.0954 C111.2327,17.1054 111.5937,17.1444 111.9637,17.2114 C112.0867,17.2334 112.2097,17.2564 112.3367,17.2874 C112.5417,17.3354 112.7537,17.4014 112.9557,17.4724 C113.2027,17.5484 113.4427,17.6374 113.6887,17.7454 C113.8937,17.8254 114.1067,17.9234 114.3077,18.0254 C114.3557,18.0414 114.3967,18.0694 114.4477,18.0944 C114.6747,18.2094 114.9057,18.3324 115.1397,18.4654 C115.1637,18.4794 115.1927,18.5014 115.2177,18.5134 C115.4677,18.6624 115.7207,18.8214 115.9857,18.9854 C115.9887,18.9954 116.0017,19.0024 116.0147,19.0084 C116.2827,19.1824 116.5447,19.3694 116.8227,19.5724 C116.9617,19.6734 117.1137,19.7824 117.2587,19.9024 C117.5517,20.1214 117.8517,20.3594 118.1487,20.6184 C118.3067,20.7454 118.4547,20.8754 118.6037,21.0054 C119.0617,21.4014 119.5187,21.8294 119.9867,22.2854 C120.0937,22.3864 120.2007,22.4884 120.3077,22.5894 C120.3777,22.6724 120.4527,22.7414 120.5327,22.8204 C120.6897,22.9794 120.8507,23.1474 121.0127,23.3154 C121.9847,24.3104 122.9787,25.4344 123.9937,26.6564 C124.2947,27.0214 124.5967,27.3954 124.9027,27.7784 C125.0697,27.9964 125.2467,28.2124 125.4137,28.4304 C125.5907,28.6464 125.7607,28.8734 125.9317,29.1014 C127.4957,31.1224 129.1017,33.3924 130.7477,35.8814 C130.9337,36.1564 131.1197,36.4324 131.2997,36.7204 C132.2297,38.1294 133.1597,39.6014 134.1057,41.1524 C134.2827,41.4304 134.4617,41.7194 134.6327,42.0104 C135.5057,43.4384 136.3787,44.9294 137.2677,46.4674 C137.5607,46.9704 137.8477,47.4864 138.1467,48.0094 C138.4277,48.5064 138.7077,49.0034 138.9917,49.5094 C139.3007,50.0604 139.5997,50.6144 139.9127,51.1744 C140.4077,52.0644 140.8957,52.9664 141.3777,53.8814 C141.7837,54.6314 142.1807,55.3844 142.5847,56.1574 C143.3977,57.6894 144.2137,59.2624 145.0237,60.8804 C145.3987,61.5984 145.7667,62.3294 146.1297,63.0734 C147.4027,65.6114 148.6877,68.2514 149.9637,70.9574 C150.3797,71.8314 150.7977,72.7144 151.2107,73.6104 C151.7087,74.6674 152.1997,75.7364 152.6947,76.8164 C153.1097,77.7214 153.5287,78.6364 153.9387,79.5534 C154.5397,80.8924 155.1447,82.2404 155.7457,83.6114 C156.2127,84.6684 156.6847,85.7444 157.1477,86.8234 C157.4627,87.5514 157.7807,88.2884 158.0987,89.0264 C158.5017,89.9564 158.8947,90.8904 159.2917,91.8334 C159.6537,92.6724 160.0097,93.5234 160.3657,94.3744 C161.0827,96.0964 161.7947,97.8304 162.5127,99.5834 C163.3497,101.6344 164.1877,103.7164 165.0117,105.8244 C165.5407,107.1664 166.0727,108.5174 166.6077,109.8784 C167.0517,111.0264 167.4987,112.1854 167.9357,113.3464 C168.2127,114.0554 168.4797,114.7674 168.7477,115.4794 C169.1627,116.5744 169.5787,117.6694 169.9877,118.7764 C170.6667,120.6054 171.3497,122.4444 172.0267,124.2954 C172.3667,125.2254 172.7057,126.1564 173.0397,127.0994 C173.3797,128.0294 173.7127,128.9724 174.0457,129.9154 C174.6757,131.6874 175.3107,133.4784 175.9307,135.2854 C175.9807,135.4374 176.0277,135.5794 176.0877,135.7284 C176.6387,137.3264 177.1947,138.9434 177.7517,140.5604 C178.3877,142.4464 179.0287,144.3514 179.6607,146.2594" id="Fill-181" fill="#FF4C2E"></path>
                <path d="M187.1529,170.1134 C187.5389,171.4394 187.9349,172.7614 188.3089,174.0814 C188.9569,176.2894 189.5819,178.4944 190.1969,180.6714 C190.5179,181.8294 190.8379,182.9874 191.1549,184.1354 C192.0419,187.3504 192.8829,190.5264 193.6959,193.6494 C194.2829,195.8994 194.8389,198.1164 195.3879,200.3154 C195.6429,201.3694 195.9029,202.4094 196.1539,203.4544 C196.4049,204.4984 196.6529,205.5324 196.8979,206.5574 C197.1429,207.5824 197.3779,208.6114 197.6099,209.6294 C197.8769,210.7524 198.1339,211.8794 198.3789,212.9984 C198.6299,214.1054 198.8709,215.2164 199.1159,216.3044 C199.2849,217.0704 199.4449,217.8394 199.6019,218.5984 C200.2259,221.5314 200.8079,224.4034 201.3509,227.2154 C201.5319,228.1454 201.7139,229.0754 201.8799,229.9894 C202.0579,230.9734 202.2299,231.9384 202.4089,232.8904 C202.5559,233.7484 202.7059,234.5834 202.8469,235.4214 C202.9249,235.8484 202.9999,236.2654 203.0659,236.6864 C203.1409,237.1044 203.2069,237.5254 203.2819,237.9424 C203.2849,237.9834 203.2879,238.0244 203.3009,238.0624 C203.3719,238.5024 203.4439,238.9424 203.5129,239.3714 C203.5819,239.8024 203.6409,240.2364 203.7099,240.6654 C203.8469,241.5264 203.9789,242.3674 204.0999,243.2124 C204.2319,244.0534 204.3479,244.8794 204.4629,245.7044 C204.5779,246.5304 204.6879,247.3374 204.7969,248.1434 C204.8469,248.5484 204.9059,248.9494 204.9529,249.3454 C205.0489,250.1464 205.1519,250.9324 205.2389,251.7054 C205.3729,252.8714 205.5009,254.0204 205.6219,255.1494 C205.6189,255.1724 205.6249,255.1914 205.6339,255.2194 C205.7059,255.9444 205.7739,256.6584 205.8389,257.3634 C205.9379,258.4574 206.0309,259.5324 206.1089,260.5924 C206.1289,260.9444 206.1609,261.2914 206.1789,261.6334 C206.2279,262.2904 206.2649,262.9424 206.3079,263.5804 C206.3079,263.6454 206.3109,263.7164 206.3149,263.7894 C206.3539,264.4194 206.3839,265.0514 206.4089,265.6654 C206.4239,265.9974 206.4359,266.3214 206.4449,266.6334 C206.4569,266.9554 206.4659,267.2694 206.4779,267.5914 C206.4839,267.9274 206.4989,268.2584 206.5039,268.5944 C206.5219,269.5044 206.5269,270.3774 206.5189,271.2444 C206.5139,271.8354 206.5139,272.4054 206.4999,272.9674 C206.4889,273.2864 206.4769,273.5974 206.4729,273.9044 C206.4599,274.3404 206.4399,274.7574 206.4199,275.1744 C206.3999,275.5924 206.3769,275.9994 206.3539,276.4074 C206.3219,276.8504 206.2899,277.2934 206.2509,277.7164 C206.2089,278.2254 206.1599,278.7154 206.0959,279.1904 C206.0709,279.4304 206.0419,279.6614 206.0129,279.8924 C205.9809,280.1764 205.9389,280.4634 205.8939,280.7414 C205.8589,281.0174 205.8139,281.2954 205.7659,281.5644 C205.7279,281.8294 205.6759,282.0884 205.6259,282.3484 C205.5839,282.6044 205.5329,282.8644 205.4789,283.1134 C205.4179,283.4064 205.3439,283.6954 205.2809,283.9794 C205.2009,284.3114 205.1149,284.6244 205.0199,284.9404 C204.9339,285.2534 204.8409,285.5474 204.7399,285.8444 C204.7429,285.8544 204.7339,285.8574 204.7369,285.8654 C204.6479,286.1384 204.5549,286.4004 204.4599,286.6534 C204.2439,287.2094 204.0119,287.7184 203.7579,288.1924 C203.6499,288.4064 203.5399,288.6124 203.4219,288.7984 C203.3939,288.8394 203.3779,288.8874 203.3489,288.9274 C203.2319,289.1144 203.1109,289.2914 202.9879,289.4584 C202.8519,289.6514 202.7119,289.8344 202.5659,289.9984 C202.5149,290.0684 202.4519,290.1314 202.3979,290.1914 C202.3439,290.2514 202.2809,290.3144 202.2269,290.3744 C202.1729,290.4344 202.1159,290.4854 202.0589,290.5344 C202.0049,290.5954 201.9389,290.6494 201.8819,290.6994 C201.8719,290.7024 201.8759,290.7114 201.8659,290.7154 C201.7419,290.8194 201.6289,290.9204 201.4979,291.0054 C201.3979,291.0814 201.2959,291.1564 201.1879,291.2134 C201.0429,291.3144 200.8809,291.3994 200.7259,291.4724 C200.6279,291.5254 200.5209,291.5824 200.4189,291.6264 L200.3899,291.6364 C200.1219,291.7144 199.8429,291.7954 199.5769,291.8834 C199.5679,291.8874 199.5679,291.8874 199.5589,291.8904 C186.7459,294.6504 159.8489,247.5164 136.4219,182.6214 C142.1329,194.5824 155.9799,200.6984 168.8799,196.4254 C180.4139,192.6034 187.5809,181.6754 187.1529,170.1134" id="Fill-183" fill="#E0F7FE"></path>
                <path d="M199.5772,291.8834 C199.8432,291.7954 200.1212,291.7144 200.3902,291.6364 C200.3242,291.6574 200.2702,291.6864 200.2042,291.7074 L200.0712,291.7524 C199.9562,291.7894 199.8332,291.8304 199.7162,291.8594 C199.6662,291.8654 199.6282,291.8784 199.5772,291.8834" id="Fill-185" fill="#FFB267"></path>
                <path d="M204.9527,249.3458 C205.0117,249.8428 205.0707,250.3388 205.1397,250.8318 C205.1737,251.1258 205.2047,251.4108 205.2397,251.7048 C205.1517,250.9328 205.0497,250.1458 204.9527,249.3458" id="Fill-187" fill="#FFB267"></path>
                <path d="M202.8467,235.421 C202.8717,235.529 202.8877,235.639 202.9097,235.738 C202.9627,236.057 203.0157,236.377 203.0657,236.686 C202.9997,236.266 202.9257,235.848 202.8467,235.421" id="Fill-189" fill="#FFB267"></path>
                <path d="M179.6607,146.2594 C180.2647,148.0814 180.8587,149.9074 181.4467,151.7144 C181.9467,153.2554 182.4407,154.8084 182.9277,156.3434 C182.9967,156.5514 183.0537,156.7544 183.1227,156.9634 L183.1297,156.9824 C183.7077,158.8234 184.2857,160.6654 184.8487,162.4914 C184.9587,162.8554 185.0687,163.2184 185.1787,163.5824 C185.5177,164.6714 185.8477,165.7624 186.1787,166.8544 C186.5087,167.9454 186.8257,169.0304 187.1497,170.1034 L187.1527,170.1134 C187.5807,181.6754 180.4137,192.6034 168.8797,196.4244 C155.9797,200.6984 142.1337,194.5824 136.4227,182.6214 C136.1297,181.8014 135.8367,180.9824 135.5447,180.1634 C135.2117,179.2194 134.8747,178.2674 134.5407,177.3244 C134.0817,176.0334 133.6317,174.7394 133.1787,173.4354 C131.9717,169.9484 130.7697,166.4174 129.5867,162.8484 C104.7867,87.9884 95.5647,23.5184 108.6707,17.5434 C108.6807,17.5404 108.6807,17.5404 108.6897,17.5374 C108.7337,17.5124 108.7717,17.4994 108.8157,17.4744 C108.9277,17.4264 109.0507,17.3864 109.1647,17.3484 L109.2977,17.3044 C109.3637,17.2824 109.4237,17.2724 109.4907,17.2504 L109.5187,17.2414 C109.6457,17.2104 109.7657,17.1914 109.8947,17.1694 C109.9837,17.1504 110.0757,17.1414 110.1677,17.1314 C110.3377,17.1074 110.5147,17.1014 110.6927,17.0944 C110.7557,17.0944 110.8187,17.0954 110.8817,17.0954 C111.2327,17.1054 111.5937,17.1444 111.9637,17.2114 C112.0867,17.2334 112.2097,17.2564 112.3367,17.2874 C112.5417,17.3354 112.7537,17.4014 112.9557,17.4724 C113.2027,17.5484 113.4427,17.6374 113.6887,17.7454 C113.8937,17.8254 114.1067,17.9234 114.3077,18.0254 C114.3557,18.0414 114.3967,18.0694 114.4477,18.0944 C114.6747,18.2094 114.9057,18.3324 115.1397,18.4654 C115.1637,18.4794 115.1927,18.5014 115.2177,18.5134 C115.4677,18.6624 115.7207,18.8214 115.9857,18.9854 C115.9887,18.9954 116.0017,19.0024 116.0147,19.0084 C116.2827,19.1824 116.5447,19.3694 116.8227,19.5724 C116.9617,19.6734 117.1137,19.7824 117.2587,19.9024 C117.5517,20.1214 117.8517,20.3594 118.1487,20.6184 C118.3067,20.7454 118.4547,20.8754 118.6037,21.0054 C119.0617,21.4014 119.5187,21.8294 119.9867,22.2854 C120.0937,22.3864 120.2007,22.4884 120.3077,22.5894 C120.3777,22.6724 120.4527,22.7414 120.5327,22.8204 C120.6897,22.9794 120.8507,23.1474 121.0127,23.3154 C121.9847,24.3104 122.9787,25.4344 123.9937,26.6564 C124.2947,27.0214 124.5967,27.3954 124.9027,27.7784 C125.0697,27.9964 125.2467,28.2124 125.4137,28.4304 C125.5907,28.6464 125.7607,28.8734 125.9317,29.1014 C127.4957,31.1224 129.1017,33.3924 130.7477,35.8814 C130.9337,36.1564 131.1197,36.4324 131.2997,36.7204 C132.2297,38.1294 133.1597,39.6014 134.1057,41.1524 C134.2827,41.4304 134.4617,41.7194 134.6327,42.0104 C135.5057,43.4384 136.3787,44.9294 137.2677,46.4674 C137.5607,46.9704 137.8477,47.4864 138.1467,48.0094 C138.4277,48.5064 138.7077,49.0034 138.9917,49.5094 C139.3007,50.0604 139.5997,50.6144 139.9127,51.1744 C140.4077,52.0644 140.8957,52.9664 141.3777,53.8814 C141.7837,54.6314 142.1807,55.3844 142.5847,56.1574 C143.3977,57.6894 144.2137,59.2624 145.0237,60.8804 C145.3987,61.5984 145.7667,62.3294 146.1297,63.0734 C147.4027,65.6114 148.6877,68.2514 149.9637,70.9574 C150.3797,71.8314 150.7977,72.7144 151.2107,73.6104 C151.7087,74.6674 152.1997,75.7364 152.6947,76.8164 C153.1097,77.7214 153.5287,78.6364 153.9387,79.5534 C154.5397,80.8924 155.1447,82.2404 155.7457,83.6114 C156.2127,84.6684 156.6847,85.7444 157.1477,86.8234 C157.4627,87.5514 157.7807,88.2884 158.0987,89.0264 C158.5017,89.9564 158.8947,90.8904 159.2917,91.8334 C159.6537,92.6724 160.0097,93.5234 160.3657,94.3744 C161.0827,96.0964 161.7947,97.8304 162.5127,99.5834 C163.3497,101.6344 164.1877,103.7164 165.0117,105.8244 C165.5407,107.1664 166.0727,108.5174 166.6077,109.8784 C167.0517,111.0264 167.4987,112.1854 167.9357,113.3464 C168.2127,114.0554 168.4797,114.7674 168.7477,115.4794 C169.1627,116.5744 169.5787,117.6694 169.9877,118.7764 C170.6667,120.6054 171.3497,122.4444 172.0267,124.2954 C172.3667,125.2254 172.7057,126.1564 173.0397,127.0994 C173.3797,128.0294 173.7127,128.9724 174.0457,129.9154 C174.6757,131.6874 175.3107,133.4784 175.9307,135.2854 C175.9807,135.4374 176.0277,135.5794 176.0877,135.7284 C176.6387,137.3264 177.1947,138.9434 177.7517,140.5604 C178.3877,142.4464 179.0287,144.3514 179.6607,146.2594" id="Fill-191" fill="#FFB267"></path>
                <path d="M251.5674,270.4117 C250.3704,266.7967 246.4694,264.8377 242.8554,266.0347 L152.6964,295.9027 C149.0824,297.1007 147.1234,301.0017 148.3214,304.6157 C149.5174,308.2287 153.4184,310.1887 157.0324,308.9917 L247.1914,279.1227 C250.8054,277.9257 252.7644,274.0247 251.5674,270.4117" id="Fill-193" fill="#FFB267"></path>
                <path d="M222.8848,355.65 L222.6408,355.761 L222.3798,355.816 L222.3978,355.873 L182.9058,374.035 L203.0018,410.865 C205.6468,415.713 212.0418,418.234 217.2838,416.498 L239.9898,408.976 L240.4958,408.808 L263.2018,401.285 C268.4448,399.548 272.0688,393.707 271.2958,388.24 L265.4278,346.697 L222.9038,355.705 L222.8848,355.65 Z" id="Fill-195" fill="#FF4C2E"></path>
                <path d="M273.5435,336.7462 C272.3455,333.1312 268.4455,331.1722 264.8305,332.3692 L174.6725,362.2362 C171.0585,363.4352 169.0995,367.3352 170.2965,370.9492 C171.4935,374.5642 175.3945,376.5232 179.0085,375.3262 L269.1675,345.4562 C272.7815,344.2602 274.7405,340.3592 273.5435,336.7462" id="Fill-197" fill="#FFB267"></path>
                <polygon id="Fill-199" fill="#FFFFFF" points="263.5943 327.9415 177.1263 356.5875 163.8143 316.4035 250.2823 287.7585"></polygon>
                <polygon id="Fill-201" fill="#A2DEE1" points="189.9019 357.191 187.7069 357.92 170.0669 304.673 172.2619 303.946"></polygon>
                <polygon id="Fill-203" fill="#A2DEE1" points="257.5518 334.7813 255.3568 335.5083 237.7178 282.2613 239.9118 281.5353"></polygon>
                <g id="Group-207" transform="translate(48.000000, 48.362000)">
                    <mask id="mask-4" fill="white">
                        <use xlink:href="#path-3"></use>
                    </mask>
                    <g id="Clip-206"></g>
                </g>
            </g>
        </g>
    </g>
</svg>