<?xml version="1.0" encoding="UTF-8" standalone="no"?>
<svg width="1400px" height="143px" viewBox="0 0 1400 143" version="1.1" xmlns="http://www.w3.org/2000/svg" xmlns:xlink="http://www.w3.org/1999/xlink">
    <!-- Generator: Sketch 3.7.2 (28276) - http://www.bohemiancoding.com/sketch -->
    <title>blue_sky</title>
    <desc>Created with Sketch.</desc>
    <defs></defs>
    <g id="Page-1" stroke="none" stroke-width="1" fill="none" fill-rule="evenodd">
        <g id="header" transform="translate(0.000000, -757.000000)" fill="#A8DBEF">
            <path d="M891.477,825.748 C886.55,822.399 880.599,820.442 874.189,820.442 C870.951,820.442 867.83,820.943 864.898,821.87 C860.615,804.897 845.228,792.329 826.896,792.329 C820.798,792.329 815.025,793.72 809.879,796.201 C806.319,773.98 787.04,757 763.782,757 C742.91,757 725.242,770.673 719.261,789.537 C713.814,785.194 706.913,782.592 699.399,782.592 C687.88,782.592 677.788,788.696 672.191,797.842 C667.382,795.674 662.051,794.458 656.43,794.458 C645.949,794.458 636.453,798.66 629.529,805.463 C624.33,796.454 614.595,790.387 603.433,790.387 C591.327,790.387 580.896,797.524 576.117,807.815 C573.814,807.252 571.412,806.948 568.935,806.948 C563.904,806.948 559.166,808.187 555,810.366 C550.191,798.288 538.402,789.747 524.609,789.747 C514.283,789.747 505.08,794.537 499.086,802.012 C495.193,800.197 490.857,799.179 486.279,799.179 C481.648,799.179 477.26,800.22 473.334,802.074 C468.136,794.625 459.51,789.747 449.737,789.747 C445.969,789.747 442.375,790.48 439.077,791.797 C431.855,771.519 412.497,757.001 389.74,757.001 C384.101449,757.06431 382.688245,757.001 381.2598,757.001 C358.5028,757.001 339.1448,771.519 331.9228,791.797 C328.6248,790.48 325.0308,789.747 321.2628,789.747 C311.4898,789.747 302.8638,794.625 297.6658,802.074 C293.7398,800.22 289.3518,799.179 284.7208,799.179 C280.1428,799.179 275.8068,800.197 271.9138,802.012 C265.9198,794.537 256.7168,789.747 246.3908,789.747 C232.5978,789.747 220.8088,798.288 215.9998,810.366 C211.8338,808.187 207.0958,806.948 202.0648,806.948 C199.5878,806.948 197.1858,807.252 194.8828,807.815 C190.1038,797.524 179.6728,790.387 167.5668,790.387 C156.4048,790.387 146.6698,796.454 141.4708,805.463 C134.5468,798.66 125.0508,794.458 114.5698,794.458 C108.9488,794.458 103.6178,795.674 98.8088,797.842 C93.2118,788.696 83.1198,782.592 71.6008,782.592 C64.0868,782.592 57.1858,785.194 51.7388,789.537 C45.7578,770.673 28.0898,757 7.2178,757 C-16.0402,757 -35.3192,773.98 -38.8792,796.201 C-44.0252,793.72 -49.7982,792.329 -55.8962,792.329 C-74.2282,792.329 -89.6152,804.897 -93.8982,821.87 C-96.8302,820.943 -99.9512,820.442 -103.1892,820.442 C-109.5992,820.442 -115.5502,822.399 -120.4772,825.748 C-125.7962,816.564 -135.7322,810.379 -147.1242,810.379 C-151.7232,810.379 -156.0822,811.396 -160.0002,813.203 L-160.0002,949.735 L385.4999,949.735 L920.5,949.735 L1458,949.735 L1458,757.446 C1455.791,757.163 1453.545,757.001 1451.26,757.001 C1428.503,757.001 1409.145,771.519 1401.923,791.797 C1398.625,790.48 1395.031,789.747 1391.263,789.747 C1381.49,789.747 1372.864,794.625 1367.666,802.074 C1363.74,800.22 1359.352,799.179 1354.721,799.179 C1350.143,799.179 1345.807,800.197 1341.914,802.012 C1335.92,794.537 1326.717,789.747 1316.391,789.747 C1302.598,789.747 1290.809,798.288 1286,810.366 C1281.834,808.187 1277.096,806.948 1272.065,806.948 C1269.588,806.948 1267.186,807.252 1264.883,807.815 C1260.104,797.524 1249.673,790.387 1237.567,790.387 C1226.405,790.387 1216.67,796.454 1211.471,805.463 C1204.547,798.66 1195.051,794.458 1184.57,794.458 C1178.949,794.458 1173.618,795.674 1168.809,797.842 C1163.212,788.696 1153.12,782.592 1141.601,782.592 C1134.087,782.592 1127.186,785.194 1121.739,789.537 C1115.758,770.673 1098.09,757 1077.218,757 C1053.96,757 1034.681,773.98 1031.121,796.201 C1025.975,793.72 1020.202,792.329 1014.104,792.329 C995.772,792.329 980.385,804.897 976.102,821.87 C973.17,820.943 970.049,820.442 966.811,820.442 C960.401,820.442 954.45,822.399 949.523,825.748 C944.204,816.564 934.268,810.379 922.876,810.379 C906.732,810.379 896.796,816.564 891.477,825.748 Z" id="blue_sky"></path>
        </g>
    </g>
</svg>