<?xml version="1.0" encoding="UTF-8" standalone="no"?>
<svg width="93px" height="65px" viewBox="0 0 93 65" version="1.1" xmlns="http://www.w3.org/2000/svg" xmlns:xlink="http://www.w3.org/1999/xlink">
    <!-- Generator: Sketch 3.7.2 (28276) - http://www.bohemiancoding.com/sketch -->
    <title>Page-1</title>
    <desc>Created with Sketch.</desc>
    <defs>
        <polygon id="path-1" points="83.6655968 0.19026943 0.262944385 0.19026943 0.262944385 43.7116518 83.6655968 43.7116518"></polygon>
        <path d="M2.0237,0.537779392 C1.36109047,0.383330147 0.686508341,0.277245199 0.00192459893,0.222258964 L0.00192459893,0.722258964 L2.0237,0.722258964 L2.0237,0.537779392 L2.0237,0.537779392 L2.0237,0.537779392 Z" id="path-3"></path>
        <path d="M0.21792139,1.6298975 C0.555399046,1.17576863 0.82559786,0.668496424 1.01373967,0.122884974 L0.21792139,0.122884974 L0.21792139,1.6298975 L0.21792139,1.6298975 L0.21792139,1.6298975 Z" id="path-5"></path>
        <path d="M0.00192459893,1.95981492 C0.686511686,1.91977768 1.36109298,1.84253484 2.0237,1.73008244 L2.0237,0.0525295337 L0.00192459893,0.0525295337 L0.00192459893,1.95981492 L0.00192459893,1.95981492 L0.00192459893,1.95981492 Z" id="path-7"></path>
        <path d="M0.176936898,0.5831 C0.344600696,0.420037051 0.511275203,0.253354014 0.676936898,0.0831 L0.176936898,0.0831 L0.176936898,0.5831 L0.176936898,0.5831 L0.176936898,0.5831 Z" id="path-9"></path>
        <path d="M0.300174332,1.04474913 C0.958470349,1.26429055 1.63316204,1.44787336 2.32194973,1.5931594 L2.32194973,0.0525295337 L0.300174332,0.0525295337 L0.300174332,1.04474913 L0.300174332,1.04474913 L0.300174332,1.04474913 Z" id="path-11"></path>
    </defs>
    <g id="Page-1" stroke="none" stroke-width="1" fill="none" fill-rule="evenodd">
        <g id="cloud" transform="translate(-1.000000, -20.000000)">
            <g id="Page-1">
                <g id="header">
                    <g id="cloud" transform="translate(89.962957, 61.082195) rotate(-15.000000) translate(-89.962957, -61.082195) translate(8.962957, 19.582195)">
                        <g id="Group-112" transform="translate(0.001756, 0.116288)">
                            <g id="Group-109">
                                <g id="mask-2" fill="#FFFFFF">
                                    <polygon id="path-1" points="83.6655968 0.19026943 0.262944385 0.19026943 0.262944385 43.7116518 83.6655968 43.7116518"></polygon>
                                </g>
                                <g id="Clip-108"></g>
                                <g id="Fill-107-Clipped">
                                    <mask id="mask-2" fill="white">
                                        <use xlink:href="#path-1"></use>
                                    </mask>
                                    <g id="path-1"></g>
                                    <path d="M40.8669337,43.7116518 C35.2770781,43.7116518 29.9468856,41.5602166 25.9279444,37.7428176 C24.5709444,38.1476933 23.1615701,38.3518694 21.7159123,38.3518694 C17.7250513,38.3518694 13.9490513,36.7393202 11.1956128,33.9434342 C10.4816182,34.1295948 9.7426984,34.2247295 8.99210481,34.2247295 C4.17871444,34.2247295 0.262944385,30.3017658 0.262944385,25.4802373 C0.262944385,20.7961959 3.95848984,16.9604653 8.58225989,16.7458591 C11.0791904,11.8712321 16.077784,8.74411295 21.7159123,8.74411295 C22.3175861,8.74411295 22.9183134,8.78109223 23.514939,8.85473472 C27.6064471,3.39096788 33.9418481,0.190206218 40.8669337,0.190206218 C47.7598374,0.190206218 54.2204952,3.49526839 58.2908642,8.9634601 C59.4866396,8.65972435 60.7174364,8.50675026 61.9728428,8.50675026 C67.6516717,8.50675026 72.8342064,11.7900041 75.3614257,16.7464912 C79.977939,16.969315 83.6655968,20.8015689 83.6655968,25.4802373 C83.6655968,30.3017658 79.7498267,34.2247295 74.9367519,34.2247295 C74.212661,34.2247295 73.4983508,34.1356 72.8070727,33.9617658 C69.9999979,36.896087 66.1078909,38.5892321 61.9728428,38.5892321 C59.9554845,38.5892321 57.9810353,38.187201 56.1485647,37.4131648 C52.0987037,41.4442218 46.6590299,43.7116518 40.8669337,43.7116518" id="Fill-107" fill="#FFFFFF" mask="url(#mask-2)"></path>
                                </g>
                            </g>
                            <path d="M74.9368465,19.8964933 C74.3790283,19.8964933 73.8410872,19.9811979 73.3331193,20.133856 C71.868531,15.2371047 67.3378358,11.6674984 61.9726219,11.6674984 C60.1988358,11.6674984 58.5174936,12.0603637 57.0065257,12.7594933 C53.8113759,7.14180415 47.7832797,3.35063834 40.8670283,3.35063834 C34.1126326,3.35063834 28.2022209,6.96449326 24.9531193,12.3659959 C23.9248786,12.0676332 22.8398465,11.9048611 21.716007,11.9048611 C16.4826754,11.9048611 12.0579909,15.3704829 10.6016059,20.1354363 C10.0917449,19.9818301 9.5519107,19.8964933 8.99188396,19.8964933 C5.91347219,19.8964933 3.41780374,22.3965451 3.41780374,25.4803637 C3.41780374,28.5641824 5.91347219,31.0642342 8.99188396,31.0642342 C10.1482209,31.0642342 11.2225257,30.7111927 12.1132048,30.1068819 C14.2059695,33.1761617 17.7254615,35.1913741 21.716007,35.1913741 C23.5238679,35.1913741 25.2354989,34.7773326 26.7616112,34.0396435 C30.1672048,38.0232912 35.2206968,40.5511565 40.8670283,40.5511565 C46.7799642,40.5511565 52.043269,37.7789751 55.4438144,33.4650425 C57.3163545,34.7046383 59.5599321,35.4287368 61.9726219,35.4287368 C66.0934722,35.4287368 69.7221299,33.3224984 71.8477075,30.1271098 C72.7320765,30.7181461 73.793761,31.0642342 74.9368465,31.0642342 C78.0152583,31.0642342 80.5106112,28.5641824 80.5106112,25.4803637 C80.5106112,22.3965451 78.0152583,19.8964933 74.9368465,19.8964933" id="Fill-110" fill="#A5EEFE"></path>
                        </g>
                        <g id="Group-446" transform="translate(0.948280, 1.696599)">
                            <g id="Group-115" transform="translate(41.016043, 1.580311)">
                                <g id="mask-4" transform="translate(0.000000, 0.000000)" fill="#FFFFFF">
                                    <path d="M2.0237,0.537779392 C1.36109047,0.383330147 0.686508341,0.277245199 0.00192459893,0.222258964 L0.00192459893,0.722258964 L2.0237,0.722258964 L2.0237,0.537779392 L2.0237,0.537779392 L2.0237,0.537779392 Z" id="path-3"></path>
                                </g>
                                <g id="Clip-114" transform="translate(0.000000, 0.000000)"></g>
                                <g id="Fill-113-Clipped" transform="translate(0.000000, 0.000000)">
                                    <mask id="mask-4" fill="white">
                                        <use xlink:href="#path-3"></use>
                                    </mask>
                                    <g id="path-3"></g>
                                    <path d="M2.0237,-0.426557513 C2.0237,0.132872539 1.57063048,0.586105699 1.01249679,0.586105699 C0.454047594,0.586105699 0.00192459893,0.132872539 0.00192459893,-0.426557513 C0.00192459893,-0.985987565 0.454047594,-1.43922073 1.01249679,-1.43922073 C1.57063048,-1.43922073 2.0237,-0.985987565 2.0237,-0.426557513" id="Fill-113" fill="#FFFFFF" mask="url(#mask-4)"></path>
                                </g>
                            </g>
                            <path d="M46.4819668,4.60205492 C46.4819668,5.16148497 46.0292128,5.61471813 45.4707636,5.61471813 C44.9123144,5.61471813 44.4601914,5.16148497 44.4601914,4.60205492 C44.4601914,4.04262487 44.9123144,3.58939171 45.4707636,3.58939171 C46.0292128,3.58939171 46.4819668,4.04262487 46.4819668,4.60205492" id="Fill-131" fill="#FFFFFF"></path>
                            <path d="M43.0397428,8.5318456 C43.0397428,9.09127565 42.5866733,9.54450881 42.0285396,9.54450881 C41.4700904,9.54450881 41.0179674,9.09127565 41.0179674,8.5318456 C41.0179674,7.97241554 41.4700904,7.51918238 42.0285396,7.51918238 C42.5866733,7.51918238 43.0397428,7.97241554 43.0397428,8.5318456" id="Fill-144" fill="#FFFFFF"></path>
                            <path d="M49.8404235,8.5318456 C49.8404235,9.09127565 49.3876695,9.54450881 48.8295358,9.54450881 C48.2707711,9.54450881 47.8186481,9.09127565 47.8186481,8.5318456 C47.8186481,7.97241554 48.2707711,7.51918238 48.8295358,7.51918238 C49.3876695,7.51918238 49.8404235,7.97241554 49.8404235,8.5318456" id="Fill-146" fill="#FFFFFF"></path>
                            <path d="M56.6411043,8.5318456 C56.6411043,9.09127565 56.1883503,9.54450881 55.6302166,9.54450881 C55.0717674,9.54450881 54.6193289,9.09127565 54.6193289,8.5318456 C54.6193289,7.97241554 55.0717674,7.51918238 55.6302166,7.51918238 C56.1883503,7.51918238 56.6411043,7.97241554 56.6411043,8.5318456" id="Fill-148" fill="#FFFFFF"></path>
                            <path d="M46.4819668,11.9801155 C46.4819668,12.5395456 46.0292128,12.9927788 45.4707636,12.9927788 C44.9123144,12.9927788 44.4601914,12.5395456 44.4601914,11.9801155 C44.4601914,11.4206855 44.9123144,10.9674523 45.4707636,10.9674523 C46.0292128,10.9674523 46.4819668,11.4206855 46.4819668,11.9801155" id="Fill-156" fill="#FFFFFF"></path>
                            <path d="M53.2826476,11.9801155 C53.2826476,12.5395456 52.8302091,12.9927788 52.2717599,12.9927788 C51.7129952,12.9927788 51.2608722,12.5395456 51.2608722,11.9801155 C51.2608722,11.4206855 51.7129952,10.9674523 52.2717599,10.9674523 C52.8302091,10.9674523 53.2826476,11.4206855 53.2826476,11.9801155" id="Fill-158" fill="#FFFFFF"></path>
                            <path d="M60.0833283,11.9801155 C60.0833283,12.5395456 59.6308898,12.9927788 59.0724406,12.9927788 C58.5139914,12.9927788 58.0615529,12.5395456 58.0615529,11.9801155 C58.0615529,11.4206855 58.5139914,10.9674523 59.0724406,10.9674523 C59.6308898,10.9674523 60.0833283,11.4206855 60.0833283,11.9801155" id="Fill-160" fill="#FFFFFF"></path>
                            <path d="M66.8840091,11.9801155 C66.8840091,12.5395456 66.4315706,12.9927788 65.8734369,12.9927788 C65.3149877,12.9927788 64.8622337,12.5395456 64.8622337,11.9801155 C64.8622337,11.4206855 65.3149877,10.9674523 65.8734369,10.9674523 C66.4315706,10.9674523 66.8840091,11.4206855 66.8840091,11.9801155" id="Fill-162" fill="#FFFFFF"></path>
                            <path d="M43.0397428,15.9099062 C43.0397428,16.4693363 42.5866733,16.9225694 42.0285396,16.9225694 C41.4700904,16.9225694 41.0179674,16.4693363 41.0179674,15.9099062 C41.0179674,15.3504762 41.4700904,14.897243 42.0285396,14.897243 C42.5866733,14.897243 43.0397428,15.3504762 43.0397428,15.9099062" id="Fill-169" fill="#FFFFFF"></path>
                            <path d="M49.8404235,15.9099062 C49.8404235,16.4693363 49.3876695,16.9225694 48.8295358,16.9225694 C48.2707711,16.9225694 47.8186481,16.4693363 47.8186481,15.9099062 C47.8186481,15.3504762 48.2707711,14.897243 48.8295358,14.897243 C49.3876695,14.897243 49.8404235,15.3504762 49.8404235,15.9099062" id="Fill-171" fill="#FFFFFF"></path>
                            <path d="M56.6411043,15.9099062 C56.6411043,16.4693363 56.1883503,16.9225694 55.6302166,16.9225694 C55.0717674,16.9225694 54.6193289,16.4693363 54.6193289,15.9099062 C54.6193289,15.3504762 55.0717674,14.897243 55.6302166,14.897243 C56.1883503,14.897243 56.6411043,15.3504762 56.6411043,15.9099062" id="Fill-173" fill="#FFFFFF"></path>
                            <path d="M63.441785,15.9099062 C63.441785,16.4693363 62.9893465,16.9225694 62.4312128,16.9225694 C61.8724481,16.9225694 61.4200096,16.4693363 61.4200096,15.9099062 C61.4200096,15.3504762 61.8724481,14.897243 62.4312128,14.897243 C62.9893465,14.897243 63.441785,15.3504762 63.441785,15.9099062" id="Fill-175" fill="#FFFFFF"></path>
                            <path d="M70.2424342,15.9099062 C70.2424342,16.4693363 69.7899957,16.9225694 69.231862,16.9225694 C68.6734128,16.9225694 68.2206588,16.4693363 68.2206588,15.9099062 C68.2206588,15.3504762 68.6734128,14.897243 69.231862,14.897243 C69.7899957,14.897243 70.2424342,15.3504762 70.2424342,15.9099062" id="Fill-177" fill="#FFFFFF"></path>
                            <path d="M46.4819668,19.3582078 C46.4819668,19.9176378 46.0292128,20.370871 45.4707636,20.370871 C44.9123144,20.370871 44.4601914,19.9176378 44.4601914,19.3582078 C44.4601914,18.7987777 44.9123144,18.3458606 45.4707636,18.3458606 C46.0292128,18.3458606 46.4819668,18.7987777 46.4819668,19.3582078" id="Fill-181" fill="#FFFFFF"></path>
                            <path d="M53.2826476,19.3582078 C53.2826476,19.9176378 52.8302091,20.370871 52.2717599,20.370871 C51.7129952,20.370871 51.2608722,19.9176378 51.2608722,19.3582078 C51.2608722,18.7987777 51.7129952,18.3458606 52.2717599,18.3458606 C52.8302091,18.3458606 53.2826476,18.7987777 53.2826476,19.3582078" id="Fill-183" fill="#FFFFFF"></path>
                            <path d="M60.0833283,19.3582078 C60.0833283,19.9176378 59.6308898,20.370871 59.0724406,20.370871 C58.5139914,20.370871 58.0615529,19.9176378 58.0615529,19.3582078 C58.0615529,18.7987777 58.5139914,18.3458606 59.0724406,18.3458606 C59.6308898,18.3458606 60.0833283,18.7987777 60.0833283,19.3582078" id="Fill-185" fill="#FFFFFF"></path>
                            <path d="M66.8840091,19.3582078 C66.8840091,19.9176378 66.4315706,20.370871 65.8734369,20.370871 C65.3149877,20.370871 64.8622337,19.9176378 64.8622337,19.3582078 C64.8622337,18.7987777 65.3149877,18.3458606 65.8734369,18.3458606 C66.4315706,18.3458606 66.8840091,18.7987777 66.8840091,19.3582078" id="Fill-187" fill="#FFFFFF"></path>
                            <path d="M73.6846898,19.3582078 C73.6846898,19.9176378 73.2322513,20.370871 72.6741176,20.370871 C72.1156684,20.370871 71.6632299,19.9176378 71.6632299,19.3582078 C71.6632299,18.7987777 72.1156684,18.3458606 72.6741176,18.3458606 C73.2322513,18.3458606 73.6846898,18.7987777 73.6846898,19.3582078" id="Fill-189" fill="#FFFFFF"></path>
                            <g id="Group-193" transform="translate(78.245989, 18.331606)" fill="#FFFFFF">
                                <path d="M2.23969679,1.02660155 C2.23969679,1.58603161 1.78694278,2.03926477 1.22880909,2.03926477 C0.670359893,2.03926477 0.21792139,1.58603161 0.21792139,1.02660155 C0.21792139,0.467171503 0.670359893,0.0142544041 1.22880909,0.0142544041 C1.78694278,0.0142544041 2.23969679,0.467171503 2.23969679,1.02660155" id="Fill-191"></path>
                            </g>
                            <path d="M43.0397428,23.2879984 C43.0397428,23.8474285 42.5866733,24.3006617 42.0285396,24.3006617 C41.4700904,24.3006617 41.0179674,23.8474285 41.0179674,23.2879984 C41.0179674,22.7285684 41.4700904,22.2756513 42.0285396,22.2756513 C42.5866733,22.2756513 43.0397428,22.7285684 43.0397428,23.2879984" id="Fill-194" fill="#FFFFFF"></path>
                            <path d="M49.8404235,23.2879984 C49.8404235,23.8474285 49.3876695,24.3006617 48.8295358,24.3006617 C48.2707711,24.3006617 47.8186481,23.8474285 47.8186481,23.2879984 C47.8186481,22.7285684 48.2707711,22.2756513 48.8295358,22.2756513 C49.3876695,22.2756513 49.8404235,22.7285684 49.8404235,23.2879984" id="Fill-196" fill="#FFFFFF"></path>
                            <path d="M56.6411043,23.2879984 C56.6411043,23.8474285 56.1883503,24.3006617 55.6302166,24.3006617 C55.0717674,24.3006617 54.6193289,23.8474285 54.6193289,23.2879984 C54.6193289,22.7285684 55.0717674,22.2756513 55.6302166,22.2756513 C56.1883503,22.2756513 56.6411043,22.7285684 56.6411043,23.2879984" id="Fill-198" fill="#FFFFFF"></path>
                            <path d="M63.441785,23.2879984 C63.441785,23.8474285 62.9893465,24.3006617 62.4312128,24.3006617 C61.8724481,24.3006617 61.4200096,23.8474285 61.4200096,23.2879984 C61.4200096,22.7285684 61.8724481,22.2756513 62.4312128,22.2756513 C62.9893465,22.2756513 63.441785,22.7285684 63.441785,23.2879984" id="Fill-200" fill="#FFFFFF"></path>
                            <path d="M70.2424342,23.2879984 C70.2424342,23.8474285 69.7899957,24.3006617 69.231862,24.3006617 C68.6734128,24.3006617 68.2206588,23.8474285 68.2206588,23.2879984 C68.2206588,22.7285684 68.6734128,22.2756513 69.231862,22.2756513 C69.7899957,22.2756513 70.2424342,22.7285684 70.2424342,23.2879984" id="Fill-202" fill="#FFFFFF"></path>
                            <path d="M77.0434305,23.2879984 C77.0434305,23.8474285 76.5906765,24.3006617 76.0325428,24.3006617 C75.4740936,24.3006617 75.0216551,23.8474285 75.0216551,23.2879984 C75.0216551,22.7285684 75.4740936,22.2756513 76.0325428,22.2756513 C76.5906765,22.2756513 77.0434305,22.7285684 77.0434305,23.2879984" id="Fill-204" fill="#FFFFFF"></path>
                            <path d="M46.4819668,26.7362684 C46.4819668,27.2956984 46.0292128,27.7492477 45.4707636,27.7492477 C44.9123144,27.7492477 44.4601914,27.2956984 44.4601914,26.7362684 C44.4601914,26.1768383 44.9123144,25.7239212 45.4707636,25.7239212 C46.0292128,25.7239212 46.4819668,26.1768383 46.4819668,26.7362684" id="Fill-206" fill="#FFFFFF"></path>
                            <path d="M53.2826476,26.7362684 C53.2826476,27.2956984 52.8302091,27.7492477 52.2717599,27.7492477 C51.7129952,27.7492477 51.2608722,27.2956984 51.2608722,26.7362684 C51.2608722,26.1768383 51.7129952,25.7239212 52.2717599,25.7239212 C52.8302091,25.7239212 53.2826476,26.1768383 53.2826476,26.7362684" id="Fill-208" fill="#FFFFFF"></path>
                            <path d="M60.0833283,26.7362684 C60.0833283,27.2956984 59.6308898,27.7492477 59.0724406,27.7492477 C58.5139914,27.7492477 58.0615529,27.2956984 58.0615529,26.7362684 C58.0615529,26.1768383 58.5139914,25.7239212 59.0724406,25.7239212 C59.6308898,25.7239212 60.0833283,26.1768383 60.0833283,26.7362684" id="Fill-210" fill="#FFFFFF"></path>
                            <path d="M66.8840091,26.7362684 C66.8840091,27.2956984 66.4315706,27.7492477 65.8734369,27.7492477 C65.3149877,27.7492477 64.8622337,27.2956984 64.8622337,26.7362684 C64.8622337,26.1768383 65.3149877,25.7239212 65.8734369,25.7239212 C66.4315706,25.7239212 66.8840091,26.1768383 66.8840091,26.7362684" id="Fill-212" fill="#FFFFFF"></path>
                            <path d="M73.6846898,26.7362684 C73.6846898,27.2956984 73.2322513,27.7492477 72.6741176,27.7492477 C72.1156684,27.7492477 71.6632299,27.2956984 71.6632299,26.7362684 C71.6632299,26.1768383 72.1156684,25.7239212 72.6741176,25.7239212 C73.2322513,25.7239212 73.6846898,26.1768383 73.6846898,26.7362684" id="Fill-214" fill="#FFFFFF"></path>
                            <g id="Group-218" transform="translate(78.245989, 25.601036)">
                                <g id="mask-6" transform="translate(-0.000000, 0.000000)" fill="#FFFFFF">
                                    <path d="M0.21792139,1.6298975 C0.555399046,1.17576863 0.82559786,0.668496424 1.01373967,0.122884974 L0.21792139,0.122884974 L0.21792139,1.6298975 L0.21792139,1.6298975 L0.21792139,1.6298975 Z" id="path-5"></path>
                                </g>
                                <g id="Clip-217" transform="translate(-0.000000, 0.000000)"></g>
                                <g id="Fill-216-Clipped" transform="translate(-0.000000, 0.000000)">
                                    <mask id="mask-6" fill="white">
                                        <use xlink:href="#path-5"></use>
                                    </mask>
                                    <g id="path-5"></g>
                                    <path d="M2.23969679,1.13523212 C2.23969679,1.69466218 1.78694278,2.1482114 1.22880909,2.1482114 C0.670359893,2.1482114 0.21792139,1.69466218 0.21792139,1.13523212 C0.21792139,0.575802073 0.670359893,0.122884974 1.22880909,0.122884974 C1.78694278,0.122884974 2.23969679,0.575802073 2.23969679,1.13523212" id="Fill-216" fill="#FFFFFF" mask="url(#mask-6)"></path>
                                </g>
                            </g>
                            <path d="M43.0397428,30.6660591 C43.0397428,31.2254891 42.5866733,31.6790383 42.0285396,31.6790383 C41.4700904,31.6790383 41.0179674,31.2254891 41.0179674,30.6660591 C41.0179674,30.1069451 41.4700904,29.6537119 42.0285396,29.6537119 C42.5866733,29.6537119 43.0397428,30.1069451 43.0397428,30.6660591" id="Fill-219" fill="#FFFFFF"></path>
                            <path d="M49.8404235,30.6660591 C49.8404235,31.2254891 49.3876695,31.6790383 48.8295358,31.6790383 C48.2707711,31.6790383 47.8186481,31.2254891 47.8186481,30.6660591 C47.8186481,30.1069451 48.2707711,29.6537119 48.8295358,29.6537119 C49.3876695,29.6537119 49.8404235,30.1069451 49.8404235,30.6660591" id="Fill-221" fill="#FFFFFF"></path>
                            <path d="M56.6411043,30.6660591 C56.6411043,31.2254891 56.1883503,31.6790383 55.6302166,31.6790383 C55.0717674,31.6790383 54.6193289,31.2254891 54.6193289,30.6660591 C54.6193289,30.1069451 55.0717674,29.6537119 55.6302166,29.6537119 C56.1883503,29.6537119 56.6411043,30.1069451 56.6411043,30.6660591" id="Fill-223" fill="#FFFFFF"></path>
                            <path d="M63.441785,30.6660591 C63.441785,31.2254891 62.9893465,31.6790383 62.4312128,31.6790383 C61.8724481,31.6790383 61.4200096,31.2254891 61.4200096,30.6660591 C61.4200096,30.1069451 61.8724481,29.6537119 62.4312128,29.6537119 C62.9893465,29.6537119 63.441785,30.1069451 63.441785,30.6660591" id="Fill-225" fill="#FFFFFF"></path>
                            <path d="M70.2424342,30.6660591 C70.2424342,31.2254891 69.7899957,31.6790383 69.231862,31.6790383 C68.6734128,31.6790383 68.2206588,31.2254891 68.2206588,30.6660591 C68.2206588,30.1069451 68.6734128,29.6537119 69.231862,29.6537119 C69.7899957,29.6537119 70.2424342,30.1069451 70.2424342,30.6660591" id="Fill-227" fill="#FFFFFF"></path>
                            <path d="M46.4819668,34.1143606 C46.4819668,34.6737907 46.0292128,35.1273399 45.4707636,35.1273399 C44.9123144,35.1273399 44.4601914,34.6737907 44.4601914,34.1143606 C44.4601914,33.5549306 44.9123144,33.1020135 45.4707636,33.1020135 C46.0292128,33.1020135 46.4819668,33.5549306 46.4819668,34.1143606" id="Fill-231" fill="#FFFFFF"></path>
                            <path d="M53.2826476,34.1143606 C53.2826476,34.6737907 52.8302091,35.1273399 52.2717599,35.1273399 C51.7129952,35.1273399 51.2608722,34.6737907 51.2608722,34.1143606 C51.2608722,33.5549306 51.7129952,33.1020135 52.2717599,33.1020135 C52.8302091,33.1020135 53.2826476,33.5549306 53.2826476,34.1143606" id="Fill-233" fill="#FFFFFF"></path>
                            <path d="M60.0833283,34.1143606 C60.0833283,34.6737907 59.6308898,35.1273399 59.0724406,35.1273399 C58.5139914,35.1273399 58.0615529,34.6737907 58.0615529,34.1143606 C58.0615529,33.5549306 58.5139914,33.1020135 59.0724406,33.1020135 C59.6308898,33.1020135 60.0833283,33.5549306 60.0833283,34.1143606" id="Fill-235" fill="#FFFFFF"></path>
                            <path d="M66.8840091,34.1143606 C66.8840091,34.6737907 66.4315706,35.1273399 65.8734369,35.1273399 C65.3149877,35.1273399 64.8622337,34.6737907 64.8622337,34.1143606 C64.8622337,33.5549306 65.3149877,33.1020135 65.8734369,33.1020135 C66.4315706,33.1020135 66.8840091,33.5549306 66.8840091,34.1143606" id="Fill-237" fill="#FFFFFF"></path>
                            <g id="Group-246" transform="translate(41.016043, 36.979275)">
                                <g id="mask-8" fill="#FFFFFF">
                                    <path d="M0.00192459893,1.95981492 C0.686511686,1.91977768 1.36109298,1.84253484 2.0237,1.73008244 L2.0237,0.0525295337 L0.00192459893,0.0525295337 L0.00192459893,1.95981492 L0.00192459893,1.95981492 L0.00192459893,1.95981492 Z" id="path-7"></path>
                                </g>
                                <g id="Clip-245"></g>
                                <g id="Fill-244-Clipped">
                                    <mask id="mask-8" fill="white">
                                        <use xlink:href="#path-7"></use>
                                    </mask>
                                    <g id="path-7"></g>
                                    <path d="M2.0237,1.06487668 C2.0237,1.62430674 1.57063048,2.07785596 1.01249679,2.07785596 C0.454047594,2.07785596 0.00192459893,1.62430674 0.00192459893,1.06487668 C0.00192459893,0.505446632 0.454047594,0.0525295337 1.01249679,0.0525295337 C1.57063048,0.0525295337 2.0237,0.505446632 2.0237,1.06487668" id="Fill-244" fill="#FFFFFF" mask="url(#mask-8)"></path>
                                </g>
                            </g>
                            <g id="Group-249" transform="translate(47.641711, 36.979275)">
                                <g id="mask-10" fill="#FFFFFF">
                                    <path d="M0.176936898,0.5831 C0.344600696,0.420037051 0.511275203,0.253354014 0.676936898,0.0831 L0.176936898,0.0831 L0.176936898,0.5831 L0.176936898,0.5831 L0.176936898,0.5831 Z" id="path-9"></path>
                                </g>
                                <g id="Clip-248"></g>
                                <g id="Fill-247-Clipped">
                                    <mask id="mask-10" fill="white">
                                        <use xlink:href="#path-9"></use>
                                    </mask>
                                    <g id="path-9"></g>
                                    <path d="M2.1987123,1.6846 C2.1987123,2.5696 1.74595829,3.2871 1.1878246,3.2871 C0.629059893,3.2871 0.176936898,2.5696 0.176936898,1.6846 C0.176936898,0.7996 0.629059893,0.0831 1.1878246,0.0831 C1.74595829,0.0831 2.1987123,0.7996 2.1987123,1.6846" id="Fill-247" fill="#FFFFFF" mask="url(#mask-10)"></path>
                                </g>
                            </g>
                            <g id="Group-297" transform="translate(33.759358, 0.000000)" fill="#FFFFFF">
                                <path d="M2.32194973,1.15375337 C2.32194973,1.71318342 1.86888021,2.16641658 1.31074652,2.16641658 C0.752297326,2.16641658 0.300174332,1.71318342 0.300174332,1.15375337 C0.300174332,0.594323316 0.752297326,0.141090155 1.31074652,0.141090155 C1.86888021,0.141090155 2.32194973,0.594323316 2.32194973,1.15375337" id="Fill-295"></path>
                            </g>
                            <path d="M32.7225674,4.60205492 C32.7225674,5.16148497 32.2698134,5.61471813 31.7116797,5.61471813 C31.1532305,5.61471813 30.7011075,5.16148497 30.7011075,4.60205492 C30.7011075,4.04262487 31.1532305,3.58939171 31.7116797,3.58939171 C32.2698134,3.58939171 32.7225674,4.04262487 32.7225674,4.60205492" id="Fill-306" fill="#FFFFFF"></path>
                            <path d="M39.5235636,4.60205492 C39.5235636,5.16148497 39.0704941,5.61471813 38.5123604,5.61471813 C37.9539112,5.61471813 37.5017882,5.16148497 37.5017882,4.60205492 C37.5017882,4.04262487 37.9539112,3.58939171 38.5123604,3.58939171 C39.0704941,3.58939171 39.5235636,4.04262487 39.5235636,4.60205492" id="Fill-308" fill="#FFFFFF"></path>
                            <path d="M29.2803118,8.5318456 C29.2803118,9.09127565 28.8278733,9.54450881 28.2694241,9.54450881 C27.7109749,9.54450881 27.2585364,9.09127565 27.2585364,8.5318456 C27.2585364,7.97241554 27.7109749,7.51918238 28.2694241,7.51918238 C28.8278733,7.51918238 29.2803118,7.97241554 29.2803118,8.5318456" id="Fill-319" fill="#FFFFFF"></path>
                            <path d="M36.081308,8.5318456 C36.081308,9.09127565 35.6282385,9.54450881 35.0701048,9.54450881 C34.5116556,9.54450881 34.0595326,9.09127565 34.0595326,8.5318456 C34.0595326,7.97241554 34.5116556,7.51918238 35.0701048,7.51918238 C35.6282385,7.51918238 36.081308,7.97241554 36.081308,8.5318456" id="Fill-321" fill="#FFFFFF"></path>
                            <path d="M19.1208904,11.9801155 C19.1208904,12.5395456 18.6684519,12.9927788 18.1103182,12.9927788 C17.551869,12.9927788 17.099115,12.5395456 17.099115,11.9801155 C17.099115,11.4206855 17.551869,10.9674523 18.1103182,10.9674523 C18.6684519,10.9674523 19.1208904,11.4206855 19.1208904,11.9801155" id="Fill-327" fill="#FFFFFF"></path>
                            <path d="M25.9218866,11.9801155 C25.9218866,12.5395456 25.4691326,12.9927788 24.9109989,12.9927788 C24.3525497,12.9927788 23.9001112,12.5395456 23.9001112,11.9801155 C23.9001112,11.4206855 24.3525497,10.9674523 24.9109989,10.9674523 C25.4691326,10.9674523 25.9218866,11.4206855 25.9218866,11.9801155" id="Fill-329" fill="#FFFFFF"></path>
                            <path d="M32.7225674,11.9801155 C32.7225674,12.5395456 32.2698134,12.9927788 31.7116797,12.9927788 C31.1532305,12.9927788 30.7011075,12.5395456 30.7011075,11.9801155 C30.7011075,11.4206855 31.1532305,10.9674523 31.7116797,10.9674523 C32.2698134,10.9674523 32.7225674,11.4206855 32.7225674,11.9801155" id="Fill-331" fill="#FFFFFF"></path>
                            <path d="M39.5235636,11.9801155 C39.5235636,12.5395456 39.0704941,12.9927788 38.5123604,12.9927788 C37.9539112,12.9927788 37.5017882,12.5395456 37.5017882,11.9801155 C37.5017882,11.4206855 37.9539112,10.9674523 38.5123604,10.9674523 C39.0704941,10.9674523 39.5235636,11.4206855 39.5235636,11.9801155" id="Fill-333" fill="#FFFFFF"></path>
                            <path d="M15.6786663,15.9099062 C15.6786663,16.4693363 15.2262278,16.9225694 14.6680941,16.9225694 C14.1096449,16.9225694 13.6568909,16.4693363 13.6568909,15.9099062 C13.6568909,15.3504762 14.1096449,14.897243 14.6680941,14.897243 C15.2262278,14.897243 15.6786663,15.3504762 15.6786663,15.9099062" id="Fill-340" fill="#FFFFFF"></path>
                            <path d="M22.4796626,15.9099062 C22.4796626,16.4693363 22.0269086,16.9225694 21.4687749,16.9225694 C20.9103257,16.9225694 20.4578872,16.4693363 20.4578872,15.9099062 C20.4578872,15.3504762 20.9103257,14.897243 21.4687749,14.897243 C22.0269086,14.897243 22.4796626,15.3504762 22.4796626,15.9099062" id="Fill-342" fill="#FFFFFF"></path>
                            <path d="M29.2803118,15.9099062 C29.2803118,16.4693363 28.8278733,16.9225694 28.2694241,16.9225694 C27.7109749,16.9225694 27.2585364,16.4693363 27.2585364,15.9099062 C27.2585364,15.3504762 27.7109749,14.897243 28.2694241,14.897243 C28.8278733,14.897243 29.2803118,15.3504762 29.2803118,15.9099062" id="Fill-344" fill="#FFFFFF"></path>
                            <path d="M36.081308,15.9099062 C36.081308,16.4693363 35.6282385,16.9225694 35.0701048,16.9225694 C34.5116556,16.9225694 34.0595326,16.4693363 34.0595326,15.9099062 C34.0595326,15.3504762 34.5116556,14.897243 35.0701048,14.897243 C35.6282385,14.897243 36.081308,15.3504762 36.081308,15.9099062" id="Fill-346" fill="#FFFFFF"></path>
                            <path d="M5.51956043,19.3582078 C5.51956043,19.9176378 5.06680642,20.370871 4.50867273,20.370871 C3.95022353,20.370871 3.49778503,19.9176378 3.49778503,19.3582078 C3.49778503,18.7987777 3.95022353,18.3458606 4.50867273,18.3458606 C5.06680642,18.3458606 5.51956043,18.7987777 5.51956043,19.3582078" id="Fill-348" fill="#FFFFFF"></path>
                            <path d="M12.3202412,19.3582078 C12.3202412,19.9176378 11.8678027,20.370871 11.309669,20.370871 C10.7509043,20.370871 10.2984658,19.9176378 10.2984658,19.3582078 C10.2984658,18.7987777 10.7509043,18.3458606 11.309669,18.3458606 C11.8678027,18.3458606 12.3202412,18.7987777 12.3202412,19.3582078" id="Fill-350" fill="#FFFFFF"></path>
                            <path d="M19.1208904,19.3582078 C19.1208904,19.9176378 18.6684519,20.370871 18.1103182,20.370871 C17.551869,20.370871 17.099115,19.9176378 17.099115,19.3582078 C17.099115,18.7987777 17.551869,18.3458606 18.1103182,18.3458606 C18.6684519,18.3458606 19.1208904,18.7987777 19.1208904,19.3582078" id="Fill-352" fill="#FFFFFF"></path>
                            <path d="M25.9218866,19.3582078 C25.9218866,19.9176378 25.4691326,20.370871 24.9109989,20.370871 C24.3525497,20.370871 23.9001112,19.9176378 23.9001112,19.3582078 C23.9001112,18.7987777 24.3525497,18.3458606 24.9109989,18.3458606 C25.4691326,18.3458606 25.9218866,18.7987777 25.9218866,19.3582078" id="Fill-354" fill="#FFFFFF"></path>
                            <path d="M32.7225674,19.3582078 C32.7225674,19.9176378 32.2698134,20.370871 31.7116797,20.370871 C31.1532305,20.370871 30.7011075,19.9176378 30.7011075,19.3582078 C30.7011075,18.7987777 31.1532305,18.3458606 31.7116797,18.3458606 C32.2698134,18.3458606 32.7225674,18.7987777 32.7225674,19.3582078" id="Fill-356" fill="#FFFFFF"></path>
                            <path d="M39.5235636,19.3582078 C39.5235636,19.9176378 39.0704941,20.370871 38.5123604,20.370871 C37.9539112,20.370871 37.5017882,19.9176378 37.5017882,19.3582078 C37.5017882,18.7987777 37.9539112,18.3458606 38.5123604,18.3458606 C39.0704941,18.3458606 39.5235636,18.7987777 39.5235636,19.3582078" id="Fill-358" fill="#FFFFFF"></path>
                            <g id="Group-362" transform="translate(0.000000, 22.124352)" fill="#FFFFFF">
                                <path d="M2.07730481,1.16364611 C2.07730481,1.72307617 1.6245508,2.17630933 1.06641711,2.17630933 C0.507967914,2.17630933 0.0555294118,1.72307617 0.0555294118,1.16364611 C0.0555294118,0.604216062 0.507967914,0.151298964 1.06641711,0.151298964 C1.6245508,0.151298964 2.07730481,0.604216062 2.07730481,1.16364611" id="Fill-360"></path>
                            </g>
                            <path d="M8.87798556,23.2879984 C8.87798556,23.8474285 8.42554706,24.3006617 7.86709786,24.3006617 C7.30864866,24.3006617 6.85621016,23.8474285 6.85621016,23.2879984 C6.85621016,22.7285684 7.30864866,22.2756513 7.86709786,22.2756513 C8.42554706,22.2756513 8.87798556,22.7285684 8.87798556,23.2879984" id="Fill-363" fill="#FFFFFF"></path>
                            <path d="M15.6786663,23.2879984 C15.6786663,23.8474285 15.2262278,24.3006617 14.6680941,24.3006617 C14.1096449,24.3006617 13.6568909,23.8474285 13.6568909,23.2879984 C13.6568909,22.7285684 14.1096449,22.2756513 14.6680941,22.2756513 C15.2262278,22.2756513 15.6786663,22.7285684 15.6786663,23.2879984" id="Fill-365" fill="#FFFFFF"></path>
                            <path d="M22.4796626,23.2879984 C22.4796626,23.8474285 22.0269086,24.3006617 21.4687749,24.3006617 C20.9103257,24.3006617 20.4578872,23.8474285 20.4578872,23.2879984 C20.4578872,22.7285684 20.9103257,22.2756513 21.4687749,22.2756513 C22.0269086,22.2756513 22.4796626,22.7285684 22.4796626,23.2879984" id="Fill-367" fill="#FFFFFF"></path>
                            <path d="M29.2803118,23.2879984 C29.2803118,23.8474285 28.8278733,24.3006617 28.2694241,24.3006617 C27.7109749,24.3006617 27.2585364,23.8474285 27.2585364,23.2879984 C27.2585364,22.7285684 27.7109749,22.2756513 28.2694241,22.2756513 C28.8278733,22.2756513 29.2803118,22.7285684 29.2803118,23.2879984" id="Fill-369" fill="#FFFFFF"></path>
                            <path d="M36.081308,23.2879984 C36.081308,23.8474285 35.6282385,24.3006617 35.0701048,24.3006617 C34.5116556,24.3006617 34.0595326,23.8474285 34.0595326,23.2879984 C34.0595326,22.7285684 34.5116556,22.2756513 35.0701048,22.2756513 C35.6282385,22.2756513 36.081308,22.7285684 36.081308,23.2879984" id="Fill-371" fill="#FFFFFF"></path>
                            <path d="M5.51956043,26.7362684 C5.51956043,27.2956984 5.06680642,27.7492477 4.50867273,27.7492477 C3.95022353,27.7492477 3.49778503,27.2956984 3.49778503,26.7362684 C3.49778503,26.1768383 3.95022353,25.7239212 4.50867273,25.7239212 C5.06680642,25.7239212 5.51956043,26.1768383 5.51956043,26.7362684" id="Fill-373" fill="#FFFFFF"></path>
                            <path d="M12.3202412,26.7362684 C12.3202412,27.2956984 11.8678027,27.7492477 11.309669,27.7492477 C10.7509043,27.7492477 10.2984658,27.2956984 10.2984658,26.7362684 C10.2984658,26.1768383 10.7509043,25.7239212 11.309669,25.7239212 C11.8678027,25.7239212 12.3202412,26.1768383 12.3202412,26.7362684" id="Fill-375" fill="#FFFFFF"></path>
                            <path d="M19.1208904,26.7362684 C19.1208904,27.2956984 18.6684519,27.7492477 18.1103182,27.7492477 C17.551869,27.7492477 17.099115,27.2956984 17.099115,26.7362684 C17.099115,26.1768383 17.551869,25.7239212 18.1103182,25.7239212 C18.6684519,25.7239212 19.1208904,26.1768383 19.1208904,26.7362684" id="Fill-377" fill="#FFFFFF"></path>
                            <path d="M25.9218866,26.7362684 C25.9218866,27.2956984 25.4691326,27.7492477 24.9109989,27.7492477 C24.3525497,27.7492477 23.9001112,27.2956984 23.9001112,26.7362684 C23.9001112,26.1768383 24.3525497,25.7239212 24.9109989,25.7239212 C25.4691326,25.7239212 25.9218866,26.1768383 25.9218866,26.7362684" id="Fill-379" fill="#FFFFFF"></path>
                            <path d="M32.7225674,26.7362684 C32.7225674,27.2956984 32.2698134,27.7492477 31.7116797,27.7492477 C31.1532305,27.7492477 30.7011075,27.2956984 30.7011075,26.7362684 C30.7011075,26.1768383 31.1532305,25.7239212 31.7116797,25.7239212 C32.2698134,25.7239212 32.7225674,26.1768383 32.7225674,26.7362684" id="Fill-381" fill="#FFFFFF"></path>
                            <path d="M39.5235636,26.7362684 C39.5235636,27.2956984 39.0704941,27.7492477 38.5123604,27.7492477 C37.9539112,27.7492477 37.5017882,27.2956984 37.5017882,26.7362684 C37.5017882,26.1768383 37.9539112,25.7239212 38.5123604,25.7239212 C39.0704941,25.7239212 39.5235636,26.1768383 39.5235636,26.7362684" id="Fill-383" fill="#FFFFFF"></path>
                            <path d="M15.6786663,30.6660591 C15.6786663,31.2254891 15.2262278,31.6790383 14.6680941,31.6790383 C14.1096449,31.6790383 13.6568909,31.2254891 13.6568909,30.6660591 C13.6568909,30.1069451 14.1096449,29.6537119 14.6680941,29.6537119 C15.2262278,29.6537119 15.6786663,30.1069451 15.6786663,30.6660591" id="Fill-390" fill="#FFFFFF"></path>
                            <path d="M22.4796626,30.6660591 C22.4796626,31.2254891 22.0269086,31.6790383 21.4687749,31.6790383 C20.9103257,31.6790383 20.4578872,31.2254891 20.4578872,30.6660591 C20.4578872,30.1069451 20.9103257,29.6537119 21.4687749,29.6537119 C22.0269086,29.6537119 22.4796626,30.1069451 22.4796626,30.6660591" id="Fill-392" fill="#FFFFFF"></path>
                            <path d="M29.2803118,30.6660591 C29.2803118,31.2254891 28.8278733,31.6790383 28.2694241,31.6790383 C27.7109749,31.6790383 27.2585364,31.2254891 27.2585364,30.6660591 C27.2585364,30.1069451 27.7109749,29.6537119 28.2694241,29.6537119 C28.8278733,29.6537119 29.2803118,30.1069451 29.2803118,30.6660591" id="Fill-394" fill="#FFFFFF"></path>
                            <path d="M36.081308,30.6660591 C36.081308,31.2254891 35.6282385,31.6790383 35.0701048,31.6790383 C34.5116556,31.6790383 34.0595326,31.2254891 34.0595326,30.6660591 C34.0595326,30.1069451 34.5116556,29.6537119 35.0701048,29.6537119 C35.6282385,29.6537119 36.081308,30.1069451 36.081308,30.6660591" id="Fill-396" fill="#FFFFFF"></path>
                            <path d="M19.1208904,34.1143606 C19.1208904,34.6737907 18.6684519,35.1273399 18.1103182,35.1273399 C17.551869,35.1273399 17.099115,34.6737907 17.099115,34.1143606 C17.099115,33.5549306 17.551869,33.1020135 18.1103182,33.1020135 C18.6684519,33.1020135 19.1208904,33.5549306 19.1208904,34.1143606" id="Fill-402" fill="#FFFFFF"></path>
                            <path d="M25.9218866,34.1143606 C25.9218866,34.6737907 25.4691326,35.1273399 24.9109989,35.1273399 C24.3525497,35.1273399 23.9001112,34.6737907 23.9001112,34.1143606 C23.9001112,33.5549306 24.3525497,33.1020135 24.9109989,33.1020135 C25.4691326,33.1020135 25.9218866,33.5549306 25.9218866,34.1143606" id="Fill-404" fill="#FFFFFF"></path>
                            <path d="M32.7225674,34.1143606 C32.7225674,34.6737907 32.2698134,35.1273399 31.7116797,35.1273399 C31.1532305,35.1273399 30.7011075,34.6737907 30.7011075,34.1143606 C30.7011075,33.5549306 31.1532305,33.1020135 31.7116797,33.1020135 C32.2698134,33.1020135 32.7225674,33.5549306 32.7225674,34.1143606" id="Fill-406" fill="#FFFFFF"></path>
                            <path d="M39.5235636,34.1143606 C39.5235636,34.6737907 39.0704941,35.1273399 38.5123604,35.1273399 C37.9539112,35.1273399 37.5017882,34.6737907 37.5017882,34.1143606 C37.5017882,33.5549306 37.9539112,33.1020135 38.5123604,33.1020135 C39.0704941,33.1020135 39.5235636,33.5549306 39.5235636,34.1143606" id="Fill-408" fill="#FFFFFF"></path>
                            <g id="Group-427" transform="translate(33.759358, 36.979275)">
                                <g id="mask-12" fill="#FFFFFF">
                                    <path d="M0.300174332,1.04474913 C0.958470349,1.26429055 1.63316204,1.44787336 2.32194973,1.5931594 L2.32194973,0.0525295337 L0.300174332,0.0525295337 L0.300174332,1.04474913 L0.300174332,1.04474913 L0.300174332,1.04474913 Z" id="path-11"></path>
                                </g>
                                <g id="Clip-426"></g>
                                <g id="Fill-425-Clipped">
                                    <mask id="mask-12" fill="white">
                                        <use xlink:href="#path-11"></use>
                                    </mask>
                                    <g id="path-11"></g>
                                    <path d="M2.32194973,1.06487668 C2.32194973,1.62430674 1.86888021,2.07785596 1.31074652,2.07785596 C0.752297326,2.07785596 0.300174332,1.62430674 0.300174332,1.06487668 C0.300174332,0.505446632 0.752297326,0.0525295337 1.31074652,0.0525295337 C1.86888021,0.0525295337 2.32194973,0.505446632 2.32194973,1.06487668" id="Fill-425" fill="#FFFFFF" mask="url(#mask-12)"></path>
                                </g>
                            </g>
                        </g>
                    </g>
                </g>
            </g>
        </g>
    </g>
</svg>