<?xml version="1.0" encoding="UTF-8" standalone="no"?>
<svg width="259px" height="139px" viewBox="0 0 259 139" version="1.1" xmlns="http://www.w3.org/2000/svg" xmlns:xlink="http://www.w3.org/1999/xlink">
    <!-- Generator: Sketch 3.7.2 (28276) - http://www.bohemiancoding.com/sketch -->
    <title>cloud</title>
    <desc>Created with Sketch.</desc>
    <defs>
        <polygon id="path-1" points="265.1774 0.602 0.8334 0.602 0.8334 138.3008 265.1774 138.3008"></polygon>
        <path d="M6.4141,1.42965895 C4.31396471,1.07405896 2.17588237,0.82981169 0.0061,0.703212789 L0.0061,1.8544 L6.4141,1.8544 L6.4141,1.42965895 L6.4141,1.42965895 Z" id="path-3"></path>
        <path d="M0.6907,5.15688882 C1.76033257,3.72005486 2.61672542,2.11507885 3.2130393,0.3888 L0.6907,0.3888 L0.6907,5.15688882 L0.6907,5.15688882 Z" id="path-5"></path>
        <path d="M0.0061,6.20072588 C2.17589297,6.07405068 4.31397268,5.82965942 6.4141,5.4738674 L6.4141,0.1662 L0.0061,0.1662 L0.0061,6.20072588 L0.0061,6.20072588 Z" id="path-7"></path>
        <path d="M0.5608,0.71926408 C0.943429718,0.53889556 1.32380175,0.354522759 1.70186242,0.1662 L0.5608,0.1662 L0.5608,0.71926408 L0.5608,0.71926408 Z" id="path-9"></path>
        <path d="M0.9514,3.30551775 C3.03786365,4.0001324 5.17629324,4.58097636 7.3594,5.04065187 L7.3594,0.1662 L0.9514,0.1662 L0.9514,3.30551775 L0.9514,3.30551775 Z" id="path-11"></path>
    </defs>
    <g id="Page-1" stroke="none" stroke-width="1" fill="none" fill-rule="evenodd">
        <g id="header" transform="translate(-61.000000, -112.000000)">
            <g id="cloud" transform="translate(187.585468, 181.037741) rotate(-15.000000) translate(-187.585468, -181.037741) translate(54.585468, 111.037741)">
                <g id="Group-112" transform="translate(-0.000000, 0.398000)">
                    <g id="Group-109">
                        <mask id="mask-2" fill="white">
                            <use xlink:href="#path-1"></use>
                        </mask>
                        <g id="Clip-108"></g>
                        <path d="M129.5274,138.3008 C111.8104,138.3008 94.9164,131.4938 82.1784,119.4158 C77.8774,120.6968 73.4104,121.3428 68.8284,121.3428 C56.1794,121.3428 44.2114,116.2408 35.4844,107.3948 C33.2214,107.9838 30.8794,108.2848 28.5004,108.2848 C13.2444,108.2848 0.8334,95.8728 0.8334,80.6178 C0.8334,65.7978 12.5464,53.6618 27.2014,52.9828 C35.1154,37.5598 50.9584,27.6658 68.8284,27.6658 C70.7354,27.6658 72.6394,27.7828 74.5304,28.0158 C87.4984,10.7288 107.5784,0.6018 129.5274,0.6018 C151.3744,0.6018 171.8514,11.0588 184.7524,28.3598 C188.5424,27.3988 192.4434,26.9148 196.4224,26.9148 C214.4214,26.9148 230.8474,37.3028 238.8574,52.9848 C253.4894,53.6898 265.1774,65.8148 265.1774,80.6178 C265.1774,95.8728 252.7664,108.2848 237.5114,108.2848 C235.2164,108.2848 232.9524,108.0028 230.7614,107.4528 C221.8644,116.7368 209.5284,122.0938 196.4224,122.0938 C190.0284,122.0938 183.7704,120.8218 177.9624,118.3728 C165.1264,131.1268 147.8854,138.3008 129.5274,138.3008" id="Fill-107" fill="#FFFFFF" mask="url(#mask-2)"></path>
                    </g>
                    <path d="M237.5117,62.9512 C235.7437,62.9512 234.0387,63.2192 232.4287,63.7022 C227.7867,48.2092 213.4267,36.9152 196.4217,36.9152 C190.7997,36.9152 185.4707,38.1582 180.6817,40.3702 C170.5547,22.5962 151.4487,10.6012 129.5277,10.6012 C108.1197,10.6012 89.3867,22.0352 79.0887,39.1252 C75.8297,38.1812 72.3907,37.6662 68.8287,37.6662 C52.2417,37.6662 38.2177,48.6312 33.6017,63.7072 C31.9857,63.2212 30.2747,62.9512 28.4997,62.9512 C18.7427,62.9512 10.8327,70.8612 10.8327,80.6182 C10.8327,90.3752 18.7427,98.2852 28.4997,98.2852 C32.1647,98.2852 35.5697,97.1682 38.3927,95.2562 C45.0257,104.9672 56.1807,111.3432 68.8287,111.3432 C74.5587,111.3432 79.9837,110.0332 84.8207,107.6992 C95.6147,120.3032 111.6317,128.3012 129.5277,128.3012 C148.2687,128.3012 164.9507,119.5302 175.7287,105.8812 C181.6637,109.8032 188.7747,112.0942 196.4217,112.0942 C209.4827,112.0942 220.9837,105.4302 227.7207,95.3202 C230.5237,97.1902 233.8887,98.2852 237.5117,98.2852 C247.2687,98.2852 255.1777,90.3752 255.1777,80.6182 C255.1777,70.8612 247.2687,62.9512 237.5117,62.9512" id="Fill-110" fill="#A5EEFE"></path>
                </g>
                <g id="Group-446" transform="translate(3.000000, 5.398000)">
                    <g id="Group-115" transform="translate(130.000000, 5.000000)">
                        <mask id="mask-4" fill="white">
                            <use xlink:href="#path-3"></use>
                        </mask>
                        <g id="Clip-114"></g>
                        <path d="M6.4141,-1.3496 C6.4141,0.4204 4.9781,1.8544 3.2091,1.8544 C1.4391,1.8544 0.0061,0.4204 0.0061,-1.3496 C0.0061,-3.1196 1.4391,-4.5536 3.2091,-4.5536 C4.9781,-4.5536 6.4141,-3.1196 6.4141,-1.3496" id="Fill-113" fill="#FFFFFF" mask="url(#mask-4)"></path>
                    </g>
                    <path d="M147.3242,14.5606 C147.3242,16.3306 145.8892,17.7646 144.1192,17.7646 C142.3492,17.7646 140.9162,16.3306 140.9162,14.5606 C140.9162,12.7906 142.3492,11.3566 144.1192,11.3566 C145.8892,11.3566 147.3242,12.7906 147.3242,14.5606" id="Fill-131" fill="#FFFFFF"></path>
                    <path d="M136.4141,26.9942 C136.4141,28.7642 134.9781,30.1982 133.2091,30.1982 C131.4391,30.1982 130.0061,28.7642 130.0061,26.9942 C130.0061,25.2242 131.4391,23.7902 133.2091,23.7902 C134.9781,23.7902 136.4141,25.2242 136.4141,26.9942" id="Fill-144" fill="#FFFFFF"></path>
                    <path d="M157.9688,26.9942 C157.9688,28.7642 156.5338,30.1982 154.7648,30.1982 C152.9938,30.1982 151.5608,28.7642 151.5608,26.9942 C151.5608,25.2242 152.9938,23.7902 154.7648,23.7902 C156.5338,23.7902 157.9688,25.2242 157.9688,26.9942" id="Fill-146" fill="#FFFFFF"></path>
                    <path d="M179.5235,26.9942 C179.5235,28.7642 178.0885,30.1982 176.3195,30.1982 C174.5495,30.1982 173.1155,28.7642 173.1155,26.9942 C173.1155,25.2242 174.5495,23.7902 176.3195,23.7902 C178.0885,23.7902 179.5235,25.2242 179.5235,26.9942" id="Fill-148" fill="#FFFFFF"></path>
                    <path d="M147.3242,37.9043 C147.3242,39.6743 145.8892,41.1083 144.1192,41.1083 C142.3492,41.1083 140.9162,39.6743 140.9162,37.9043 C140.9162,36.1343 142.3492,34.7003 144.1192,34.7003 C145.8892,34.7003 147.3242,36.1343 147.3242,37.9043" id="Fill-156" fill="#FFFFFF"></path>
                    <path d="M168.8789,37.9043 C168.8789,39.6743 167.4449,41.1083 165.6749,41.1083 C163.9039,41.1083 162.4709,39.6743 162.4709,37.9043 C162.4709,36.1343 163.9039,34.7003 165.6749,34.7003 C167.4449,34.7003 168.8789,36.1343 168.8789,37.9043" id="Fill-158" fill="#FFFFFF"></path>
                    <path d="M190.4336,37.9043 C190.4336,39.6743 188.9996,41.1083 187.2296,41.1083 C185.4596,41.1083 184.0256,39.6743 184.0256,37.9043 C184.0256,36.1343 185.4596,34.7003 187.2296,34.7003 C188.9996,34.7003 190.4336,36.1343 190.4336,37.9043" id="Fill-160" fill="#FFFFFF"></path>
                    <path d="M211.9883,37.9043 C211.9883,39.6743 210.5543,41.1083 208.7853,41.1083 C207.0153,41.1083 205.5803,39.6743 205.5803,37.9043 C205.5803,36.1343 207.0153,34.7003 208.7853,34.7003 C210.5543,34.7003 211.9883,36.1343 211.9883,37.9043" id="Fill-162" fill="#FFFFFF"></path>
                    <path d="M136.4141,50.3379 C136.4141,52.1079 134.9781,53.5419 133.2091,53.5419 C131.4391,53.5419 130.0061,52.1079 130.0061,50.3379 C130.0061,48.5679 131.4391,47.1339 133.2091,47.1339 C134.9781,47.1339 136.4141,48.5679 136.4141,50.3379" id="Fill-169" fill="#FFFFFF"></path>
                    <path d="M157.9688,50.3379 C157.9688,52.1079 156.5338,53.5419 154.7648,53.5419 C152.9938,53.5419 151.5608,52.1079 151.5608,50.3379 C151.5608,48.5679 152.9938,47.1339 154.7648,47.1339 C156.5338,47.1339 157.9688,48.5679 157.9688,50.3379" id="Fill-171" fill="#FFFFFF"></path>
                    <path d="M179.5235,50.3379 C179.5235,52.1079 178.0885,53.5419 176.3195,53.5419 C174.5495,53.5419 173.1155,52.1079 173.1155,50.3379 C173.1155,48.5679 174.5495,47.1339 176.3195,47.1339 C178.0885,47.1339 179.5235,48.5679 179.5235,50.3379" id="Fill-173" fill="#FFFFFF"></path>
                    <path d="M201.0782,50.3379 C201.0782,52.1079 199.6442,53.5419 197.8752,53.5419 C196.1042,53.5419 194.6702,52.1079 194.6702,50.3379 C194.6702,48.5679 196.1042,47.1339 197.8752,47.1339 C199.6442,47.1339 201.0782,48.5679 201.0782,50.3379" id="Fill-175" fill="#FFFFFF"></path>
                    <path d="M222.6328,50.3379 C222.6328,52.1079 221.1988,53.5419 219.4298,53.5419 C217.6598,53.5419 216.2248,52.1079 216.2248,50.3379 C216.2248,48.5679 217.6598,47.1339 219.4298,47.1339 C221.1988,47.1339 222.6328,48.5679 222.6328,50.3379" id="Fill-177" fill="#FFFFFF"></path>
                    <path d="M147.3242,61.2481 C147.3242,63.0181 145.8892,64.4521 144.1192,64.4521 C142.3492,64.4521 140.9162,63.0181 140.9162,61.2481 C140.9162,59.4781 142.3492,58.0451 144.1192,58.0451 C145.8892,58.0451 147.3242,59.4781 147.3242,61.2481" id="Fill-181" fill="#FFFFFF"></path>
                    <path d="M168.8789,61.2481 C168.8789,63.0181 167.4449,64.4521 165.6749,64.4521 C163.9039,64.4521 162.4709,63.0181 162.4709,61.2481 C162.4709,59.4781 163.9039,58.0451 165.6749,58.0451 C167.4449,58.0451 168.8789,59.4781 168.8789,61.2481" id="Fill-183" fill="#FFFFFF"></path>
                    <path d="M190.4336,61.2481 C190.4336,63.0181 188.9996,64.4521 187.2296,64.4521 C185.4596,64.4521 184.0256,63.0181 184.0256,61.2481 C184.0256,59.4781 185.4596,58.0451 187.2296,58.0451 C188.9996,58.0451 190.4336,59.4781 190.4336,61.2481" id="Fill-185" fill="#FFFFFF"></path>
                    <path d="M211.9883,61.2481 C211.9883,63.0181 210.5543,64.4521 208.7853,64.4521 C207.0153,64.4521 205.5803,63.0181 205.5803,61.2481 C205.5803,59.4781 207.0153,58.0451 208.7853,58.0451 C210.5543,58.0451 211.9883,59.4781 211.9883,61.2481" id="Fill-187" fill="#FFFFFF"></path>
                    <path d="M233.543,61.2481 C233.543,63.0181 232.109,64.4521 230.34,64.4521 C228.57,64.4521 227.136,63.0181 227.136,61.2481 C227.136,59.4781 228.57,58.0451 230.34,58.0451 C232.109,58.0451 233.543,59.4781 233.543,61.2481" id="Fill-189" fill="#FFFFFF"></path>
                    <g id="Group-193" transform="translate(248.000000, 58.000000)" fill="#FFFFFF">
                        <path d="M7.0987,3.2481 C7.0987,5.0181 5.6637,6.4521 3.8947,6.4521 C2.1247,6.4521 0.6907,5.0181 0.6907,3.2481 C0.6907,1.4781 2.1247,0.0451 3.8947,0.0451 C5.6637,0.0451 7.0987,1.4781 7.0987,3.2481" id="Fill-191"></path>
                    </g>
                    <path d="M136.4141,73.6817 C136.4141,75.4517 134.9781,76.8857 133.2091,76.8857 C131.4391,76.8857 130.0061,75.4517 130.0061,73.6817 C130.0061,71.9117 131.4391,70.4787 133.2091,70.4787 C134.9781,70.4787 136.4141,71.9117 136.4141,73.6817" id="Fill-194" fill="#FFFFFF"></path>
                    <path d="M157.9688,73.6817 C157.9688,75.4517 156.5338,76.8857 154.7648,76.8857 C152.9938,76.8857 151.5608,75.4517 151.5608,73.6817 C151.5608,71.9117 152.9938,70.4787 154.7648,70.4787 C156.5338,70.4787 157.9688,71.9117 157.9688,73.6817" id="Fill-196" fill="#FFFFFF"></path>
                    <path d="M179.5235,73.6817 C179.5235,75.4517 178.0885,76.8857 176.3195,76.8857 C174.5495,76.8857 173.1155,75.4517 173.1155,73.6817 C173.1155,71.9117 174.5495,70.4787 176.3195,70.4787 C178.0885,70.4787 179.5235,71.9117 179.5235,73.6817" id="Fill-198" fill="#FFFFFF"></path>
                    <path d="M201.0782,73.6817 C201.0782,75.4517 199.6442,76.8857 197.8752,76.8857 C196.1042,76.8857 194.6702,75.4517 194.6702,73.6817 C194.6702,71.9117 196.1042,70.4787 197.8752,70.4787 C199.6442,70.4787 201.0782,71.9117 201.0782,73.6817" id="Fill-200" fill="#FFFFFF"></path>
                    <path d="M222.6328,73.6817 C222.6328,75.4517 221.1988,76.8857 219.4298,76.8857 C217.6598,76.8857 216.2248,75.4517 216.2248,73.6817 C216.2248,71.9117 217.6598,70.4787 219.4298,70.4787 C221.1988,70.4787 222.6328,71.9117 222.6328,73.6817" id="Fill-202" fill="#FFFFFF"></path>
                    <path d="M244.1885,73.6817 C244.1885,75.4517 242.7535,76.8857 240.9845,76.8857 C239.2145,76.8857 237.7805,75.4517 237.7805,73.6817 C237.7805,71.9117 239.2145,70.4787 240.9845,70.4787 C242.7535,70.4787 244.1885,71.9117 244.1885,73.6817" id="Fill-204" fill="#FFFFFF"></path>
                    <path d="M147.3242,84.5918 C147.3242,86.3618 145.8892,87.7968 144.1192,87.7968 C142.3492,87.7968 140.9162,86.3618 140.9162,84.5918 C140.9162,82.8218 142.3492,81.3888 144.1192,81.3888 C145.8892,81.3888 147.3242,82.8218 147.3242,84.5918" id="Fill-206" fill="#FFFFFF"></path>
                    <path d="M168.8789,84.5918 C168.8789,86.3618 167.4449,87.7968 165.6749,87.7968 C163.9039,87.7968 162.4709,86.3618 162.4709,84.5918 C162.4709,82.8218 163.9039,81.3888 165.6749,81.3888 C167.4449,81.3888 168.8789,82.8218 168.8789,84.5918" id="Fill-208" fill="#FFFFFF"></path>
                    <path d="M190.4336,84.5918 C190.4336,86.3618 188.9996,87.7968 187.2296,87.7968 C185.4596,87.7968 184.0256,86.3618 184.0256,84.5918 C184.0256,82.8218 185.4596,81.3888 187.2296,81.3888 C188.9996,81.3888 190.4336,82.8218 190.4336,84.5918" id="Fill-210" fill="#FFFFFF"></path>
                    <path d="M211.9883,84.5918 C211.9883,86.3618 210.5543,87.7968 208.7853,87.7968 C207.0153,87.7968 205.5803,86.3618 205.5803,84.5918 C205.5803,82.8218 207.0153,81.3888 208.7853,81.3888 C210.5543,81.3888 211.9883,82.8218 211.9883,84.5918" id="Fill-212" fill="#FFFFFF"></path>
                    <path d="M233.543,84.5918 C233.543,86.3618 232.109,87.7968 230.34,87.7968 C228.57,87.7968 227.136,86.3618 227.136,84.5918 C227.136,82.8218 228.57,81.3888 230.34,81.3888 C232.109,81.3888 233.543,82.8218 233.543,84.5918" id="Fill-214" fill="#FFFFFF"></path>
                    <g id="Group-218" transform="translate(248.000000, 81.000000)">
                        <mask id="mask-6" fill="white">
                            <use xlink:href="#path-5"></use>
                        </mask>
                        <g id="Clip-217"></g>
                        <path d="M7.0987,3.5918 C7.0987,5.3618 5.6637,6.7968 3.8947,6.7968 C2.1247,6.7968 0.6907,5.3618 0.6907,3.5918 C0.6907,1.8218 2.1247,0.3888 3.8947,0.3888 C5.6637,0.3888 7.0987,1.8218 7.0987,3.5918" id="Fill-216" fill="#FFFFFF" mask="url(#mask-6)"></path>
                    </g>
                    <path d="M136.4141,97.0254 C136.4141,98.7954 134.9781,100.2304 133.2091,100.2304 C131.4391,100.2304 130.0061,98.7954 130.0061,97.0254 C130.0061,95.2564 131.4391,93.8224 133.2091,93.8224 C134.9781,93.8224 136.4141,95.2564 136.4141,97.0254" id="Fill-219" fill="#FFFFFF"></path>
                    <path d="M157.9688,97.0254 C157.9688,98.7954 156.5338,100.2304 154.7648,100.2304 C152.9938,100.2304 151.5608,98.7954 151.5608,97.0254 C151.5608,95.2564 152.9938,93.8224 154.7648,93.8224 C156.5338,93.8224 157.9688,95.2564 157.9688,97.0254" id="Fill-221" fill="#FFFFFF"></path>
                    <path d="M179.5235,97.0254 C179.5235,98.7954 178.0885,100.2304 176.3195,100.2304 C174.5495,100.2304 173.1155,98.7954 173.1155,97.0254 C173.1155,95.2564 174.5495,93.8224 176.3195,93.8224 C178.0885,93.8224 179.5235,95.2564 179.5235,97.0254" id="Fill-223" fill="#FFFFFF"></path>
                    <path d="M201.0782,97.0254 C201.0782,98.7954 199.6442,100.2304 197.8752,100.2304 C196.1042,100.2304 194.6702,98.7954 194.6702,97.0254 C194.6702,95.2564 196.1042,93.8224 197.8752,93.8224 C199.6442,93.8224 201.0782,95.2564 201.0782,97.0254" id="Fill-225" fill="#FFFFFF"></path>
                    <path d="M222.6328,97.0254 C222.6328,98.7954 221.1988,100.2304 219.4298,100.2304 C217.6598,100.2304 216.2248,98.7954 216.2248,97.0254 C216.2248,95.2564 217.6598,93.8224 219.4298,93.8224 C221.1988,93.8224 222.6328,95.2564 222.6328,97.0254" id="Fill-227" fill="#FFFFFF"></path>
                    <path d="M147.3242,107.9356 C147.3242,109.7056 145.8892,111.1406 144.1192,111.1406 C142.3492,111.1406 140.9162,109.7056 140.9162,107.9356 C140.9162,106.1656 142.3492,104.7326 144.1192,104.7326 C145.8892,104.7326 147.3242,106.1656 147.3242,107.9356" id="Fill-231" fill="#FFFFFF"></path>
                    <path d="M168.8789,107.9356 C168.8789,109.7056 167.4449,111.1406 165.6749,111.1406 C163.9039,111.1406 162.4709,109.7056 162.4709,107.9356 C162.4709,106.1656 163.9039,104.7326 165.6749,104.7326 C167.4449,104.7326 168.8789,106.1656 168.8789,107.9356" id="Fill-233" fill="#FFFFFF"></path>
                    <path d="M190.4336,107.9356 C190.4336,109.7056 188.9996,111.1406 187.2296,111.1406 C185.4596,111.1406 184.0256,109.7056 184.0256,107.9356 C184.0256,106.1656 185.4596,104.7326 187.2296,104.7326 C188.9996,104.7326 190.4336,106.1656 190.4336,107.9356" id="Fill-235" fill="#FFFFFF"></path>
                    <path d="M211.9883,107.9356 C211.9883,109.7056 210.5543,111.1406 208.7853,111.1406 C207.0153,111.1406 205.5803,109.7056 205.5803,107.9356 C205.5803,106.1656 207.0153,104.7326 208.7853,104.7326 C210.5543,104.7326 211.9883,106.1656 211.9883,107.9356" id="Fill-237" fill="#FFFFFF"></path>
                    <g id="Group-246" transform="translate(130.000000, 117.000000)">
                        <mask id="mask-8" fill="white">
                            <use xlink:href="#path-7"></use>
                        </mask>
                        <g id="Clip-245"></g>
                        <path d="M6.4141,3.3692 C6.4141,5.1392 4.9781,6.5742 3.2091,6.5742 C1.4391,6.5742 0.0061,5.1392 0.0061,3.3692 C0.0061,1.5992 1.4391,0.1662 3.2091,0.1662 C4.9781,0.1662 6.4141,1.5992 6.4141,3.3692" id="Fill-244" fill="#FFFFFF" mask="url(#mask-8)"></path>
                    </g>
                    <g id="Group-249" transform="translate(151.000000, 117.000000)">
                        <mask id="mask-10" fill="white">
                            <use xlink:href="#path-9"></use>
                        </mask>
                        <g id="Clip-248"></g>
                        <path d="M6.9688,3.3692 C6.9688,5.1392 5.5338,6.5742 3.7648,6.5742 C1.9938,6.5742 0.5608,5.1392 0.5608,3.3692 C0.5608,1.5992 1.9938,0.1662 3.7648,0.1662 C5.5338,0.1662 6.9688,1.5992 6.9688,3.3692" id="Fill-247" fill="#FFFFFF" mask="url(#mask-10)"></path>
                    </g>
                    <g id="Group-297" transform="translate(107.000000, 0.000000)" fill="#FFFFFF">
                        <path d="M7.3594,3.6504 C7.3594,5.4204 5.9234,6.8544 4.1544,6.8544 C2.3844,6.8544 0.9514,5.4204 0.9514,3.6504 C0.9514,1.8804 2.3844,0.4464 4.1544,0.4464 C5.9234,0.4464 7.3594,1.8804 7.3594,3.6504" id="Fill-295"></path>
                    </g>
                    <path d="M103.7139,14.5606 C103.7139,16.3306 102.2789,17.7646 100.5099,17.7646 C98.7399,17.7646 97.3069,16.3306 97.3069,14.5606 C97.3069,12.7906 98.7399,11.3566 100.5099,11.3566 C102.2789,11.3566 103.7139,12.7906 103.7139,14.5606" id="Fill-306" fill="#FFFFFF"></path>
                    <path d="M125.2696,14.5606 C125.2696,16.3306 123.8336,17.7646 122.0646,17.7646 C120.2946,17.7646 118.8616,16.3306 118.8616,14.5606 C118.8616,12.7906 120.2946,11.3566 122.0646,11.3566 C123.8336,11.3566 125.2696,12.7906 125.2696,14.5606" id="Fill-308" fill="#FFFFFF"></path>
                    <path d="M92.8037,26.9942 C92.8037,28.7642 91.3697,30.1982 89.5997,30.1982 C87.8297,30.1982 86.3957,28.7642 86.3957,26.9942 C86.3957,25.2242 87.8297,23.7902 89.5997,23.7902 C91.3697,23.7902 92.8037,25.2242 92.8037,26.9942" id="Fill-319" fill="#FFFFFF"></path>
                    <path d="M114.3594,26.9942 C114.3594,28.7642 112.9234,30.1982 111.1544,30.1982 C109.3844,30.1982 107.9514,28.7642 107.9514,26.9942 C107.9514,25.2242 109.3844,23.7902 111.1544,23.7902 C112.9234,23.7902 114.3594,25.2242 114.3594,26.9942" id="Fill-321" fill="#FFFFFF"></path>
                    <path d="M60.6035,37.9043 C60.6035,39.6743 59.1695,41.1083 57.4005,41.1083 C55.6305,41.1083 54.1955,39.6743 54.1955,37.9043 C54.1955,36.1343 55.6305,34.7003 57.4005,34.7003 C59.1695,34.7003 60.6035,36.1343 60.6035,37.9043" id="Fill-327" fill="#FFFFFF"></path>
                    <path d="M82.1592,37.9043 C82.1592,39.6743 80.7242,41.1083 78.9552,41.1083 C77.1852,41.1083 75.7512,39.6743 75.7512,37.9043 C75.7512,36.1343 77.1852,34.7003 78.9552,34.7003 C80.7242,34.7003 82.1592,36.1343 82.1592,37.9043" id="Fill-329" fill="#FFFFFF"></path>
                    <path d="M103.7139,37.9043 C103.7139,39.6743 102.2789,41.1083 100.5099,41.1083 C98.7399,41.1083 97.3069,39.6743 97.3069,37.9043 C97.3069,36.1343 98.7399,34.7003 100.5099,34.7003 C102.2789,34.7003 103.7139,36.1343 103.7139,37.9043" id="Fill-331" fill="#FFFFFF"></path>
                    <path d="M125.2696,37.9043 C125.2696,39.6743 123.8336,41.1083 122.0646,41.1083 C120.2946,41.1083 118.8616,39.6743 118.8616,37.9043 C118.8616,36.1343 120.2946,34.7003 122.0646,34.7003 C123.8336,34.7003 125.2696,36.1343 125.2696,37.9043" id="Fill-333" fill="#FFFFFF"></path>
                    <path d="M49.6934,50.3379 C49.6934,52.1079 48.2594,53.5419 46.4904,53.5419 C44.7204,53.5419 43.2854,52.1079 43.2854,50.3379 C43.2854,48.5679 44.7204,47.1339 46.4904,47.1339 C48.2594,47.1339 49.6934,48.5679 49.6934,50.3379" id="Fill-340" fill="#FFFFFF"></path>
                    <path d="M71.2491,50.3379 C71.2491,52.1079 69.8141,53.5419 68.0451,53.5419 C66.2751,53.5419 64.8411,52.1079 64.8411,50.3379 C64.8411,48.5679 66.2751,47.1339 68.0451,47.1339 C69.8141,47.1339 71.2491,48.5679 71.2491,50.3379" id="Fill-342" fill="#FFFFFF"></path>
                    <path d="M92.8037,50.3379 C92.8037,52.1079 91.3697,53.5419 89.5997,53.5419 C87.8297,53.5419 86.3957,52.1079 86.3957,50.3379 C86.3957,48.5679 87.8297,47.1339 89.5997,47.1339 C91.3697,47.1339 92.8037,48.5679 92.8037,50.3379" id="Fill-344" fill="#FFFFFF"></path>
                    <path d="M114.3594,50.3379 C114.3594,52.1079 112.9234,53.5419 111.1544,53.5419 C109.3844,53.5419 107.9514,52.1079 107.9514,50.3379 C107.9514,48.5679 109.3844,47.1339 111.1544,47.1339 C112.9234,47.1339 114.3594,48.5679 114.3594,50.3379" id="Fill-346" fill="#FFFFFF"></path>
                    <path d="M17.4942,61.2481 C17.4942,63.0181 16.0592,64.4521 14.2902,64.4521 C12.5202,64.4521 11.0862,63.0181 11.0862,61.2481 C11.0862,59.4781 12.5202,58.0451 14.2902,58.0451 C16.0592,58.0451 17.4942,59.4781 17.4942,61.2481" id="Fill-348" fill="#FFFFFF"></path>
                    <path d="M39.0489,61.2481 C39.0489,63.0181 37.6149,64.4521 35.8459,64.4521 C34.0749,64.4521 32.6409,63.0181 32.6409,61.2481 C32.6409,59.4781 34.0749,58.0451 35.8459,58.0451 C37.6149,58.0451 39.0489,59.4781 39.0489,61.2481" id="Fill-350" fill="#FFFFFF"></path>
                    <path d="M60.6035,61.2481 C60.6035,63.0181 59.1695,64.4521 57.4005,64.4521 C55.6305,64.4521 54.1955,63.0181 54.1955,61.2481 C54.1955,59.4781 55.6305,58.0451 57.4005,58.0451 C59.1695,58.0451 60.6035,59.4781 60.6035,61.2481" id="Fill-352" fill="#FFFFFF"></path>
                    <path d="M82.1592,61.2481 C82.1592,63.0181 80.7242,64.4521 78.9552,64.4521 C77.1852,64.4521 75.7512,63.0181 75.7512,61.2481 C75.7512,59.4781 77.1852,58.0451 78.9552,58.0451 C80.7242,58.0451 82.1592,59.4781 82.1592,61.2481" id="Fill-354" fill="#FFFFFF"></path>
                    <path d="M103.7139,61.2481 C103.7139,63.0181 102.2789,64.4521 100.5099,64.4521 C98.7399,64.4521 97.3069,63.0181 97.3069,61.2481 C97.3069,59.4781 98.7399,58.0451 100.5099,58.0451 C102.2789,58.0451 103.7139,59.4781 103.7139,61.2481" id="Fill-356" fill="#FFFFFF"></path>
                    <path d="M125.2696,61.2481 C125.2696,63.0181 123.8336,64.4521 122.0646,64.4521 C120.2946,64.4521 118.8616,63.0181 118.8616,61.2481 C118.8616,59.4781 120.2946,58.0451 122.0646,58.0451 C123.8336,58.0451 125.2696,59.4781 125.2696,61.2481" id="Fill-358" fill="#FFFFFF"></path>
                    <g id="Group-362" transform="translate(0.000000, 70.000000)" fill="#FFFFFF">
                        <path d="M6.584,3.6817 C6.584,5.4517 5.149,6.8857 3.38,6.8857 C1.61,6.8857 0.176,5.4517 0.176,3.6817 C0.176,1.9117 1.61,0.4787 3.38,0.4787 C5.149,0.4787 6.584,1.9117 6.584,3.6817" id="Fill-360"></path>
                    </g>
                    <path d="M28.1387,73.6817 C28.1387,75.4517 26.7047,76.8857 24.9347,76.8857 C23.1647,76.8857 21.7307,75.4517 21.7307,73.6817 C21.7307,71.9117 23.1647,70.4787 24.9347,70.4787 C26.7047,70.4787 28.1387,71.9117 28.1387,73.6817" id="Fill-363" fill="#FFFFFF"></path>
                    <path d="M49.6934,73.6817 C49.6934,75.4517 48.2594,76.8857 46.4904,76.8857 C44.7204,76.8857 43.2854,75.4517 43.2854,73.6817 C43.2854,71.9117 44.7204,70.4787 46.4904,70.4787 C48.2594,70.4787 49.6934,71.9117 49.6934,73.6817" id="Fill-365" fill="#FFFFFF"></path>
                    <path d="M71.2491,73.6817 C71.2491,75.4517 69.8141,76.8857 68.0451,76.8857 C66.2751,76.8857 64.8411,75.4517 64.8411,73.6817 C64.8411,71.9117 66.2751,70.4787 68.0451,70.4787 C69.8141,70.4787 71.2491,71.9117 71.2491,73.6817" id="Fill-367" fill="#FFFFFF"></path>
                    <path d="M92.8037,73.6817 C92.8037,75.4517 91.3697,76.8857 89.5997,76.8857 C87.8297,76.8857 86.3957,75.4517 86.3957,73.6817 C86.3957,71.9117 87.8297,70.4787 89.5997,70.4787 C91.3697,70.4787 92.8037,71.9117 92.8037,73.6817" id="Fill-369" fill="#FFFFFF"></path>
                    <path d="M114.3594,73.6817 C114.3594,75.4517 112.9234,76.8857 111.1544,76.8857 C109.3844,76.8857 107.9514,75.4517 107.9514,73.6817 C107.9514,71.9117 109.3844,70.4787 111.1544,70.4787 C112.9234,70.4787 114.3594,71.9117 114.3594,73.6817" id="Fill-371" fill="#FFFFFF"></path>
                    <path d="M17.4942,84.5918 C17.4942,86.3618 16.0592,87.7968 14.2902,87.7968 C12.5202,87.7968 11.0862,86.3618 11.0862,84.5918 C11.0862,82.8218 12.5202,81.3888 14.2902,81.3888 C16.0592,81.3888 17.4942,82.8218 17.4942,84.5918" id="Fill-373" fill="#FFFFFF"></path>
                    <path d="M39.0489,84.5918 C39.0489,86.3618 37.6149,87.7968 35.8459,87.7968 C34.0749,87.7968 32.6409,86.3618 32.6409,84.5918 C32.6409,82.8218 34.0749,81.3888 35.8459,81.3888 C37.6149,81.3888 39.0489,82.8218 39.0489,84.5918" id="Fill-375" fill="#FFFFFF"></path>
                    <path d="M60.6035,84.5918 C60.6035,86.3618 59.1695,87.7968 57.4005,87.7968 C55.6305,87.7968 54.1955,86.3618 54.1955,84.5918 C54.1955,82.8218 55.6305,81.3888 57.4005,81.3888 C59.1695,81.3888 60.6035,82.8218 60.6035,84.5918" id="Fill-377" fill="#FFFFFF"></path>
                    <path d="M82.1592,84.5918 C82.1592,86.3618 80.7242,87.7968 78.9552,87.7968 C77.1852,87.7968 75.7512,86.3618 75.7512,84.5918 C75.7512,82.8218 77.1852,81.3888 78.9552,81.3888 C80.7242,81.3888 82.1592,82.8218 82.1592,84.5918" id="Fill-379" fill="#FFFFFF"></path>
                    <path d="M103.7139,84.5918 C103.7139,86.3618 102.2789,87.7968 100.5099,87.7968 C98.7399,87.7968 97.3069,86.3618 97.3069,84.5918 C97.3069,82.8218 98.7399,81.3888 100.5099,81.3888 C102.2789,81.3888 103.7139,82.8218 103.7139,84.5918" id="Fill-381" fill="#FFFFFF"></path>
                    <path d="M125.2696,84.5918 C125.2696,86.3618 123.8336,87.7968 122.0646,87.7968 C120.2946,87.7968 118.8616,86.3618 118.8616,84.5918 C118.8616,82.8218 120.2946,81.3888 122.0646,81.3888 C123.8336,81.3888 125.2696,82.8218 125.2696,84.5918" id="Fill-383" fill="#FFFFFF"></path>
                    <path d="M49.6934,97.0254 C49.6934,98.7954 48.2594,100.2304 46.4904,100.2304 C44.7204,100.2304 43.2854,98.7954 43.2854,97.0254 C43.2854,95.2564 44.7204,93.8224 46.4904,93.8224 C48.2594,93.8224 49.6934,95.2564 49.6934,97.0254" id="Fill-390" fill="#FFFFFF"></path>
                    <path d="M71.2491,97.0254 C71.2491,98.7954 69.8141,100.2304 68.0451,100.2304 C66.2751,100.2304 64.8411,98.7954 64.8411,97.0254 C64.8411,95.2564 66.2751,93.8224 68.0451,93.8224 C69.8141,93.8224 71.2491,95.2564 71.2491,97.0254" id="Fill-392" fill="#FFFFFF"></path>
                    <path d="M92.8037,97.0254 C92.8037,98.7954 91.3697,100.2304 89.5997,100.2304 C87.8297,100.2304 86.3957,98.7954 86.3957,97.0254 C86.3957,95.2564 87.8297,93.8224 89.5997,93.8224 C91.3697,93.8224 92.8037,95.2564 92.8037,97.0254" id="Fill-394" fill="#FFFFFF"></path>
                    <path d="M114.3594,97.0254 C114.3594,98.7954 112.9234,100.2304 111.1544,100.2304 C109.3844,100.2304 107.9514,98.7954 107.9514,97.0254 C107.9514,95.2564 109.3844,93.8224 111.1544,93.8224 C112.9234,93.8224 114.3594,95.2564 114.3594,97.0254" id="Fill-396" fill="#FFFFFF"></path>
                    <path d="M60.6035,107.9356 C60.6035,109.7056 59.1695,111.1406 57.4005,111.1406 C55.6305,111.1406 54.1955,109.7056 54.1955,107.9356 C54.1955,106.1656 55.6305,104.7326 57.4005,104.7326 C59.1695,104.7326 60.6035,106.1656 60.6035,107.9356" id="Fill-402" fill="#FFFFFF"></path>
                    <path d="M82.1592,107.9356 C82.1592,109.7056 80.7242,111.1406 78.9552,111.1406 C77.1852,111.1406 75.7512,109.7056 75.7512,107.9356 C75.7512,106.1656 77.1852,104.7326 78.9552,104.7326 C80.7242,104.7326 82.1592,106.1656 82.1592,107.9356" id="Fill-404" fill="#FFFFFF"></path>
                    <path d="M103.7139,107.9356 C103.7139,109.7056 102.2789,111.1406 100.5099,111.1406 C98.7399,111.1406 97.3069,109.7056 97.3069,107.9356 C97.3069,106.1656 98.7399,104.7326 100.5099,104.7326 C102.2789,104.7326 103.7139,106.1656 103.7139,107.9356" id="Fill-406" fill="#FFFFFF"></path>
                    <path d="M125.2696,107.9356 C125.2696,109.7056 123.8336,111.1406 122.0646,111.1406 C120.2946,111.1406 118.8616,109.7056 118.8616,107.9356 C118.8616,106.1656 120.2946,104.7326 122.0646,104.7326 C123.8336,104.7326 125.2696,106.1656 125.2696,107.9356" id="Fill-408" fill="#FFFFFF"></path>
                    <g id="Group-427" transform="translate(107.000000, 117.000000)">
                        <mask id="mask-12" fill="white">
                            <use xlink:href="#path-11"></use>
                        </mask>
                        <g id="Clip-426"></g>
                        <path d="M7.3594,3.3692 C7.3594,5.1392 5.9234,6.5742 4.1544,6.5742 C2.3844,6.5742 0.9514,5.1392 0.9514,3.3692 C0.9514,1.5992 2.3844,0.1662 4.1544,0.1662 C5.9234,0.1662 7.3594,1.5992 7.3594,3.3692" id="Fill-425" fill="#FFFFFF" mask="url(#mask-12)"></path>
                    </g>
                </g>
            </g>
        </g>
    </g>
</svg>