<?xml version="1.0" encoding="UTF-8"?>
<svg width="114px" height="114px" viewBox="0 0 114 114" version="1.1" xmlns="http://www.w3.org/2000/svg" xmlns:xlink="http://www.w3.org/1999/xlink">
    <!-- Generator: Sketch 59 (86127) - https://sketch.com -->
    <title>Combined Shape</title>
    <desc>Created with Sketch.</desc>
    <g id="Page-1" stroke="none" stroke-width="1" fill="none" fill-rule="evenodd">
        <g id="robust_haven_v1" transform="translate(-293.000000, -1687.000000)" fill="#6330D5" fill-rule="nonzero">
            <g id="Group-6" transform="translate(293.000000, 1036.000000)">
                <path d="M112.92,698.86 C113.14,700.26 113.31,701.66 113.42,703.06 L113.42,703.06 L52.06,764.42 C50.66,764.31 49.26,764.14 47.86,763.92 L47.86,763.92 Z M113.4,712.59 C113.25,714.41 113,716.22 112.67,718 L112.67,718 L67.02,763.67 C65.22,764 63.41,764.25 61.59,764.4 L61.59,764.4 Z M110,687.62 C110.4,688.78 110.79,690 111.13,691.19 L111.13,691.19 L40.13,762.19 C38.95,761.83 37.78,761.44 36.62,761 L36.62,761 Z M108.17,732 C102.530884,743.928297 92.9282965,753.530884 81,759.17 L81,759.17 Z M105.3,678.08 C105.9,679.06 106.47,680.06 107,681.07 L107,681.07 L30.08,758.01 C29.08,757.47 28.08,756.9 27.08,756.3 L27.08,756.3 Z M99.25,669.92 C100,670.76 100.71,671.61 101.4,672.48 L101.4,672.48 L21.48,752.4 C20.61,751.71 19.76,751 18.92,750.25 L18.92,750.25 Z M91.94,663 C92.81,663.71 93.66,664.43 94.5,665.17 L94.5,665.17 L14.14,745.5 C13.4,744.66 12.68,743.81 12,742.94 L12,742.94 Z M83.35,657.41 C84.36,658 85.36,658.52 86.34,659.12 L86.34,659.12 L8.12,737.35 C7.52,736.35 6.95,735.35 6.41,734.35 L6.41,734.35 Z M73.29,653.27 C74.47,653.63 75.64,654 76.8,654.46 L76.8,654.46 L3.48,727.78 C3.04,726.62 2.65,725.45 2.29,724.27 L2.29,724.27 Z M61.36,651 C62.76,651.11 64.16,651.28 65.56,651.5 L65.56,651.5 L0.5,716.56 C0.28,715.16 0.11,713.76 -4.97379915e-14,712.36 L-4.97379915e-14,712.36 Z M51.83,651 L-5.68434189e-14,702.83 C0.17,701 0.42,699.2 0.75,697.4 L0.75,697.4 L46.4,651.75 C48.2,651.42 50,651.17 51.83,651 L51.83,651 Z M32.4,656.25 L5.25,683.4 C8.04797592,677.485385 11.8434172,672.09667 16.47,667.47 C21.09667,662.843417 26.4853847,659.047976 32.4,656.25 L32.4,656.25 Z" id="Combined-Shape"></path>
            </g>
        </g>
    </g>
</svg>