<?xml version="1.0" encoding="UTF-8"?>
<svg width="20px" height="20px" viewBox="0 0 20 20" version="1.1" xmlns="http://www.w3.org/2000/svg" xmlns:xlink="http://www.w3.org/1999/xlink">
    <!-- Generator: Sketch 59 (86127) - https://sketch.com -->
    <title>Linkedin</title>
    <desc>Created with Sketch.</desc>
    <g id="Page-1" stroke="none" stroke-width="1" fill="none" fill-rule="evenodd">
        <g id="robust_haven_v1" transform="translate(-756.000000, -2578.000000)">
            <g id="Group-7" transform="translate(754.000000, 2576.000000)">
                <g id="Linkedin">
                    <path d="M7.5,3 L16.504,3 C18.987,3 21,5.013 21,7.496 L21,16.505 C21,18.987 18.987,21 16.504,21 L7.496,21 C5.013,21 3,18.987 3,16.504 L3,7.5 C3,5.015 5.015,3 7.5,3 L7.5,3 Z" id="Path" stroke="#FFFFFF" stroke-width="1.5" stroke-linecap="round" stroke-linejoin="round"></path>
                    <line x1="8.12" y1="11.1" x2="8.12" y2="16.5" id="Path" stroke="#FFFFFF" stroke-width="1.5" stroke-linecap="round" stroke-linejoin="round"></line>
                    <g id="Group" stroke-linecap="round" stroke-linejoin="round" transform="translate(7.000000, 7.000000)" stroke="#FFFFFF" stroke-width="1.5">
                        <path d="M4.719,9.5 L4.719,6.35 C4.719,5.107 5.726,4.1 6.969,4.1 L6.969,4.1 C8.212,4.1 9.219,5.107 9.219,6.35 L9.219,9.5" id="Path"></path>
                        <path d="M1.118,0.838 C0.994,0.838 0.893,0.939 0.894,1.063 C0.894,1.187 0.995,1.288 1.11899632,1.288 C1.243,1.288 1.344,1.187 1.344,1.063 C1.344,0.938 1.243,0.838 1.118,0.838" id="Path"></path>
                    </g>
                    <polygon id="Path" transform="translate(12.000000, 12.000000) rotate(-90.000000) translate(-12.000000, -12.000000) " points="0 0 24 0 24 24 0 24"></polygon>
                </g>
            </g>
        </g>
    </g>
</svg>