<?xml version="1.0" encoding="UTF-8" standalone="no"?>
<svg width="87px" height="78px" viewBox="0 0 87 78" version="1.1" xmlns="http://www.w3.org/2000/svg" xmlns:xlink="http://www.w3.org/1999/xlink">
    <!-- Generator: Sketch 3.7.2 (28276) - http://www.bohemiancoding.com/sketch -->
    <title>love2</title>
    <desc>Created with Sketch.</desc>
    <defs></defs>
    <g id="Page-1" stroke="none" stroke-width="1" fill="none" fill-rule="evenodd">
        <g id="header" transform="translate(-448.000000, -450.000000)">
            <g id="love2" transform="translate(448.000000, 450.000000)">
                <path d="M26.8248,77.6042 C26.1758,77.3542 25.5958,76.9312 25.1638,76.3712 C25.1468,76.3482 25.1298,76.3262 25.1128,76.3032 C24.7308,75.9432 24.3448,75.5812 23.9548,75.2162 C16.9388,68.6412 8.7238,60.9402 4.3068,50.7552 C-0.8172,38.9412 -1.4892,20.3832 8.6438,8.6452 C15.0418,1.2332 24.9268,-1.6788 33.4888,1.6172 C35.1288,2.2482 36.6868,3.0992 38.1178,4.1432 C43.5078,8.0772 47.0878,14.7252 48.3078,22.0322 C54.1128,17.4302 61.2268,14.8992 67.8638,15.5952 C69.6248,15.7802 71.3508,16.1942 72.9918,16.8262 C81.5528,20.1222 86.9328,28.9122 86.7078,38.7002 C86.3528,54.2042 73.4088,67.5192 61.6858,72.8472 C51.5788,77.4402 40.3198,77.6432 30.7068,77.8162 C30.1728,77.8252 29.6438,77.8352 29.1188,77.8452 C29.0908,77.8512 29.0638,77.8562 29.0358,77.8612 C28.3398,77.9872 27.6258,77.9122 26.9768,77.6622 C26.9508,77.6532 26.8498,77.6142 26.8248,77.6042" id="Fill-11" fill="#FF8098"></path>
                <path d="M81.1655,41.2506 C81.2345,31.6386 74.8195,23.6636 65.9135,22.6856 C57.3465,21.7456 47.8025,27.4416 42.9765,35.8796 C45.0555,26.3846 41.7945,15.7576 34.8095,10.7106 C27.5475,5.4636 17.4405,7.0766 11.0455,14.2536 C2.5195,23.8216 2.4615,39.8856 7.1055,50.9106 C11.4295,61.1766 20.2755,69.0646 27.4705,75.9246 L27.4455,75.9886 C27.4755,75.9876 27.5055,75.9866 27.5345,75.9856 C27.5565,76.0066 27.5785,76.0276 27.5995,76.0476 L27.6245,75.9836 C37.5615,75.7196 49.4135,75.8006 59.5055,71.0856 C70.3445,66.0206 81.0745,54.0656 81.1655,41.2506" id="Fill-13" fill="#FF617C"></path>
            </g>
        </g>
    </g>
</svg>