<?xml version="1.0" encoding="UTF-8" standalone="no"?>
<svg width="115px" height="107px" viewBox="0 0 115 107" version="1.1" xmlns="http://www.w3.org/2000/svg" xmlns:xlink="http://www.w3.org/1999/xlink">
    <!-- Generator: Sketch 3.7.2 (28276) - http://www.bohemiancoding.com/sketch -->
    <title>love1</title>
    <desc>Created with Sketch.</desc>
    <defs></defs>
    <g id="Page-1" stroke="none" stroke-width="1" fill="none" fill-rule="evenodd">
        <g id="header" transform="translate(-224.000000, -421.000000)">
            <g id="love1" transform="translate(276.041915, 481.890262) rotate(27.000000) translate(-276.041915, -481.890262) translate(217.041915, 432.390262)">
                <path d="M57.4723,98.9777 C58.4053,98.9987 59.3403,98.7697 60.1623,98.2957 C60.1953,98.2757 60.2273,98.2567 60.2603,98.2367 C60.9183,97.9867 61.5813,97.7347 62.2513,97.4807 C74.3123,92.9037 88.4363,87.5447 99.1153,77.1637 C111.5023,65.1217 121.8093,42.4417 115.2303,22.7057 C111.0773,10.2437 100.2993,1.5847 87.9953,1.3037 C85.6373,1.2497 83.2703,1.5097 80.9623,2.0747 C72.2673,4.2037 64.4323,10.6237 59.1883,19.0667 C54.3353,10.3937 46.8013,3.6217 38.2123,1.0977 C35.9333,0.4287 33.5793,0.0607 31.2223,0.0077 C18.9173,-0.2733 7.7563,7.8847 3.0383,20.1427 C-4.4347,39.5587 4.8263,62.6857 16.6513,75.2807 C26.8453,86.1377 40.7103,92.1367 52.5483,97.2587 C53.2063,97.5437 53.8573,97.8257 54.5033,98.1057 C54.5343,98.1267 54.5663,98.1477 54.5983,98.1677 C55.3973,98.6797 56.3213,98.9517 57.2543,98.9727 C57.2903,98.9737 57.4363,98.9767 57.4723,98.9777" id="Fill-17" fill="#FF8098"></path>
                <path d="M8.613,26.1363 C13.435,14.1753 25.464,7.5563 37.012,10.8903 C48.12,14.0963 57.054,26.0363 58.734,38.9673 C61.002,26.1263 70.471,14.6073 81.714,11.9113 C93.402,9.1083 105.117,16.2693 109.388,28.4373 C115.082,44.6603 106.953,64.6193 95.564,75.9273 C84.959,86.4553 69.957,91.7263 57.529,96.5643 L57.527,96.6563 C57.491,96.6403 57.454,96.6233 57.417,96.6073 C57.38,96.6223 57.343,96.6363 57.305,96.6513 L57.307,96.5593 C45.113,91.1593 30.368,85.2093 20.255,74.2073 C9.393,62.3913 2.185,42.0823 8.613,26.1363" id="Fill-19" fill="#FF617C"></path>
            </g>
        </g>
    </g>
</svg>