<?xml version="1.0" encoding="UTF-8"?>
<svg width="100px" height="100px" viewBox="0 0 100 100" version="1.1" xmlns="http://www.w3.org/2000/svg" xmlns:xlink="http://www.w3.org/1999/xlink">
    <!-- Generator: Sketch 59 (86127) - https://sketch.com -->
    <title>paly_big</title>
    <desc>Created with Sketch.</desc>
    <g id="Page-1" stroke="none" stroke-width="1" fill="none" fill-rule="evenodd" fill-opacity="0.8">
        <g id="robust_haven_v1" transform="translate(-1003.000000, -353.000000)" fill="#FFFFFF">
            <g id="Group" transform="translate(749.000000, 198.000000)">
                <path d="M304,155 C331.614237,155 354,177.385763 354,205 C354,232.614237 331.614237,255 304,255 C276.385763,255 254,232.614237 254,205 C254,177.385763 276.385763,155 304,155 Z M299,192.158258 C296.790861,192.158258 295,193.949119 295,196.158258 L295,196.158258 L295,213.841742 C295,214.581981 295.205409,215.307701 295.593367,215.938132 C296.751171,217.819564 299.214958,218.40618 301.09639,217.248376 L301.09639,217.248376 L315.464221,208.406633 C315.997503,208.07846 316.446291,207.629671 316.774465,207.09639 C317.932269,205.214958 317.345653,202.751171 315.464221,201.593367 L315.464221,201.593367 L301.09639,192.751624 C300.465959,192.363667 299.740239,192.158258 299,192.158258 Z" id="paly_big"></path>
            </g>
        </g>
    </g>
</svg>