<?xml version="1.0" encoding="UTF-8" standalone="no"?>
<svg width="251px" height="288px" viewBox="0 0 251 288" version="1.1" xmlns="http://www.w3.org/2000/svg" xmlns:xlink="http://www.w3.org/1999/xlink">
    <!-- Generator: Sketch 3.7.2 (28276) - http://www.bohemiancoding.com/sketch -->
    <title>Page 1</title>
    <desc>Created with Sketch.</desc>
    <defs></defs>
    <g id="Page-1" stroke="none" stroke-width="1" fill="none" fill-rule="evenodd">
        <g id="header" transform="translate(-151.000000, -554.000000)">
            <g id="Page-1" transform="translate(151.000000, 553.000000)">
                <path d="M24.8126866,211.67597 C24.8126866,217.22709 29.3126866,221.72597 34.8615672,221.72597 C40.4126866,221.72597 44.9115672,217.22709 44.9115672,211.67597 C44.9115672,206.12597 40.4126866,201.62709 34.8615672,201.62709 C29.3126866,201.62709 24.8126866,206.12597 24.8126866,211.67597" id="Fill-3" fill="#F4C5A2"></path>
                <polygon id="Fill-5" fill="#F4C5A2" points="109.041716 167.151269 95.8920896 169.000522 115.160373 203.581119 125.044701 199.533358"></polygon>
                <path d="M30.8977612,163.937463 C30.8977612,163.937463 19.8347015,191.854254 39.2798507,219.771045 L42.8764925,170.52403 L30.8977612,163.937463 Z" id="Fill-7" fill="#F4C5A2"></path>
                <path d="M26.3397761,167.151269 L50.1584328,172.009478 L53.1841791,140.989701 C53.1841791,140.989701 32.0352985,143.67403 26.3397761,167.151269" id="Fill-9" fill="#65C1D6"></path>
                <path d="M109.041716,167.151269 L85.2230597,172.009478 L82.1973134,140.989701 C82.1973134,140.989701 103.345075,143.67403 109.041716,167.151269" id="Fill-11" fill="#65C1D6"></path>
                <path d="M34.9451866,208.033545 L105.64556,208.033545 C105.64556,208.033545 103.93847,135.984291 67.7548881,135.984291 C31.5724254,135.984291 34.9451866,208.033545 34.9451866,208.033545" id="Fill-13" fill="#F4C5A2"></path>
                <path d="M26.3397761,101.641679 C26.3397761,109.053246 20.4427612,115.062201 13.1688806,115.062201 C5.8961194,115.062201 0.000223880597,109.053246 0.000223880597,101.641679 C0.000223880597,94.2289925 5.8961194,88.2211567 13.1688806,88.2211567 C20.4427612,88.2211567 26.3397761,94.2289925 26.3397761,101.641679" id="Fill-15" fill="#F4C5A2"></path>
                <path d="M127.473582,101.641679 C127.473582,109.053246 121.576567,115.062201 114.303806,115.062201 C107.029925,115.062201 101.13403,109.053246 101.13403,101.641679 C101.13403,94.2289925 107.029925,88.2211567 114.303806,88.2211567 C121.576567,88.2211567 127.473582,94.2289925 127.473582,101.641679" id="Fill-17" fill="#F4C5A2"></path>
                <path d="M115.518246,88.2213806 C115.518246,116.611679 92.5033209,139.626604 64.1130224,139.626604 C35.7216045,139.626604 12.7066791,116.611679 12.7066791,88.2213806 C12.7066791,59.8310821 35.7216045,36.8161567 64.1130224,36.8161567 C92.5033209,36.8161567 115.518246,59.8310821 115.518246,88.2213806" id="Fill-19" fill="#F9D2B2"></path>
                <path d="M47.2275,92.2989179 C47.2275,96.0175746 45.4476493,99.0321269 43.2536194,99.0321269 C41.0595896,99.0321269 39.2797388,96.0175746 39.2797388,92.2989179 C39.2797388,88.5813806 41.0595896,85.5668284 43.2536194,85.5668284 C45.4476493,85.5668284 47.2275,88.5813806 47.2275,92.2989179" id="Fill-21" fill="#191716"></path>
                <path d="M80.9987687,92.2989179 C80.9987687,96.0175746 82.7786194,99.0321269 84.9726493,99.0321269 C87.1666791,99.0321269 88.9454104,96.0175746 88.9454104,92.2989179 C88.9454104,88.5813806 87.1666791,85.5668284 84.9726493,85.5668284 C82.7786194,85.5668284 80.9987687,88.5813806 80.9987687,92.2989179" id="Fill-23" fill="#191716"></path>
                <path d="M45.8741418,90.1547015 C45.8741418,90.8789552 45.2875746,91.464403 44.5633209,91.464403 C43.8401866,91.464403 43.2536194,90.8789552 43.2536194,90.1547015 C43.2536194,89.4315672 43.8401866,88.8438806 44.5633209,88.8438806 C45.2875746,88.8438806 45.8741418,89.4315672 45.8741418,90.1547015" id="Fill-25" fill="#FFFFFF"></path>
                <path d="M87.5921642,90.1547015 C87.5921642,90.8789552 87.005597,91.464403 86.2824627,91.464403 C85.5593284,91.464403 84.9727612,90.8789552 84.9727612,90.1547015 C84.9727612,89.4315672 85.5593284,88.8438806 86.2824627,88.8438806 C87.005597,88.8438806 87.5921642,89.4315672 87.5921642,90.1547015" id="Fill-27" fill="#FFFFFF"></path>
                <path d="M78.7927612,111.274142 C75.6595522,114.789067 69.9729851,116.423396 64.0188806,116.899142 C59.1248507,116.50847 54.4110448,115.335336 51.1468657,112.978993 C50.82,113.516306 50.4953731,114.054739 50.1584328,114.587575 C53.7785821,117.124142 58.8181343,118.418172 64.0188806,118.850261 C70.5091791,118.311828 76.7520896,116.439067 80.2849254,112.467425 C79.7834328,112.075634 79.2864179,111.678246 78.7927612,111.274142" id="Fill-29" fill="#544030"></path>
                <g id="Group-33" transform="translate(5.597015, 0.491418)" fill="#844525">
                    <path d="M85.093209,19.6666791 C86.1958209,16.1685448 88.779403,13.1036194 90.0476866,9.73085821 C85.8700746,9.17227612 79.8062687,9.30548507 77.3413433,13.3700373 C77.4465672,10.2267537 77.1029104,7.45511194 78.6947015,4.69690299 C74.5484328,4.27936567 69.648806,10.4058582 69.3051493,14.221903 C66.8726866,8.67302239 62.3570149,1.7763806 55.8073881,0.627873134 C57.9891045,3.10399254 58.9909701,7.22899254 60.2200746,10.2569776 C60.821194,11.7379478 61.126791,14.4939179 62.085,16.2379478 C33.8111194,13.7069776 -16.89,18.8629478 7.11,94.8972761 C7.11,94.8972761 14.2372388,79.2301119 29.6178358,71.9439179 C44.9995522,64.6577239 76.1368657,67.5961567 79.3752985,53.833097 C79.3752985,53.833097 88.2230597,84.0872015 109.921567,87.7297388 C109.921567,87.7297388 130.068582,27.2125746 85.093209,19.6666791" id="Fill-31"></path>
                </g>
                <path d="M80.7729851,139.681119 C79.3188806,145.575896 74.658806,150.551642 66.7871642,150.551642 C59.5065672,150.551642 54.9752239,146.293433 53.1841791,140.989701 C32.5748507,157.318433 34.9457463,208.032985 34.9457463,208.032985 L105.645,208.032985 C105.645,208.032985 104.37,154.391194 80.7729851,139.681119" id="Fill-34" fill="#72CEF2"></path>
                <polygon id="Fill-36" fill="#068EAD" points="34.9451866 208.033545 48.9444403 279.291381 62.0145896 279.291381 64.443694 226.247351 78.1205597 226.247351 83.7578731 279.291381 96.3354851 279.291381 105.64556 208.033545"></polygon>
                <path d="M62.0148134,279.291157 L48.9446642,279.291157 C48.9446642,279.291157 38.3394403,280.891903 40.8245149,288.178097 L62.7927985,288.178097 L62.0148134,279.291157 Z" id="Fill-38" fill="#2F281D"></path>
                <path d="M83.4173507,279.291157 L96.4875,279.291157 C96.4875,279.291157 107.091604,280.891903 104.60653,288.178097 L83.8527985,288.178097 L83.4173507,279.291157 Z" id="Fill-40" fill="#2F281D"></path>
                <path d="M113.969776,208.033545 C113.969776,213.583545 118.469776,218.083545 124.018657,218.083545 C129.569776,218.083545 134.067537,213.583545 134.067537,208.033545 C134.067537,202.483545 129.569776,197.984664 124.018657,197.984664 C118.469776,197.984664 113.969776,202.483545 113.969776,208.033545" id="Fill-42" fill="#F4C5A2"></path>
                <path d="M44.6066418,74.7043657 C43.0260448,75.1196642 41.4924627,75.7051119 39.9902239,76.3454104 C38.8965672,76.8122015 37.6954478,77.2622015 36.7853731,78.0536194 C35.5999254,79.0812313 37.3260448,80.7905597 38.5014179,79.7696642 C39.1562687,79.2021269 40.4279104,78.7722761 41.2920896,78.4129478 C42.579403,77.8767537 43.9014179,77.4010075 45.2525373,77.0461567 C46.7659701,76.6498881 46.1234328,74.3069776 44.6066418,74.7043657" id="Fill-44" fill="#544030"></path>
                <path d="M83.0227612,74.7043657 C84.6033582,75.1196642 86.1369403,75.7051119 87.6380597,76.3454104 C88.7328358,76.8122015 89.9339552,77.2622015 90.8451493,78.0536194 C92.0294776,79.0812313 90.3033582,80.7905597 89.1279851,79.7696642 C88.4731343,79.2021269 87.2014925,78.7722761 86.3384328,78.4129478 C85.0488806,77.8767537 83.7279851,77.4010075 82.3768657,77.0461567 C80.8634328,76.6498881 81.5059701,74.3069776 83.0227612,74.7043657" id="Fill-46" fill="#544030"></path>
                <polygon id="Fill-48" fill="#F4C5A2" points="185.64 203.58056 168.125821 208.913396 175.816119 279.291381 185.62097 279.291381"></polygon>
                <polygon id="Fill-50" fill="#F4C5A2" points="193.625485 203.58056 211.139664 208.913396 203.449366 279.291381 193.645634 279.291381"></polygon>
                <path d="M127.282276,60.1832463 C124.272201,75.3567537 130.511754,92.2530224 133.445709,106.820933 C137.064739,124.78959 137.122948,132.041082 143.861754,149.265336 C152.046828,170.186978 171.921828,172.098918 182.800187,152.352649 C181.390858,154.911604 191.77444,162.774291 193.465858,163.701157 C198.593843,166.514216 204.681157,167.360485 210.377799,166.059739 C242.758769,158.661604 244.538619,124.421306 247.683022,98.9951866 C249.7875,81.9746642 252.247948,64.0227985 246.348694,47.4489179 C235.356157,16.5724254 192.699067,11.2373507 164.653545,20.724291 C144.987873,27.3735448 130.764739,42.624291 127.282276,60.1832463" id="Fill-52" fill="#562A11"></path>
                <path d="M170.652649,200.354664 L209.9325,200.354664 C209.9325,200.354664 226.173918,140.223694 190.292575,138.413619 C154.246679,136.59347 170.652649,200.354664 170.652649,200.354664" id="Fill-54" fill="#F9D2B2"></path>
                <path d="M230.867575,206.008993 C230.867575,211.558993 226.368694,216.058993 220.818694,216.058993 C215.268694,216.058993 210.769813,211.558993 210.769813,206.008993 C210.769813,200.458993 215.268694,195.960112 220.818694,195.960112 C226.368694,195.960112 230.867575,200.458993 230.867575,206.008993" id="Fill-56" fill="#F4C5A2"></path>
                <polygon id="Fill-58" fill="#F4C5A2" points="156.449104 156.512127 170.813284 163.21847 142.947985 207.223321 133.063657 203.176679"></polygon>
                <path d="M221.139403,162.72291 C221.139403,162.72291 232.444254,182.640448 218.828955,218.556493 L212.804328,169.309478 L221.139403,162.72291 Z" id="Fill-60" fill="#F4C5A2"></path>
                <path d="M224.644142,105.076343 C224.644142,112.054701 230.196381,117.712164 237.044888,117.712164 C243.892276,117.712164 249.443396,112.054701 249.443396,105.076343 C249.443396,98.0979851 243.892276,92.4405224 237.044888,92.4405224 C230.196381,92.4405224 224.644142,98.0979851 224.644142,105.076343" id="Fill-62" fill="#F4C5A2"></path>
                <path d="M129.421119,105.076343 C129.421119,112.054701 134.973358,117.712164 141.821866,117.712164 C148.670373,117.712164 154.221493,112.054701 154.221493,105.076343 C154.221493,98.0979851 148.670373,92.4405224 141.821866,92.4405224 C134.973358,92.4405224 129.421119,98.0979851 129.421119,105.076343" id="Fill-64" fill="#F4C5A2"></path>
                <path d="M140.677388,92.4404104 C140.677388,119.171754 162.34791,140.841157 189.078134,140.841157 C215.809478,140.841157 237.48,119.171754 237.48,92.4404104 C237.48,65.7090672 215.809478,44.0396642 189.078134,44.0396642 C162.34791,44.0396642 140.677388,65.7090672 140.677388,92.4404104" id="Fill-66" fill="#F9D2B2"></path>
                <path d="M204.977015,96.2801866 C204.977015,99.7805597 206.652761,102.619366 208.719179,102.619366 C210.783358,102.619366 212.460224,99.7805597 212.460224,96.2801866 C212.460224,92.7798134 210.783358,89.9410075 208.719179,89.9410075 C206.652761,89.9410075 204.977015,92.7798134 204.977015,96.2801866" id="Fill-68" fill="#191716"></path>
                <path d="M173.179478,96.2801866 C173.179478,99.7805597 171.503731,102.619366 169.438433,102.619366 C167.373134,102.619366 165.696269,99.7805597 165.696269,96.2801866 C165.696269,92.7798134 167.373134,89.9410075 169.438433,89.9410075 C171.503731,89.9410075 173.179478,92.7798134 173.179478,96.2801866" id="Fill-70" fill="#191716"></path>
                <path d="M206.251007,94.2611194 C206.251007,94.9417164 206.802873,95.4947015 207.485709,95.4947015 C208.166306,95.4947015 208.718172,94.9417164 208.718172,94.2611194 C208.718172,93.579403 208.166306,93.0275373 207.485709,93.0275373 C206.802873,93.0275373 206.251007,93.579403 206.251007,94.2611194" id="Fill-72" fill="#FFFFFF"></path>
                <path d="M166.971381,94.2611194 C166.971381,94.9417164 167.523246,95.4947015 168.204963,95.4947015 C168.886679,95.4947015 169.438545,94.9417164 169.438545,94.2611194 C169.438545,93.579403 168.886679,93.0275373 168.204963,93.0275373 C167.523246,93.0275373 166.971381,93.579403 166.971381,94.2611194" id="Fill-74" fill="#FFFFFF"></path>
                <path d="M201.287015,115.751194 C198.213134,117.969851 193.774701,119.073582 189.166119,119.441866 C184.72209,119.085896 180.457164,118.02806 177.402313,115.963881 C177.114627,116.484403 176.792239,116.984776 176.442985,117.465 C179.822463,119.716119 184.416493,120.883657 189.166119,121.277687 C194.064627,120.872463 198.808657,119.653433 202.217239,117.264627 C201.900448,116.764254 201.594851,116.257164 201.287015,115.751194" id="Fill-76" fill="#544030"></path>
                <path d="M193.666007,279.291157 L206.736157,279.291157 C206.736157,279.291157 217.340261,280.891903 214.855187,288.178097 L192.886903,288.178097 L193.666007,279.291157 Z" id="Fill-78" fill="#2F281D"></path>
                <path d="M185.620858,279.291157 L172.54959,279.291157 C172.54959,279.291157 161.945485,280.891903 164.431679,288.178097 L185.620858,288.178097 L185.620858,279.291157 Z" id="Fill-80" fill="#2F281D"></path>
                <path d="M144.139478,208.033545 C144.139478,213.583545 139.639478,218.083545 134.089478,218.083545 C128.539478,218.083545 124.040597,213.583545 124.040597,208.033545 C124.040597,202.483545 128.539478,197.984664 134.089478,197.984664 C139.639478,197.984664 144.139478,202.483545 144.139478,208.033545" id="Fill-82" fill="#F4C5A2"></path>
                <path d="M160.283955,64.5811567 C159.223881,70.779291 170.320522,71.2718284 174.99403,72.8367537 C190.622015,78.0688433 220.81903,74.6591418 233.729104,100.772575 C235.201119,103.750187 235.141791,107.436381 236.282463,110.397201 C235.446269,108.22556 239.908209,98.9367537 240.268657,96.0677239 C242.883582,75.2434701 235.785448,49.0908582 218.542164,36.198694 C199.804478,22.1871269 169.751866,23.2259328 151.821269,38.1901119 C142.764179,45.7494403 132.090672,63.1729478 132.370522,75.4583955 C132.497015,80.9960821 130.96903,96.0173507 139.91306,93.4830224 C152.565672,89.8975746 155.219776,74.4945896 160.283955,64.5811567" id="Fill-84" fill="#562A11"></path>
                <path d="M165.497239,80.898806 C163.623358,81.8558955 162.00806,83.2450746 160.811418,84.9779104 C159.919254,86.2697015 162.024851,87.4820149 162.90806,86.2025373 C163.869627,84.8122388 165.227463,83.76 166.724104,82.9954478 C168.117761,82.2823881 166.888657,80.1868657 165.497239,80.898806" id="Fill-86" fill="#544030"></path>
                <path d="M152.145896,163.786007 L166.927612,173.857276 L177.139925,141.758396 C177.139925,141.758396 148.502239,145.090858 152.145896,163.786007" id="Fill-88" fill="#E0617C"></path>
                <path d="M224.135261,168.642985 L210.568097,173.857164 L200.355784,141.758284 C200.355784,141.758284 233.355784,143.270597 224.135261,168.642985" id="Fill-90" fill="#E0617C"></path>
                <path d="M209.79347,82.1133582 C211.667351,83.0704478 213.282649,84.4596269 214.478172,86.1913433 C215.371455,87.4831343 213.265858,88.6965672 212.382649,87.418209 C211.421082,86.0256716 210.063246,84.9745522 208.566604,84.2088806 C207.172948,83.4969403 208.402052,81.4014179 209.79347,82.1133582" id="Fill-92" fill="#544030"></path>
                <path d="M200.45944,141.043209 C198.226231,144.782015 194.2725,147.476418 188.574739,147.476418 C183.246381,147.476418 179.437052,145.122313 177.140037,141.758507 C154.221381,156.499925 170.653097,200.354776 170.653097,200.354776 L209.932948,200.354776 C209.932948,200.354776 225.926978,156.499925 200.45944,141.043209" id="Fill-94" fill="#EF7388"></path>
                <path d="M172.173806,111.274142 C172.173806,116.510709 167.92903,120.754366 162.694701,120.754366 C157.459254,120.754366 153.214478,116.510709 153.214478,111.274142 C153.214478,106.039813 157.459254,101.795037 162.694701,101.795037 C167.92903,101.795037 172.173806,106.039813 172.173806,111.274142" id="Fill-96" fill="#EF7388"></path>
                <path d="M225.926418,111.274142 C225.926418,116.510709 221.681642,120.754366 216.447313,120.754366 C211.210746,120.754366 206.96709,116.510709 206.96709,111.274142 C206.96709,106.039813 211.210746,101.795037 216.447313,101.795037 C221.681642,101.795037 225.926418,106.039813 225.926418,111.274142" id="Fill-98" fill="#EF7388"></path>
                <path d="M165.77653,182.641007 L213.57056,182.641007 C213.57056,182.641007 227.225037,197.984664 232.443694,238.198097 L151.910485,238.198097 C151.910485,238.198097 148.442575,206.833545 165.77653,182.641007" id="Fill-100" fill="#E0617C"></path>
                <path d="M140.380634,93.4827985 C140.380634,93.4827985 138.623172,41.6723507 188.516082,40.8630224 C238.408993,40.053694 240.736231,96.0686194 240.736231,96.0686194 C240.736231,96.0686194 250.499664,30.228694 187.036231,30.3383955 C187.036231,30.3383955 126.9825,32.5727239 140.380634,93.4827985" id="Fill-102" fill="#EF7388"></path>
            </g>
        </g>
    </g>
</svg>