<?xml version="1.0" encoding="UTF-8"?>
<svg width="661px" height="428px" viewBox="0 0 661 428" version="1.1" xmlns="http://www.w3.org/2000/svg" xmlns:xlink="http://www.w3.org/1999/xlink">
    <!-- Generator: Sketch 59 (86127) - https://sketch.com -->
    <title>video_shape</title>
    <desc>Created with Sketch.</desc>
    <g id="Page-1" stroke="none" stroke-width="1" fill="none" fill-rule="evenodd">
        <g id="robust_haven_v1" transform="translate(-749.000000, -198.000000)">
            <g id="video_shape" transform="translate(749.000000, 198.000000)">
                <g id="lines" transform="translate(0.000000, 293.000000)" fill="#6330D5" fill-rule="nonzero">
                    <path d="M112.92,47.86 C113.14,49.26 113.31,50.66 113.42,52.06 L113.42,52.06 L52.06,113.42 C50.66,113.31 49.26,113.14 47.86,112.92 L47.86,112.92 Z M113.4,61.59 C113.25,63.41 113,65.22 112.67,67 L112.67,67 L67.02,112.67 C65.22,113 63.41,113.25 61.59,113.4 L61.59,113.4 Z M110,36.62 C110.4,37.78 110.79,39 111.13,40.19 L111.13,40.19 L40.13,111.19 C38.95,110.83 37.78,110.44 36.62,110 L36.62,110 Z M108.17,81 C102.530884,92.9282965 92.9282965,102.530884 81,108.17 L81,108.17 Z M105.3,27.08 C105.9,28.06 106.47,29.06 107,30.07 L107,30.07 L30.08,107.01 C29.08,106.47 28.08,105.9 27.08,105.3 L27.08,105.3 Z M99.25,18.92 C100,19.76 100.71,20.61 101.4,21.48 L101.4,21.48 L21.48,101.4 C20.61,100.71 19.76,100 18.92,99.25 L18.92,99.25 Z M91.94,12 C92.81,12.71 93.66,13.43 94.5,14.17 L94.5,14.17 L14.14,94.5 C13.4,93.66 12.68,92.81 12,91.94 L12,91.94 Z M83.35,6.41 C84.36,7 85.36,7.52 86.34,8.12 L86.34,8.12 L8.12,86.35 C7.52,85.35 6.95,84.35 6.41,83.35 L6.41,83.35 Z M73.29,2.27 C74.47,2.63 75.64,3 76.8,3.46 L76.8,3.46 L3.48,76.78 C3.04,75.62 2.65,74.45 2.29,73.27 L2.29,73.27 Z M61.36,-2.84217094e-14 C62.76,0.11 64.16,0.28 65.56,0.5 L65.56,0.5 L0.5,65.56 C0.28,64.16 0.11,62.76 -2.84217094e-14,61.36 L-2.84217094e-14,61.36 Z M51.83,-3.55271368e-14 L-3.55271368e-14,51.83 C0.17,50 0.42,48.2 0.75,46.4 L0.75,46.4 L46.4,0.75 C48.2,0.42 50,0.17 51.83,-3.55271368e-14 L51.83,-3.55271368e-14 Z M32.4,5.25 L5.25,32.4 C8.04797592,26.4853847 11.8434172,21.09667 16.47,16.47 C21.09667,11.8434172 26.4853847,8.04797592 32.4,5.25 L32.4,5.25 Z" id="Combined-Shape"></path>
                </g>
                <circle id="Oval" fill="#E64258" opacity="0.6" cx="531" cy="115" r="110"></circle>
                <circle id="Oval" fill="#E64258" opacity="0.6" cx="351" cy="110" r="110"></circle>
                <rect id="Rectangle" fill="#6330D5" opacity="0.2" x="291" y="163" width="370" height="265" rx="10"></rect>
                <path d="M554.66,410.74 C555.841534,410.74087 556.871486,411.544232 557.16,412.69 C556.33,412.74 555.5,412.74 554.66,412.74 C553.82,412.74 552.99,412.69 552.16,412.69 C552.448514,411.544232 553.478466,410.74087 554.66,410.74 Z M542.48,410.74 C543.431388,410.743197 544.303809,411.269724 544.75,412.11 C543.38,411.93 542.03,411.72 540.68,411.48 C541.159187,411.005991 541.805979,410.740088 542.48,410.74 Z M566.84,410.74 C567.514021,410.740088 568.160813,411.005991 568.64,411.48 C567.293333,411.72 565.933333,411.93 564.56,412.11 C565.011194,411.269712 565.886247,410.743913 566.84,410.74 Z M591.19,397.75 C592.620418,397.75 593.78,398.909582 593.78,400.34 C593.78,401.770418 592.620418,402.93 591.19,402.93 C589.759582,402.93 588.6,401.770418 588.6,400.34 C588.6,398.909582 589.759582,397.75 591.19,397.75 Z M554.66,397.75 C556.090418,397.75 557.25,398.909582 557.25,400.34 C557.25,401.770418 556.090418,402.93 554.66,402.93 C553.229582,402.93 552.07,401.770418 552.07,400.34 C552.07,398.909582 553.229582,397.75 554.66,397.75 Z M566.84,397.75 C568.270418,397.75 569.43,398.909582 569.43,400.34 C569.43,401.770418 568.270418,402.93 566.84,402.93 C565.409582,402.93 564.25,401.770418 564.25,400.34 C564.25,398.909582 565.409582,397.75 566.84,397.75 Z M579.01,397.75 C580.440418,397.75 581.6,398.909582 581.6,400.34 C581.6,401.770418 580.440418,402.93 579.01,402.93 C577.579582,402.93 576.42,401.770418 576.42,400.34 C576.42,398.909582 577.579582,397.75 579.01,397.75 Z M530.3,397.749981 C530.988642,397.747341 531.64999,398.019041 532.137874,398.505049 C532.625759,398.991057 532.9,399.651353 532.9,400.34 C532.9,401.769113 531.742433,402.928146 530.31332,402.929981 C528.884208,402.931811 527.723684,401.77575 527.72,400.346641 C527.716334,398.917532 528.870897,397.755518 530.3,397.749981 Z M542.48,397.75 C543.910418,397.75 545.07,398.909582 545.07,400.34 C545.07,401.770418 543.910418,402.93 542.48,402.93 C541.049582,402.93 539.89,401.770418 539.89,400.34 C539.89,398.909582 541.049582,397.75 542.48,397.75 Z M518.13,397.75 C519.560418,397.75 520.72,398.909582 520.72,400.34 C520.72,401.770418 519.560418,402.93 518.13,402.93 C516.699582,402.93 515.54,401.770418 515.54,400.34 C515.54,398.909582 516.699582,397.75 518.13,397.75 Z M530.3,384.749981 C530.990378,384.747329 531.653251,385.020399 532.141426,385.508574 C532.629601,385.996749 532.902671,386.659622 532.900019,387.35 C532.900019,388.78594 531.73594,389.95 530.3,389.95 C528.86406,389.95 527.7,388.78594 527.7,387.35 C527.7,385.91406 528.86406,384.749981 530.3,384.749981 Z M542.48,384.749981 C543.168647,384.749981 543.828943,385.024241 544.314951,385.512126 C544.800959,386.00001 545.072659,386.661358 545.070019,387.35 C545.070019,388.40251 544.435435,389.351191 543.462653,389.753029 C542.489872,390.154866 541.370785,389.930582 540.627983,389.184913 C539.885182,388.439243 539.665212,387.3193 540.070795,386.348074 C540.476378,385.376848 541.427498,384.745952 542.48,384.749981 Z M518.13,384.749981 C518.818647,384.749981 519.478943,385.024241 519.964951,385.512126 C520.450959,386.00001 520.722659,386.661358 520.720019,387.35 C520.720019,388.40251 520.085435,389.351191 519.112653,389.753029 C518.139872,390.154866 517.020785,389.930582 516.277983,389.184913 C515.535182,388.439243 515.315212,387.3193 515.720795,386.348074 C516.126378,385.376848 517.077498,384.745952 518.13,384.749981 Z M579.01,384.76 C580.440418,384.76 581.6,385.919582 581.6,387.35 C581.6,388.780418 580.440418,389.94 579.01,389.94 C577.579582,389.94 576.42,388.780418 576.42,387.35 C576.42,385.919582 577.579582,384.76 579.01,384.76 Z M591.19,384.76 C592.620418,384.76 593.78,385.919582 593.78,387.35 C593.78,388.780418 592.620418,389.94 591.19,389.94 C589.759582,389.94 588.6,388.780418 588.6,387.35 C588.6,385.919582 589.759582,384.76 591.19,384.76 Z M603.37,384.76 C604.800418,384.76 605.96,385.919582 605.96,387.35 C605.96,388.780418 604.800418,389.94 603.37,389.94 C601.939582,389.94 600.78,388.780418 600.78,387.35 C600.78,385.919582 601.939582,384.76 603.37,384.76 Z M505.95,384.76 C507.380418,384.76 508.54,385.919582 508.54,387.35 C508.54,388.780418 507.380418,389.94 505.95,389.94 C504.519582,389.94 503.36,388.780418 503.36,387.35 C503.36,385.919582 504.519582,384.76 505.95,384.76 Z M554.66,384.76 C556.090418,384.76 557.25,385.919582 557.25,387.35 C557.25,388.780418 556.090418,389.94 554.66,389.94 C553.229582,389.94 552.07,388.780418 552.07,387.35 C552.07,385.919582 553.229582,384.76 554.66,384.76 Z M566.84,384.76 C568.270418,384.76 569.43,385.919582 569.43,387.35 C569.43,388.780418 568.270418,389.94 566.84,389.94 C565.409582,389.94 564.25,388.780418 564.25,387.35 C564.25,385.919582 565.409582,384.76 566.84,384.76 Z M591.19,371.76 C592.620418,371.76 593.78,372.919582 593.78,374.35 C593.78,375.780418 592.620418,376.94 591.19,376.94 C589.759582,376.94 588.6,375.780418 588.6,374.35 C588.6,372.919582 589.759582,371.76 591.19,371.76 Z M603.37,371.76 C604.800418,371.76 605.96,372.919582 605.96,374.35 C605.96,375.780418 604.800418,376.94 603.37,376.94 C601.939582,376.94 600.78,375.780418 600.78,374.35 C600.78,372.919582 601.939582,371.76 603.37,371.76 Z M615.55,371.76 C616.980418,371.76 618.14,372.919582 618.14,374.35 C618.14,375.780418 616.980418,376.94 615.55,376.94 C614.119582,376.94 612.96,375.780418 612.96,374.35 C612.96,372.919582 614.119582,371.76 615.55,371.76 Z M493.77,371.76 C495.200418,371.76 496.36,372.919582 496.36,374.35 C496.36,375.780418 495.200418,376.94 493.77,376.94 C492.339582,376.94 491.18,375.780418 491.18,374.35 C491.18,372.919582 492.339582,371.76 493.77,371.76 Z M505.95,371.76 C507.380418,371.76 508.54,372.919582 508.54,374.35 C508.54,375.780418 507.380418,376.94 505.95,376.94 C504.519582,376.94 503.36,375.780418 503.36,374.35 C503.36,372.919582 504.519582,371.76 505.95,371.76 Z M518.13,371.76 C519.560418,371.76 520.72,372.919582 520.72,374.35 C520.72,375.780418 519.560418,376.94 518.13,376.94 C516.699582,376.94 515.54,375.780418 515.54,374.35 C515.54,372.919582 516.699582,371.76 518.13,371.76 Z M542.48,371.76 C543.910418,371.76 545.07,372.919582 545.07,374.35 C545.07,375.780418 543.910418,376.94 542.48,376.94 C541.049582,376.94 539.89,375.780418 539.89,374.35 C539.89,372.919582 541.049582,371.76 542.48,371.76 Z M554.66,371.76 C556.090418,371.76 557.25,372.919582 557.25,374.35 C557.25,375.780418 556.090418,376.94 554.66,376.94 C553.229582,376.94 552.07,375.780418 552.07,374.35 C552.07,372.919582 553.229582,371.76 554.66,371.76 Z M566.84,371.76 C568.270418,371.76 569.43,372.919582 569.43,374.35 C569.43,375.780418 568.270418,376.94 566.84,376.94 C565.409582,376.94 564.25,375.780418 564.25,374.35 C564.25,372.919582 565.409582,371.76 566.84,371.76 Z M579.01,371.76 C580.440418,371.76 581.6,372.919582 581.6,374.35 C581.6,375.780418 580.440418,376.94 579.01,376.94 C577.579582,376.94 576.42,375.780418 576.42,374.35 C576.42,372.919582 577.579582,371.76 579.01,371.76 Z M530.3,371.759981 C530.988642,371.757341 531.64999,372.029041 532.137874,372.515049 C532.625759,373.001057 532.9,373.661353 532.9,374.35 C532.9,375.779113 531.742433,376.938146 530.31332,376.939981 C528.884208,376.941811 527.723684,375.78575 527.72,374.356641 C527.716334,372.927532 528.870897,371.765518 530.3,371.759981 Z M518.13,358.759981 C519.562034,358.765508 520.72,359.927956 520.72,361.36 C520.72,362.41251 520.085435,363.361191 519.112653,363.763029 C518.139872,364.164866 517.020785,363.940582 516.277983,363.194913 C515.535182,362.449243 515.315212,361.3293 515.720795,360.358074 C516.126378,359.386848 517.077498,358.755952 518.13,358.759981 Z M530.3,358.76 C531.73594,358.76 532.9,359.92406 532.9,361.36 C532.9,362.411602 532.26653,363.359656 531.294977,363.762087 C530.323424,364.164517 529.205117,363.942072 528.461522,363.198478 C527.717928,362.454883 527.495483,361.336576 527.897913,360.365023 C528.300344,359.39347 529.248398,358.76 530.3,358.76 Z M542.48,358.759981 C543.912034,358.765508 545.07,359.927956 545.07,361.36 C545.07,362.41251 544.435435,363.361191 543.462653,363.763029 C542.489872,364.164866 541.370785,363.940582 540.627983,363.194913 C539.885182,362.449243 539.665212,361.3293 540.070795,360.358074 C540.476378,359.386848 541.427498,358.755952 542.48,358.759981 Z M493.77,358.77 C495.200418,358.77 496.36,359.929582 496.36,361.36 C496.36,362.790418 495.200418,363.95 493.77,363.95 C492.339582,363.95 491.18,362.790418 491.18,361.36 C491.18,359.929582 492.339582,358.77 493.77,358.77 Z M591.19,358.77 C592.620418,358.77 593.78,359.929582 593.78,361.36 C593.78,362.790418 592.620418,363.95 591.19,363.95 C589.759582,363.95 588.6,362.790418 588.6,361.36 C588.6,359.929582 589.759582,358.77 591.19,358.77 Z M603.37,358.77 C604.800418,358.77 605.96,359.929582 605.96,361.36 C605.96,362.790418 604.800418,363.95 603.37,363.95 C601.939582,363.95 600.78,362.790418 600.78,361.36 C600.78,359.929582 601.939582,358.77 603.37,358.77 Z M566.84,358.77 C568.270418,358.77 569.43,359.929582 569.43,361.36 C569.43,362.790418 568.270418,363.95 566.84,363.95 C565.409582,363.95 564.25,362.790418 564.25,361.36 C564.25,359.929582 565.409582,358.77 566.84,358.77 Z M615.55,358.77 C616.980418,358.77 618.14,359.929582 618.14,361.36 C618.14,362.790418 616.980418,363.95 615.55,363.95 C614.119582,363.95 612.96,362.790418 612.96,361.36 C612.96,359.929582 614.119582,358.77 615.55,358.77 Z M505.95,358.77 C507.380418,358.77 508.54,359.929582 508.54,361.36 C508.54,362.790418 507.380418,363.95 505.95,363.95 C504.519582,363.95 503.36,362.790418 503.36,361.36 C503.36,359.929582 504.519582,358.77 505.95,358.77 Z M554.66,358.77 C556.090418,358.77 557.25,359.929582 557.25,361.36 C557.25,362.790418 556.090418,363.95 554.66,363.95 C553.229582,363.95 552.07,362.790418 552.07,361.36 C552.07,359.929582 553.229582,358.77 554.66,358.77 Z M579.01,358.77 C580.440418,358.77 581.6,359.929582 581.6,361.36 C581.6,362.790418 580.440418,363.95 579.01,363.95 C577.579582,363.95 576.42,362.790418 576.42,361.36 C576.42,359.929582 577.579582,358.77 579.01,358.77 Z M627.72,358.76 C627.946928,358.761622 628.172489,358.795288 628.39,358.86 C627.876667,360.506667 627.303333,362.126667 626.67,363.72 C625.73444,363.307912 625.130436,362.382296 625.13,361.36 C625.13,359.927956 626.287966,358.765508 627.72,358.76 Z M481.59,358.76 C483.02594,358.76 484.19,359.92406 484.19,361.36 C484.186995,362.381529 483.583824,363.305869 482.65,363.72 C482.023333,362.133333 481.45,360.513333 480.93,358.86 C481.144239,358.795956 481.366405,358.762295 481.59,358.76 Z M579,345.769981 C579.688642,345.767341 580.34999,346.039041 580.837874,346.525049 C581.325759,347.011057 581.600019,347.671353 581.600019,348.36 C581.604048,349.412502 580.973152,350.363622 580.001926,350.769205 C579.0307,351.174788 577.910757,350.954818 577.165087,350.212017 C576.419418,349.469215 576.195134,348.350128 576.596971,347.377347 C576.998809,346.404565 577.94749,345.769981 579,345.769981 Z M506,345.769981 C507.430418,345.769981 508.590019,346.929582 508.590019,348.36 C508.594044,349.413411 507.962061,350.36516 506.989605,350.770153 C506.017148,351.175147 504.896421,350.953338 504.151542,350.208458 C503.406662,349.463579 503.184853,348.342852 503.589847,347.370395 C503.99484,346.397939 504.946589,345.765956 506,345.769981 Z M627.72,345.769981 C628.408642,345.767341 629.06999,346.039041 629.557874,346.525049 C630.045759,347.011057 630.320019,347.671353 630.320019,348.36 C630.324048,349.412502 629.693152,350.363622 628.721926,350.769205 C627.7507,351.174788 626.630757,350.954818 625.885087,350.212017 C625.139418,349.469215 624.915134,348.350128 625.316971,347.377347 C625.718809,346.404565 626.66749,345.769981 627.72,345.769981 Z M530.3,345.769981 C530.988642,345.767341 531.64999,346.039041 532.137874,346.525049 C532.625759,347.011057 532.900019,347.671353 532.900019,348.36 C532.904048,349.412502 532.273152,350.363622 531.301926,350.769205 C530.3307,351.174788 529.210757,350.954818 528.465087,350.212017 C527.719418,349.469215 527.495134,348.350128 527.896971,347.377347 C528.298809,346.404565 529.24749,345.769981 530.3,345.769981 Z M481.59,345.769981 C482.278642,345.767341 482.93999,346.039041 483.427874,346.525049 C483.915759,347.011057 484.190019,347.671353 484.190019,348.36 C484.194048,349.412502 483.563152,350.363622 482.591926,350.769205 C481.6207,351.174788 480.500757,350.954818 479.755087,350.212017 C479.009418,349.469215 478.785134,348.350128 479.186971,347.377347 C479.588809,346.404565 480.53749,345.769981 481.59,345.769981 Z M518.13,345.769981 C519.560418,345.769981 520.720019,346.929582 520.720019,348.36 C520.724044,349.413411 520.092061,350.36516 519.119605,350.770153 C518.147148,351.175147 517.026421,350.953338 516.281542,350.208458 C515.536662,349.463579 515.314853,348.342852 515.719847,347.370395 C516.12484,346.397939 517.076589,345.765956 518.13,345.769981 Z M493.77,345.769981 C495.200418,345.769981 496.360019,346.929582 496.360019,348.36 C496.364044,349.413411 495.732061,350.36516 494.759605,350.770153 C493.787148,351.175147 492.666421,350.953338 491.921542,350.208458 C491.176662,349.463579 490.954853,348.342852 491.359847,347.370395 C491.76484,346.397939 492.716589,345.765956 493.77,345.769981 Z M603.37,345.77 C604.063815,345.759283 604.732914,346.027419 605.227319,346.514305 C605.721725,347.001191 606.000083,347.666102 606.000019,348.36 C606.005417,349.793302 604.849859,350.960646 603.416576,350.969774 C601.983293,350.978902 600.812961,349.82637 600.800123,348.393115 C600.787285,346.95986 601.936783,345.786548 603.37,345.77 Z M615.55,345.769981 C616.97814,345.775482 618.134518,346.93186 618.140019,348.36 C618.144044,349.413411 617.512061,350.36516 616.539605,350.770153 C615.567148,351.175147 614.446421,350.953338 613.701542,350.208458 C612.956662,349.463579 612.734853,348.342852 613.139847,347.370395 C613.54484,346.397939 614.496589,345.765956 615.55,345.769981 Z M591.19,345.769981 C592.620418,345.769981 593.780019,346.929582 593.780019,348.36 C593.784044,349.413411 593.152061,350.36516 592.179605,350.770153 C591.207148,351.175147 590.086421,350.953338 589.341542,350.208458 C588.596662,349.463579 588.374853,348.342852 588.779847,347.370395 C589.18484,346.397939 590.136589,345.765956 591.19,345.769981 Z M542.48,345.769981 C543.910418,345.769981 545.070019,346.929582 545.070019,348.36 C545.074044,349.413411 544.442061,350.36516 543.469605,350.770153 C542.497148,351.175147 541.376421,350.953338 540.631542,350.208458 C539.886662,349.463579 539.664853,348.342852 540.069847,347.370395 C540.47484,346.397939 541.426589,345.765956 542.48,345.769981 Z M554.66,345.769981 C556.090418,345.769981 557.250019,346.929582 557.250019,348.36 C557.254044,349.413411 556.622061,350.36516 555.649605,350.770153 C554.677148,351.175147 553.556421,350.953338 552.811542,350.208458 C552.066662,349.463579 551.844853,348.342852 552.249847,347.370395 C552.65484,346.397939 553.606589,345.765956 554.66,345.769981 Z M566.84,345.769981 C568.270418,345.769981 569.430019,346.929582 569.430019,348.36 C569.434044,349.413411 568.802061,350.36516 567.829605,350.770153 C566.857148,351.175147 565.736421,350.953338 564.991542,350.208458 C564.246662,349.463579 564.024853,348.342852 564.429847,347.370395 C564.83484,346.397939 565.786589,345.765956 566.84,345.769981 Z M518.13,332.78 C518.816911,332.78 519.475687,333.052874 519.961407,333.538593 C520.447126,334.024313 520.72,334.683089 520.72,335.37 C520.72,336.800418 519.560418,337.96 518.13,337.96 C516.699582,337.96 515.54,336.800418 515.54,335.37 C515.54,333.939582 516.699582,332.78 518.13,332.78 Z M542.48,332.78 C543.166911,332.78 543.825687,333.052874 544.311407,333.538593 C544.797126,334.024313 545.07,334.683089 545.07,335.37 C545.07,336.800418 543.910418,337.96 542.48,337.96 C541.049582,337.96 539.89,336.800418 539.89,335.37 C539.89,333.939582 541.049582,332.78 542.48,332.78 Z M566.84,332.78 C567.526911,332.78 568.185687,333.052874 568.671407,333.538593 C569.157126,334.024313 569.43,334.683089 569.43,335.37 C569.43,336.800418 568.270418,337.96 566.84,337.96 C565.409582,337.96 564.25,336.800418 564.25,335.37 C564.25,333.939582 565.409582,332.78 566.84,332.78 Z M615.55,332.78 C616.97814,332.785482 618.134518,333.94186 618.14,335.37 C618.14,336.800418 616.980418,337.96 615.55,337.96 C614.119582,337.96 612.96,336.800418 612.96,335.37 C612.96,333.939582 614.119582,332.78 615.55,332.78 Z M493.77,332.78 C494.456911,332.78 495.115687,333.052874 495.601407,333.538593 C496.087126,334.024313 496.36,334.683089 496.36,335.37 C496.36,336.800418 495.200418,337.96 493.77,337.96 C492.339582,337.96 491.18,336.800418 491.18,335.37 C491.18,333.939582 492.339582,332.78 493.77,332.78 Z M591.19,332.78 C591.876911,332.78 592.535687,333.052874 593.021407,333.538593 C593.507126,334.024313 593.78,334.683089 593.78,335.37 C593.78,336.800418 592.620418,337.96 591.19,337.96 C589.759582,337.96 588.6,336.800418 588.6,335.37 C588.6,333.939582 589.759582,332.78 591.19,332.78 Z M506,332.78 C506.686911,332.78 507.345687,333.052874 507.831407,333.538593 C508.317126,334.024313 508.59,334.683089 508.59,335.37 C508.59,336.800418 507.430418,337.96 506,337.96 C504.569582,337.96 503.41,336.800418 503.41,335.37 C503.41,333.939582 504.569582,332.78 506,332.78 Z M554.66,332.78 C555.346911,332.78 556.005687,333.052874 556.491407,333.538593 C556.977126,334.024313 557.25,334.683089 557.25,335.37 C557.25,336.800418 556.090418,337.96 554.66,337.96 C553.229582,337.96 552.07,336.800418 552.07,335.37 C552.07,333.939582 553.229582,332.78 554.66,332.78 Z M627.72,332.779981 C628.408642,332.777341 629.06999,333.049041 629.557874,333.535049 C630.045759,334.021057 630.32,334.681353 630.32,335.37 C630.32,336.799113 629.162433,337.958146 627.73332,337.959981 C626.304208,337.961811 625.143684,336.80575 625.14,335.376641 C625.136334,333.947532 626.290897,332.785518 627.72,332.779981 Z M530.3,332.779981 C530.988642,332.777341 531.64999,333.049041 532.137874,333.535049 C532.625759,334.021057 532.9,334.681353 532.9,335.37 C532.9,336.799113 531.742433,337.958146 530.31332,337.959981 C528.884208,337.961811 527.723684,336.80575 527.72,335.376641 C527.716334,333.947532 528.870897,332.785518 530.3,332.779981 Z M603.37,332.78 C604.063815,332.769283 604.732914,333.037419 605.227319,333.524305 C605.721725,334.011191 606.000083,334.676102 606,335.37 C605.99983,336.795173 604.848282,337.952434 603.423128,337.959692 C601.997973,337.966882 600.834754,336.821353 600.820136,335.396255 C600.805519,333.971157 601.944997,332.80201 603.37,332.78 Z M579,332.779981 C579.688642,332.777341 580.34999,333.049041 580.837874,333.535049 C581.325759,334.021057 581.6,334.681353 581.6,335.37 C581.6,336.799113 580.442433,337.958146 579.01332,337.959981 C577.584208,337.961811 576.423684,336.80575 576.42,335.376641 C576.416334,333.947532 577.570897,332.785518 579,332.779981 Z M481.59,332.779981 C482.278642,332.777341 482.93999,333.049041 483.427874,333.535049 C483.915759,334.021057 484.19,334.681353 484.19,335.37 C484.19,336.799113 483.032433,337.958146 481.60332,337.959981 C480.174208,337.961811 479.013684,336.80575 479.01,335.376641 C479.006334,333.947532 480.160897,332.785518 481.59,332.779981 Z M615.55,319.779981 C616.97814,319.785482 618.134518,320.94186 618.140019,322.37 C618.144044,323.423411 617.512061,324.37516 616.539605,324.780153 C615.567148,325.185147 614.446421,324.963338 613.701542,324.218458 C612.956662,323.473579 612.734853,322.352852 613.139847,321.380395 C613.54484,320.407939 614.496589,319.775956 615.55,319.779981 Z M506,319.779981 C507.430418,319.779981 508.590019,320.939582 508.590019,322.37 C508.594044,323.423411 507.962061,324.37516 506.989605,324.780153 C506.017148,325.185147 504.896421,324.963338 504.151542,324.218458 C503.406662,323.473579 503.184853,322.352852 503.589847,321.380395 C503.99484,320.407939 504.946589,319.775956 506,319.779981 Z M518.13,319.779981 C519.560418,319.779981 520.720019,320.939582 520.720019,322.37 C520.724044,323.423411 520.092061,324.37516 519.119605,324.780153 C518.147148,325.185147 517.026421,324.963338 516.281542,324.218458 C515.536662,323.473579 515.314853,322.352852 515.719847,321.380395 C516.12484,320.407939 517.076589,319.775956 518.13,319.779981 Z M603.37,319.78 C604.063815,319.769283 604.732914,320.037419 605.227319,320.524305 C605.721725,321.011191 606.000083,321.676102 606.000019,322.37 C606.005417,323.803302 604.849859,324.970646 603.416576,324.979774 C601.983293,324.988902 600.812961,323.83637 600.800123,322.403115 C600.787285,320.96986 601.936783,319.796548 603.37,319.78 Z M481.59,319.779981 C482.278642,319.777341 482.93999,320.049041 483.427874,320.535049 C483.915759,321.021057 484.190019,321.681353 484.190019,322.37 C484.194048,323.422502 483.563152,324.373622 482.591926,324.779205 C481.6207,325.184788 480.500757,324.964818 479.755087,324.222017 C479.009418,323.479215 478.785134,322.360128 479.186971,321.387347 C479.588809,320.414565 480.53749,319.779981 481.59,319.779981 Z M530.3,319.779981 C530.988642,319.777341 531.64999,320.049041 532.137874,320.535049 C532.625759,321.021057 532.900019,321.681353 532.900019,322.37 C532.904048,323.422502 532.273152,324.373622 531.301926,324.779205 C530.3307,325.184788 529.210757,324.964818 528.465087,324.222017 C527.719418,323.479215 527.495134,322.360128 527.896971,321.387347 C528.298809,320.414565 529.24749,319.779981 530.3,319.779981 Z M566.84,319.779981 C568.270418,319.779981 569.430019,320.939582 569.430019,322.37 C569.434044,323.423411 568.802061,324.37516 567.829605,324.780153 C566.857148,325.185147 565.736421,324.963338 564.991542,324.218458 C564.246662,323.473579 564.024853,322.352852 564.429847,321.380395 C564.83484,320.407939 565.786589,319.775956 566.84,319.779981 Z M493.77,319.779981 C495.200418,319.779981 496.360019,320.939582 496.360019,322.37 C496.364044,323.423411 495.732061,324.37516 494.759605,324.780153 C493.787148,325.185147 492.666421,324.963338 491.921542,324.218458 C491.176662,323.473579 490.954853,322.352852 491.359847,321.380395 C491.76484,320.407939 492.716589,319.775956 493.77,319.779981 Z M579,319.779981 C579.688642,319.777341 580.34999,320.049041 580.837874,320.535049 C581.325759,321.021057 581.600019,321.681353 581.600019,322.37 C581.604048,323.422502 580.973152,324.373622 580.001926,324.779205 C579.0307,325.184788 577.910757,324.964818 577.165087,324.222017 C576.419418,323.479215 576.195134,322.360128 576.596971,321.387347 C576.998809,320.414565 577.94749,319.779981 579,319.779981 Z M591.19,319.779981 C592.620418,319.779981 593.780019,320.939582 593.780019,322.37 C593.784044,323.423411 593.152061,324.37516 592.179605,324.780153 C591.207148,325.185147 590.086421,324.963338 589.341542,324.218458 C588.596662,323.473579 588.374853,322.352852 588.779847,321.380395 C589.18484,320.407939 590.136589,319.775956 591.19,319.779981 Z M627.72,319.779981 C628.408642,319.777341 629.06999,320.049041 629.557874,320.535049 C630.045759,321.021057 630.320019,321.681353 630.320019,322.37 C630.324048,323.422502 629.693152,324.373622 628.721926,324.779205 C627.7507,325.184788 626.630757,324.964818 625.885087,324.222017 C625.139418,323.479215 624.915134,322.360128 625.316971,321.387347 C625.718809,320.414565 626.66749,319.779981 627.72,319.779981 Z M542.48,319.779981 C543.910418,319.779981 545.070019,320.939582 545.070019,322.37 C545.074044,323.423411 544.442061,324.37516 543.469605,324.780153 C542.497148,325.185147 541.376421,324.963338 540.631542,324.218458 C539.886662,323.473579 539.664853,322.352852 540.069847,321.380395 C540.47484,320.407939 541.426589,319.775956 542.48,319.779981 Z M554.66,319.779981 C556.090418,319.779981 557.250019,320.939582 557.250019,322.37 C557.254044,323.423411 556.622061,324.37516 555.649605,324.780153 C554.677148,325.185147 553.556421,324.963338 552.811542,324.218458 C552.066662,323.473579 551.844853,322.352852 552.249847,321.380395 C552.65484,320.407939 553.606589,319.775956 554.66,319.779981 Z M626.67,307.05 C627.296667,308.636667 627.87,310.256667 628.39,311.91 C628.171028,311.966475 627.946113,311.996687 627.72,312 C627.02786,312 626.364496,311.723058 625.877905,311.230831 C625.391314,310.738604 625.121983,310.072094 625.13,309.38 C625.142226,308.368608 625.744319,307.457649 626.67,307.05 Z M615.55,306.79 C616.97814,306.795482 618.134518,307.95186 618.14,309.38 C618.14,310.810418 616.980418,311.97 615.55,311.97 C614.119582,311.97 612.96,310.810418 612.96,309.38 C612.96,307.949582 614.119582,306.79 615.55,306.79 Z M542.48,306.79 C543.910418,306.79 545.07,307.949582 545.07,309.38 C545.07,310.427557 544.438967,311.371965 543.47115,311.772848 C542.503333,312.173731 541.389328,311.952141 540.648593,311.211407 C539.907859,310.470672 539.686269,309.356667 540.087152,308.38885 C540.488035,307.421033 541.432443,306.79 542.48,306.79 Z M554.66,306.79 C556.090418,306.79 557.25,307.949582 557.25,309.38 C557.25,310.427557 556.618967,311.371965 555.65115,311.772848 C554.683333,312.173731 553.569328,311.952141 552.828593,311.211407 C552.087859,310.470672 551.866269,309.356667 552.267152,308.38885 C552.668035,307.421033 553.612443,306.79 554.66,306.79 Z M518.13,306.79 C519.560418,306.79 520.72,307.949582 520.72,309.38 C520.72,310.427557 520.088967,311.371965 519.12115,311.772848 C518.153333,312.173731 517.039328,311.952141 516.298593,311.211407 C515.557859,310.470672 515.336269,309.356667 515.737152,308.38885 C516.138035,307.421033 517.082443,306.79 518.13,306.79 Z M530.3,306.789981 C530.988642,306.787341 531.64999,307.059041 532.137874,307.545049 C532.625759,308.031057 532.9,308.691353 532.9,309.38 C532.9,310.809113 531.742433,311.968146 530.31332,311.969981 C528.884208,311.971811 527.723684,310.81575 527.72,309.386641 C527.716334,307.957532 528.870897,306.795518 530.3,306.789981 Z M566.84,306.79 C568.270418,306.79 569.43,307.949582 569.43,309.38 C569.43,310.427557 568.798967,311.371965 567.83115,311.772848 C566.863333,312.173731 565.749328,311.952141 565.008593,311.211407 C564.267859,310.470672 564.046269,309.356667 564.447152,308.38885 C564.848035,307.421033 565.792443,306.79 566.84,306.79 Z M579,306.789981 C579.688642,306.787341 580.34999,307.059041 580.837874,307.545049 C581.325759,308.031057 581.6,308.691353 581.6,309.38 C581.6,310.809113 580.442433,311.968146 579.01332,311.969981 C577.584208,311.971811 576.423684,310.81575 576.42,309.386641 C576.416334,307.957532 577.570897,306.795518 579,306.789981 Z M493.77,306.79 C495.200418,306.79 496.36,307.949582 496.36,309.38 C496.36,310.427557 495.728967,311.371965 494.76115,311.772848 C493.793333,312.173731 492.679328,311.952141 491.938593,311.211407 C491.197859,310.470672 490.976269,309.356667 491.377152,308.38885 C491.778035,307.421033 492.722443,306.79 493.77,306.79 Z M603.37,306.79 C604.063815,306.779283 604.732914,307.047419 605.227319,307.534305 C605.721725,308.021191 606.000083,308.686102 606,309.38 C605.99983,310.805173 604.848282,311.962434 603.423128,311.969692 C601.997973,311.976882 600.834754,310.831353 600.820136,309.406255 C600.805519,307.981157 601.944997,306.81201 603.37,306.79 Z M591.19,306.79 C592.620418,306.79 593.78,307.949582 593.78,309.38 C593.78,310.427557 593.148967,311.371965 592.18115,311.772848 C591.213333,312.173731 590.099328,311.952141 589.358593,311.211407 C588.617859,310.470672 588.396269,309.356667 588.797152,308.38885 C589.198035,307.421033 590.142443,306.79 591.19,306.79 Z M506,306.79 C507.430418,306.79 508.59,307.949582 508.59,309.38 C508.59,310.427557 507.958967,311.371965 506.99115,311.772848 C506.023333,312.173731 504.909328,311.952141 504.168593,311.211407 C503.427859,310.470672 503.206269,309.356667 503.607152,308.38885 C504.008035,307.421033 504.952443,306.79 506,306.79 Z M482.65,307 C483.590462,307.417066 484.194914,308.351219 484.19003,309.38 C484.178995,310.806509 483.016541,311.95555 481.59,311.95002 C481.367231,311.945993 481.145708,311.915785 480.93,311.86 C481.45,310.206667 482.023333,308.586667 482.65,307 Z M579,293.789981 C579.690378,293.787329 580.353251,294.060399 580.841426,294.548574 C581.329601,295.036749 581.602671,295.699622 581.600019,296.39 C581.600019,297.441602 580.96653,298.389656 579.994977,298.792087 C579.023424,299.194517 577.905117,298.972072 577.161522,298.228478 C576.417928,297.484883 576.195483,296.366576 576.597913,295.395023 C577.000344,294.42347 577.948398,293.789981 579,293.789981 Z M615.55,293.789981 C616.982034,293.795508 618.14,294.957956 618.14,296.39 C618.14,297.44251 617.505435,298.391191 616.532653,298.793029 C615.559872,299.194866 614.440785,298.970582 613.697983,298.224913 C612.955182,297.479243 612.735212,296.3593 613.140795,295.388074 C613.546378,294.416848 614.497498,293.785952 615.55,293.789981 Z M591.19,293.789981 C591.878647,293.789981 592.538943,294.064241 593.024951,294.552126 C593.510959,295.04001 593.782659,295.701358 593.780019,296.39 C593.780019,297.44251 593.145435,298.391191 592.172653,298.793029 C591.199872,299.194866 590.080785,298.970582 589.337983,298.224913 C588.595182,297.479243 588.375212,296.3593 588.780795,295.388074 C589.186378,294.416848 590.137498,293.785952 591.19,293.789981 Z M506,293.789981 C506.688647,293.789981 507.348943,294.064241 507.834951,294.552126 C508.320959,295.04001 508.592659,295.701358 508.590019,296.39 C508.590019,297.44251 507.955435,298.391191 506.982653,298.793029 C506.009872,299.194866 504.890785,298.970582 504.147983,298.224913 C503.405182,297.479243 503.185212,296.3593 503.590795,295.388074 C503.996378,294.416848 504.947498,293.785952 506,293.789981 Z M530.3,293.789981 C530.990378,293.787329 531.653251,294.060399 532.141426,294.548574 C532.629601,295.036749 532.902671,295.699622 532.900019,296.39 C532.900019,297.82594 531.73594,298.99 530.3,298.99 C528.86406,298.99 527.7,297.82594 527.7,296.39 C527.7,294.95406 528.86406,293.789981 530.3,293.789981 Z M518.13,293.789981 C518.818647,293.789981 519.478943,294.064241 519.964951,294.552126 C520.450959,295.04001 520.722659,295.701358 520.720019,296.39 C520.720019,297.44251 520.085435,298.391191 519.112653,298.793029 C518.139872,299.194866 517.020785,298.970582 516.277983,298.224913 C515.535182,297.479243 515.315212,296.3593 515.720795,295.388074 C516.126378,294.416848 517.077498,293.785952 518.13,293.789981 Z M603.37,293.789981 C604.058647,293.789981 604.718943,294.064241 605.204951,294.552126 C605.690959,295.04001 605.962659,295.701358 605.960019,296.39 C605.960019,297.44251 605.325435,298.391191 604.352653,298.793029 C603.379872,299.194866 602.260785,298.970582 601.517983,298.224913 C600.775182,297.479243 600.555212,296.3593 600.960795,295.388074 C601.366378,294.416848 602.317498,293.785952 603.37,293.789981 Z M542.48,293.789981 C543.168647,293.789981 543.828943,294.064241 544.314951,294.552126 C544.800959,295.04001 545.072659,295.701358 545.070019,296.39 C545.070019,297.44251 544.435435,298.391191 543.462653,298.793029 C542.489872,299.194866 541.370785,298.970582 540.627983,298.224913 C539.885182,297.479243 539.665212,296.3593 540.070795,295.388074 C540.476378,294.416848 541.427498,293.785952 542.48,293.789981 Z M554.66,293.789981 C555.348647,293.789981 556.008943,294.064241 556.494951,294.552126 C556.980959,295.04001 557.252659,295.701358 557.250019,296.39 C557.250019,297.44251 556.615435,298.391191 555.642653,298.793029 C554.669872,299.194866 553.550785,298.970582 552.807983,298.224913 C552.065182,297.479243 551.845212,296.3593 552.250795,295.388074 C552.656378,294.416848 553.607498,293.785952 554.66,293.789981 Z M566.84,293.789981 C567.528647,293.789981 568.188943,294.064241 568.674951,294.552126 C569.160959,295.04001 569.432659,295.701358 569.430019,296.39 C569.430019,297.44251 568.795435,298.391191 567.822653,298.793029 C566.849872,299.194866 565.730785,298.970582 564.987983,298.224913 C564.245182,297.479243 564.025212,296.3593 564.430795,295.388074 C564.836378,294.416848 565.787498,293.785952 566.84,293.789981 Z M493.77,293.789981 C494.458647,293.789981 495.118943,294.064241 495.604951,294.552126 C496.090959,295.04001 496.362659,295.701358 496.360019,296.39 C496.360019,297.44251 495.725435,298.391191 494.752653,298.793029 C493.779872,299.194866 492.660785,298.970582 491.917983,298.224913 C491.175182,297.479243 490.955212,296.3593 491.360795,295.388074 C491.766378,294.416848 492.717498,293.785952 493.77,293.789981 Z M554.66,280.8 C556.090418,280.8 557.25,281.959582 557.25,283.39 C557.25,284.820418 556.090418,285.98 554.66,285.98 C553.229582,285.98 552.07,284.820418 552.07,283.39 C552.07,281.959582 553.229582,280.8 554.66,280.8 Z M591.19,280.8 C592.620418,280.8 593.78,281.959582 593.78,283.39 C593.78,284.820418 592.620418,285.98 591.19,285.98 C589.759582,285.98 588.6,284.820418 588.6,283.39 C588.6,281.959582 589.759582,280.8 591.19,280.8 Z M566.84,280.8 C568.270418,280.8 569.43,281.959582 569.43,283.39 C569.43,284.820418 568.270418,285.98 566.84,285.98 C565.409582,285.98 564.25,284.820418 564.25,283.39 C564.25,281.959582 565.409582,280.8 566.84,280.8 Z M603.37,280.8 C604.800418,280.8 605.96,281.959582 605.96,283.39 C605.96,284.820418 604.800418,285.98 603.37,285.98 C601.939582,285.98 600.78,284.820418 600.78,283.39 C600.78,281.959582 601.939582,280.8 603.37,280.8 Z M530.3,280.799981 C530.988642,280.797341 531.64999,281.069041 532.137874,281.555049 C532.625759,282.041057 532.9,282.701353 532.9,283.39 C532.9,284.819113 531.742433,285.978146 530.31332,285.979981 C528.884208,285.981811 527.723684,284.82575 527.72,283.396641 C527.716334,281.967532 528.870897,280.805518 530.3,280.799981 Z M542.48,280.8 C543.910418,280.8 545.07,281.959582 545.07,283.39 C545.07,284.820418 543.910418,285.98 542.48,285.98 C541.049582,285.98 539.89,284.820418 539.89,283.39 C539.89,281.959582 541.049582,280.8 542.48,280.8 Z M579.01,280.8 C580.440418,280.8 581.6,281.959582 581.6,283.39 C581.6,284.820418 580.440418,285.98 579.01,285.98 C577.579582,285.98 576.42,284.820418 576.42,283.39 C576.42,281.959582 577.579582,280.8 579.01,280.8 Z M518.13,280.8 C519.560418,280.8 520.72,281.959582 520.72,283.39 C520.72,284.820418 519.560418,285.98 518.13,285.98 C516.699582,285.98 515.54,284.820418 515.54,283.39 C515.54,281.959582 516.699582,280.8 518.13,280.8 Z M505.95,280.8 C507.380418,280.8 508.54,281.959582 508.54,283.39 C508.54,284.820418 507.380418,285.98 505.95,285.98 C504.519582,285.98 503.36,284.820418 503.36,283.39 C503.36,281.959582 504.519582,280.8 505.95,280.8 Z M518.13,267.799981 C519.562034,267.805508 520.72,268.967956 520.72,270.4 C520.72,271.45251 520.085435,272.401191 519.112653,272.803029 C518.139872,273.204866 517.020785,272.980582 516.277983,272.234913 C515.535182,271.489243 515.315212,270.3693 515.720795,269.398074 C516.126378,268.426848 517.077498,267.795952 518.13,267.799981 Z M530.3,267.8 C531.73594,267.8 532.9,268.96406 532.9,270.4 C532.9,271.83594 531.73594,273 530.3,273 C528.86406,273 527.7,271.83594 527.7,270.4 C527.7,268.96406 528.86406,267.8 530.3,267.8 Z M542.48,267.799981 C543.912034,267.805508 545.07,268.967956 545.07,270.4 C545.07,271.45251 544.435435,272.401191 543.462653,272.803029 C542.489872,273.204866 541.370785,272.980582 540.627983,272.234913 C539.885182,271.489243 539.665212,270.3693 540.070795,269.398074 C540.476378,268.426848 541.427498,267.795952 542.48,267.799981 Z M554.66,267.81 C556.090418,267.81 557.25,268.969582 557.25,270.4 C557.25,271.830418 556.090418,272.99 554.66,272.99 C553.229582,272.99 552.07,271.830418 552.07,270.4 C552.07,268.969582 553.229582,267.81 554.66,267.81 Z M566.84,267.81 C568.270418,267.81 569.43,268.969582 569.43,270.4 C569.43,271.830418 568.270418,272.99 566.84,272.99 C565.409582,272.99 564.25,271.830418 564.25,270.4 C564.25,268.969582 565.409582,267.81 566.84,267.81 Z M579.01,267.81 C580.440418,267.81 581.6,268.969582 581.6,270.4 C581.6,271.830418 580.440418,272.99 579.01,272.99 C577.579582,272.99 576.42,271.830418 576.42,270.4 C576.42,268.969582 577.579582,267.81 579.01,267.81 Z M591.19,267.81 C592.620418,267.81 593.78,268.969582 593.78,270.4 C593.78,271.830418 592.620418,272.99 591.19,272.99 C589.759582,272.99 588.6,271.830418 588.6,270.4 C588.6,268.969582 589.759582,267.81 591.19,267.81 Z M544.75,258.63 C544.303809,259.470276 543.431388,259.996803 542.48,260 C541.805979,259.999912 541.159187,259.734009 540.68,259.26 C542,259 543.38,258.8 544.75,258.63 Z M557.16,258 C556.891096,259.165622 555.85622,259.993523 554.66,260 C553.46378,259.993523 552.428904,259.165622 552.16,258 L552.16,258 Z M564.56,258.63 C565.93,258.8 567.29,259 568.64,259.26 C568.160813,259.734009 567.514021,259.999912 566.84,260 C565.886247,259.996087 565.011194,259.470288 564.56,258.63 Z" id="Combined-Shape" fill="#6330D5" fill-rule="nonzero"></path>
                <path d="M260.670058,152.74 C261.851592,152.74087 262.881544,153.544232 263.170058,154.69 C262.340058,154.74 261.510058,154.74 260.670058,154.74 C259.830058,154.74 259.000058,154.69 258.170058,154.69 C258.458572,153.544232 259.488524,152.74087 260.670058,152.74 Z M248.490058,152.74 C249.441446,152.743197 250.313867,153.269724 250.760058,154.11 C249.390058,153.93 248.040058,153.72 246.690058,153.48 C247.169245,153.005991 247.816037,152.740088 248.490058,152.74 Z M272.850058,152.74 C273.524079,152.740088 274.170871,153.005991 274.650058,153.48 C273.303391,153.72 271.943391,153.93 270.570058,154.11 C271.021252,153.269712 271.896305,152.743913 272.850058,152.74 Z M297.200058,139.75 C298.630475,139.75 299.790058,140.909582 299.790058,142.34 C299.790058,143.770418 298.630475,144.93 297.200058,144.93 C295.76964,144.93 294.610058,143.770418 294.610058,142.34 C294.610058,140.909582 295.76964,139.75 297.200058,139.75 Z M260.670058,139.75 C262.100475,139.75 263.260058,140.909582 263.260058,142.34 C263.260058,143.770418 262.100475,144.93 260.670058,144.93 C259.23964,144.93 258.080058,143.770418 258.080058,142.34 C258.080058,140.909582 259.23964,139.75 260.670058,139.75 Z M272.850058,139.75 C274.280475,139.75 275.440058,140.909582 275.440058,142.34 C275.440058,143.770418 274.280475,144.93 272.850058,144.93 C271.41964,144.93 270.260058,143.770418 270.260058,142.34 C270.260058,140.909582 271.41964,139.75 272.850058,139.75 Z M285.020058,139.75 C286.450475,139.75 287.610058,140.909582 287.610058,142.34 C287.610058,143.770418 286.450475,144.93 285.020058,144.93 C283.58964,144.93 282.430058,143.770418 282.430058,142.34 C282.430058,140.909582 283.58964,139.75 285.020058,139.75 Z M236.310058,139.749981 C236.9987,139.747341 237.660048,140.019041 238.147932,140.505049 C238.635817,140.991057 238.910058,141.651353 238.910058,142.34 C238.910058,143.769113 237.752491,144.928146 236.323378,144.929981 C234.894266,144.931811 233.733741,143.77575 233.730058,142.346641 C233.726391,140.917532 234.880955,139.755518 236.310058,139.749981 Z M248.490058,139.75 C249.920475,139.75 251.080058,140.909582 251.080058,142.34 C251.080058,143.770418 249.920475,144.93 248.490058,144.93 C247.05964,144.93 245.900058,143.770418 245.900058,142.34 C245.900058,140.909582 247.05964,139.75 248.490058,139.75 Z M224.140058,139.75 C225.570475,139.75 226.730058,140.909582 226.730058,142.34 C226.730058,143.770418 225.570475,144.93 224.140058,144.93 C222.70964,144.93 221.550058,143.770418 221.550058,142.34 C221.550058,140.909582 222.70964,139.75 224.140058,139.75 Z M236.310058,126.749981 C237.000436,126.747329 237.663309,127.020399 238.151484,127.508574 C238.639659,127.996749 238.912729,128.659622 238.910077,129.35 C238.910077,130.78594 237.745998,131.95 236.310058,131.95 C234.874118,131.95 233.710058,130.78594 233.710058,129.35 C233.710058,127.91406 234.874118,126.749981 236.310058,126.749981 Z M248.490058,126.749981 C249.178705,126.749981 249.839001,127.024241 250.325009,127.512126 C250.811017,128.00001 251.082717,128.661358 251.080077,129.35 C251.080077,130.40251 250.445493,131.351191 249.472711,131.753029 C248.49993,132.154866 247.380843,131.930582 246.638041,131.184913 C245.89524,130.439243 245.67527,129.3193 246.080853,128.348074 C246.486436,127.376848 247.437555,126.745952 248.490058,126.749981 Z M224.140058,126.749981 C224.828705,126.749981 225.489001,127.024241 225.975009,127.512126 C226.461017,128.00001 226.732717,128.661358 226.730077,129.35 C226.730077,130.40251 226.095493,131.351191 225.122711,131.753029 C224.14993,132.154866 223.030843,131.930582 222.288041,131.184913 C221.54524,130.439243 221.32527,129.3193 221.730853,128.348074 C222.136436,127.376848 223.087555,126.745952 224.140058,126.749981 Z M285.020058,126.76 C286.450475,126.76 287.610058,127.919582 287.610058,129.35 C287.610058,130.780418 286.450475,131.94 285.020058,131.94 C283.58964,131.94 282.430058,130.780418 282.430058,129.35 C282.430058,127.919582 283.58964,126.76 285.020058,126.76 Z M297.200058,126.76 C298.630475,126.76 299.790058,127.919582 299.790058,129.35 C299.790058,130.780418 298.630475,131.94 297.200058,131.94 C295.76964,131.94 294.610058,130.780418 294.610058,129.35 C294.610058,127.919582 295.76964,126.76 297.200058,126.76 Z M309.380058,126.76 C310.810475,126.76 311.970058,127.919582 311.970058,129.35 C311.970058,130.780418 310.810475,131.94 309.380058,131.94 C307.94964,131.94 306.790058,130.780418 306.790058,129.35 C306.790058,127.919582 307.94964,126.76 309.380058,126.76 Z M211.960058,126.76 C213.390475,126.76 214.550058,127.919582 214.550058,129.35 C214.550058,130.780418 213.390475,131.94 211.960058,131.94 C210.52964,131.94 209.370058,130.780418 209.370058,129.35 C209.370058,127.919582 210.52964,126.76 211.960058,126.76 Z M260.670058,126.76 C262.100475,126.76 263.260058,127.919582 263.260058,129.35 C263.260058,130.780418 262.100475,131.94 260.670058,131.94 C259.23964,131.94 258.080058,130.780418 258.080058,129.35 C258.080058,127.919582 259.23964,126.76 260.670058,126.76 Z M272.850058,126.76 C274.280475,126.76 275.440058,127.919582 275.440058,129.35 C275.440058,130.780418 274.280475,131.94 272.850058,131.94 C271.41964,131.94 270.260058,130.780418 270.260058,129.35 C270.260058,127.919582 271.41964,126.76 272.850058,126.76 Z M297.200058,113.76 C298.630475,113.76 299.790058,114.919582 299.790058,116.35 C299.790058,117.780418 298.630475,118.94 297.200058,118.94 C295.76964,118.94 294.610058,117.780418 294.610058,116.35 C294.610058,114.919582 295.76964,113.76 297.200058,113.76 Z M309.380058,113.76 C310.810475,113.76 311.970058,114.919582 311.970058,116.35 C311.970058,117.780418 310.810475,118.94 309.380058,118.94 C307.94964,118.94 306.790058,117.780418 306.790058,116.35 C306.790058,114.919582 307.94964,113.76 309.380058,113.76 Z M321.560058,113.76 C322.990475,113.76 324.150058,114.919582 324.150058,116.35 C324.150058,117.780418 322.990475,118.94 321.560058,118.94 C320.12964,118.94 318.970058,117.780418 318.970058,116.35 C318.970058,114.919582 320.12964,113.76 321.560058,113.76 Z M199.780058,113.76 C201.210475,113.76 202.370058,114.919582 202.370058,116.35 C202.370058,117.780418 201.210475,118.94 199.780058,118.94 C198.34964,118.94 197.190058,117.780418 197.190058,116.35 C197.190058,114.919582 198.34964,113.76 199.780058,113.76 Z M211.960058,113.76 C213.390475,113.76 214.550058,114.919582 214.550058,116.35 C214.550058,117.780418 213.390475,118.94 211.960058,118.94 C210.52964,118.94 209.370058,117.780418 209.370058,116.35 C209.370058,114.919582 210.52964,113.76 211.960058,113.76 Z M224.140058,113.76 C225.570475,113.76 226.730058,114.919582 226.730058,116.35 C226.730058,117.780418 225.570475,118.94 224.140058,118.94 C222.70964,118.94 221.550058,117.780418 221.550058,116.35 C221.550058,114.919582 222.70964,113.76 224.140058,113.76 Z M248.490058,113.76 C249.920475,113.76 251.080058,114.919582 251.080058,116.35 C251.080058,117.780418 249.920475,118.94 248.490058,118.94 C247.05964,118.94 245.900058,117.780418 245.900058,116.35 C245.900058,114.919582 247.05964,113.76 248.490058,113.76 Z M260.670058,113.76 C262.100475,113.76 263.260058,114.919582 263.260058,116.35 C263.260058,117.780418 262.100475,118.94 260.670058,118.94 C259.23964,118.94 258.080058,117.780418 258.080058,116.35 C258.080058,114.919582 259.23964,113.76 260.670058,113.76 Z M272.850058,113.76 C274.280475,113.76 275.440058,114.919582 275.440058,116.35 C275.440058,117.780418 274.280475,118.94 272.850058,118.94 C271.41964,118.94 270.260058,117.780418 270.260058,116.35 C270.260058,114.919582 271.41964,113.76 272.850058,113.76 Z M285.020058,113.76 C286.450475,113.76 287.610058,114.919582 287.610058,116.35 C287.610058,117.780418 286.450475,118.94 285.020058,118.94 C283.58964,118.94 282.430058,117.780418 282.430058,116.35 C282.430058,114.919582 283.58964,113.76 285.020058,113.76 Z M236.310058,113.759981 C236.9987,113.757341 237.660048,114.029041 238.147932,114.515049 C238.635817,115.001057 238.910058,115.661353 238.910058,116.35 C238.910058,117.779113 237.752491,118.938146 236.323378,118.939981 C234.894266,118.941811 233.733741,117.78575 233.730058,116.356641 C233.726391,114.927532 234.880955,113.765518 236.310058,113.759981 Z M224.140058,100.759981 C225.572091,100.765508 226.730058,101.927956 226.730058,103.36 C226.730058,104.41251 226.095493,105.361191 225.122711,105.763029 C224.14993,106.164866 223.030843,105.940582 222.288041,105.194913 C221.54524,104.449243 221.32527,103.3293 221.730853,102.358074 C222.136436,101.386848 223.087555,100.755952 224.140058,100.759981 Z M236.310058,100.76 C237.745998,100.76 238.910058,101.92406 238.910058,103.36 C238.910058,104.411602 238.276588,105.359656 237.305035,105.762087 C236.333481,106.164517 235.215175,105.942072 234.47158,105.198478 C233.727985,104.454883 233.50554,103.336576 233.907971,102.365023 C234.310402,101.39347 235.258456,100.76 236.310058,100.76 Z M248.490058,100.759981 C249.922091,100.765508 251.080058,101.927956 251.080058,103.36 C251.080058,104.41251 250.445493,105.361191 249.472711,105.763029 C248.49993,106.164866 247.380843,105.940582 246.638041,105.194913 C245.89524,104.449243 245.67527,103.3293 246.080853,102.358074 C246.486436,101.386848 247.437555,100.755952 248.490058,100.759981 Z M199.780058,100.77 C201.210475,100.77 202.370058,101.929582 202.370058,103.36 C202.370058,104.790418 201.210475,105.95 199.780058,105.95 C198.34964,105.95 197.190058,104.790418 197.190058,103.36 C197.190058,101.929582 198.34964,100.77 199.780058,100.77 Z M297.200058,100.77 C298.630475,100.77 299.790058,101.929582 299.790058,103.36 C299.790058,104.790418 298.630475,105.95 297.200058,105.95 C295.76964,105.95 294.610058,104.790418 294.610058,103.36 C294.610058,101.929582 295.76964,100.77 297.200058,100.77 Z M309.380058,100.77 C310.810475,100.77 311.970058,101.929582 311.970058,103.36 C311.970058,104.790418 310.810475,105.95 309.380058,105.95 C307.94964,105.95 306.790058,104.790418 306.790058,103.36 C306.790058,101.929582 307.94964,100.77 309.380058,100.77 Z M272.850058,100.77 C274.280475,100.77 275.440058,101.929582 275.440058,103.36 C275.440058,104.790418 274.280475,105.95 272.850058,105.95 C271.41964,105.95 270.260058,104.790418 270.260058,103.36 C270.260058,101.929582 271.41964,100.77 272.850058,100.77 Z M321.560058,100.77 C322.990475,100.77 324.150058,101.929582 324.150058,103.36 C324.150058,104.790418 322.990475,105.95 321.560058,105.95 C320.12964,105.95 318.970058,104.790418 318.970058,103.36 C318.970058,101.929582 320.12964,100.77 321.560058,100.77 Z M211.960058,100.77 C213.390475,100.77 214.550058,101.929582 214.550058,103.36 C214.550058,104.790418 213.390475,105.95 211.960058,105.95 C210.52964,105.95 209.370058,104.790418 209.370058,103.36 C209.370058,101.929582 210.52964,100.77 211.960058,100.77 Z M260.670058,100.77 C262.100475,100.77 263.260058,101.929582 263.260058,103.36 C263.260058,104.790418 262.100475,105.95 260.670058,105.95 C259.23964,105.95 258.080058,104.790418 258.080058,103.36 C258.080058,101.929582 259.23964,100.77 260.670058,100.77 Z M285.020058,100.77 C286.450475,100.77 287.610058,101.929582 287.610058,103.36 C287.610058,104.790418 286.450475,105.95 285.020058,105.95 C283.58964,105.95 282.430058,104.790418 282.430058,103.36 C282.430058,101.929582 283.58964,100.77 285.020058,100.77 Z M333.730058,100.76 C333.956985,100.761622 334.182547,100.795288 334.400058,100.86 C333.886725,102.506667 333.313391,104.126667 332.680058,105.72 C331.744498,105.307912 331.140494,104.382296 331.140058,103.36 C331.140058,101.927956 332.298024,100.765508 333.730058,100.76 Z M187.600058,100.76 C189.035998,100.76 190.200058,101.92406 190.200058,103.36 C190.197053,104.381529 189.593882,105.305869 188.660058,105.72 C188.033391,104.133333 187.460058,102.513333 186.940058,100.86 C187.154297,100.795956 187.376463,100.762295 187.600058,100.76 Z M285.010058,87.7699807 C285.6987,87.7673411 286.360048,88.0390411 286.847932,88.5250488 C287.335817,89.0110565 287.610077,89.6713532 287.610077,90.36 C287.614106,91.4125024 286.983209,92.3636215 286.011983,92.7692048 C285.040757,93.1747881 283.920815,92.9548183 283.175145,92.2120166 C282.429476,91.4692148 282.205192,90.3501282 282.607029,89.3773466 C283.008867,88.4045649 283.957548,87.7699807 285.010058,87.7699807 Z M212.010058,87.7699807 C213.440475,87.7699807 214.600077,88.9295825 214.600077,90.36 C214.604102,91.4134109 213.972119,92.3651603 212.999663,92.7701534 C212.027206,93.1751466 210.906479,92.9533379 210.161599,92.2084585 C209.41672,91.463579 209.194911,90.3428516 209.599904,89.3703952 C210.004898,88.3979388 210.956647,87.7659562 212.010058,87.7699807 Z M333.730058,87.7699807 C334.4187,87.7673411 335.080048,88.0390411 335.567932,88.5250488 C336.055817,89.0110565 336.330077,89.6713532 336.330077,90.36 C336.334106,91.4125024 335.703209,92.3636215 334.731983,92.7692048 C333.760757,93.1747881 332.640815,92.9548183 331.895145,92.2120166 C331.149476,91.4692148 330.925192,90.3501282 331.327029,89.3773466 C331.728867,88.4045649 332.677548,87.7699807 333.730058,87.7699807 Z M236.310058,87.7699807 C236.9987,87.7673411 237.660048,88.0390411 238.147932,88.5250488 C238.635817,89.0110565 238.910077,89.6713532 238.910077,90.36 C238.914106,91.4125024 238.283209,92.3636215 237.311983,92.7692048 C236.340757,93.1747881 235.220815,92.9548183 234.475145,92.2120166 C233.729476,91.4692148 233.505192,90.3501282 233.907029,89.3773466 C234.308867,88.4045649 235.257548,87.7699807 236.310058,87.7699807 Z M187.600058,87.7699807 C188.2887,87.7673411 188.950048,88.0390411 189.437932,88.5250488 C189.925817,89.0110565 190.200077,89.6713532 190.200077,90.36 C190.204106,91.4125024 189.573209,92.3636215 188.601983,92.7692048 C187.630757,93.1747881 186.510815,92.9548183 185.765145,92.2120166 C185.019476,91.4692148 184.795192,90.3501282 185.197029,89.3773466 C185.598867,88.4045649 186.547548,87.7699807 187.600058,87.7699807 Z M224.140058,87.7699807 C225.570475,87.7699807 226.730077,88.9295825 226.730077,90.36 C226.734102,91.4134109 226.102119,92.3651603 225.129663,92.7701534 C224.157206,93.1751466 223.036479,92.9533379 222.291599,92.2084585 C221.54672,91.463579 221.324911,90.3428516 221.729904,89.3703952 C222.134898,88.3979388 223.086647,87.7659562 224.140058,87.7699807 Z M199.780058,87.7699807 C201.210475,87.7699807 202.370077,88.9295825 202.370077,90.36 C202.374102,91.4134109 201.742119,92.3651603 200.769663,92.7701534 C199.797206,93.1751466 198.676479,92.9533379 197.931599,92.2084585 C197.18672,91.463579 196.964911,90.3428516 197.369904,89.3703952 C197.774898,88.3979388 198.726647,87.7659562 199.780058,87.7699807 Z M309.380058,87.77 C310.073873,87.7592834 310.742972,88.0274193 311.237377,88.5143049 C311.731782,89.0011906 312.010141,89.6661023 312.010077,90.36 C312.015475,91.7933023 310.859917,92.9606463 309.426634,92.969774 C307.99335,92.9789017 306.823019,91.8263698 306.810181,90.3931148 C306.797343,88.9598598 307.946841,87.7865485 309.380058,87.77 Z M321.560058,87.7699807 C322.988198,87.7754824 324.144576,88.9318595 324.150077,90.36 C324.154102,91.4134109 323.522119,92.3651603 322.549663,92.7701534 C321.577206,93.1751466 320.456479,92.9533379 319.711599,92.2084585 C318.96672,91.463579 318.744911,90.3428516 319.149904,89.3703952 C319.554898,88.3979388 320.506647,87.7659562 321.560058,87.7699807 Z M297.200058,87.7699807 C298.630475,87.7699807 299.790077,88.9295825 299.790077,90.36 C299.794102,91.4134109 299.162119,92.3651603 298.189663,92.7701534 C297.217206,93.1751466 296.096479,92.9533379 295.351599,92.2084585 C294.60672,91.463579 294.384911,90.3428516 294.789904,89.3703952 C295.194898,88.3979388 296.146647,87.7659562 297.200058,87.7699807 Z M248.490058,87.7699807 C249.920475,87.7699807 251.080077,88.9295825 251.080077,90.36 C251.084102,91.4134109 250.452119,92.3651603 249.479663,92.7701534 C248.507206,93.1751466 247.386479,92.9533379 246.641599,92.2084585 C245.89672,91.463579 245.674911,90.3428516 246.079904,89.3703952 C246.484898,88.3979388 247.436647,87.7659562 248.490058,87.7699807 Z M260.670058,87.7699807 C262.100475,87.7699807 263.260077,88.9295825 263.260077,90.36 C263.264102,91.4134109 262.632119,92.3651603 261.659663,92.7701534 C260.687206,93.1751466 259.566479,92.9533379 258.821599,92.2084585 C258.07672,91.463579 257.854911,90.3428516 258.259904,89.3703952 C258.664898,88.3979388 259.616647,87.7659562 260.670058,87.7699807 Z M272.850058,87.7699807 C274.280475,87.7699807 275.440077,88.9295825 275.440077,90.36 C275.444102,91.4134109 274.812119,92.3651603 273.839663,92.7701534 C272.867206,93.1751466 271.746479,92.9533379 271.001599,92.2084585 C270.25672,91.463579 270.034911,90.3428516 270.439904,89.3703952 C270.844898,88.3979388 271.796647,87.7659562 272.850058,87.7699807 Z M224.140058,74.78 C224.826969,74.78 225.485745,75.0528742 225.971464,75.5385934 C226.457184,76.0243127 226.730058,76.6830893 226.730058,77.37 C226.730058,78.8004175 225.570475,79.96 224.140058,79.96 C222.70964,79.96 221.550058,78.8004175 221.550058,77.37 C221.550058,75.9395825 222.70964,74.78 224.140058,74.78 Z M248.490058,74.78 C249.176969,74.78 249.835745,75.0528742 250.321464,75.5385934 C250.807184,76.0243127 251.080058,76.6830893 251.080058,77.37 C251.080058,78.8004175 249.920475,79.96 248.490058,79.96 C247.05964,79.96 245.900058,78.8004175 245.900058,77.37 C245.900058,75.9395825 247.05964,74.78 248.490058,74.78 Z M272.850058,74.78 C273.536969,74.78 274.195745,75.0528742 274.681464,75.5385934 C275.167184,76.0243127 275.440058,76.6830893 275.440058,77.37 C275.440058,78.8004175 274.280475,79.96 272.850058,79.96 C271.41964,79.96 270.260058,78.8004175 270.260058,77.37 C270.260058,75.9395825 271.41964,74.78 272.850058,74.78 Z M321.560058,74.78 C322.988198,74.7854824 324.144576,75.9418595 324.150058,77.37 C324.150058,78.8004175 322.990475,79.96 321.560058,79.96 C320.12964,79.96 318.970058,78.8004175 318.970058,77.37 C318.970058,75.9395825 320.12964,74.78 321.560058,74.78 Z M199.780058,74.78 C200.466969,74.78 201.125745,75.0528742 201.611464,75.5385934 C202.097184,76.0243127 202.370058,76.6830893 202.370058,77.37 C202.370058,78.8004175 201.210475,79.96 199.780058,79.96 C198.34964,79.96 197.190058,78.8004175 197.190058,77.37 C197.190058,75.9395825 198.34964,74.78 199.780058,74.78 Z M297.200058,74.78 C297.886969,74.78 298.545745,75.0528742 299.031464,75.5385934 C299.517184,76.0243127 299.790058,76.6830893 299.790058,77.37 C299.790058,78.8004175 298.630475,79.96 297.200058,79.96 C295.76964,79.96 294.610058,78.8004175 294.610058,77.37 C294.610058,75.9395825 295.76964,74.78 297.200058,74.78 Z M212.010058,74.78 C212.696969,74.78 213.355745,75.0528742 213.841464,75.5385934 C214.327184,76.0243127 214.600058,76.6830893 214.600058,77.37 C214.600058,78.8004175 213.440475,79.96 212.010058,79.96 C210.57964,79.96 209.420058,78.8004175 209.420058,77.37 C209.420058,75.9395825 210.57964,74.78 212.010058,74.78 Z M260.670058,74.78 C261.356969,74.78 262.015745,75.0528742 262.501464,75.5385934 C262.987184,76.0243127 263.260058,76.6830893 263.260058,77.37 C263.260058,78.8004175 262.100475,79.96 260.670058,79.96 C259.23964,79.96 258.080058,78.8004175 258.080058,77.37 C258.080058,75.9395825 259.23964,74.78 260.670058,74.78 Z M333.730058,74.7799807 C334.4187,74.7773411 335.080048,75.0490411 335.567932,75.5350488 C336.055817,76.0210565 336.330058,76.6813532 336.330058,77.37 C336.330058,78.7991134 335.172491,79.9581464 333.743378,79.9599807 C332.314266,79.9618107 331.153741,78.8057496 331.150058,77.3766409 C331.146391,75.9475322 332.300955,74.7855178 333.730058,74.7799807 Z M236.310058,74.7799807 C236.9987,74.7773411 237.660048,75.0490411 238.147932,75.5350488 C238.635817,76.0210565 238.910058,76.6813532 238.910058,77.37 C238.910058,78.7991134 237.752491,79.9581464 236.323378,79.9599807 C234.894266,79.9618107 233.733741,78.8057496 233.730058,77.3766409 C233.726391,75.9475322 234.880955,74.7855178 236.310058,74.7799807 Z M309.380058,74.78 C310.073873,74.7692834 310.742972,75.0374193 311.237377,75.5243049 C311.731782,76.0111906 312.010141,76.6761023 312.010058,77.37 C312.009888,78.7951729 310.85834,79.9524341 309.433186,79.9596918 C308.008031,79.9668816 306.844811,78.8213534 306.830194,77.3962554 C306.815577,75.9711575 307.955055,74.8020104 309.380058,74.78 Z M285.010058,74.7799807 C285.6987,74.7773411 286.360048,75.0490411 286.847932,75.5350488 C287.335817,76.0210565 287.610058,76.6813532 287.610058,77.37 C287.610058,78.7991134 286.452491,79.9581464 285.023378,79.9599807 C283.594266,79.9618107 282.433741,78.8057496 282.430058,77.3766409 C282.426391,75.9475322 283.580955,74.7855178 285.010058,74.7799807 Z M187.600058,74.7799807 C188.2887,74.7773411 188.950048,75.0490411 189.437932,75.5350488 C189.925817,76.0210565 190.200058,76.6813532 190.200058,77.37 C190.200058,78.7991134 189.042491,79.9581464 187.613378,79.9599807 C186.184266,79.9618107 185.023741,78.8057496 185.020058,77.3766409 C185.016391,75.9475322 186.170955,74.7855178 187.600058,74.7799807 Z M321.560058,61.7799807 C322.988198,61.7854824 324.144576,62.9418595 324.150077,64.37 C324.154102,65.4234109 323.522119,66.3751603 322.549663,66.7801534 C321.577206,67.1851466 320.456479,66.9633379 319.711599,66.2184585 C318.96672,65.473579 318.744911,64.3528516 319.149904,63.3803952 C319.554898,62.4079388 320.506647,61.7759562 321.560058,61.7799807 Z M212.010058,61.7799807 C213.440475,61.7799807 214.600077,62.9395825 214.600077,64.37 C214.604102,65.4234109 213.972119,66.3751603 212.999663,66.7801534 C212.027206,67.1851466 210.906479,66.9633379 210.161599,66.2184585 C209.41672,65.473579 209.194911,64.3528516 209.599904,63.3803952 C210.004898,62.4079388 210.956647,61.7759562 212.010058,61.7799807 Z M224.140058,61.7799807 C225.570475,61.7799807 226.730077,62.9395825 226.730077,64.37 C226.734102,65.4234109 226.102119,66.3751603 225.129663,66.7801534 C224.157206,67.1851466 223.036479,66.9633379 222.291599,66.2184585 C221.54672,65.473579 221.324911,64.3528516 221.729904,63.3803952 C222.134898,62.4079388 223.086647,61.7759562 224.140058,61.7799807 Z M309.380058,61.78 C310.073873,61.7692834 310.742972,62.0374193 311.237377,62.5243049 C311.731782,63.0111906 312.010141,63.6761023 312.010077,64.37 C312.015475,65.8033023 310.859917,66.9706463 309.426634,66.979774 C307.99335,66.9889017 306.823019,65.8363698 306.810181,64.4031148 C306.797343,62.9698598 307.946841,61.7965485 309.380058,61.78 Z M187.600058,61.7799807 C188.2887,61.7773411 188.950048,62.0490411 189.437932,62.5350488 C189.925817,63.0210565 190.200077,63.6813532 190.200077,64.37 C190.204106,65.4225024 189.573209,66.3736215 188.601983,66.7792048 C187.630757,67.1847881 186.510815,66.9648183 185.765145,66.2220166 C185.019476,65.4792148 184.795192,64.3601282 185.197029,63.3873466 C185.598867,62.4145649 186.547548,61.7799807 187.600058,61.7799807 Z M236.310058,61.7799807 C236.9987,61.7773411 237.660048,62.0490411 238.147932,62.5350488 C238.635817,63.0210565 238.910077,63.6813532 238.910077,64.37 C238.914106,65.4225024 238.283209,66.3736215 237.311983,66.7792048 C236.340757,67.1847881 235.220815,66.9648183 234.475145,66.2220166 C233.729476,65.4792148 233.505192,64.3601282 233.907029,63.3873466 C234.308867,62.4145649 235.257548,61.7799807 236.310058,61.7799807 Z M272.850058,61.7799807 C274.280475,61.7799807 275.440077,62.9395825 275.440077,64.37 C275.444102,65.4234109 274.812119,66.3751603 273.839663,66.7801534 C272.867206,67.1851466 271.746479,66.9633379 271.001599,66.2184585 C270.25672,65.473579 270.034911,64.3528516 270.439904,63.3803952 C270.844898,62.4079388 271.796647,61.7759562 272.850058,61.7799807 Z M199.780058,61.7799807 C201.210475,61.7799807 202.370077,62.9395825 202.370077,64.37 C202.374102,65.4234109 201.742119,66.3751603 200.769663,66.7801534 C199.797206,67.1851466 198.676479,66.9633379 197.931599,66.2184585 C197.18672,65.473579 196.964911,64.3528516 197.369904,63.3803952 C197.774898,62.4079388 198.726647,61.7759562 199.780058,61.7799807 Z M285.010058,61.7799807 C285.6987,61.7773411 286.360048,62.0490411 286.847932,62.5350488 C287.335817,63.0210565 287.610077,63.6813532 287.610077,64.37 C287.614106,65.4225024 286.983209,66.3736215 286.011983,66.7792048 C285.040757,67.1847881 283.920815,66.9648183 283.175145,66.2220166 C282.429476,65.4792148 282.205192,64.3601282 282.607029,63.3873466 C283.008867,62.4145649 283.957548,61.7799807 285.010058,61.7799807 Z M297.200058,61.7799807 C298.630475,61.7799807 299.790077,62.9395825 299.790077,64.37 C299.794102,65.4234109 299.162119,66.3751603 298.189663,66.7801534 C297.217206,67.1851466 296.096479,66.9633379 295.351599,66.2184585 C294.60672,65.473579 294.384911,64.3528516 294.789904,63.3803952 C295.194898,62.4079388 296.146647,61.7759562 297.200058,61.7799807 Z M333.730058,61.7799807 C334.4187,61.7773411 335.080048,62.0490411 335.567932,62.5350488 C336.055817,63.0210565 336.330077,63.6813532 336.330077,64.37 C336.334106,65.4225024 335.703209,66.3736215 334.731983,66.7792048 C333.760757,67.1847881 332.640815,66.9648183 331.895145,66.2220166 C331.149476,65.4792148 330.925192,64.3601282 331.327029,63.3873466 C331.728867,62.4145649 332.677548,61.7799807 333.730058,61.7799807 Z M248.490058,61.7799807 C249.920475,61.7799807 251.080077,62.9395825 251.080077,64.37 C251.084102,65.4234109 250.452119,66.3751603 249.479663,66.7801534 C248.507206,67.1851466 247.386479,66.9633379 246.641599,66.2184585 C245.89672,65.473579 245.674911,64.3528516 246.079904,63.3803952 C246.484898,62.4079388 247.436647,61.7759562 248.490058,61.7799807 Z M260.670058,61.7799807 C262.100475,61.7799807 263.260077,62.9395825 263.260077,64.37 C263.264102,65.4234109 262.632119,66.3751603 261.659663,66.7801534 C260.687206,67.1851466 259.566479,66.9633379 258.821599,66.2184585 C258.07672,65.473579 257.854911,64.3528516 258.259904,63.3803952 C258.664898,62.4079388 259.616647,61.7759562 260.670058,61.7799807 Z M332.680058,49.05 C333.306725,50.6366667 333.880058,52.2566667 334.400058,53.91 C334.181086,53.9664748 333.956171,53.9966873 333.730058,54 C333.037918,54 332.374553,53.7230579 331.887963,53.2308309 C331.401372,52.7386038 331.132041,52.0720938 331.140058,51.38 C331.152283,50.3686077 331.754376,49.4576489 332.680058,49.05 Z M321.560058,48.79 C322.988198,48.7954824 324.144576,49.9518595 324.150058,51.38 C324.150058,52.8104175 322.990475,53.97 321.560058,53.97 C320.12964,53.97 318.970058,52.8104175 318.970058,51.38 C318.970058,49.9495825 320.12964,48.79 321.560058,48.79 Z M248.490058,48.79 C249.920475,48.79 251.080058,49.9495825 251.080058,51.38 C251.080058,52.4275572 250.449025,53.3719652 249.481208,53.772848 C248.513391,54.1737308 247.399386,53.9521414 246.658651,53.2114066 C245.917917,52.4706718 245.696327,51.3566666 246.09721,50.3888499 C246.498093,49.4210332 247.442501,48.79 248.490058,48.79 Z M260.670058,48.79 C262.100475,48.79 263.260058,49.9495825 263.260058,51.38 C263.260058,52.4275572 262.629025,53.3719652 261.661208,53.772848 C260.693391,54.1737308 259.579386,53.9521414 258.838651,53.2114066 C258.097917,52.4706718 257.876327,51.3566666 258.27721,50.3888499 C258.678093,49.4210332 259.622501,48.79 260.670058,48.79 Z M224.140058,48.79 C225.570475,48.79 226.730058,49.9495825 226.730058,51.38 C226.730058,52.4275572 226.099025,53.3719652 225.131208,53.772848 C224.163391,54.1737308 223.049386,53.9521414 222.308651,53.2114066 C221.567917,52.4706718 221.346327,51.3566666 221.74721,50.3888499 C222.148093,49.4210332 223.092501,48.79 224.140058,48.79 Z M236.310058,48.7899807 C236.9987,48.7873411 237.660048,49.0590411 238.147932,49.5450488 C238.635817,50.0310565 238.910058,50.6913532 238.910058,51.38 C238.910058,52.8091134 237.752491,53.9681464 236.323378,53.9699807 C234.894266,53.9718107 233.733741,52.8157496 233.730058,51.3866409 C233.726391,49.9575322 234.880955,48.7955178 236.310058,48.7899807 Z M272.850058,48.79 C274.280475,48.79 275.440058,49.9495825 275.440058,51.38 C275.440058,52.4275572 274.809025,53.3719652 273.841208,53.772848 C272.873391,54.1737308 271.759386,53.9521414 271.018651,53.2114066 C270.277917,52.4706718 270.056327,51.3566666 270.45721,50.3888499 C270.858093,49.4210332 271.802501,48.79 272.850058,48.79 Z M285.010058,48.7899807 C285.6987,48.7873411 286.360048,49.0590411 286.847932,49.5450488 C287.335817,50.0310565 287.610058,50.6913532 287.610058,51.38 C287.610058,52.8091134 286.452491,53.9681464 285.023378,53.9699807 C283.594266,53.9718107 282.433741,52.8157496 282.430058,51.3866409 C282.426391,49.9575322 283.580955,48.7955178 285.010058,48.7899807 Z M199.780058,48.79 C201.210475,48.79 202.370058,49.9495825 202.370058,51.38 C202.370058,52.4275572 201.739025,53.3719652 200.771208,53.772848 C199.803391,54.1737308 198.689386,53.9521414 197.948651,53.2114066 C197.207917,52.4706718 196.986327,51.3566666 197.38721,50.3888499 C197.788093,49.4210332 198.732501,48.79 199.780058,48.79 Z M309.380058,48.79 C310.073873,48.7792834 310.742972,49.0474193 311.237377,49.5343049 C311.731782,50.0211906 312.010141,50.6861023 312.010058,51.38 C312.009888,52.8051729 310.85834,53.9624341 309.433186,53.9696918 C308.008031,53.9768816 306.844811,52.8313534 306.830194,51.4062554 C306.815577,49.9811575 307.955055,48.8120104 309.380058,48.79 Z M297.200058,48.79 C298.630475,48.79 299.790058,49.9495825 299.790058,51.38 C299.790058,52.4275572 299.159025,53.3719652 298.191208,53.772848 C297.223391,54.1737308 296.109386,53.9521414 295.368651,53.2114066 C294.627917,52.4706718 294.406327,51.3566666 294.80721,50.3888499 C295.208093,49.4210332 296.152501,48.79 297.200058,48.79 Z M212.010058,48.79 C213.440475,48.79 214.600058,49.9495825 214.600058,51.38 C214.600058,52.4275572 213.969025,53.3719652 213.001208,53.772848 C212.033391,54.1737308 210.919386,53.9521414 210.178651,53.2114066 C209.437917,52.4706718 209.216327,51.3566666 209.61721,50.3888499 C210.018093,49.4210332 210.962501,48.79 212.010058,48.79 Z M188.660058,49 C189.60052,49.4170662 190.204972,50.3512195 190.200088,51.38 C190.189053,52.806509 189.026599,53.9555504 187.600058,53.95002 C187.377289,53.9459931 187.155766,53.9157854 186.940058,53.86 C187.460058,52.2066667 188.033391,50.5866667 188.660058,49 Z M285.010058,35.7899806 C285.700436,35.7873293 286.363309,36.0603993 286.851484,36.5485741 C287.339659,37.0367488 287.612729,37.6996218 287.610077,38.39 C287.610077,39.4416018 286.976588,40.3896562 286.005035,40.7920868 C285.033481,41.1945174 283.915175,40.9720724 283.17158,40.2284776 C282.427985,39.4848828 282.20554,38.3665765 282.607971,37.3950231 C283.010402,36.4234697 283.958456,35.7899806 285.010058,35.7899806 Z M321.560058,35.7899806 C322.992091,35.7955079 324.150058,36.9579558 324.150058,38.39 C324.150058,39.4425102 323.515493,40.391191 322.542711,40.7930287 C321.56993,41.1948663 320.450843,40.9705823 319.708041,40.2249126 C318.96524,39.479243 318.74527,38.3593004 319.150853,37.3880744 C319.556436,36.4168485 320.507555,35.7859519 321.560058,35.7899806 Z M297.200058,35.7899806 C297.888705,35.7899806 298.549001,36.0642414 299.035009,36.5521256 C299.521017,37.0400097 299.792717,37.7013583 299.790077,38.39 C299.790077,39.4425102 299.155493,40.391191 298.182711,40.7930287 C297.20993,41.1948663 296.090843,40.9705823 295.348041,40.2249126 C294.60524,39.479243 294.38527,38.3593004 294.790853,37.3880744 C295.196436,36.4168485 296.147555,35.7859519 297.200058,35.7899806 Z M212.010058,35.7899806 C212.698705,35.7899806 213.359001,36.0642414 213.845009,36.5521256 C214.331017,37.0400097 214.602717,37.7013583 214.600077,38.39 C214.600077,39.4425102 213.965493,40.391191 212.992711,40.7930287 C212.01993,41.1948663 210.900843,40.9705823 210.158041,40.2249126 C209.41524,39.479243 209.19527,38.3593004 209.600853,37.3880744 C210.006436,36.4168485 210.957555,35.7859519 212.010058,35.7899806 Z M236.310058,35.7899806 C237.000436,35.7873293 237.663309,36.0603993 238.151484,36.5485741 C238.639659,37.0367488 238.912729,37.6996218 238.910077,38.39 C238.910077,39.8259403 237.745998,40.99 236.310058,40.99 C234.874118,40.99 233.710058,39.8259403 233.710058,38.39 C233.710058,36.9540597 234.874118,35.7899806 236.310058,35.7899806 Z M224.140058,35.7899806 C224.828705,35.7899806 225.489001,36.0642414 225.975009,36.5521256 C226.461017,37.0400097 226.732717,37.7013583 226.730077,38.39 C226.730077,39.4425102 226.095493,40.391191 225.122711,40.7930287 C224.14993,41.1948663 223.030843,40.9705823 222.288041,40.2249126 C221.54524,39.479243 221.32527,38.3593004 221.730853,37.3880744 C222.136436,36.4168485 223.087555,35.7859519 224.140058,35.7899806 Z M309.380058,35.7899806 C310.068705,35.7899806 310.729001,36.0642414 311.215009,36.5521256 C311.701017,37.0400097 311.972717,37.7013583 311.970077,38.39 C311.970077,39.4425102 311.335493,40.391191 310.362711,40.7930287 C309.38993,41.1948663 308.270843,40.9705823 307.528041,40.2249126 C306.78524,39.479243 306.56527,38.3593004 306.970853,37.3880744 C307.376436,36.4168485 308.327555,35.7859519 309.380058,35.7899806 Z M248.490058,35.7899806 C249.178705,35.7899806 249.839001,36.0642414 250.325009,36.5521256 C250.811017,37.0400097 251.082717,37.7013583 251.080077,38.39 C251.080077,39.4425102 250.445493,40.391191 249.472711,40.7930287 C248.49993,41.1948663 247.380843,40.9705823 246.638041,40.2249126 C245.89524,39.479243 245.67527,38.3593004 246.080853,37.3880744 C246.486436,36.4168485 247.437555,35.7859519 248.490058,35.7899806 Z M260.670058,35.7899806 C261.358705,35.7899806 262.019001,36.0642414 262.505009,36.5521256 C262.991017,37.0400097 263.262717,37.7013583 263.260077,38.39 C263.260077,39.4425102 262.625493,40.391191 261.652711,40.7930287 C260.67993,41.1948663 259.560843,40.9705823 258.818041,40.2249126 C258.07524,39.479243 257.85527,38.3593004 258.260853,37.3880744 C258.666436,36.4168485 259.617555,35.7859519 260.670058,35.7899806 Z M272.850058,35.7899806 C273.538705,35.7899806 274.199001,36.0642414 274.685009,36.5521256 C275.171017,37.0400097 275.442717,37.7013583 275.440077,38.39 C275.440077,39.4425102 274.805493,40.391191 273.832711,40.7930287 C272.85993,41.1948663 271.740843,40.9705823 270.998041,40.2249126 C270.25524,39.479243 270.03527,38.3593004 270.440853,37.3880744 C270.846436,36.4168485 271.797555,35.7859519 272.850058,35.7899806 Z M199.780058,35.7899806 C200.468705,35.7899806 201.129001,36.0642414 201.615009,36.5521256 C202.101017,37.0400097 202.372717,37.7013583 202.370077,38.39 C202.370077,39.4425102 201.735493,40.391191 200.762711,40.7930287 C199.78993,41.1948663 198.670843,40.9705823 197.928041,40.2249126 C197.18524,39.479243 196.96527,38.3593004 197.370853,37.3880744 C197.776436,36.4168485 198.727555,35.7859519 199.780058,35.7899806 Z M260.670058,22.8 C262.100475,22.8 263.260058,23.9595825 263.260058,25.39 C263.260058,26.8204175 262.100475,27.98 260.670058,27.98 C259.23964,27.98 258.080058,26.8204175 258.080058,25.39 C258.080058,23.9595825 259.23964,22.8 260.670058,22.8 Z M297.200058,22.8 C298.630475,22.8 299.790058,23.9595825 299.790058,25.39 C299.790058,26.8204175 298.630475,27.98 297.200058,27.98 C295.76964,27.98 294.610058,26.8204175 294.610058,25.39 C294.610058,23.9595825 295.76964,22.8 297.200058,22.8 Z M272.850058,22.8 C274.280475,22.8 275.440058,23.9595825 275.440058,25.39 C275.440058,26.8204175 274.280475,27.98 272.850058,27.98 C271.41964,27.98 270.260058,26.8204175 270.260058,25.39 C270.260058,23.9595825 271.41964,22.8 272.850058,22.8 Z M309.380058,22.8 C310.810475,22.8 311.970058,23.9595825 311.970058,25.39 C311.970058,26.8204175 310.810475,27.98 309.380058,27.98 C307.94964,27.98 306.790058,26.8204175 306.790058,25.39 C306.790058,23.9595825 307.94964,22.8 309.380058,22.8 Z M236.310058,22.7999807 C236.9987,22.7973411 237.660048,23.0690411 238.147932,23.5550488 C238.635817,24.0410565 238.910058,24.7013532 238.910058,25.39 C238.910058,26.8191134 237.752491,27.9781464 236.323378,27.9799807 C234.894266,27.9818107 233.733741,26.8257496 233.730058,25.3966409 C233.726391,23.9675322 234.880955,22.8055178 236.310058,22.7999807 Z M248.490058,22.8 C249.920475,22.8 251.080058,23.9595825 251.080058,25.39 C251.080058,26.8204175 249.920475,27.98 248.490058,27.98 C247.05964,27.98 245.900058,26.8204175 245.900058,25.39 C245.900058,23.9595825 247.05964,22.8 248.490058,22.8 Z M285.020058,22.8 C286.450475,22.8 287.610058,23.9595825 287.610058,25.39 C287.610058,26.8204175 286.450475,27.98 285.020058,27.98 C283.58964,27.98 282.430058,26.8204175 282.430058,25.39 C282.430058,23.9595825 283.58964,22.8 285.020058,22.8 Z M224.140058,22.8 C225.570475,22.8 226.730058,23.9595825 226.730058,25.39 C226.730058,26.8204175 225.570475,27.98 224.140058,27.98 C222.70964,27.98 221.550058,26.8204175 221.550058,25.39 C221.550058,23.9595825 222.70964,22.8 224.140058,22.8 Z M211.960058,22.8 C213.390475,22.8 214.550058,23.9595825 214.550058,25.39 C214.550058,26.8204175 213.390475,27.98 211.960058,27.98 C210.52964,27.98 209.370058,26.8204175 209.370058,25.39 C209.370058,23.9595825 210.52964,22.8 211.960058,22.8 Z M224.140058,9.79998063 C225.572091,9.80550786 226.730058,10.9679558 226.730058,12.4 C226.730058,13.4525102 226.095493,14.401191 225.122711,14.8030287 C224.14993,15.2048663 223.030843,14.9805823 222.288041,14.2349126 C221.54524,13.489243 221.32527,12.3693004 221.730853,11.3980744 C222.136436,10.4268485 223.087555,9.79595188 224.140058,9.79998063 Z M236.310058,9.8 C237.745998,9.8 238.910058,10.9640597 238.910058,12.4 C238.910058,13.8359403 237.745998,15 236.310058,15 C234.874118,15 233.710058,13.8359403 233.710058,12.4 C233.710058,10.9640597 234.874118,9.8 236.310058,9.8 Z M248.490058,9.79998063 C249.922091,9.80550786 251.080058,10.9679558 251.080058,12.4 C251.080058,13.4525102 250.445493,14.401191 249.472711,14.8030287 C248.49993,15.2048663 247.380843,14.9805823 246.638041,14.2349126 C245.89524,13.489243 245.67527,12.3693004 246.080853,11.3980744 C246.486436,10.4268485 247.437555,9.79595188 248.490058,9.79998063 Z M260.670058,9.81 C262.100475,9.81 263.260058,10.9695825 263.260058,12.4 C263.260058,13.8304175 262.100475,14.99 260.670058,14.99 C259.23964,14.99 258.080058,13.8304175 258.080058,12.4 C258.080058,10.9695825 259.23964,9.81 260.670058,9.81 Z M272.850058,9.81 C274.280475,9.81 275.440058,10.9695825 275.440058,12.4 C275.440058,13.8304175 274.280475,14.99 272.850058,14.99 C271.41964,14.99 270.260058,13.8304175 270.260058,12.4 C270.260058,10.9695825 271.41964,9.81 272.850058,9.81 Z M285.020058,9.81 C286.450475,9.81 287.610058,10.9695825 287.610058,12.4 C287.610058,13.8304175 286.450475,14.99 285.020058,14.99 C283.58964,14.99 282.430058,13.8304175 282.430058,12.4 C282.430058,10.9695825 283.58964,9.81 285.020058,9.81 Z M297.200058,9.81 C298.630475,9.81 299.790058,10.9695825 299.790058,12.4 C299.790058,13.8304175 298.630475,14.99 297.200058,14.99 C295.76964,14.99 294.610058,13.8304175 294.610058,12.4 C294.610058,10.9695825 295.76964,9.81 297.200058,9.81 Z M250.760058,0.63 C250.313867,1.47027569 249.441446,1.99680301 248.490058,2 C247.816037,1.99991224 247.169245,1.73400889 246.690058,1.26 C248.010058,1 249.390058,0.8 250.760058,0.63 Z M263.170058,0 C262.901154,1.16562211 261.866278,1.99352282 260.670058,2 C259.473838,1.99352282 258.438962,1.16562211 258.170058,0 L258.170058,0 Z M270.570058,0.63 C271.940058,0.8 273.300058,1 274.650058,1.26 C274.170871,1.73400889 273.524079,1.99991224 272.850058,2 C271.896305,1.99608713 271.021252,1.47028768 270.570058,0.63 Z" id="Combined-Shape" fill="#E7354D" fill-rule="nonzero"></path>
            </g>
        </g>
    </g>
</svg>