<?xml version="1.0" encoding="UTF-8" standalone="no"?>
<svg width="1400px" height="113px" viewBox="0 0 1400 113" version="1.1" xmlns="http://www.w3.org/2000/svg" xmlns:xlink="http://www.w3.org/1999/xlink">
    <!-- Generator: Sketch 3.7.2 (28276) - http://www.bohemiancoding.com/sketch -->
    <title>white_sky</title>
    <desc>Created with Sketch.</desc>
    <defs></defs>
    <g id="Page-1" stroke="none" stroke-width="1" fill="none" fill-rule="evenodd">
        <g id="header" transform="translate(0.000000, -787.000000)" fill="#FFFFFF">
            <path d="M951.477,855.748 C946.55,852.399 940.599,850.442 934.189,850.442 C930.951,850.442 927.83,850.943 924.898,851.87 C920.615,834.897 905.228,822.329 886.896,822.329 C880.798,822.329 875.025,823.72 869.879,826.201 C866.319,803.98 847.04,787 823.782,787 C802.91,787 785.242,800.673 779.261,819.537 C773.814,815.194 766.913,812.592 759.399,812.592 C747.88,812.592 737.788,818.696 732.191,827.842 C727.382,825.674 722.051,824.458 716.43,824.458 C705.949,824.458 696.453,828.66 689.529,835.463 C684.33,826.454 674.595,820.387 663.433,820.387 C651.327,820.387 640.896,827.524 636.117,837.815 C633.814,837.252 631.412,836.948 628.935,836.948 C623.904,836.948 619.166,838.187 615,840.366 C610.191,828.288 598.402,819.747 584.609,819.747 C574.283,819.747 565.08,824.537 559.086,832.012 C555.193,830.197 550.857,829.179 546.279,829.179 C541.648,829.179 537.26,830.22 533.334,832.074 C528.136,824.625 519.51,819.747 509.737,819.747 C505.969,819.747 502.375,820.48 499.077,821.797 C491.855,801.519 472.497,787.001 449.74,787.001 C444.101449,787.06431 442.688245,787.001 441.2598,787.001 C418.5028,787.001 399.1448,801.519 391.9228,821.797 C388.6248,820.48 385.0308,819.747 381.2628,819.747 C371.4898,819.747 362.8638,824.625 357.6658,832.074 C353.7398,830.22 349.3518,829.179 344.7208,829.179 C340.1428,829.179 335.8068,830.197 331.9138,832.012 C325.9198,824.537 316.7168,819.747 306.3908,819.747 C292.5978,819.747 280.8088,828.288 275.9998,840.366 C271.8338,838.187 267.0958,836.948 262.0648,836.948 C259.5878,836.948 257.1858,837.252 254.8828,837.815 C250.1038,827.524 239.6728,820.387 227.5668,820.387 C216.4048,820.387 206.6698,826.454 201.4708,835.463 C194.5468,828.66 185.0508,824.458 174.5698,824.458 C168.9488,824.458 163.6178,825.674 158.8088,827.842 C153.2118,818.696 143.1198,812.592 131.6008,812.592 C124.0868,812.592 117.1858,815.194 111.7388,819.537 C105.7578,800.673 88.0898,787 67.2178,787 C43.9598,787 24.6808,803.98 21.1208,826.201 C15.9748,823.72 10.2018,822.329 4.1038,822.329 C-14.2282,822.329 -29.6152,834.897 -33.8982,851.87 C-36.8302,850.943 -39.9512,850.442 -43.1892,850.442 C-49.5992,850.442 -55.5502,852.399 -60.4772,855.748 C-65.7962,846.564 -75.7322,840.379 -87.1242,840.379 C-91.7232,840.379 -96.0822,841.396 -100.0002,843.203 L-100.0002,949.735 L445.4999,949.735 L980.5,949.735 L1518,949.735 L1518,787.446 C1515.791,787.163 1513.545,787.001 1511.26,787.001 C1488.503,787.001 1469.145,801.519 1461.923,821.797 C1458.625,820.48 1455.031,819.747 1451.263,819.747 C1441.49,819.747 1432.864,824.625 1427.666,832.074 C1423.74,830.22 1419.352,829.179 1414.721,829.179 C1410.143,829.179 1405.807,830.197 1401.914,832.012 C1395.92,824.537 1386.717,819.747 1376.391,819.747 C1362.598,819.747 1350.809,828.288 1346,840.366 C1341.834,838.187 1337.096,836.948 1332.065,836.948 C1329.588,836.948 1327.186,837.252 1324.883,837.815 C1320.104,827.524 1309.673,820.387 1297.567,820.387 C1286.405,820.387 1276.67,826.454 1271.471,835.463 C1264.547,828.66 1255.051,824.458 1244.57,824.458 C1238.949,824.458 1233.618,825.674 1228.809,827.842 C1223.212,818.696 1213.12,812.592 1201.601,812.592 C1194.087,812.592 1187.186,815.194 1181.739,819.537 C1175.758,800.673 1158.09,787 1137.218,787 C1113.96,787 1094.681,803.98 1091.121,826.201 C1085.975,823.72 1080.202,822.329 1074.104,822.329 C1055.772,822.329 1040.385,834.897 1036.102,851.87 C1033.17,850.943 1030.049,850.442 1026.811,850.442 C1020.401,850.442 1014.45,852.399 1009.523,855.748 C1004.204,846.564 994.268,840.379 982.876,840.379 C966.732,840.379 956.796,846.564 951.477,855.748 Z" id="white_sky"></path>
        </g>
    </g>
</svg>