<?xml version="1.0" encoding="utf-8"?>
<!-- Generator: Adobe Illustrator 26.3.1, SVG Export Plug-In . SVG Version: 6.00 Build 0)  -->
<svg version="1.1" id="Layer_1" xmlns="http://www.w3.org/2000/svg" xmlns:xlink="http://www.w3.org/1999/xlink" x="0px" y="0px"
	 viewBox="0 0 381.6 73.9" style="enable-background:new 0 0 381.6 73.9;" xml:space="preserve">
<style type="text/css">
	.st0{fill:#006757;}
	.st1{fill-rule:evenodd;clip-rule:evenodd;fill:#006757;}
	.st2{fill:#FFFFFF;}
	.st3{fill-rule:evenodd;clip-rule:evenodd;fill:#FFFFFF;}
</style>
<g>
	<path class="st2" d="M298.8,9.9h-0.6c-1.3-2.1-2.8-3.7-4.7-4.7c-1.9-1-4.2-1.5-6.8-1.5c-4.5,0-8,1.5-10.6,4.6
		c-2.6,3.1-3.8,7.3-3.8,12.7c0,5.4,1.3,9.7,4,12.9c2.7,3.2,6.2,4.8,10.7,4.8c2.3,0,4.5-0.5,6.5-1.4c2-0.9,4-2.4,5.8-4.4l0.6,0.3
		c-0.2,0.7-0.3,1.5-0.4,2.3c-0.1,0.8-0.2,1.6-0.2,2.4c-2.2,1.2-4.4,2.2-6.7,2.8c-2.2,0.6-4.5,0.9-6.9,0.9c-6.2,0-11.1-1.8-14.7-5.4
		c-3.5-3.6-5.3-8.6-5.3-14.8c0-6.2,1.9-11.1,5.6-14.7c3.7-3.6,8.9-5.4,15.3-5.4c2.3,0,4.5,0.2,6.8,0.7c2.2,0.5,4.6,1.3,6.9,2.3
		c-0.4,0.8-0.7,1.6-1,2.6C299.1,7.7,298.9,8.7,298.8,9.9L298.8,9.9z"/>
	<path class="st2" d="M306.3,40.6c0.2-2.9,0.4-5.9,0.5-9.2c0.1-3.2,0.2-6.6,0.2-10.2c0-4.1-0.1-7.7-0.2-10.8c-0.1-3.2-0.3-6-0.5-8.6
		c0.6,0.1,1.2,0.1,1.7,0.2c0.6,0,1.1,0.1,1.7,0.1c0.5,0,1.1,0,1.6-0.1c0.6,0,1.1-0.1,1.8-0.2c-0.2,2.4-0.4,5.1-0.5,8.1
		c-0.1,3-0.2,6.8-0.2,11.3c0,4,0.1,7.6,0.2,10.8c0.1,3.1,0.3,6,0.5,8.6c-0.5-0.1-1-0.2-1.5-0.2c-0.6,0-1.2-0.1-1.9-0.1
		c-0.7,0-1.3,0-1.9,0.1C307.3,40.4,306.8,40.5,306.3,40.6L306.3,40.6z"/>
	<path class="st2" d="M327,4.9h-3.5c-0.8,0-1.9,0.1-3.3,0.2c-1.4,0.1-3.1,0.4-5,0.6c0.1-0.4,0.1-0.7,0.2-1c0-0.3,0-0.7,0-1
		c0-0.4,0-0.7-0.1-1c0-0.3-0.1-0.6-0.2-0.9c2.6,0.1,5.1,0.2,7.5,0.2c2.4,0.1,4.8,0.1,7.1,0.1c2.7,0,5.2,0,7.6-0.1
		c2.4-0.1,4.7-0.1,7.1-0.2c-0.1,0.6-0.2,1-0.2,1.3c0,0.3,0,0.5,0,0.8c0,0.3,0,0.6,0.1,0.9c0,0.3,0.1,0.7,0.2,1
		c-2-0.3-3.7-0.5-5.1-0.6c-1.4-0.1-2.6-0.2-3.4-0.2h-3.2c-0.1,1.5-0.2,2.7-0.2,3.8c0,1-0.1,2-0.1,2.8c0,7.5,0.1,13.7,0.2,18.5
		c0.1,4.8,0.3,8.4,0.6,10.7c-0.4-0.1-0.9-0.2-1.5-0.2c-0.5,0-1.1-0.1-1.8-0.1c-0.7,0-1.3,0-1.8,0.1c-0.5,0-1,0.1-1.5,0.2
		c0.2-2.5,0.4-5.8,0.5-9.8c0.1-4,0.2-9,0.2-15.1c0-2.7,0-4.8-0.1-6.4C327.2,7.8,327.1,6.3,327,4.9L327,4.9z"/>
	<path class="st2" d="M359.8,40.6c0.2-1.5,0.3-3.2,0.4-5c0.1-1.9,0.2-4,0.2-6.3v-4.8c-2.1-3.9-4.3-7.8-6.6-11.6
		c-2.3-3.8-4.6-7.5-7-11.2c0.6,0.1,1.2,0.1,1.8,0.2c0.6,0,1.3,0.1,2,0.1c0.7,0,1.3,0,1.9-0.1c0.6,0,1.1-0.1,1.7-0.2
		c0.6,1.5,1.3,3.2,2.2,4.9c0.9,1.8,1.9,3.7,3.1,5.8l4.8,8.3c1.8-2.9,3.5-6,5.1-9.1c1.6-3.2,3.2-6.5,4.7-9.9c0.4,0.1,0.7,0.1,1.1,0.2
		c0.4,0,0.8,0.1,1.3,0.1c0.5,0,0.9,0,1.4-0.1c0.4,0,0.8-0.1,1.1-0.2c-1.4,2.2-2.8,4.4-4.1,6.5c-1.3,2.1-2.6,4.2-3.8,6.3l-5.3,8.8
		v7.3c0,1.7,0,3.3,0.1,5c0.1,1.7,0.1,3.3,0.3,5c-0.6-0.1-1.2-0.1-1.7-0.2c-0.5,0-1.1-0.1-1.6-0.1c-0.5,0-1,0-1.5,0.1
		C360.9,40.5,360.3,40.6,359.8,40.6L359.8,40.6z"/>
	<path class="st2" d="M88.5,23.8c0,4-0.9,6.9-2.8,8.9c-2.1,2.2-4.9,3.3-8.3,3.3c-3.1,0-5.8-1.1-7.9-3.2c-1.3-1.3-2.2-3-2.5-5
		c-0.2-1.2-0.3-3.4-0.3-6.6c0-3.2,0.1-5.4,0.3-6.6c0.4-2,1.2-3.7,2.6-5c2.1-2.1,4.8-3.2,7.9-3.2c3.2,0,5.8,0.9,7.8,2.8
		c1.7,1.7,2.8,3.8,3.3,6.5h-5.8c-0.7-2.8-2.4-4.2-5.3-4.2c-1.5,0-2.7,0.5-3.7,1.6c-0.7,0.8-1.2,2.1-1.3,3.9
		c-0.1,0.5-0.1,1.9-0.1,4.2c0,2.3,0,3.8,0.1,4.2c0.2,1.8,0.6,3.1,1.3,4c0.9,1,2.1,1.5,3.7,1.5c1.7,0,3.1-0.5,4.1-1.6
		c0.9-1,1.3-2.2,1.3-3.9v-1.1h-5.4v-4.8h11.1V23.8L88.5,23.8z M250.4,35.3h-19.3V6.2h19.3v5.1h-13.6v6.8h11.5v5.1h-11.5v7.1h13.6
		V35.3L250.4,35.3z M226.4,35.3h-6.6l-5.7-11.6H210v11.6h-5.7V6.2h11.5c2.9,0,5.2,0.9,7,2.6c1.7,1.7,2.5,3.8,2.5,6.3
		c0,1.9-0.5,3.6-1.6,5c-1,1.2-2.2,2.1-3.7,2.7L226.4,35.3L226.4,35.3z M219.5,15.1L219.5,15.1c0-1.1-0.4-2.1-1.2-2.8
		c-0.8-0.7-1.8-1.1-3-1.1H210v7.6h5.4c1.2,0,2.2-0.3,3-1.1C219.2,17.2,219.5,16.3,219.5,15.1L219.5,15.1z M200.7,35.3h-6l-1.7-5.1
		h-10.4l-1.8,5.1h-6l10.6-29.1h4.5L200.7,35.3L200.7,35.3z M191.5,25.4L191.5,25.4l-3.6-10.6l-3.7,10.6H191.5L191.5,25.4z
		 M171.7,25.3c0,3-1,5.5-3.1,7.4c-2.1,1.9-4.6,2.8-7.7,2.8c-3.1,0-5.6-0.9-7.7-2.8c-2.1-1.9-3.1-4.3-3.1-7.4V6.2h5.7v18.9
		c0,1.7,0.5,3,1.4,3.9c0.9,0.9,2.1,1.4,3.7,1.4c1.6,0,2.8-0.5,3.7-1.4c0.9-1,1.4-2.3,1.4-3.9V6.2h5.7V25.3L171.7,25.3z M145.6,33.5
		l-3,3L140,34c-1.6,1.1-3.6,1.6-5.9,1.6c-3.2,0-5.8-1.1-7.9-3.2c-1.3-1.3-2.2-3-2.5-5c-0.2-1.2-0.3-3.4-0.3-6.6
		c0-3.2,0.1-5.4,0.3-6.6c0.4-2,1.2-3.7,2.5-5c2.1-2.1,4.8-3.2,7.9-3.2c3.1,0,5.7,1.1,7.9,3.2c1.3,1.3,2.2,3,2.5,5
		c0.2,1.2,0.4,3.4,0.4,6.6c0,2.8-0.1,4.7-0.2,5.8c-0.2,1.8-0.8,3.3-1.6,4.5L145.6,33.5L145.6,33.5z M139.2,20.8L139.2,20.8
		c0-2.2,0-3.6-0.1-4.2c-0.2-1.8-0.6-3.1-1.4-3.9c-0.9-1-2.1-1.6-3.7-1.6c-1.5,0-2.8,0.5-3.7,1.6c-0.7,0.8-1.2,2.1-1.3,3.9
		c-0.1,0.5-0.1,1.9-0.1,4.2c0,2.3,0,3.8,0.1,4.2c0.2,1.8,0.6,3.1,1.3,3.9c0.9,1,2.2,1.6,3.7,1.6c0.7,0,1.4-0.2,1.9-0.5l-2.5-2.5l3-3
		l2.2,2.2C139,25.6,139.2,23.7,139.2,20.8L139.2,20.8z M118.9,26.7c0,2.7-1,4.9-3.1,6.5c-2,1.6-4.6,2.3-7.8,2.3
		c-4.6,0-8.1-1.3-10.7-3.8l3.7-3.7c1.6,1.6,4,2.5,7.1,2.5c3.5,0,5.2-1.2,5.2-3.6c0-1.1-0.3-1.9-0.9-2.4c-0.6-0.5-1.4-0.9-2.6-1
		l-3.5-0.5c-5.2-0.7-7.8-3.4-7.8-8.1c0-2.6,0.9-4.8,2.8-6.4c1.8-1.6,4.3-2.4,7.4-2.4c3.9,0,7.1,1.1,9.5,3.4l-3.6,3.6
		c-1.4-1.3-3.4-2-6-2c-1.5,0-2.6,0.4-3.3,1c-0.8,0.7-1.2,1.6-1.2,2.6c0,0.8,0.3,1.6,0.9,2.1c0.6,0.6,1.5,0.9,2.7,1.1l3.5,0.5
		c2.5,0.4,4.4,1.1,5.6,2.2C118.2,22,118.9,24,118.9,26.7L118.9,26.7z"/>
	<path class="st2" d="M129.8,64.3c0.6,0,1.1,0.6,1.1,1.3c0,0.7-0.5,1.3-1.1,1.3h-54c-0.6,0-1.1-0.6-1.1-1.3c0-0.7,0.5-1.3,1.1-1.3
		H129.8L129.8,64.3z"/>
	<path class="st2" d="M369.9,64.3c0.6,0,1.1,0.6,1.1,1.3c0,0.7-0.5,1.3-1.1,1.3h-54c-0.6,0-1.1-0.6-1.1-1.3c0-0.7,0.5-1.3,1.1-1.3
		H369.9L369.9,64.3z"/>
	<path class="st2" d="M155.9,61.9h1.1c1.3,0,2.3-0.2,2.8-0.5c0.6-0.4,0.8-1,0.8-1.9c0-1-0.3-1.6-0.8-2c-0.5-0.4-1.5-0.6-2.9-0.6
		h-1.1V61.9L155.9,61.9z M155.9,69.6h1c1,0,1.7,0,2.2-0.1c0.5-0.1,0.9-0.2,1.2-0.4c0.3-0.2,0.6-0.5,0.8-0.9c0.2-0.4,0.3-0.8,0.3-1.3
		c0-0.6-0.1-1-0.3-1.4c-0.2-0.4-0.6-0.7-1-1c-0.3-0.1-0.6-0.2-0.9-0.3c-0.3-0.1-0.8-0.1-1.4-0.1h-0.8h-1V69.6L155.9,69.6z
		 M153.1,71.9V54.6h4.4c1.2,0,2.2,0.1,2.8,0.2c0.6,0.1,1.1,0.4,1.5,0.7c0.5,0.4,1,0.9,1.2,1.6c0.3,0.6,0.4,1.3,0.4,2.1
		c0,0.9-0.2,1.7-0.6,2.3c-0.4,0.6-1,1.1-1.9,1.3c1,0.2,1.8,0.6,2.4,1.4c0.6,0.8,0.9,1.7,0.9,2.9c0,0.7-0.1,1.4-0.4,2
		c-0.2,0.6-0.6,1.2-1,1.6c-0.5,0.5-1.1,0.8-1.8,1c-0.7,0.2-1.9,0.3-3.5,0.3H153.1L153.1,71.9z M179.5,65.1h4.8l-1.8-4
		c-0.1-0.3-0.2-0.5-0.3-0.9c-0.1-0.3-0.2-0.7-0.3-1.1c-0.1,0.4-0.2,0.7-0.3,1.1c-0.1,0.3-0.2,0.6-0.3,0.9L179.5,65.1L179.5,65.1z
		 M187.3,71.9l-2-4.5h-6.9l-2,4.5h-3l8.4-18l8.4,18H187.3L187.3,71.9z M200.7,71.9V54.6h2.8v14.8h6.3v2.5H200.7L200.7,71.9z
		 M220.9,71.9V54.6h2.8v14.8h6.3v2.5H220.9L220.9,71.9z M244.7,65.1h4.8l-1.8-4c-0.1-0.3-0.2-0.5-0.3-0.9c-0.1-0.3-0.2-0.7-0.3-1.1
		c-0.1,0.4-0.2,0.7-0.3,1.1c-0.1,0.3-0.2,0.6-0.3,0.9L244.7,65.1L244.7,65.1z M252.5,71.9l-2-4.5h-6.9l-2,4.5h-3l8.4-18l8.4,18
		H252.5L252.5,71.9z M268.7,62h0.5c1.5,0,2.5-0.2,3-0.5c0.5-0.3,0.7-1,0.7-1.8c0-1-0.3-1.6-0.8-2c-0.5-0.4-1.5-0.6-2.9-0.6h-0.5V62
		L268.7,62z M268.5,64.2v7.8h-2.6V54.6h3.9c1.2,0,2,0.1,2.7,0.2c0.6,0.1,1.2,0.4,1.6,0.7c0.5,0.4,1,1,1.2,1.6
		c0.3,0.7,0.4,1.4,0.4,2.2c0,1.4-0.3,2.5-1,3.3c-0.7,0.8-1.7,1.3-3,1.4l6,7.9h-3.2l-5.8-7.8H268.5L268.5,64.2z M288.3,71.9V54.6h2.8
		v17.4H288.3L288.3,71.9z"/>
	<path class="st3" d="M47.2,48.3H25.8c0-0.2,0-0.3,0-0.5c0-0.3,0-0.6,0-0.9c0-0.1,0-0.1,0-0.2v-4.3l0.1,0c1.1-4,3.4-6.8,6.2-8.7
		l6,3.4l0.8-1.3l-5.3-3c3.8-2.2,8.1-3.2,11.3-3.6l-0.2-1.5c-5.6,0.7-14.8,3.1-18.9,10.8v-2.3h0.1c0-0.5,0-1-0.1-1.4
		c0.4-4.2,2.5-7.6,6.4-10.4l4.4,2.4l0.7-1.4l-3.7-2c0.2-0.1,0.4-0.3,0.6-0.4c4.3-2.4,8.8-3.2,8.8-3.2L43,18.9l-0.1-0.8
		c-0.2,0-4.7,0.8-9.3,3.4c-2.7,1.5-4.9,3.4-6.4,5.4c-0.5,0.7-1,1.4-1.4,2.2v-6c0-2.5,1.8-4.9,3.9-6.9l3.3,1.8l0.7-1.4l-2.8-1.5
		c2.8-2.3,5.7-3.7,5.7-3.8l-0.4-0.7L35.9,10c-0.4,0.2-7.1,3.6-10.2,8.4V12c0.2-3.2,2.4-4.7,2.5-4.7l-0.4-0.6L27.4,6
		C27.3,6,25.9,7,25,8.9C24.1,7,22.7,6,22.6,6l-0.8,1.3c0,0,2.2,1.5,2.5,4.7v6.5c-3.1-4.8-9.9-8.3-10.3-8.5l-0.7,1.4
		c0.1,0,2.9,1.5,5.7,3.8l-2.8,1.6l0.7,1.4l3.3-1.8c2.2,2,4,4.4,4,6.9v6c-0.4-0.8-0.8-1.5-1.4-2.2c-1.6-2.1-3.7-3.9-6.4-5.4
		c-4.6-2.6-9.1-3.4-9.3-3.4l-0.3,1.5c0,0,4.5,0.8,8.8,3.2c0.2,0.1,0.4,0.2,0.6,0.4l-3.7,2l0.7,1.4l4.4-2.4c3.9,2.8,6,6.2,6.4,10.4
		c0,0.5-0.1,0.9-0.1,1.4h0.1v2.3c-4.1-7.7-13.3-10.1-18.9-10.8l-0.2,1.5c3.1,0.4,7.4,1.4,11.2,3.5L11,35.7l0.8,1.3l6-3.5
		c2.9,2,5.2,4.8,6.3,8.8l0.1,0v4.3c0,0.1,0,0.1,0,0.2c0,0.3,0,0.6,0,0.9c0,0.2,0,0.3,0,0.5H2.6V26.1c0-12.3,10-22.3,22.3-22.3
		s22.3,10,22.3,22.3V48.3L47.2,48.3z M45.4,58c-6.2-0.4-11.3-2.9-14.4-4.9c-1.9-1.2-3.3-2.4-4.2-3.2h20.5
		C47.1,52.7,46.5,55.5,45.4,58L45.4,58z M38.9,66.5C38.9,66.5,38.9,66.4,38.9,66.5c-6.5-2.7-11.2-8.3-12.7-15c1,0.8,2.3,1.8,3.8,2.9
		c3.2,2.1,8.3,4.6,14.6,5.1C43.2,62.2,41.3,64.6,38.9,66.5L38.9,66.5z M25.8,71.4V55.2c0.6,1.6,1.4,3.1,2.4,4.5
		c2.4,3.4,5.6,6.2,9.3,7.9C34.1,69.8,30.1,71.2,25.8,71.4L25.8,71.4z M24.2,71.4c-4.4-0.1-8.4-1.5-11.8-3.8c3.8-1.7,7-4.4,9.4-7.9
		c1-1.4,1.8-2.9,2.4-4.5V71.4L24.2,71.4z M11,66.5c-2.4-1.9-4.4-4.3-5.8-7c6.3-0.6,11.4-3.1,14.7-5.2c1.6-1,2.9-2,3.8-2.9
		C22.2,58.1,17.6,63.8,11,66.5C11.1,66.5,11,66.5,11,66.5L11,66.5z M2.6,49.8h20.6c-1,0.9-2.4,2-4.2,3.2c-3.2,2-8.2,4.5-14.5,4.9
		C3.4,55.5,2.7,52.7,2.6,49.8L2.6,49.8z M41.8,9.3c-4.5-4.5-10.5-7-16.8-7c-6.3,0-12.3,2.5-16.8,7c-4.5,4.5-7,10.5-7,16.8v23
		c0,6.3,2.5,12.3,7,16.8c4.5,4.5,10.5,7,16.8,7c6.3,0,12.3-2.5,16.8-7c4.5-4.5,7-10.5,7-16.8v-23C48.8,19.8,46.3,13.8,41.8,9.3
		L41.8,9.3z"/>
	<path class="st2" d="M44.4,43.2c-3.1-1.6-5.4,0.3-7.5,1.8c-1.9,1.3-4.5,1.3-6.4,0l-1.5-1c-2.5-1.7-5.8-1.7-8.3,0l-1.5,1
		c-1.9,1.3-4.5,1.3-6.4,0c-2.1-1.5-4.1-3.2-7.4-1.9c-0.4,0.2-0.6,0.7-0.5,1.1c0.2,0.4,0.7,0.6,1.1,0.5c2.3-1,3.7,0.2,5.8,1.7
		c2.5,1.7,5.8,1.7,8.3,0l1.5-1c1.9-1.3,4.5-1.3,6.4,0c1.6,1.1,3,2.3,5.6,2.3c5,0,6.3-4.8,9.9-2.9c0.4,0.2,0.9,0.1,1.2-0.4
		C45,43.9,44.8,43.4,44.4,43.2L44.4,43.2z"/>
	<path class="st3" d="M19.5,38.2c0.6,2.6-4.3,2.2-6,0.8C15,37.3,18.9,35.6,19.5,38.2L19.5,38.2z"/>
	<path class="st3" d="M15.3,28.1c1.9-1.6,6.4-1.4,6,0.8C20.9,31,17.1,30.3,15.3,28.1L15.3,28.1z"/>
	<path class="st3" d="M12,32c0.6,2.6-4.3,2.2-6,0.8C7.5,31.1,11.4,29.4,12,32L12,32z"/>
	<path class="st3" d="M5.8,24.5c1-2.2,5.1-4,5.7-1.9C12.1,24.6,8.4,25.7,5.8,24.5L5.8,24.5z"/>
	<path class="st3" d="M22.6,12.5c2.2-1.5-1.4-4.6-3.6-4.9C18.8,9.8,20.4,13.9,22.6,12.5L22.6,12.5z"/>
	<path class="st3" d="M15.8,15.9c1.1-2.7-3.6-3.2-5.5-2.3C11.1,15.6,14.6,18.6,15.8,15.9L15.8,15.9z"/>
	<path class="st3" d="M27.2,23.7c-2.3-1.3,1.3-4.7,3.4-5C31,20.9,29.5,25,27.2,23.7L27.2,23.7z"/>
	<path class="st3" d="M22.2,23.4c2.2-1.7-1.3-4.7-3.4-5C18.4,20.6,20,25.1,22.2,23.4L22.2,23.4z"/>
	<path class="st3" d="M29,29.3c-1-2.5,4-2.7,5.8-1.6C33.7,29.6,30,31.8,29,29.3L29,29.3z"/>
	<path class="st3" d="M37.9,22.7c1-2.6,4.8,0.2,5.6,2.1C41.4,25.7,36.9,25.4,37.9,22.7L37.9,22.7z"/>
	<path class="st3" d="M29.9,37.9c-0.6,2.6,4.3,2.2,6,0.8C34.5,37,30.5,35.3,29.9,37.9L29.9,37.9z"/>
	<path class="st3" d="M37.8,32.5c-0.6,2.6,4.3,2.2,6,0.8C42.3,31.6,38.4,29.9,37.8,32.5L37.8,32.5z"/>
	<path class="st3" d="M34.2,15.7c-1.1-2.7,3.6-3.2,5.5-2.3C38.8,15.4,35.3,18.4,34.2,15.7L34.2,15.7z"/>
	<path class="st3" d="M27.6,12.3c-2.2-1.5,1.4-4.6,3.6-4.9C31.4,9.7,29.8,13.8,27.6,12.3L27.6,12.3z"/>
</g>
</svg>
