<?xml version="1.0" encoding="utf-8"?>
<!-- Generator: Adobe Illustrator 26.3.1, SVG Export Plug-In . SVG Version: 6.00 Build 0)  -->
<svg version="1.1" id="Layer_1" xmlns="http://www.w3.org/2000/svg" xmlns:xlink="http://www.w3.org/1999/xlink" x="0px" y="0px"
	 viewBox="0 0 1818.7 113.6" style="enable-background:new 0 0 1818.7 113.6;" xml:space="preserve">
<style type="text/css">
	.st0{fill:url(#SVGID_1_);}
</style>
<linearGradient id="SVGID_1_" gradientUnits="userSpaceOnUse" x1="5.8806" y1="57.0462" x2="1810.1791" y2="57.0462">
	<stop  offset="0" style="stop-color:#006678"/>
	<stop  offset="0.4721" style="stop-color:#0EA49B"/>
	<stop  offset="1" style="stop-color:#006678"/>
</linearGradient>
<path class="st0" d="M1803,64.7c-0.1-0.1-0.3-0.2-0.4-0.2c-14.8-2.2-23.3-10.6-34.5-21.6c-15.3-15-34.3-33.8-70.9-33.8
	s-55.6,18.7-70.9,33.8c-13.1,12.9-22.6,22.2-42.8,22.2c-20.2,0-29.7-9.3-42.8-22.2c-15.3-15-34.3-33.8-70.9-33.8
	c-36.6,0-55.6,18.7-70.9,33.8c-13.1,12.9-22.6,22.2-42.8,22.2c-20.2,0-29.7-9.3-42.8-22.2c-15.3-15-34.3-33.8-70.9-33.8
	c-36.6,0-55.6,18.7-70.9,33.8c-13.1,12.9-22.6,22.2-42.8,22.2c-20.2,0-29.7-9.3-42.8-22.2c-15.3-15-34.3-33.8-70.9-33.8
	s-55.6,18.7-70.9,33.8c-11.6,11.4-20.4,20.1-36.3,21.9c-15.9-1.8-24.7-10.4-36.3-21.9C856.5,27.8,837.5,9,800.9,9
	c-36.6,0-55.6,18.7-70.9,33.8C716.9,55.7,707.4,65,687.2,65c-20.2,0-29.7-9.3-42.8-22.2C629.1,27.8,610.1,9,573.5,9
	c-36.6,0-55.6,18.7-70.9,33.8C489.6,55.7,480.1,65,459.9,65c-20.2,0-29.7-9.3-42.8-22.2C401.8,27.8,382.8,9,346.2,9
	c-36.6,0-55.6,18.7-70.9,33.8C262.2,55.7,252.8,65,232.5,65c-20.2,0-29.7-9.3-42.8-22.2C174.5,27.8,155.5,9,118.9,9
	S63.3,27.8,48,42.8c-11.2,11-19.7,19.4-34.5,21.6c-0.2,0-0.3,0.1-0.4,0.2c-17.7,20.7,0.5,42.1,18.5,36.6c20.3-6.2,33.4-19.1,44.5-30
	C89.2,58.4,98.7,49,118.9,49c20.2,0,29.7,9.3,42.8,22.2c15.3,15,34.3,33.8,70.9,33.8s55.6-18.7,70.9-33.8
	C316.5,58.4,326,49,346.2,49c20.2,0,29.7,9.3,42.8,22.2c15.3,15,34.3,33.8,70.9,33.8c36.6,0,55.6-18.7,70.9-33.8
	C543.8,58.4,553.3,49,573.5,49c20.2,0,29.7,9.3,42.8,22.2c15.3,15,34.3,33.8,70.9,33.8c36.6,0,55.6-18.7,70.9-33.8
	C771.2,58.4,780.6,49,800.9,49c20.2,0,29.7,9.3,42.8,22.2c13.8,13.5,30.5,30.1,60.5,33.2v0.5c1.3,0,2.6-0.1,3.9-0.2
	c1.3,0.1,2.5,0.1,3.9,0.2v-0.5c30-3.1,46.8-19.7,60.5-33.2C985.5,58.4,995,49,1015.2,49s29.7,9.3,42.8,22.2
	c15.3,15,34.3,33.8,70.9,33.8c36.6,0,55.6-18.7,70.9-33.8c13.1-12.9,22.6-22.2,42.8-22.2c20.2,0,29.7,9.3,42.8,22.2
	c15.3,15,34.3,33.8,70.9,33.8c36.6,0,55.6-18.7,70.9-33.8c13.1-12.9,22.6-22.2,42.8-22.2c20.2,0,29.7,9.3,42.8,22.2
	c15.3,15,34.3,33.8,70.9,33.8s55.6-18.7,70.9-33.8c13.1-12.9,22.6-22.2,42.8-22.2c20.2,0,29.7,9.3,42.8,22.2
	c11.1,10.9,24.1,23.8,44.5,30C1802.4,106.8,1820.7,85.4,1803,64.7z"/>
</svg>
