<?xml version="1.0" encoding="utf-8"?>
<!-- Generator: Adobe Illustrator 26.3.1, SVG Export Plug-In . SVG Version: 6.00 Build 0)  -->
<svg version="1.1" id="Layer_1" xmlns="http://www.w3.org/2000/svg" xmlns:xlink="http://www.w3.org/1999/xlink" x="0px" y="0px"
	 viewBox="0 0 303.2 303.2" style="enable-background:new 0 0 303.2 303.2;" xml:space="preserve">
<style type="text/css">
	.st0{fill:none;stroke:#FFFFFF;stroke-width:2;stroke-miterlimit:10;}
	.st1{fill:none;stroke:#FFFFFF;stroke-miterlimit:10;}
	.st2{fill:none;stroke:#FFFFFF;stroke-width:0.25;stroke-miterlimit:10;stroke-dasharray:3;}
	.st3{fill:#FFFFFF;}
</style>
<g>
	<path class="st0" d="M297.2,150.7c0,9.3-11.9,17.4-13.7,26.2c-1.8,9.1,6.1,21.1,2.7,29.4c-3.5,8.5-17.6,11.3-22.7,18.9
		c-5.1,7.6-2.4,21.7-8.8,28.2c-6.5,6.5-20.6,3.7-28.2,8.8c-7.6,5.1-10.4,19.2-18.9,22.7c-8.4,3.5-20.3-4.5-29.4-2.7
		c-8.8,1.7-16.8,13.7-26.2,13.7s-17.4-11.9-26.2-13.7c-9.1-1.8-21.1,6.1-29.4,2.7c-8.5-3.5-11.3-17.6-18.9-22.7
		c-7.6-5.1-21.7-2.4-28.2-8.8c-6.5-6.5-3.7-20.6-8.8-28.2c-5.1-7.6-19.2-10.4-22.7-18.9c-3.5-8.4,4.5-20.3,2.7-29.4
		c-1.7-8.8-13.7-16.8-13.7-26.2c0-9.3,11.9-17.4,13.7-26.2c1.8-9.1-6.1-21.1-2.7-29.4c3.5-8.5,17.6-11.3,22.7-18.9
		c5.1-7.6,2.4-21.7,8.8-28.2c6.5-6.5,20.6-3.7,28.2-8.8c7.6-5.1,10.4-19.2,18.9-22.7c8.4-3.5,20.3,4.5,29.4,2.7
		c8.8-1.7,16.8-13.7,26.2-13.7c9.3,0,17.4,11.9,26.2,13.7c9.1,1.8,21.1-6.1,29.4-2.7c8.5,3.5,11.3,17.6,18.9,22.7
		c7.6,5.1,21.7,2.4,28.2,8.8c6.5,6.5,3.7,20.6,8.8,28.2c5.1,7.6,19.2,10.4,22.7,18.9c3.5,8.4-4.5,20.3-2.7,29.4
		C285.2,133.4,297.2,141.4,297.2,150.7z"/>
	<path class="st1" d="M151.9,280c-2.6,0-6.2-2.7-9.6-5.3c-4.1-3.1-8.4-6.3-13.6-7.4c-1.2-0.2-2.6-0.4-4-0.4c-4,0-7.9,1-11.7,2
		c-3.1,0.8-6.1,1.6-8.4,1.6c-0.9,0-1.6-0.1-2.2-0.3c-2.3-1-4.6-4.8-6.8-8.5c-2.6-4.5-5.4-9.1-9.8-12.1c-4.5-3-10.1-3.8-15-4.5
		c-4.2-0.6-8.6-1.2-10.3-3c-1.8-1.8-2.4-6.1-3-10.3c-0.7-4.9-1.5-10.6-4.5-15c-3-4.4-7.6-7.2-12.1-9.8c-3.7-2.2-7.5-4.4-8.5-6.8
		c-0.9-2.2,0.2-6.5,1.2-10.6c1.3-4.9,2.7-10.4,1.6-15.7c-1-5.2-4.2-9.4-7.4-13.6c-2.6-3.5-5.3-7-5.3-9.6c0-2.6,2.7-6.2,5.3-9.6
		c3.1-4.1,6.3-8.4,7.4-13.6c1.1-5.3-0.4-10.8-1.6-15.7c-1.1-4.1-2.2-8.3-1.2-10.6c1-2.3,4.8-4.6,8.5-6.8c4.5-2.6,9.1-5.4,12.1-9.8
		c3-4.5,3.8-10.1,4.5-15c0.6-4.2,1.2-8.6,3-10.3c1.8-1.8,6.1-2.4,10.3-3c4.9-0.7,10.6-1.5,15-4.5c4.4-3,7.2-7.6,9.8-12.1
		c2.2-3.7,4.4-7.5,6.8-8.5c0.6-0.2,1.3-0.3,2.2-0.3c2.3,0,5.3,0.8,8.4,1.6c3.8,1,7.7,2,11.7,2c1.4,0,2.7-0.1,4-0.4
		c5.2-1,9.4-4.2,13.6-7.4c3.5-2.6,7-5.3,9.6-5.3c2.6,0,6.2,2.7,9.6,5.3c4.1,3.1,8.4,6.3,13.6,7.4c1.2,0.2,2.6,0.4,4,0.4
		c4,0,7.9-1,11.7-2c3.1-0.8,6.1-1.6,8.4-1.6c0.9,0,1.6,0.1,2.2,0.3c2.3,1,4.6,4.8,6.8,8.5c2.6,4.5,5.4,9.1,9.8,12.1
		c4.5,3,10.1,3.8,15,4.5c4.2,0.6,8.6,1.2,10.3,3c1.8,1.8,2.4,6.1,3,10.3c0.7,4.9,1.5,10.5,4.5,15c3,4.4,7.6,7.2,12.1,9.8
		c3.7,2.2,7.5,4.4,8.5,6.8c0.9,2.2-0.2,6.5-1.2,10.6c-1.3,4.9-2.7,10.4-1.6,15.7c1,5.2,4.2,9.4,7.4,13.6c2.6,3.5,5.3,7,5.3,9.6
		c0,2.6-2.7,6.2-5.3,9.6c-3.1,4.1-6.3,8.4-7.4,13.6c-1.1,5.3,0.4,10.8,1.6,15.7c1.1,4.1,2.2,8.3,1.2,10.6c-1,2.3-4.8,4.6-8.5,6.8
		c-4.5,2.6-9.1,5.4-12.1,9.8c-3,4.5-3.8,10.1-4.5,15c-0.6,4.2-1.2,8.6-3,10.3c-1.8,1.8-6.1,2.4-10.3,3c-4.9,0.7-10.5,1.5-15,4.5
		c-4.4,3-7.2,7.6-9.8,12.1c-2.2,3.7-4.4,7.5-6.8,8.5c-0.6,0.2-1.3,0.3-2.2,0.3c-2.3,0-5.3-0.8-8.4-1.6c-3.8-1-7.7-2-11.7-2
		c-1.4,0-2.7,0.1-4,0.4c-5.2,1-9.4,4.2-13.6,7.4C158.1,277.3,154.6,280,151.9,280z"/>
	<path class="st2" d="M151.9,273c-2.5,0-5.9-2.6-9.1-5c-3.9-2.9-7.9-6-12.8-7c-1.2-0.2-2.4-0.4-3.7-0.4c-3.8,0-7.5,1-11.1,1.9
		c-3,0.8-5.8,1.5-8,1.5c-0.8,0-1.5-0.1-2-0.3c-2.2-0.9-4.3-4.5-6.4-8c-2.5-4.3-5.1-8.6-9.3-11.5c-4.2-2.8-9.5-3.6-14.2-4.2
		c-4-0.6-8.1-1.1-9.8-2.8c-1.7-1.7-2.2-5.8-2.8-9.8c-0.7-4.7-1.4-10-4.2-14.2c-2.8-4.2-7.2-6.8-11.5-9.3c-3.5-2.1-7.1-4.2-8-6.4
		c-0.9-2.1,0.2-6.1,1.2-10c1.2-4.6,2.5-9.8,1.5-14.9c-1-4.9-4-8.9-7-12.8c-2.5-3.3-5-6.7-5-9.1c0-2.5,2.6-5.9,5-9.1
		c2.9-3.9,6-7.9,7-12.8c1-5-0.4-10.3-1.5-14.9c-1-3.9-2-7.9-1.2-10c0.9-2.2,4.5-4.3,8-6.4c4.2-2.5,8.6-5.1,11.5-9.3
		C61.3,84,62,78.7,62.7,74c0.6-4,1.1-8.1,2.8-9.8c1.7-1.7,5.8-2.2,9.8-2.8c4.7-0.7,10-1.4,14.2-4.2c4.2-2.8,6.8-7.2,9.3-11.5
		c2.1-3.5,4.2-7.1,6.4-8c0.5-0.2,1.2-0.3,2-0.3c2.2,0,5,0.7,8,1.5c3.6,0.9,7.3,1.9,11.1,1.9c1.3,0,2.6-0.1,3.7-0.4
		c4.9-1,8.9-4,12.8-7c3.3-2.5,6.7-5,9.1-5c2.5,0,5.9,2.6,9.1,5c3.9,2.9,7.9,6,12.8,7c1.2,0.2,2.4,0.4,3.7,0.4c3.8,0,7.5-1,11.1-1.9
		c3-0.8,5.8-1.5,8-1.5c0.8,0,1.5,0.1,2,0.3c2.2,0.9,4.3,4.5,6.4,8c2.5,4.2,5.1,8.6,9.3,11.5c4.2,2.8,9.5,3.6,14.2,4.2
		c4,0.6,8.1,1.1,9.8,2.8c1.7,1.7,2.2,5.8,2.8,9.8c0.7,4.7,1.4,10,4.2,14.2c2.8,4.2,7.2,6.8,11.5,9.3c3.5,2.1,7.1,4.2,8,6.4
		c0.9,2.1-0.2,6.1-1.2,10c-1.2,4.6-2.5,9.8-1.5,14.9c1,4.9,4,8.9,7,12.8c2.5,3.3,5,6.7,5,9.1c0,2.5-2.6,5.9-5,9.1
		c-2.9,3.9-6,7.9-7,12.8c-1,5,0.3,10.3,1.5,14.9c1,3.9,2,7.9,1.2,10c-0.9,2.2-4.5,4.3-8,6.4c-4.2,2.5-8.6,5.1-11.5,9.3
		c-2.8,4.2-3.6,9.5-4.2,14.2c-0.6,4-1.1,8.1-2.8,9.8c-1.7,1.7-5.8,2.2-9.8,2.8c-4.7,0.7-10,1.4-14.2,4.2c-4.2,2.8-6.8,7.2-9.3,11.5
		c-2.1,3.5-4.2,7.1-6.4,8c-0.5,0.2-1.2,0.3-2,0.3c-2.2,0-5-0.7-8-1.5c-3.6-0.9-7.3-1.9-11.1-1.9c-1.3,0-2.6,0.1-3.7,0.4
		c-4.9,1-8.9,4-12.8,7C157.8,270.5,154.4,273,151.9,273z"/>
	<path class="st0" d="M140.6,232.3c-40.1-5.5-70.9-39.9-70.9-81.5c0-45.4,36.8-82.3,82.3-82.3c45.4,0,82.3,36.8,82.3,82.3
		c0,42.1-31.6,76.8-72.4,81.7"/>
	<g>
		<g>
			<path class="st3" d="M111.2,138.2c0,6.5-4.9,10.5-12.6,10.5h-5v7.4h-8v-28.4h13C106.4,127.7,111.2,131.7,111.2,138.2z
				 M103.1,138.2c0-2.6-1.7-4.2-5-4.2h-4.5v8.3h4.5C101.5,142.3,103.1,140.8,103.1,138.2z"/>
			<path class="st3" d="M127.6,148.5h-4.4v7.6h-8v-28.4h13c7.8,0,12.6,4,12.6,10.5c0,4.2-2,7.3-5.6,9l6.1,8.9h-8.6L127.6,148.5z
				 M127.7,134h-4.5v8.3h4.5c3.3,0,5-1.5,5-4.1C132.7,135.5,131,134,127.7,134z"/>
			<path class="st3" d="M145.2,127.7h8v28.4h-8V127.7z"/>
			<path class="st3" d="M184.6,156.1l-0.1-15.1l-7.3,12.3h-3.6l-7.3-11.9v14.7H159v-28.4h6.6l10,16.4l9.7-16.4h6.6l0.1,28.4H184.6z"
				/>
			<path class="st3" d="M220.5,149.9v6.2h-22.8v-28.4H220v6.2h-14.3v4.8h12.6v6h-12.6v5.2H220.5z"/>
			<path class="st3" d="M94.9,164.9h2.6v11.6h7.2v2.2h-9.7V164.9z"/>
			<path class="st3" d="M105.4,171.8c0-4.1,3.1-7.1,7.4-7.1s7.4,3,7.4,7.1c0,4.1-3.1,7.1-7.4,7.1S105.4,175.8,105.4,171.8z
				 M117.7,171.8c0-2.8-2.1-4.8-4.8-4.8s-4.8,2-4.8,4.8c0,2.8,2.1,4.8,4.8,4.8S117.7,174.6,117.7,171.8z"/>
			<path class="st3" d="M121.9,171.8c0-4.1,3.1-7.1,7.4-7.1c2.2,0,4.2,0.8,5.4,2.3l-1.6,1.5c-1-1.1-2.2-1.6-3.7-1.6
				c-2.8,0-4.9,2-4.9,4.8c0,2.8,2.1,4.8,4.9,4.8c1.4,0,2.7-0.5,3.7-1.6l1.6,1.6c-1.3,1.5-3.2,2.3-5.5,2.3
				C125.1,178.8,121.9,175.9,121.9,171.8z"/>
			<path class="st3" d="M145.8,175.5h-6.9l-1.4,3.2H135l6.2-13.7h2.5l6.2,13.7h-2.7L145.8,175.5z M145,173.5l-2.6-6l-2.6,6H145z"/>
			<path class="st3" d="M153.7,167.1h-4.6v-2.2h11.7v2.2h-4.6v11.6h-2.6V167.1z"/>
			<path class="st3" d="M162.7,164.9h2.6v13.7h-2.6V164.9z"/>
			<path class="st3" d="M168,171.8c0-4.1,3.1-7.1,7.4-7.1c4.3,0,7.4,3,7.4,7.1c0,4.1-3.1,7.1-7.4,7.1
				C171.1,178.8,168,175.8,168,171.8z M180.2,171.8c0-2.8-2.1-4.8-4.8-4.8c-2.8,0-4.8,2-4.8,4.8c0,2.8,2.1,4.8,4.8,4.8
				C178.2,176.6,180.2,174.6,180.2,171.8z"/>
			<path class="st3" d="M197.7,164.9v13.7h-2.1l-7.6-9.3v9.3h-2.5v-13.7h2.1l7.6,9.3v-9.3H197.7z"/>
			<path class="st3" d="M200.2,177.2l0.9-2c1.1,0.9,2.8,1.5,4.5,1.5c2.1,0,3-0.8,3-1.8c0-3-8.2-1-8.2-6.1c0-2.2,1.8-4.1,5.5-4.1
				c1.6,0,3.4,0.4,4.6,1.2l-0.8,2c-1.2-0.7-2.6-1.1-3.8-1.1c-2.1,0-3,0.8-3,1.9c0,2.9,8.1,1,8.1,6.1c0,2.2-1.8,4.1-5.6,4.1
				C203.5,178.8,201.4,178.2,200.2,177.2z"/>
		</g>
	</g>
	<g>
		<g>
			<path class="st3" d="M61.5,124.5l-4,1.4c0,0.2-0.1,0.3-0.1,0.4l-0.7,2.6l3.3,1l-0.6,2.1L48,128.8l1.3-4.7c0.9-3,2.9-4.4,5.5-3.7
				c1.7,0.5,2.8,1.7,2.9,3.5l4.5-1.6L61.5,124.5z M51.1,124.7l-0.7,2.5l4.6,1.3l0.7-2.5c0.5-1.9,0-3.1-1.5-3.5
				C52.7,122.1,51.6,122.8,51.1,124.7z"/>
			<path class="st3" d="M65.4,110l1.7,0.8l-3.6,8.1l-10.9-4.8l3.5-7.9l1.7,0.8l-2.6,5.9l2.8,1.3l2.3-5.2l1.7,0.7l-2.3,5.2l3,1.3
				L65.4,110z"/>
			<path class="st3" d="M67.3,107.6l-1.1-1.5c1.1-0.4,2.4-1.4,3.2-2.7c1-1.6,0.8-2.6,0.1-3.1c-2.2-1.3-4.4,5.6-8.2,3.3
				c-1.6-1-2.2-3.2-0.5-5.9c0.7-1.2,1.8-2.3,3-2.8l1.1,1.5c-1.1,0.6-2,1.4-2.5,2.3c-1,1.6-0.7,2.6,0,3c2.2,1.3,4.4-5.6,8.2-3.3
				c1.6,1,2.2,3.2,0.5,5.9C70,106,68.6,107.2,67.3,107.6z"/>
			<path class="st3" d="M66.1,90.2l1.3-1.8l9.5,7.2l-1.3,1.8L66.1,90.2z"/>
			<path class="st3" d="M71.1,83.7l3.6-3.8c2.7-2.8,6.2-3,8.8-0.6c2.6,2.5,2.5,6-0.2,8.8l-3.6,3.8L71.1,83.7z M81.8,86.9
				c1.8-1.9,1.8-4.3,0.1-6c-1.8-1.7-4.1-1.6-6,0.3l-2,2.1l5.9,5.6L81.8,86.9z"/>
			<path class="st3" d="M96.5,74.2l1.1,1.5l-7,5.5l-7.3-9.4l6.9-5.3l1.1,1.5l-5.1,4l1.9,2.4l4.5-3.5l1.1,1.4l-4.5,3.5l2,2.6
				L96.5,74.2z"/>
			<path class="st3" d="M104.1,58.1l5.8,10.3l-1.6,0.9l-9.7-3.8l4,7l-1.9,1.1l-5.8-10.3l1.6-0.9l9.7,3.8l-4-7L104.1,58.1z"/>
			<path class="st3" d="M112.7,56.3l-3.7,1.4l-0.7-1.7l9.4-3.7l0.7,1.7l-3.7,1.4l3.7,9.3l-2.1,0.8L112.7,56.3z"/>
			<path class="st3" d="M121.8,51.2l2.1-0.6l3.2,11.4l-2.1,0.6L121.8,51.2z"/>
			<path class="st3" d="M138.7,56.8l-5.9,1l-0.7,2.9l-2.2,0.4l3.3-12.6l2.1-0.4l7.2,10.8l-2.3,0.4L138.7,56.8z M137.7,55.2l-3.1-4.8
				l-1.3,5.5L137.7,55.2z"/>
			<path class="st3" d="M145.1,47l2.2-0.1l0.3,10l6.2-0.2l0.1,1.9l-8.4,0.3L145.1,47z"/>
			<path class="st3" d="M174.3,53.4c-0.4,2.6-2.6,3.8-5.7,3.3l-2.6-0.4l-0.6,3.4l-2.2-0.4l1.9-11.7l4.8,0.8
				C173.1,48.9,174.7,50.8,174.3,53.4z M172.1,53c0.2-1.5-0.6-2.5-2.5-2.8l-2.5-0.4l-0.8,4.7l2.5,0.4
				C170.7,55.2,171.8,54.5,172.1,53z"/>
			<path class="st3" d="M179.9,50.5l2.1,0.6l-2.9,9.6l5.9,1.8l-0.5,1.8l-8-2.5L179.9,50.5z"/>
			<path class="st3" d="M189,59.6c1.5-3.2,5.1-4.4,8.4-2.8c3.3,1.6,4.7,5.1,3.2,8.3c-1.5,3.2-5.1,4.4-8.4,2.8
				C188.8,66.2,187.5,62.7,189,59.6z M198.6,64c1-2.2,0.2-4.5-2-5.6c-2.2-1-4.5-0.2-5.6,2c-1,2.2-0.2,4.5,2,5.6
				C195.2,67.1,197.5,66.2,198.6,64z"/>
			<path class="st3" d="M208.5,65.2l-3.3-2.2l1-1.6l8.4,5.5l-1,1.6l-3.3-2.2l-5.5,8.4l-1.8-1.2L208.5,65.2z"/>
			<path class="st3" d="M215.5,81.2l1.7-0.7c0.2,1.2,0.9,2.6,1.9,3.7c1.3,1.3,2.4,1.4,3,0.7c1.8-1.8-4.5-5.5-1.4-8.7
				c1.3-1.4,3.6-1.5,5.9,0.8c1,1,1.8,2.3,2.1,3.5l-1.7,0.7c-0.3-1.2-1-2.2-1.7-2.9c-1.3-1.3-2.4-1.3-3-0.6c-1.8,1.8,4.5,5.5,1.4,8.7
				c-1.3,1.4-3.6,1.5-5.9-0.8C216.5,84.2,215.6,82.5,215.5,81.2z"/>
			<path class="st3" d="M232.8,83.8l1.4,1.7l-9.1,7.7l-1.4-1.7L232.8,83.8z"/>
			<path class="st3" d="M234.9,103.3l-1.5,1.1l-5.7-8.4l1.2-0.8l11,0.9l-3.9-5.7l1.5-1.1l5.5,8.1l-1.2,0.8l-11-0.9L234.9,103.3z"/>
			<path class="st3" d="M240.6,114.4l-1.7,0.8l-4-8l10.6-5.4l3.9,7.7l-1.7,0.8l-2.9-5.8l-2.8,1.4l2.6,5.1l-1.6,0.8l-2.6-5.1
				l-2.9,1.5L240.6,114.4z"/>
			<path class="st3" d="M241.3,117.4l1.9,0.2c-0.4,1.1-0.4,2.8,0.1,4.1c0.6,1.7,1.5,2.3,2.3,2c2.4-0.8-1.5-7,2.7-8.4
				c1.8-0.6,3.9,0.3,4.9,3.3c0.5,1.3,0.6,2.9,0.3,4.1l-1.8-0.1c0.2-1.2,0.1-2.4-0.2-3.4c-0.6-1.7-1.5-2.2-2.4-1.9
				c-2.4,0.8,1.5,6.9-2.6,8.4c-1.8,0.6-3.8-0.3-4.9-3.4C240.9,120.5,240.8,118.6,241.3,117.4z"/>
		</g>
	</g>
	<g>
		<polygon class="st3" points="62.1,187.6 63.9,191.4 68,192 65,194.9 65.8,199 62.1,197.1 58.3,199 59.1,194.9 56.1,192 
			60.2,191.4 		"/>
		<polygon class="st3" points="56.1,168.7 57,170.5 59,170.8 57.5,172.2 57.9,174.2 56.1,173.3 54.2,174.2 54.6,172.2 53.1,170.8 
			55.1,170.5 		"/>
		<polygon class="st3" points="75.9,212.2 76.8,214.1 78.9,214.4 77.4,215.8 77.7,217.8 75.9,216.8 74.1,217.8 74.5,215.8 73,214.4 
			75,214.1 		"/>
	</g>
	<g>
		<polygon class="st3" points="241.4,187.6 239.5,191.4 235.4,192 238.4,194.9 237.7,199 241.4,197.1 245.1,199 244.4,194.9 
			247.4,192 243.2,191.4 		"/>
		<polygon class="st3" points="247.4,168.7 246.5,170.5 244.4,170.8 245.9,172.2 245.6,174.2 247.4,173.3 249.2,174.2 248.8,172.2 
			250.3,170.8 248.3,170.5 		"/>
		<polygon class="st3" points="227.5,212.2 226.6,214.1 224.6,214.4 226,215.8 225.7,217.8 227.5,216.8 229.3,217.8 228.9,215.8 
			230.4,214.4 228.4,214.1 		"/>
	</g>
</g>
<g>
	<path class="st3" d="M148.5,253.3c-0.8-0.1-1.6-0.1-2.4-0.2c-3.9-0.3-7.8-0.9-11.5-2.1c-1.9-0.6-3.7-1.4-5.3-2.6
		c-1.2-0.9-2.2-2-2.5-3.5c-0.3-1.3,0-2.5,0.8-3.5c0.9-1.2,2.1-2.1,3.4-2.8c0.7-0.3,1.5-0.1,1.8,0.6c0.4,0.7,0.2,1.4-0.5,1.9
		c-0.5,0.4-1.1,0.7-1.6,1.1c-1.6,1.3-1.6,2.4,0,3.7c1.4,1.1,3,1.8,4.7,2.4c3.1,1.1,6.4,1.6,9.7,1.9c3.7,0.4,7.4,0.4,11.1,0.1
		c4.4-0.4,8.7-1,12.8-2.8c1-0.5,2-1,2.8-1.8c1.1-1.1,1.1-2,0-3.1c-0.6-0.5-1.2-0.9-1.8-1.3c-0.5-0.4-0.8-0.9-0.7-1.5
		c0.1-0.6,0.5-1.1,1.2-1.2c0.3,0,0.6,0,0.9,0.1c1.3,0.7,2.5,1.4,3.3,2.7c0.4,0.6,0.7,1.4,1,2.1c0,0.4,0,0.8,0,1.1
		c-0.4,2.1-1.8,3.5-3.6,4.4c-1.3,0.7-2.7,1.3-4.1,1.8c-3.8,1.3-7.7,1.9-11.7,2.2c-0.8,0.1-1.7,0.1-2.5,0.2
		C151.9,253.3,150.2,253.3,148.5,253.3z"/>
	<path class="st3" d="M164.4,217.5c0,1.7-0.5,3.3-1.1,4.8c-1.5,4.1-3.6,8-5.7,11.8c-1.1,1.9-2.2,3.8-3.3,5.6c-1.6,2.7-4.9,2.7-6.5,0
		c-2.9-4.8-5.7-9.6-8-14.7c-0.8-1.9-1.6-3.7-1.9-5.8c-0.4-2.6,0.1-5,1.2-7.3c2.5-5.2,8-8.1,13.7-7.3c5.6,0.7,10.1,5,11.3,10.5
		C164.2,215.9,164.3,216.7,164.4,217.5z M151,211.5c-2.9,0-5.3,2.4-5.3,5.3c0,2.9,2.4,5.3,5.3,5.4c3,0,5.4-2.4,5.4-5.4
		C156.4,213.9,154,211.5,151,211.5z"/>
	<path class="st3" d="M144.3,239.6c-2.3,0.5-4.6,0.8-6.6,2.3c0.3,0.2,0.5,0.4,0.8,0.6c1.3,0.8,2.8,1.1,4.3,1.4
		c5.6,1,11.2,1,16.8-0.1c1.2-0.2,2.4-0.7,3.6-1.1c0.4-0.1,0.7-0.4,1.2-0.7c-0.4-0.3-0.6-0.5-0.9-0.6c-1.5-0.8-3.1-1.2-4.7-1.5
		c-0.3-0.1-0.7-0.1-1-0.2c0.5-0.9,1-1.7,1.5-2.4c0.1-0.1,0.3-0.1,0.4-0.1c1.7,0.3,3.4,0.7,5,1.6c0.6,0.3,1.1,0.7,1.6,1.1
		c1.4,1.3,1.4,3.1,0,4.4c-1,1-2.3,1.5-3.6,1.9c-2.5,0.8-5,1.2-7.6,1.3c-3.2,0.2-6.4,0.2-9.7-0.2c-2.6-0.3-5.3-0.7-7.7-1.9
		c-0.7-0.3-1.3-0.8-1.9-1.3c-1.2-1.1-1.1-2.8,0-4c0.9-1,2.2-1.6,3.4-2c1.1-0.3,2.1-0.6,3.2-0.9c0.3-0.1,0.5,0,0.7,0.3
		C143.4,238.1,143.9,238.8,144.3,239.6z"/>
</g>
</svg>
