<?xml version="1.0" encoding="utf-8"?>
<!-- Generator: Adobe Illustrator 26.3.1, SVG Export Plug-In . SVG Version: 6.00 Build 0)  -->
<svg version="1.1" id="layer" xmlns="http://www.w3.org/2000/svg" xmlns:xlink="http://www.w3.org/1999/xlink" x="0px" y="0px"
	 viewBox="0 0 65.4 86.4" style="enable-background:new 0 0 65.4 86.4;" xml:space="preserve">
<style type="text/css">
	.st0{fill:#046858;}
	.st1{fill:#242424;}
</style>
<path class="st1" d="M34.8,1c1.7,0.3,3.3,0.5,5,0.8C51.9,4.6,61.6,15,63.6,27.2c1.2,7.2-0.1,14.1-2.7,20.8
	c-3.1,8-7.8,15.1-13.1,21.7c-4,5-8.3,9.7-12.9,14c-1.6,1.5-2.9,1.5-4.5,0c-8.8-8.3-16.5-17.4-22.4-28c-3.1-5.6-5.4-11.5-6.4-17.8
	C-1.2,20,10.9,4.3,27.3,1.5c1.1-0.2,2.1-0.3,3.2-0.5C31.9,1,33.3,1,34.8,1z M50.1,31.9c-0.4-9.7-8.5-17.3-17.9-17
	c-9.7,0.4-17.4,8.5-17,18c0.4,9.7,8.5,17.4,17.9,17C42.9,49.5,50.5,41.4,50.1,31.9z"/>
</svg>
