<?xml version="1.0" encoding="utf-8"?>
<!-- Generator: Adobe Illustrator 26.3.1, SVG Export Plug-In . SVG Version: 6.00 Build 0)  -->
<svg version="1.1" id="layer" xmlns="http://www.w3.org/2000/svg" xmlns:xlink="http://www.w3.org/1999/xlink" x="0px" y="0px"
	 viewBox="0 0 200 123.7" style="enable-background:new 0 0 200 123.7;" xml:space="preserve">
<style type="text/css">
	.st0{fill:#046858;}
	.st1{fill:#242424;}
</style>
<g>
	<path class="st0" d="M49.6,3.8c21.3,0,38.8,17.4,38.8,39.7c0,21.3-17.4,39.7-38.8,39.7c-15.5,0-14.5,13.6,0,20.3
		c5.8,1.9,10.7,4.8,10.7,10.7c-1.9,9.7-19.4,4.8-20.3,3.9C23.4,111.4,2.1,87.2,6,47.5C7,41.6,14.7,3.8,49.6,3.8z M194.9,43.6
		c0,21.3-17.4,39.7-39.7,39.7c-13.6,0-12.6,13.6,1,20.3c5.8,1.9,12.6,4.8,11.6,10.7c-1.9,9.7-18.4,4.8-20.3,3.9
		c-16.5-6.8-37.8-31-33.9-70.7c1-5.8,7.8-43.6,41.7-43.6C177.5,3.8,194.9,21.3,194.9,43.6z"/>
</g>
</svg>
