<?xml version="1.0" encoding="utf-8"?>
<!-- Generator: Adobe Illustrator 26.3.1, SVG Export Plug-In . SVG Version: 6.00 Build 0)  -->
<svg version="1.1" id="layer" xmlns="http://www.w3.org/2000/svg" xmlns:xlink="http://www.w3.org/1999/xlink" x="0px" y="0px"
	 viewBox="0 0 85.8 35.7" style="enable-background:new 0 0 85.8 35.7;" xml:space="preserve">
<style type="text/css">
	.st0{fill:#046858;}
	.st1{fill:#242424;}
</style>
<path class="st0" d="M14.7,18.2c0.6-0.5,1.2-1,1.7-1.5c1.4-1.2,2.8-2.5,4.2-3.7c0.4-0.3,0.4-0.7,0.2-1.1c-0.2-0.3-0.6-0.5-1-0.4
	c-0.2,0-0.3,0.1-0.4,0.2c-2.2,1.9-4.4,3.8-6.6,5.8c-0.5,0.4-0.5,1,0,1.4c2.2,1.9,4.4,3.8,6.6,5.8c0.4,0.4,1,0.4,1.3,0
	c0.3-0.4,0.3-0.9-0.2-1.3c-1.9-1.7-3.8-3.3-5.7-5C14.8,18.3,14.8,18.2,14.7,18.2z"/>
<path class="st0" d="M14.6,19h69.7c0.4,0,0.8-0.4,0.8-0.8v0c0-0.4-0.4-0.8-0.8-0.8H14.6V19z"/>
<g>
	<path class="st0" d="M0.9,15.9C1.3,12.5,2.7,9.6,4.9,7c2.6-2.9,5.8-4.8,9.7-5.5c0.6-0.1,1.2-0.2,1.8-0.3c0.8,0,1.6,0,2.4,0
		c0.6,0.1,1.2,0.2,1.8,0.3c4,0.7,7.3,2.6,9.9,5.6c1.3,1.5,2.3,3.1,2.9,4.9c0.2,0.6-0.2,1.2-0.8,1.2h0c-0.4,0-0.7-0.2-0.8-0.6
		C29.6,7,24.1,3,17.6,3C9.2,3,2.4,9.8,2.4,18.2c0,8.4,6.8,15.2,15.2,15.2c6.4,0,11.9-4,14.1-9.7c0.1-0.3,0.4-0.5,0.8-0.5l0,0
		c0.6,0,1,0.6,0.8,1.2c-2.8,7.3-10.6,11.9-18.5,10.5C10.6,34.1,7,32,4.3,28.6C1.4,24.9,0.3,20.6,0.9,15.9z"/>
</g>
</svg>
