<?xml version="1.0" encoding="utf-8"?>
<!-- Generator: Adobe Illustrator 26.3.1, SVG Export Plug-In . SVG Version: 6.00 Build 0)  -->
<svg version="1.1" id="layer" xmlns="http://www.w3.org/2000/svg" xmlns:xlink="http://www.w3.org/1999/xlink" x="0px" y="0px"
	 viewBox="0 0 85.8 35.7" style="enable-background:new 0 0 85.8 35.7;" xml:space="preserve">
<style type="text/css">
	.st0{fill:#046858;}
	.st1{fill:#242424;}
</style>
<path class="st0" d="M71.1,18.2c-0.6-0.5-1.2-1-1.7-1.5c-1.4-1.2-2.8-2.5-4.2-3.7c-0.4-0.3-0.4-0.7-0.2-1.1c0.2-0.3,0.6-0.5,1-0.4
	c0.2,0,0.3,0.1,0.4,0.2c2.2,1.9,4.4,3.8,6.6,5.8c0.5,0.4,0.5,1,0,1.4c-2.2,1.9-4.4,3.8-6.6,5.8c-0.4,0.4-1,0.4-1.3,0
	c-0.3-0.4-0.3-0.9,0.2-1.3c1.9-1.7,3.8-3.3,5.7-5C70.9,18.3,71,18.2,71.1,18.2z"/>
<path class="st0" d="M71.2,19H1.5c-0.4,0-0.8-0.4-0.8-0.8v0c0-0.4,0.4-0.8,0.8-0.8h69.7V19z"/>
<g>
	<path class="st0" d="M84.9,15.9c-0.4-3.4-1.8-6.3-4.1-8.8c-2.6-2.9-5.8-4.8-9.7-5.5c-0.6-0.1-1.2-0.2-1.8-0.3c-0.8,0-1.6,0-2.4,0
		c-0.6,0.1-1.2,0.2-1.8,0.3c-4,0.7-7.3,2.6-9.9,5.6c-1.3,1.5-2.3,3.1-2.9,4.9c-0.2,0.6,0.2,1.2,0.8,1.2h0c0.4,0,0.7-0.2,0.8-0.6
		C56.2,7,61.7,3,68.2,3c8.4,0,15.2,6.8,15.2,15.2c0,8.4-6.8,15.2-15.2,15.2c-6.4,0-11.9-4-14.1-9.7c-0.1-0.3-0.4-0.5-0.8-0.5l0,0
		c-0.6,0-1,0.6-0.8,1.2C55.3,31.6,63,36.2,71,34.8c4.3-0.7,7.8-2.8,10.5-6.2C84.4,24.9,85.5,20.6,84.9,15.9z"/>
</g>
</svg>
