<?xml version="1.0" encoding="utf-8"?>
<!-- Generator: Adobe Illustrator 26.3.1, SVG Export Plug-In . SVG Version: 6.00 Build 0)  -->
<svg version="1.1" id="Layer_1" xmlns="http://www.w3.org/2000/svg" xmlns:xlink="http://www.w3.org/1999/xlink" x="0px" y="0px"
	 viewBox="0 0 595.3 253.9" style="enable-background:new 0 0 595.3 253.9;" xml:space="preserve">
<path d="M579.9,107.4C546.1,75.2,512.3,43,478.5,10.8c-7.6-7.3-18.6-4.7-20.9,4.8c-1.2,5,0.7,8.9,4.3,12.4l68.9,86.2l-510.4,0.1
	c-2.1,0-4.3,0.1-6.3,0.7c-5.3,1.7-8.6,6.9-8.1,12.3c-0.5,5.4,2.8,10.6,8.1,12.3c2,0.6,4.2,0.7,6.3,0.7l510.4,0.1l-68.9,86.2
	c-3.6,3.4-5.5,7.4-4.3,12.4c2.4,9.6,13.3,12.1,20.9,4.8c33.8-32.2,67.6-64.3,101.4-96.5c6.5-6.2,9.5-13.1,9.2-20
	C589.4,120.5,586.4,113.5,579.9,107.4z"/>
</svg>
