<?xml version="1.0" encoding="utf-8"?>
<!-- Generator: Adobe Illustrator 26.3.1, SVG Export Plug-In . SVG Version: 6.00 Build 0)  -->
<svg version="1.1" id="Layer_1" xmlns="http://www.w3.org/2000/svg" xmlns:xlink="http://www.w3.org/1999/xlink" x="0px" y="0px"
	 viewBox="0 0 200 200" style="enable-background:new 0 0 200 200;" xml:space="preserve">
<style type="text/css">
	.st0{fill:#006757;}
	.st1{fill:#FFFFFF;}
	.st2{opacity:0.3;fill:none;stroke:#006757;stroke-width:2;stroke-miterlimit:10;}
</style>
<path class="st0" d="M177,100.6c0,42.3-35.3,77.7-77.7,77.7s-75.7-35.3-75.7-77.7S58,23.9,100.3,23.9S177,58.3,177,100.6z"/>
<g>
	<path class="st1" d="M95.6,70.6c1.1,0,2.3,0,3.4,0c0.6,0.1,1.1,0.2,1.7,0.2c6.2,0.8,11.6,3.4,15.9,7.9c4.6,4.8,7.2,10.5,7.6,17.1
		c0.3,4.2-0.3,8.3-2,12.1c-0.6,1.4-1.3,2.7-2.1,4.2c0.1,0.1,0.3,0.2,0.4,0.3c2.3,2.3,4.6,4.7,7,6.9c1.3,1.3,2.5,2.7,2.8,4.6
		c0,0.4,0,0.8,0,1.2c0,0.1-0.1,0.2-0.1,0.3c-0.5,2.4-1.8,4-4.1,4.8c-2.3,0.8-4.4,0.2-6.1-1.5c-2.6-2.6-5.3-5.2-7.9-7.9
		c-0.1-0.1-0.3-0.3-0.5-0.4c-0.2,0.1-0.3,0.2-0.5,0.3c-6.2,3.8-12.9,4.8-20,3.2c-11.2-2.5-19.7-12.2-20.8-23.5
		c-0.5-5.4,0.4-10.6,3-15.4c4.1-7.6,10.5-12.2,18.9-13.8C93.5,70.9,94.6,70.8,95.6,70.6z M97.3,76.6c-11.8,0.1-21,9.3-21,21
		c0,11.8,9.2,21,21,21c11.6,0,21-9.3,21-21C118.3,85.8,109,76.7,97.3,76.6z"/>
	<path class="st1" d="M94.3,94.6c0-0.3,0-0.5,0-0.7c0-2.8,0-5.5,0-8.3c0-2.3,2.3-3.6,4.3-2.7c1.2,0.5,1.6,1.6,1.6,2.8
		c0,2.7,0,5.5,0,8.2c0,0.2,0,0.4,0,0.7c0.2,0,0.5,0,0.7,0c2.8,0,5.6,0,8.4,0c1.2,0,2.1,0.6,2.6,1.7c0.5,1.1,0.4,2.2-0.4,3.2
		c-0.6,0.8-1.5,1-2.5,1c-2.7,0-5.4,0-8.1,0c-0.2,0-0.4,0-0.7,0c0,0.2,0,0.4,0,0.6c0,2.8,0,5.5,0,8.3c0,1.6-0.8,2.6-2.2,3
		c-2.1,0.5-3.8-0.8-3.8-2.9c0-2.8,0-5.5,0-8.3c0-0.2,0-0.4,0-0.7c-0.3,0-0.5,0-0.7,0c-2.8,0-5.5,0-8.3,0c-2.7,0-3.4-2.4-2.8-4
		c0.4-1.2,1.5-1.9,2.9-1.9c2.7,0,5.5,0,8.2,0C93.9,94.6,94.1,94.6,94.3,94.6z"/>
</g>
<path class="st2" d="M197.3,100.6c0,53.5-44.4,97.9-97.9,97.9S3.4,154.1,3.4,100.6S46.8,3.7,100.3,3.7S197.3,47.1,197.3,100.6z"/>
</svg>
