<svg xmlns="http://www.w3.org/2000/svg" width="241" height="64.06" viewBox="0 0 241 64.06">
  <defs>
    <style>
      .cls-1 {
        fill: #183456;
        fill-rule: evenodd;
      }
    </style>
  </defs>
  <path class="cls-1" d="M347.583,1714.97a6.47,6.47,0,1,0,6.492,6.47A6.483,6.483,0,0,0,347.583,1714.97ZM330.9,1690.54c-14.887-5.61-25.541,10.7-15.69,18.03,4.812,3.58,12.589,2.92,15.043-3.35a5.592,5.592,0,0,0-1.413-6.5,4.22,4.22,0,0,0-6.4.56,5.5,5.5,0,0,0,1.061,7.09,5.106,5.106,0,0,0,1.717.99c-4.286,2.38-11.347-.53-11.171-6.27,0.352-11.48,20.7-13.17,24.07,1.45,1.93,8.38-4.9,16.45-12.351,17.28-7.393.83-10.476-4.21-16.223-4.68-9.47-.77-17.453,2.64-24.553,6.3,7.1,3.66,15.083,7.07,24.553,6.3,5.747-.47,8.83-5.51,16.223-4.68,7.455,0.83,14.281,8.9,12.351,17.28-3.367,14.61-23.718,12.93-24.07,1.45-0.176-5.74,6.885-8.66,11.171-6.27a5.106,5.106,0,0,0-1.717.99,5.5,5.5,0,0,0-1.061,7.09,4.213,4.213,0,0,0,6.4.55,5.577,5.577,0,0,0,1.413-6.49c-2.454-6.27-10.231-6.94-15.043-3.36-9.851,7.34.8,23.64,15.69,18.04,14.17-5.34,13.077-24.98-1.834-30.9C343.981,1715.51,345.074,1695.87,330.9,1690.54Zm28.316,32.85H526v-3.83H359.22v3.83Z" transform="translate(-285 -1689.41)"/>
</svg>
